%TF.GenerationSoftware,KiCad,Pcbnew,8.0.1*%
%TF.CreationDate,2024-10-28T19:37:41+01:00*%
%TF.ProjectId,ESP_01_MQTT,4553505f-3031-45f4-9d51-54542e6b6963,rev?*%
%TF.SameCoordinates,Original*%
%TF.FileFunction,Copper,L2,Bot*%
%TF.FilePolarity,Positive*%
%FSLAX46Y46*%
G04 Gerber Fmt 4.6, Leading zero omitted, Abs format (unit mm)*
G04 Created by KiCad (PCBNEW 8.0.1) date 2024-10-28 19:37:41*
%MOMM*%
%LPD*%
G01*
G04 APERTURE LIST*
%ADD10C,0.200000*%
%TA.AperFunction,NonConductor*%
%ADD11C,0.200000*%
%TD*%
%TA.AperFunction,ComponentPad*%
%ADD12R,1.700000X1.700000*%
%TD*%
%TA.AperFunction,ComponentPad*%
%ADD13O,1.700000X1.700000*%
%TD*%
%TA.AperFunction,ComponentPad*%
%ADD14C,1.500000*%
%TD*%
%TA.AperFunction,ComponentPad*%
%ADD15C,2.600000*%
%TD*%
%TA.AperFunction,ComponentPad*%
%ADD16R,2.540000X2.540000*%
%TD*%
%TA.AperFunction,ComponentPad*%
%ADD17C,2.540000*%
%TD*%
%TA.AperFunction,ComponentPad*%
%ADD18R,1.600000X1.600000*%
%TD*%
%TA.AperFunction,ComponentPad*%
%ADD19C,1.600000*%
%TD*%
%TA.AperFunction,ComponentPad*%
%ADD20R,2.200000X2.200000*%
%TD*%
%TA.AperFunction,ComponentPad*%
%ADD21O,2.200000X2.200000*%
%TD*%
%TA.AperFunction,ComponentPad*%
%ADD22O,1.600000X1.600000*%
%TD*%
%TA.AperFunction,ComponentPad*%
%ADD23R,1.727200X1.727200*%
%TD*%
%TA.AperFunction,ComponentPad*%
%ADD24O,1.727200X1.727200*%
%TD*%
%TA.AperFunction,ViaPad*%
%ADD25C,1.000000*%
%TD*%
%TA.AperFunction,ViaPad*%
%ADD26C,0.600000*%
%TD*%
%TA.AperFunction,Conductor*%
%ADD27C,0.500000*%
%TD*%
%TA.AperFunction,Conductor*%
%ADD28C,0.250000*%
%TD*%
G04 APERTURE END LIST*
D10*
D11*
X153333247Y-129032191D02*
X154333247Y-129365524D01*
X154333247Y-129365524D02*
X153333247Y-129698857D01*
X153333247Y-130222667D02*
X153333247Y-130317905D01*
X153333247Y-130317905D02*
X153380866Y-130413143D01*
X153380866Y-130413143D02*
X153428485Y-130460762D01*
X153428485Y-130460762D02*
X153523723Y-130508381D01*
X153523723Y-130508381D02*
X153714199Y-130556000D01*
X153714199Y-130556000D02*
X153952294Y-130556000D01*
X153952294Y-130556000D02*
X154142770Y-130508381D01*
X154142770Y-130508381D02*
X154238008Y-130460762D01*
X154238008Y-130460762D02*
X154285628Y-130413143D01*
X154285628Y-130413143D02*
X154333247Y-130317905D01*
X154333247Y-130317905D02*
X154333247Y-130222667D01*
X154333247Y-130222667D02*
X154285628Y-130127429D01*
X154285628Y-130127429D02*
X154238008Y-130079810D01*
X154238008Y-130079810D02*
X154142770Y-130032191D01*
X154142770Y-130032191D02*
X153952294Y-129984572D01*
X153952294Y-129984572D02*
X153714199Y-129984572D01*
X153714199Y-129984572D02*
X153523723Y-130032191D01*
X153523723Y-130032191D02*
X153428485Y-130079810D01*
X153428485Y-130079810D02*
X153380866Y-130127429D01*
X153380866Y-130127429D02*
X153333247Y-130222667D01*
X154238008Y-130984572D02*
X154285628Y-131032191D01*
X154285628Y-131032191D02*
X154333247Y-130984572D01*
X154333247Y-130984572D02*
X154285628Y-130936953D01*
X154285628Y-130936953D02*
X154238008Y-130984572D01*
X154238008Y-130984572D02*
X154333247Y-130984572D01*
X153333247Y-131651238D02*
X153333247Y-131746476D01*
X153333247Y-131746476D02*
X153380866Y-131841714D01*
X153380866Y-131841714D02*
X153428485Y-131889333D01*
X153428485Y-131889333D02*
X153523723Y-131936952D01*
X153523723Y-131936952D02*
X153714199Y-131984571D01*
X153714199Y-131984571D02*
X153952294Y-131984571D01*
X153952294Y-131984571D02*
X154142770Y-131936952D01*
X154142770Y-131936952D02*
X154238008Y-131889333D01*
X154238008Y-131889333D02*
X154285628Y-131841714D01*
X154285628Y-131841714D02*
X154333247Y-131746476D01*
X154333247Y-131746476D02*
X154333247Y-131651238D01*
X154333247Y-131651238D02*
X154285628Y-131556000D01*
X154285628Y-131556000D02*
X154238008Y-131508381D01*
X154238008Y-131508381D02*
X154142770Y-131460762D01*
X154142770Y-131460762D02*
X153952294Y-131413143D01*
X153952294Y-131413143D02*
X153714199Y-131413143D01*
X153714199Y-131413143D02*
X153523723Y-131460762D01*
X153523723Y-131460762D02*
X153428485Y-131508381D01*
X153428485Y-131508381D02*
X153380866Y-131556000D01*
X153380866Y-131556000D02*
X153333247Y-131651238D01*
X155038429Y-126460762D02*
X154990810Y-126508381D01*
X154990810Y-126508381D02*
X154943191Y-126603619D01*
X154943191Y-126603619D02*
X154943191Y-126841714D01*
X154943191Y-126841714D02*
X154990810Y-126936952D01*
X154990810Y-126936952D02*
X155038429Y-126984571D01*
X155038429Y-126984571D02*
X155133667Y-127032190D01*
X155133667Y-127032190D02*
X155228905Y-127032190D01*
X155228905Y-127032190D02*
X155371762Y-126984571D01*
X155371762Y-126984571D02*
X155943191Y-126413143D01*
X155943191Y-126413143D02*
X155943191Y-127032190D01*
X155371762Y-127603619D02*
X155324143Y-127508381D01*
X155324143Y-127508381D02*
X155276524Y-127460762D01*
X155276524Y-127460762D02*
X155181286Y-127413143D01*
X155181286Y-127413143D02*
X155133667Y-127413143D01*
X155133667Y-127413143D02*
X155038429Y-127460762D01*
X155038429Y-127460762D02*
X154990810Y-127508381D01*
X154990810Y-127508381D02*
X154943191Y-127603619D01*
X154943191Y-127603619D02*
X154943191Y-127794095D01*
X154943191Y-127794095D02*
X154990810Y-127889333D01*
X154990810Y-127889333D02*
X155038429Y-127936952D01*
X155038429Y-127936952D02*
X155133667Y-127984571D01*
X155133667Y-127984571D02*
X155181286Y-127984571D01*
X155181286Y-127984571D02*
X155276524Y-127936952D01*
X155276524Y-127936952D02*
X155324143Y-127889333D01*
X155324143Y-127889333D02*
X155371762Y-127794095D01*
X155371762Y-127794095D02*
X155371762Y-127603619D01*
X155371762Y-127603619D02*
X155419381Y-127508381D01*
X155419381Y-127508381D02*
X155467000Y-127460762D01*
X155467000Y-127460762D02*
X155562238Y-127413143D01*
X155562238Y-127413143D02*
X155752714Y-127413143D01*
X155752714Y-127413143D02*
X155847952Y-127460762D01*
X155847952Y-127460762D02*
X155895572Y-127508381D01*
X155895572Y-127508381D02*
X155943191Y-127603619D01*
X155943191Y-127603619D02*
X155943191Y-127794095D01*
X155943191Y-127794095D02*
X155895572Y-127889333D01*
X155895572Y-127889333D02*
X155847952Y-127936952D01*
X155847952Y-127936952D02*
X155752714Y-127984571D01*
X155752714Y-127984571D02*
X155562238Y-127984571D01*
X155562238Y-127984571D02*
X155467000Y-127936952D01*
X155467000Y-127936952D02*
X155419381Y-127889333D01*
X155419381Y-127889333D02*
X155371762Y-127794095D01*
X155847952Y-128413143D02*
X155895572Y-128460762D01*
X155895572Y-128460762D02*
X155943191Y-128413143D01*
X155943191Y-128413143D02*
X155895572Y-128365524D01*
X155895572Y-128365524D02*
X155847952Y-128413143D01*
X155847952Y-128413143D02*
X155943191Y-128413143D01*
X155943191Y-129413142D02*
X155943191Y-128841714D01*
X155943191Y-129127428D02*
X154943191Y-129127428D01*
X154943191Y-129127428D02*
X155086048Y-129032190D01*
X155086048Y-129032190D02*
X155181286Y-128936952D01*
X155181286Y-128936952D02*
X155228905Y-128841714D01*
X154943191Y-130032190D02*
X154943191Y-130127428D01*
X154943191Y-130127428D02*
X154990810Y-130222666D01*
X154990810Y-130222666D02*
X155038429Y-130270285D01*
X155038429Y-130270285D02*
X155133667Y-130317904D01*
X155133667Y-130317904D02*
X155324143Y-130365523D01*
X155324143Y-130365523D02*
X155562238Y-130365523D01*
X155562238Y-130365523D02*
X155752714Y-130317904D01*
X155752714Y-130317904D02*
X155847952Y-130270285D01*
X155847952Y-130270285D02*
X155895572Y-130222666D01*
X155895572Y-130222666D02*
X155943191Y-130127428D01*
X155943191Y-130127428D02*
X155943191Y-130032190D01*
X155943191Y-130032190D02*
X155895572Y-129936952D01*
X155895572Y-129936952D02*
X155847952Y-129889333D01*
X155847952Y-129889333D02*
X155752714Y-129841714D01*
X155752714Y-129841714D02*
X155562238Y-129794095D01*
X155562238Y-129794095D02*
X155324143Y-129794095D01*
X155324143Y-129794095D02*
X155133667Y-129841714D01*
X155133667Y-129841714D02*
X155038429Y-129889333D01*
X155038429Y-129889333D02*
X154990810Y-129936952D01*
X154990810Y-129936952D02*
X154943191Y-130032190D01*
X155847952Y-130794095D02*
X155895572Y-130841714D01*
X155895572Y-130841714D02*
X155943191Y-130794095D01*
X155943191Y-130794095D02*
X155895572Y-130746476D01*
X155895572Y-130746476D02*
X155847952Y-130794095D01*
X155847952Y-130794095D02*
X155943191Y-130794095D01*
X155038429Y-131222666D02*
X154990810Y-131270285D01*
X154990810Y-131270285D02*
X154943191Y-131365523D01*
X154943191Y-131365523D02*
X154943191Y-131603618D01*
X154943191Y-131603618D02*
X154990810Y-131698856D01*
X154990810Y-131698856D02*
X155038429Y-131746475D01*
X155038429Y-131746475D02*
X155133667Y-131794094D01*
X155133667Y-131794094D02*
X155228905Y-131794094D01*
X155228905Y-131794094D02*
X155371762Y-131746475D01*
X155371762Y-131746475D02*
X155943191Y-131175047D01*
X155943191Y-131175047D02*
X155943191Y-131794094D01*
X154943191Y-132413142D02*
X154943191Y-132508380D01*
X154943191Y-132508380D02*
X154990810Y-132603618D01*
X154990810Y-132603618D02*
X155038429Y-132651237D01*
X155038429Y-132651237D02*
X155133667Y-132698856D01*
X155133667Y-132698856D02*
X155324143Y-132746475D01*
X155324143Y-132746475D02*
X155562238Y-132746475D01*
X155562238Y-132746475D02*
X155752714Y-132698856D01*
X155752714Y-132698856D02*
X155847952Y-132651237D01*
X155847952Y-132651237D02*
X155895572Y-132603618D01*
X155895572Y-132603618D02*
X155943191Y-132508380D01*
X155943191Y-132508380D02*
X155943191Y-132413142D01*
X155943191Y-132413142D02*
X155895572Y-132317904D01*
X155895572Y-132317904D02*
X155847952Y-132270285D01*
X155847952Y-132270285D02*
X155752714Y-132222666D01*
X155752714Y-132222666D02*
X155562238Y-132175047D01*
X155562238Y-132175047D02*
X155324143Y-132175047D01*
X155324143Y-132175047D02*
X155133667Y-132222666D01*
X155133667Y-132222666D02*
X155038429Y-132270285D01*
X155038429Y-132270285D02*
X154990810Y-132317904D01*
X154990810Y-132317904D02*
X154943191Y-132413142D01*
X155038429Y-133127428D02*
X154990810Y-133175047D01*
X154990810Y-133175047D02*
X154943191Y-133270285D01*
X154943191Y-133270285D02*
X154943191Y-133508380D01*
X154943191Y-133508380D02*
X154990810Y-133603618D01*
X154990810Y-133603618D02*
X155038429Y-133651237D01*
X155038429Y-133651237D02*
X155133667Y-133698856D01*
X155133667Y-133698856D02*
X155228905Y-133698856D01*
X155228905Y-133698856D02*
X155371762Y-133651237D01*
X155371762Y-133651237D02*
X155943191Y-133079809D01*
X155943191Y-133079809D02*
X155943191Y-133698856D01*
X155276524Y-134555999D02*
X155943191Y-134555999D01*
X154895572Y-134317904D02*
X155609857Y-134079809D01*
X155609857Y-134079809D02*
X155609857Y-134698856D01*
D12*
%TO.P,J8,1,Pin_1*%
%TO.N,GND*%
X119380000Y-106172000D03*
D13*
%TO.P,J8,2,Pin_2*%
%TO.N,/PC5*%
X119380000Y-103632000D03*
%TO.P,J8,3,Pin_3*%
%TO.N,/PC4*%
X119380000Y-101092000D03*
%TO.P,J8,4,Pin_4*%
%TO.N,/PC3*%
X119380000Y-98552000D03*
%TO.P,J8,5,Pin_5*%
%TO.N,+5V*%
X119380000Y-96012000D03*
%TD*%
D14*
%TO.P,Y1,1,1*%
%TO.N,Net-(U3-PB7{slash}XTAL2)*%
X146812000Y-81878000D03*
%TO.P,Y1,2,2*%
%TO.N,Net-(U3-PB6{slash}XTAL1)*%
X146812000Y-86758000D03*
%TD*%
D15*
%TO.P,J3,1,Pin_1*%
%TO.N,Net-(D2-K)*%
X133604000Y-56308000D03*
X133604000Y-51308000D03*
%TD*%
D12*
%TO.P,J6,1,Pin_1*%
%TO.N,/AVR_TX*%
X141732000Y-112776000D03*
%TD*%
D16*
%TO.P,M1,1,IN+*%
%TO.N,+12V*%
X152908000Y-65024000D03*
D17*
%TO.P,M1,2,IN-*%
%TO.N,GND*%
X135128000Y-65024000D03*
%TO.P,M1,3,OUT+*%
%TO.N,+5V*%
X135128000Y-105664000D03*
%TO.P,M1,4,OUT-*%
%TO.N,GND*%
X152908000Y-105664000D03*
%TD*%
D15*
%TO.P,J1,1,Pin_1*%
%TO.N,Net-(D1-A)*%
X153924000Y-56308000D03*
X153924000Y-51308000D03*
%TD*%
%TO.P,J2,1,Pin_1*%
%TO.N,GND*%
X148844000Y-56308000D03*
X148844000Y-51308000D03*
%TD*%
D18*
%TO.P,C2,1*%
%TO.N,+3.3V*%
X126044888Y-120396000D03*
D19*
%TO.P,C2,2*%
%TO.N,GND*%
X128044888Y-120396000D03*
%TD*%
D20*
%TO.P,D2,1,K*%
%TO.N,Net-(D2-K)*%
X141966000Y-65455000D03*
D21*
%TO.P,D2,2,A*%
%TO.N,Net-(D2-A)*%
X141966000Y-75615000D03*
%TD*%
D20*
%TO.P,D1,1,K*%
%TO.N,+12V*%
X147046000Y-75615000D03*
D21*
%TO.P,D1,2,A*%
%TO.N,Net-(D1-A)*%
X147046000Y-65455000D03*
%TD*%
D15*
%TO.P,J4,1,Pin_1*%
%TO.N,/12V_SenIN*%
X138684000Y-56308000D03*
X138684000Y-51308000D03*
%TD*%
D18*
%TO.P,U3,1,PC6/~{RESET}*%
%TO.N,/RST{slash}*%
X130556000Y-106172000D03*
D22*
%TO.P,U3,2,PD0*%
%TO.N,/AVR_RX*%
X130556000Y-103632000D03*
%TO.P,U3,3,PD1*%
%TO.N,/AVR_TX*%
X130556000Y-101092000D03*
%TO.P,U3,4,PD2*%
%TO.N,/SenIN*%
X130556000Y-98552000D03*
%TO.P,U3,5,PD3*%
%TO.N,/ESP_GPIO0*%
X130556000Y-96012000D03*
%TO.P,U3,6,PD4*%
%TO.N,/ESP_GPIO2*%
X130556000Y-93472000D03*
%TO.P,U3,7,VCC*%
%TO.N,+5V*%
X130556000Y-90932000D03*
%TO.P,U3,8,GND*%
%TO.N,GND*%
X130556000Y-88392000D03*
%TO.P,U3,9,PB6/XTAL1*%
%TO.N,Net-(U3-PB6{slash}XTAL1)*%
X130556000Y-85852000D03*
%TO.P,U3,10,PB7/XTAL2*%
%TO.N,Net-(U3-PB7{slash}XTAL2)*%
X130556000Y-83312000D03*
%TO.P,U3,11,PD5*%
%TO.N,unconnected-(U3-PD5-Pad11)*%
X130556000Y-80772000D03*
%TO.P,U3,12,PD6*%
%TO.N,unconnected-(U3-PD6-Pad12)*%
X130556000Y-78232000D03*
%TO.P,U3,13,PD7*%
%TO.N,/Sen_Ena*%
X130556000Y-75692000D03*
%TO.P,U3,14,PB0*%
%TO.N,/SenIN*%
X130556000Y-73152000D03*
%TO.P,U3,15,PB1*%
%TO.N,unconnected-(U3-PB1-Pad15)*%
X122936000Y-73152000D03*
%TO.P,U3,16,PB2*%
%TO.N,unconnected-(U3-PB2-Pad16)*%
X122936000Y-75692000D03*
%TO.P,U3,17,PB3*%
%TO.N,/MOSI*%
X122936000Y-78232000D03*
%TO.P,U3,18,PB4*%
%TO.N,/MISO*%
X122936000Y-80772000D03*
%TO.P,U3,19,PB5*%
%TO.N,/SCK*%
X122936000Y-83312000D03*
%TO.P,U3,20,AVCC*%
%TO.N,+5V*%
X122936000Y-85852000D03*
%TO.P,U3,21,AREF*%
%TO.N,unconnected-(U3-AREF-Pad21)*%
X122936000Y-88392000D03*
%TO.P,U3,22,AGND*%
%TO.N,GND*%
X122936000Y-90932000D03*
%TO.P,U3,23,PC0*%
%TO.N,unconnected-(U3-PC0-Pad23)*%
X122936000Y-93472000D03*
%TO.P,U3,24,PC1*%
%TO.N,unconnected-(U3-PC1-Pad24)*%
X122936000Y-96012000D03*
%TO.P,U3,25,PC2*%
%TO.N,unconnected-(U3-PC2-Pad25)*%
X122936000Y-98552000D03*
%TO.P,U3,26,PC3*%
%TO.N,/PC3*%
X122936000Y-101092000D03*
%TO.P,U3,27,PC4*%
%TO.N,/PC4*%
X122936000Y-103632000D03*
%TO.P,U3,28,PC5*%
%TO.N,/PC5*%
X122936000Y-106172000D03*
%TD*%
D15*
%TO.P,J5,1,Pin_1*%
%TO.N,GND*%
X143764000Y-56308000D03*
X143764000Y-51308000D03*
%TD*%
D23*
%TO.P,U1,1,UTXD*%
%TO.N,Net-(U1-UTXD)*%
X134112000Y-124460000D03*
D24*
%TO.P,U1,2,GND*%
%TO.N,GND*%
X136652000Y-124460000D03*
%TO.P,U1,3,CH_PD*%
%TO.N,unconnected-(U1-CH_PD-Pad3)*%
X134112000Y-127000000D03*
%TO.P,U1,4,GPIO2*%
%TO.N,/ESP_GPIO2*%
X136652000Y-127000000D03*
%TO.P,U1,5,RST*%
%TO.N,unconnected-(U1-RST-Pad5)*%
X134112000Y-129540000D03*
%TO.P,U1,6,GPIO0*%
%TO.N,/ESP_GPIO0*%
X136652000Y-129540000D03*
%TO.P,U1,7,VCC*%
%TO.N,+3.3V*%
X134112000Y-132080000D03*
%TO.P,U1,8,URXD*%
%TO.N,Net-(U1-URXD)*%
X136652000Y-132080000D03*
%TD*%
D18*
%TO.P,C1,1*%
%TO.N,+5V*%
X119888000Y-120396000D03*
D19*
%TO.P,C1,2*%
%TO.N,GND*%
X121888000Y-120396000D03*
%TD*%
D25*
%TO.N,GND*%
X138684000Y-110236000D03*
D26*
X155956000Y-81788000D03*
%TO.N,/SenIN*%
X136652000Y-73152000D03*
%TO.N,/ESP_GPIO0*%
X149352000Y-129540000D03*
%TO.N,/ESP_GPIO2*%
X150876000Y-127000000D03*
D25*
%TO.N,+5V*%
X135128000Y-80264000D03*
X140208000Y-80264000D03*
X140208000Y-87376000D03*
%TO.N,GND*%
X135128000Y-70612000D03*
X129032000Y-57325500D03*
D26*
%TO.N,/SenIN*%
X137160000Y-89408000D03*
%TO.N,/RST{slash}*%
X120396000Y-55880000D03*
X137668000Y-109220000D03*
%TO.N,/MISO*%
X122936000Y-51816000D03*
%TO.N,/MOSI*%
X123952000Y-53340000D03*
%TO.N,/12V_SenIN*%
X138176000Y-77724000D03*
%TO.N,Net-(Q1-C)*%
X131572000Y-69088000D03*
X131572000Y-64008000D03*
%TO.N,/AVR_RX*%
X139700000Y-115316000D03*
%TO.N,/Sen_Ena*%
X126492000Y-64008000D03*
%TO.N,Net-(U1-URXD)*%
X145796000Y-120396000D03*
%TD*%
D27*
%TO.N,+5V*%
X120650000Y-85852000D02*
X122936000Y-85852000D01*
X119380000Y-87122000D02*
X120650000Y-85852000D01*
X119380000Y-96012000D02*
X119380000Y-87122000D01*
%TO.N,GND*%
X123444000Y-110236000D02*
X138684000Y-110236000D01*
X119380000Y-106172000D02*
X123444000Y-110236000D01*
D28*
%TO.N,/RST{slash}*%
X118110000Y-104902000D02*
X129286000Y-104902000D01*
X129286000Y-104902000D02*
X130556000Y-106172000D01*
X117348000Y-104140000D02*
X118110000Y-104902000D01*
X117348000Y-56388000D02*
X117348000Y-104140000D01*
X117856000Y-55880000D02*
X117348000Y-56388000D01*
X120396000Y-55880000D02*
X117856000Y-55880000D01*
D27*
%TO.N,GND*%
X155956000Y-81788000D02*
X155956000Y-102616000D01*
X155956000Y-60960000D02*
X155956000Y-81788000D01*
D28*
%TO.N,Net-(U3-PB6{slash}XTAL1)*%
X145906000Y-85852000D02*
X146812000Y-86758000D01*
X130556000Y-85852000D02*
X145906000Y-85852000D01*
%TO.N,Net-(U3-PB7{slash}XTAL2)*%
X137250000Y-81878000D02*
X146812000Y-81878000D01*
X135128000Y-83312000D02*
X136652000Y-81788000D01*
X137160000Y-81788000D02*
X137250000Y-81878000D01*
X130556000Y-83312000D02*
X135128000Y-83312000D01*
X136652000Y-81788000D02*
X137160000Y-81788000D01*
%TO.N,/SenIN*%
X136652000Y-73152000D02*
X130556000Y-73152000D01*
%TO.N,/ESP_GPIO0*%
X149352000Y-97028000D02*
X149352000Y-129540000D01*
X148336000Y-96012000D02*
X149352000Y-97028000D01*
X130556000Y-96012000D02*
X148336000Y-96012000D01*
%TO.N,/ESP_GPIO2*%
X150876000Y-95504000D02*
X150876000Y-127000000D01*
X130556000Y-93472000D02*
X148844000Y-93472000D01*
X148844000Y-93472000D02*
X150876000Y-95504000D01*
D27*
%TO.N,+5V*%
X140208000Y-90424000D02*
X140208000Y-87376000D01*
X125476000Y-86868000D02*
X124460000Y-85852000D01*
X135128000Y-80264000D02*
X135636000Y-80264000D01*
X124460000Y-85852000D02*
X122936000Y-85852000D01*
X125476000Y-88392000D02*
X125476000Y-86868000D01*
X128016000Y-90932000D02*
X125476000Y-88392000D01*
X130556000Y-90932000D02*
X128016000Y-90932000D01*
X130556000Y-90932000D02*
X139700000Y-90932000D01*
X135636000Y-80264000D02*
X140208000Y-80264000D01*
X139700000Y-90932000D02*
X140208000Y-90424000D01*
%TO.N,GND*%
X136652000Y-121920000D02*
X135128000Y-120396000D01*
X135128000Y-120396000D02*
X128044888Y-120396000D01*
X129032000Y-55880000D02*
X130556000Y-54356000D01*
X129032000Y-57325500D02*
X129032000Y-55880000D01*
X135128000Y-70612000D02*
X135128000Y-65024000D01*
X130556000Y-54356000D02*
X141812000Y-54356000D01*
X141812000Y-54356000D02*
X143764000Y-56308000D01*
X136652000Y-124460000D02*
X136652000Y-121920000D01*
X155956000Y-102616000D02*
X152908000Y-105664000D01*
X152480000Y-59944000D02*
X154940000Y-59944000D01*
X154940000Y-59944000D02*
X155956000Y-60960000D01*
X148844000Y-56308000D02*
X152480000Y-59944000D01*
D28*
%TO.N,/SenIN*%
X137160000Y-88900000D02*
X137160000Y-89408000D01*
X130556000Y-73152000D02*
X132588000Y-73152000D01*
%TO.N,/RST{slash}*%
X130556000Y-108712000D02*
X131064000Y-109220000D01*
X130556000Y-106172000D02*
X130556000Y-108712000D01*
X131064000Y-109220000D02*
X137668000Y-109220000D01*
%TO.N,/MISO*%
X118364000Y-57404000D02*
X118872000Y-56896000D01*
X121412000Y-56388000D02*
X122428000Y-55372000D01*
X120904000Y-56896000D02*
X121412000Y-56388000D01*
X120396000Y-80772000D02*
X118364000Y-78740000D01*
X122936000Y-54864000D02*
X122936000Y-51816000D01*
X122936000Y-80772000D02*
X120396000Y-80772000D01*
X118872000Y-56896000D02*
X119380000Y-56896000D01*
X122428000Y-55372000D02*
X122936000Y-54864000D01*
X119380000Y-56896000D02*
X120904000Y-56896000D01*
X118364000Y-78740000D02*
X118364000Y-57404000D01*
%TO.N,/MOSI*%
X119380000Y-58420000D02*
X119888000Y-57912000D01*
X121920000Y-57912000D02*
X123952000Y-55880000D01*
X119380000Y-68580000D02*
X119380000Y-58420000D01*
X119380000Y-76200000D02*
X119380000Y-68580000D01*
X122936000Y-78232000D02*
X120396000Y-78232000D01*
X120396000Y-78232000D02*
X119380000Y-77216000D01*
X123952000Y-55880000D02*
X123952000Y-53340000D01*
X119888000Y-57912000D02*
X121920000Y-57912000D01*
X119380000Y-77216000D02*
X119380000Y-76200000D01*
%TO.N,/AVR_TX*%
X140716000Y-103124000D02*
X141732000Y-104140000D01*
X132080000Y-101092000D02*
X134112000Y-103124000D01*
X141732000Y-104140000D02*
X141732000Y-112776000D01*
X134112000Y-103124000D02*
X140716000Y-103124000D01*
X130556000Y-101092000D02*
X132080000Y-101092000D01*
%TO.N,/12V_SenIN*%
X138684000Y-77216000D02*
X138684000Y-56308000D01*
X138176000Y-77724000D02*
X138684000Y-77216000D01*
%TO.N,Net-(Q1-C)*%
X131572000Y-69088000D02*
X131572000Y-64008000D01*
%TO.N,/AVR_RX*%
X138684000Y-103632000D02*
X139700000Y-104648000D01*
X139700000Y-104648000D02*
X139700000Y-115316000D01*
X130556000Y-103632000D02*
X138684000Y-103632000D01*
%TO.N,/Sen_Ena*%
X126492000Y-74168000D02*
X126492000Y-64008000D01*
X127508000Y-75692000D02*
X126492000Y-74676000D01*
X126492000Y-74676000D02*
X126492000Y-74168000D01*
X130556000Y-75692000D02*
X127508000Y-75692000D01*
%TO.N,Net-(U1-URXD)*%
X145796000Y-130556000D02*
X145796000Y-120396000D01*
X136652000Y-132080000D02*
X144272000Y-132080000D01*
X144272000Y-132080000D02*
X145796000Y-130556000D01*
%TD*%
%TA.AperFunction,Conductor*%
%TO.N,GND*%
G36*
X121876376Y-86622185D02*
G01*
X121910912Y-86655377D01*
X121935954Y-86691141D01*
X122096858Y-86852045D01*
X122096861Y-86852047D01*
X122283266Y-86982568D01*
X122341275Y-87009618D01*
X122393714Y-87055791D01*
X122412866Y-87122984D01*
X122392650Y-87189865D01*
X122341275Y-87234382D01*
X122283267Y-87261431D01*
X122283265Y-87261432D01*
X122096858Y-87391954D01*
X121935954Y-87552858D01*
X121805432Y-87739265D01*
X121805431Y-87739267D01*
X121709261Y-87945502D01*
X121709258Y-87945511D01*
X121650366Y-88165302D01*
X121650364Y-88165313D01*
X121630532Y-88391998D01*
X121630532Y-88392001D01*
X121650364Y-88618686D01*
X121650366Y-88618697D01*
X121709258Y-88838488D01*
X121709261Y-88838497D01*
X121805431Y-89044732D01*
X121805432Y-89044734D01*
X121935954Y-89231141D01*
X122096858Y-89392045D01*
X122096861Y-89392047D01*
X122283266Y-89522568D01*
X122341865Y-89549893D01*
X122394305Y-89596065D01*
X122413457Y-89663258D01*
X122393242Y-89730139D01*
X122341867Y-89774657D01*
X122283515Y-89801867D01*
X122097179Y-89932342D01*
X121936342Y-90093179D01*
X121805865Y-90279517D01*
X121709734Y-90485673D01*
X121709730Y-90485682D01*
X121657127Y-90681999D01*
X121657128Y-90682000D01*
X122620314Y-90682000D01*
X122615920Y-90686394D01*
X122563259Y-90777606D01*
X122536000Y-90879339D01*
X122536000Y-90984661D01*
X122563259Y-91086394D01*
X122615920Y-91177606D01*
X122620314Y-91182000D01*
X121657128Y-91182000D01*
X121709730Y-91378317D01*
X121709734Y-91378326D01*
X121805865Y-91584482D01*
X121936342Y-91770820D01*
X122097179Y-91931657D01*
X122283518Y-92062134D01*
X122283520Y-92062135D01*
X122341865Y-92089342D01*
X122394305Y-92135514D01*
X122413457Y-92202707D01*
X122393242Y-92269589D01*
X122341867Y-92314105D01*
X122283268Y-92341431D01*
X122283264Y-92341433D01*
X122096858Y-92471954D01*
X121935954Y-92632858D01*
X121805432Y-92819265D01*
X121805431Y-92819267D01*
X121709261Y-93025502D01*
X121709258Y-93025511D01*
X121650366Y-93245302D01*
X121650364Y-93245313D01*
X121630532Y-93471998D01*
X121630532Y-93472001D01*
X121650364Y-93698686D01*
X121650366Y-93698697D01*
X121709258Y-93918488D01*
X121709261Y-93918497D01*
X121805431Y-94124732D01*
X121805432Y-94124734D01*
X121935954Y-94311141D01*
X122096858Y-94472045D01*
X122096861Y-94472047D01*
X122283266Y-94602568D01*
X122341275Y-94629618D01*
X122393714Y-94675791D01*
X122412866Y-94742984D01*
X122392650Y-94809865D01*
X122341275Y-94854382D01*
X122283267Y-94881431D01*
X122283265Y-94881432D01*
X122096858Y-95011954D01*
X121935954Y-95172858D01*
X121805432Y-95359265D01*
X121805431Y-95359267D01*
X121709261Y-95565502D01*
X121709258Y-95565511D01*
X121650366Y-95785302D01*
X121650364Y-95785313D01*
X121630532Y-96011998D01*
X121630532Y-96012001D01*
X121650364Y-96238686D01*
X121650366Y-96238697D01*
X121709258Y-96458488D01*
X121709261Y-96458497D01*
X121805431Y-96664732D01*
X121805432Y-96664734D01*
X121935954Y-96851141D01*
X122096858Y-97012045D01*
X122096861Y-97012047D01*
X122283266Y-97142568D01*
X122341275Y-97169618D01*
X122393714Y-97215791D01*
X122412866Y-97282984D01*
X122392650Y-97349865D01*
X122341275Y-97394382D01*
X122283267Y-97421431D01*
X122283265Y-97421432D01*
X122096858Y-97551954D01*
X121935954Y-97712858D01*
X121805432Y-97899265D01*
X121805431Y-97899267D01*
X121709261Y-98105502D01*
X121709258Y-98105511D01*
X121650366Y-98325302D01*
X121650364Y-98325313D01*
X121630532Y-98551998D01*
X121630532Y-98552001D01*
X121650364Y-98778686D01*
X121650366Y-98778697D01*
X121709258Y-98998488D01*
X121709261Y-98998497D01*
X121805431Y-99204732D01*
X121805432Y-99204734D01*
X121935954Y-99391141D01*
X122096858Y-99552045D01*
X122096861Y-99552047D01*
X122283266Y-99682568D01*
X122341275Y-99709618D01*
X122393714Y-99755791D01*
X122412866Y-99822984D01*
X122392650Y-99889865D01*
X122341275Y-99934382D01*
X122283267Y-99961431D01*
X122283265Y-99961432D01*
X122096858Y-100091954D01*
X121935954Y-100252858D01*
X121805432Y-100439265D01*
X121805431Y-100439267D01*
X121709261Y-100645502D01*
X121709258Y-100645511D01*
X121650366Y-100865302D01*
X121650364Y-100865313D01*
X121630532Y-101091998D01*
X121630532Y-101092001D01*
X121650364Y-101318686D01*
X121650366Y-101318697D01*
X121709258Y-101538488D01*
X121709261Y-101538497D01*
X121805431Y-101744732D01*
X121805432Y-101744734D01*
X121935954Y-101931141D01*
X122096858Y-102092045D01*
X122096861Y-102092047D01*
X122283266Y-102222568D01*
X122336141Y-102247224D01*
X122341275Y-102249618D01*
X122393714Y-102295791D01*
X122412866Y-102362984D01*
X122392650Y-102429865D01*
X122341275Y-102474382D01*
X122283266Y-102501432D01*
X122096858Y-102631954D01*
X121935954Y-102792858D01*
X121805432Y-102979265D01*
X121805431Y-102979267D01*
X121709261Y-103185502D01*
X121709258Y-103185511D01*
X121650366Y-103405302D01*
X121650364Y-103405313D01*
X121630532Y-103631998D01*
X121630532Y-103632001D01*
X121650364Y-103858686D01*
X121650366Y-103858697D01*
X121709258Y-104078488D01*
X121709260Y-104078492D01*
X121709261Y-104078496D01*
X121719333Y-104100095D01*
X121729825Y-104169173D01*
X121701305Y-104232957D01*
X121642829Y-104271196D01*
X121606951Y-104276500D01*
X120764218Y-104276500D01*
X120697179Y-104256815D01*
X120651424Y-104204011D01*
X120641480Y-104134853D01*
X120651837Y-104100094D01*
X120653900Y-104095669D01*
X120653903Y-104095663D01*
X120715063Y-103867408D01*
X120735659Y-103632000D01*
X120715063Y-103396592D01*
X120653903Y-103168337D01*
X120554035Y-102954171D01*
X120553652Y-102953623D01*
X120418494Y-102760597D01*
X120251402Y-102593506D01*
X120251396Y-102593501D01*
X120065842Y-102463575D01*
X120022217Y-102408998D01*
X120015023Y-102339500D01*
X120046546Y-102277145D01*
X120065842Y-102260425D01*
X120119909Y-102222567D01*
X120251401Y-102130495D01*
X120418495Y-101963401D01*
X120554035Y-101769830D01*
X120653903Y-101555663D01*
X120715063Y-101327408D01*
X120735659Y-101092000D01*
X120715063Y-100856592D01*
X120653903Y-100628337D01*
X120554035Y-100414171D01*
X120553652Y-100413623D01*
X120418494Y-100220597D01*
X120251402Y-100053506D01*
X120251396Y-100053501D01*
X120065842Y-99923575D01*
X120022217Y-99868998D01*
X120015023Y-99799500D01*
X120046546Y-99737145D01*
X120065842Y-99720425D01*
X120119909Y-99682567D01*
X120251401Y-99590495D01*
X120418495Y-99423401D01*
X120554035Y-99229830D01*
X120653903Y-99015663D01*
X120715063Y-98787408D01*
X120735659Y-98552000D01*
X120715063Y-98316592D01*
X120653903Y-98088337D01*
X120554035Y-97874171D01*
X120540323Y-97854587D01*
X120418494Y-97680597D01*
X120251402Y-97513506D01*
X120251396Y-97513501D01*
X120065842Y-97383575D01*
X120022217Y-97328998D01*
X120015023Y-97259500D01*
X120046546Y-97197145D01*
X120065842Y-97180425D01*
X120119909Y-97142567D01*
X120251401Y-97050495D01*
X120418495Y-96883401D01*
X120554035Y-96689830D01*
X120653903Y-96475663D01*
X120715063Y-96247408D01*
X120735659Y-96012000D01*
X120715063Y-95776592D01*
X120653903Y-95548337D01*
X120554035Y-95334171D01*
X120553652Y-95333623D01*
X120418494Y-95140597D01*
X120251404Y-94973507D01*
X120183375Y-94925872D01*
X120139751Y-94871294D01*
X120130500Y-94824298D01*
X120130500Y-87484229D01*
X120150185Y-87417190D01*
X120166819Y-87396548D01*
X120924548Y-86638819D01*
X120985871Y-86605334D01*
X121012229Y-86602500D01*
X121809337Y-86602500D01*
X121876376Y-86622185D01*
G37*
%TD.AperFunction*%
%TA.AperFunction,Conductor*%
G36*
X124164809Y-86622185D02*
G01*
X124185451Y-86638819D01*
X124689181Y-87142549D01*
X124722666Y-87203872D01*
X124725500Y-87230230D01*
X124725500Y-88465918D01*
X124725500Y-88465920D01*
X124725499Y-88465920D01*
X124754340Y-88610907D01*
X124754343Y-88610917D01*
X124810912Y-88747487D01*
X124810916Y-88747495D01*
X124811377Y-88748184D01*
X124811386Y-88748214D01*
X124811394Y-88748210D01*
X124871651Y-88838393D01*
X124893051Y-88870420D01*
X124893052Y-88870421D01*
X126800239Y-90777606D01*
X127433048Y-91410415D01*
X127433049Y-91410416D01*
X127537583Y-91514950D01*
X127537585Y-91514952D01*
X127660498Y-91597080D01*
X127660511Y-91597087D01*
X127797082Y-91653656D01*
X127797087Y-91653658D01*
X127797091Y-91653658D01*
X127797092Y-91653659D01*
X127942079Y-91682500D01*
X127942082Y-91682500D01*
X129429337Y-91682500D01*
X129496376Y-91702185D01*
X129530912Y-91735377D01*
X129555954Y-91771141D01*
X129716858Y-91932045D01*
X129716861Y-91932047D01*
X129903266Y-92062568D01*
X129960681Y-92089341D01*
X129961275Y-92089618D01*
X130013714Y-92135791D01*
X130032866Y-92202984D01*
X130012650Y-92269865D01*
X129961275Y-92314382D01*
X129903267Y-92341431D01*
X129903265Y-92341432D01*
X129716858Y-92471954D01*
X129555954Y-92632858D01*
X129425432Y-92819265D01*
X129425431Y-92819267D01*
X129329261Y-93025502D01*
X129329258Y-93025511D01*
X129270366Y-93245302D01*
X129270364Y-93245313D01*
X129250532Y-93471998D01*
X129250532Y-93472001D01*
X129270364Y-93698686D01*
X129270366Y-93698697D01*
X129329258Y-93918488D01*
X129329261Y-93918497D01*
X129425431Y-94124732D01*
X129425432Y-94124734D01*
X129555954Y-94311141D01*
X129716858Y-94472045D01*
X129716861Y-94472047D01*
X129903266Y-94602568D01*
X129961275Y-94629618D01*
X130013714Y-94675791D01*
X130032866Y-94742984D01*
X130012650Y-94809865D01*
X129961275Y-94854382D01*
X129903267Y-94881431D01*
X129903265Y-94881432D01*
X129716858Y-95011954D01*
X129555954Y-95172858D01*
X129425432Y-95359265D01*
X129425431Y-95359267D01*
X129329261Y-95565502D01*
X129329258Y-95565511D01*
X129270366Y-95785302D01*
X129270364Y-95785313D01*
X129250532Y-96011998D01*
X129250532Y-96012001D01*
X129270364Y-96238686D01*
X129270366Y-96238697D01*
X129329258Y-96458488D01*
X129329261Y-96458497D01*
X129425431Y-96664732D01*
X129425432Y-96664734D01*
X129555954Y-96851141D01*
X129716858Y-97012045D01*
X129716861Y-97012047D01*
X129903266Y-97142568D01*
X129961275Y-97169618D01*
X130013714Y-97215791D01*
X130032866Y-97282984D01*
X130012650Y-97349865D01*
X129961275Y-97394382D01*
X129903267Y-97421431D01*
X129903265Y-97421432D01*
X129716858Y-97551954D01*
X129555954Y-97712858D01*
X129425432Y-97899265D01*
X129425431Y-97899267D01*
X129329261Y-98105502D01*
X129329258Y-98105511D01*
X129270366Y-98325302D01*
X129270364Y-98325313D01*
X129250532Y-98551998D01*
X129250532Y-98552001D01*
X129270364Y-98778686D01*
X129270366Y-98778697D01*
X129329258Y-98998488D01*
X129329261Y-98998497D01*
X129425431Y-99204732D01*
X129425432Y-99204734D01*
X129555954Y-99391141D01*
X129716858Y-99552045D01*
X129716861Y-99552047D01*
X129903266Y-99682568D01*
X129961275Y-99709618D01*
X130013714Y-99755791D01*
X130032866Y-99822984D01*
X130012650Y-99889865D01*
X129961275Y-99934382D01*
X129903267Y-99961431D01*
X129903265Y-99961432D01*
X129716858Y-100091954D01*
X129555954Y-100252858D01*
X129425432Y-100439265D01*
X129425431Y-100439267D01*
X129329261Y-100645502D01*
X129329258Y-100645511D01*
X129270366Y-100865302D01*
X129270364Y-100865313D01*
X129250532Y-101091998D01*
X129250532Y-101092001D01*
X129270364Y-101318686D01*
X129270366Y-101318697D01*
X129329258Y-101538488D01*
X129329261Y-101538497D01*
X129425431Y-101744732D01*
X129425432Y-101744734D01*
X129555954Y-101931141D01*
X129716858Y-102092045D01*
X129716861Y-102092047D01*
X129903266Y-102222568D01*
X129956141Y-102247224D01*
X129961275Y-102249618D01*
X130013714Y-102295791D01*
X130032866Y-102362984D01*
X130012650Y-102429865D01*
X129961275Y-102474382D01*
X129903266Y-102501432D01*
X129716858Y-102631954D01*
X129555954Y-102792858D01*
X129425432Y-102979265D01*
X129425431Y-102979267D01*
X129329261Y-103185502D01*
X129329258Y-103185511D01*
X129270366Y-103405302D01*
X129270364Y-103405313D01*
X129250532Y-103631998D01*
X129250532Y-103632001D01*
X129270364Y-103858686D01*
X129270366Y-103858697D01*
X129329258Y-104078488D01*
X129329260Y-104078492D01*
X129329261Y-104078496D01*
X129339333Y-104100095D01*
X129349825Y-104169173D01*
X129321305Y-104232957D01*
X129262829Y-104271196D01*
X129226951Y-104276500D01*
X124265049Y-104276500D01*
X124198010Y-104256815D01*
X124152255Y-104204011D01*
X124142311Y-104134853D01*
X124152667Y-104100095D01*
X124162739Y-104078496D01*
X124221635Y-103858692D01*
X124241468Y-103632000D01*
X124221635Y-103405308D01*
X124162739Y-103185504D01*
X124066568Y-102979266D01*
X123936047Y-102792861D01*
X123936045Y-102792858D01*
X123775141Y-102631954D01*
X123638598Y-102536347D01*
X123588734Y-102501432D01*
X123582446Y-102498500D01*
X123530725Y-102474382D01*
X123478285Y-102428210D01*
X123459133Y-102361017D01*
X123479348Y-102294135D01*
X123530725Y-102249618D01*
X123535859Y-102247224D01*
X123588734Y-102222568D01*
X123775139Y-102092047D01*
X123936047Y-101931139D01*
X124066568Y-101744734D01*
X124162739Y-101538496D01*
X124221635Y-101318692D01*
X124241468Y-101092000D01*
X124221635Y-100865308D01*
X124162739Y-100645504D01*
X124066568Y-100439266D01*
X123936047Y-100252861D01*
X123936045Y-100252858D01*
X123775141Y-100091954D01*
X123588734Y-99961432D01*
X123588728Y-99961429D01*
X123530725Y-99934382D01*
X123478285Y-99888210D01*
X123459133Y-99821017D01*
X123479348Y-99754135D01*
X123530725Y-99709618D01*
X123588734Y-99682568D01*
X123775139Y-99552047D01*
X123936047Y-99391139D01*
X124066568Y-99204734D01*
X124162739Y-98998496D01*
X124221635Y-98778692D01*
X124241468Y-98552000D01*
X124221635Y-98325308D01*
X124162739Y-98105504D01*
X124066568Y-97899266D01*
X123936047Y-97712861D01*
X123936045Y-97712858D01*
X123775141Y-97551954D01*
X123588734Y-97421432D01*
X123588728Y-97421429D01*
X123530725Y-97394382D01*
X123478285Y-97348210D01*
X123459133Y-97281017D01*
X123479348Y-97214135D01*
X123530725Y-97169618D01*
X123588734Y-97142568D01*
X123775139Y-97012047D01*
X123936047Y-96851139D01*
X124066568Y-96664734D01*
X124162739Y-96458496D01*
X124221635Y-96238692D01*
X124241468Y-96012000D01*
X124221635Y-95785308D01*
X124162739Y-95565504D01*
X124066568Y-95359266D01*
X123936047Y-95172861D01*
X123936045Y-95172858D01*
X123775141Y-95011954D01*
X123588734Y-94881432D01*
X123588728Y-94881429D01*
X123530725Y-94854382D01*
X123478285Y-94808210D01*
X123459133Y-94741017D01*
X123479348Y-94674135D01*
X123530725Y-94629618D01*
X123588734Y-94602568D01*
X123775139Y-94472047D01*
X123936047Y-94311139D01*
X124066568Y-94124734D01*
X124162739Y-93918496D01*
X124221635Y-93698692D01*
X124241468Y-93472000D01*
X124221635Y-93245308D01*
X124162739Y-93025504D01*
X124066568Y-92819266D01*
X123936047Y-92632861D01*
X123936045Y-92632858D01*
X123775141Y-92471954D01*
X123588734Y-92341432D01*
X123588732Y-92341431D01*
X123530725Y-92314382D01*
X123530132Y-92314105D01*
X123477694Y-92267934D01*
X123458542Y-92200740D01*
X123478758Y-92133859D01*
X123530134Y-92089341D01*
X123588484Y-92062132D01*
X123774820Y-91931657D01*
X123935657Y-91770820D01*
X124066134Y-91584482D01*
X124162265Y-91378326D01*
X124162269Y-91378317D01*
X124214872Y-91182000D01*
X123251686Y-91182000D01*
X123256080Y-91177606D01*
X123308741Y-91086394D01*
X123336000Y-90984661D01*
X123336000Y-90879339D01*
X123308741Y-90777606D01*
X123256080Y-90686394D01*
X123251686Y-90682000D01*
X124214872Y-90682000D01*
X124214872Y-90681999D01*
X124162269Y-90485682D01*
X124162265Y-90485673D01*
X124066134Y-90279517D01*
X123935657Y-90093179D01*
X123774820Y-89932342D01*
X123588482Y-89801865D01*
X123530133Y-89774657D01*
X123477694Y-89728484D01*
X123458542Y-89661291D01*
X123478758Y-89594410D01*
X123530129Y-89549895D01*
X123588734Y-89522568D01*
X123775139Y-89392047D01*
X123936047Y-89231139D01*
X124066568Y-89044734D01*
X124162739Y-88838496D01*
X124221635Y-88618692D01*
X124241468Y-88392000D01*
X124221635Y-88165308D01*
X124162739Y-87945504D01*
X124066568Y-87739266D01*
X123949541Y-87572132D01*
X123936045Y-87552858D01*
X123775141Y-87391954D01*
X123588734Y-87261432D01*
X123588728Y-87261429D01*
X123530725Y-87234382D01*
X123478285Y-87188210D01*
X123459133Y-87121017D01*
X123479348Y-87054135D01*
X123530725Y-87009618D01*
X123588734Y-86982568D01*
X123775139Y-86852047D01*
X123936047Y-86691139D01*
X123961088Y-86655377D01*
X124015665Y-86611752D01*
X124062663Y-86602500D01*
X124097770Y-86602500D01*
X124164809Y-86622185D01*
G37*
%TD.AperFunction*%
%TA.AperFunction,Conductor*%
G36*
X139455953Y-86497185D02*
G01*
X139501708Y-86549989D01*
X139511652Y-86619147D01*
X139484767Y-86680165D01*
X139372090Y-86817460D01*
X139372086Y-86817467D01*
X139279188Y-86991266D01*
X139221975Y-87179870D01*
X139202659Y-87376000D01*
X139221975Y-87572129D01*
X139279188Y-87760733D01*
X139372084Y-87934529D01*
X139372087Y-87934533D01*
X139372090Y-87934538D01*
X139429354Y-88004314D01*
X139456666Y-88068620D01*
X139457500Y-88082976D01*
X139457500Y-90057500D01*
X139437815Y-90124539D01*
X139385011Y-90170294D01*
X139333500Y-90181500D01*
X137817940Y-90181500D01*
X137750901Y-90161815D01*
X137705146Y-90109011D01*
X137695202Y-90039853D01*
X137724227Y-89976297D01*
X137730259Y-89969819D01*
X137789816Y-89910262D01*
X137885789Y-89757522D01*
X137945368Y-89587255D01*
X137949640Y-89549341D01*
X137965565Y-89408003D01*
X137965565Y-89407996D01*
X137945369Y-89228750D01*
X137945368Y-89228745D01*
X137885788Y-89058476D01*
X137804506Y-88929117D01*
X137785500Y-88863145D01*
X137785500Y-88838393D01*
X137785499Y-88838389D01*
X137770850Y-88764741D01*
X137761463Y-88717548D01*
X137717293Y-88610913D01*
X137714312Y-88603716D01*
X137714307Y-88603707D01*
X137645858Y-88501267D01*
X137645855Y-88501263D01*
X137558736Y-88414144D01*
X137558732Y-88414141D01*
X137456292Y-88345692D01*
X137456283Y-88345687D01*
X137342454Y-88298538D01*
X137342455Y-88298538D01*
X137342452Y-88298537D01*
X137342448Y-88298536D01*
X137342444Y-88298535D01*
X137221610Y-88274500D01*
X137221606Y-88274500D01*
X137098394Y-88274500D01*
X137098389Y-88274500D01*
X136977555Y-88298535D01*
X136977545Y-88298538D01*
X136863716Y-88345687D01*
X136863707Y-88345692D01*
X136761267Y-88414141D01*
X136761263Y-88414144D01*
X136674144Y-88501263D01*
X136674141Y-88501267D01*
X136605692Y-88603707D01*
X136605687Y-88603716D01*
X136558538Y-88717545D01*
X136558535Y-88717555D01*
X136534500Y-88838389D01*
X136534500Y-88863145D01*
X136515494Y-88929117D01*
X136434211Y-89058476D01*
X136374631Y-89228745D01*
X136374630Y-89228750D01*
X136354435Y-89407996D01*
X136354435Y-89408003D01*
X136374630Y-89587249D01*
X136374631Y-89587254D01*
X136434211Y-89757523D01*
X136530184Y-89910262D01*
X136589741Y-89969819D01*
X136623226Y-90031142D01*
X136618242Y-90100834D01*
X136576370Y-90156767D01*
X136510906Y-90181184D01*
X136502060Y-90181500D01*
X131682663Y-90181500D01*
X131615624Y-90161815D01*
X131581088Y-90128623D01*
X131556045Y-90092858D01*
X131395141Y-89931954D01*
X131208734Y-89801432D01*
X131208732Y-89801431D01*
X131151315Y-89774657D01*
X131150132Y-89774105D01*
X131097694Y-89727934D01*
X131078542Y-89660740D01*
X131098758Y-89593859D01*
X131150134Y-89549341D01*
X131208484Y-89522132D01*
X131394820Y-89391657D01*
X131555657Y-89230820D01*
X131686134Y-89044482D01*
X131782265Y-88838326D01*
X131782269Y-88838317D01*
X131834872Y-88642000D01*
X130871686Y-88642000D01*
X130876080Y-88637606D01*
X130928741Y-88546394D01*
X130956000Y-88444661D01*
X130956000Y-88339339D01*
X130928741Y-88237606D01*
X130876080Y-88146394D01*
X130871686Y-88142000D01*
X131834872Y-88142000D01*
X131834872Y-88141999D01*
X131782269Y-87945682D01*
X131782265Y-87945673D01*
X131686134Y-87739517D01*
X131555657Y-87553179D01*
X131394820Y-87392342D01*
X131208482Y-87261865D01*
X131150133Y-87234657D01*
X131097694Y-87188484D01*
X131078542Y-87121291D01*
X131098758Y-87054410D01*
X131150129Y-87009895D01*
X131208734Y-86982568D01*
X131395139Y-86852047D01*
X131556047Y-86691139D01*
X131634681Y-86578836D01*
X131668613Y-86530377D01*
X131723189Y-86486752D01*
X131770188Y-86477500D01*
X139388914Y-86477500D01*
X139455953Y-86497185D01*
G37*
%TD.AperFunction*%
%TA.AperFunction,Conductor*%
G36*
X158172539Y-45147185D02*
G01*
X158218294Y-45199989D01*
X158229500Y-45251500D01*
X158229500Y-136966500D01*
X158209815Y-137033539D01*
X158157011Y-137079294D01*
X158105500Y-137090500D01*
X114650500Y-137090500D01*
X114583461Y-137070815D01*
X114537706Y-137018011D01*
X114526500Y-136966500D01*
X114526500Y-132080006D01*
X132743225Y-132080006D01*
X132761892Y-132305289D01*
X132817388Y-132524439D01*
X132908198Y-132731466D01*
X133031842Y-132920716D01*
X133031850Y-132920727D01*
X133184950Y-133087036D01*
X133184954Y-133087040D01*
X133363351Y-133225893D01*
X133562169Y-133333488D01*
X133562172Y-133333489D01*
X133775982Y-133406890D01*
X133775984Y-133406890D01*
X133775986Y-133406891D01*
X133998967Y-133444100D01*
X133998968Y-133444100D01*
X134225032Y-133444100D01*
X134225033Y-133444100D01*
X134448014Y-133406891D01*
X134661831Y-133333488D01*
X134860649Y-133225893D01*
X135039046Y-133087040D01*
X135192156Y-132920719D01*
X135278193Y-132789028D01*
X135331338Y-132743675D01*
X135400569Y-132734251D01*
X135463905Y-132763753D01*
X135485804Y-132789025D01*
X135571844Y-132920719D01*
X135571849Y-132920724D01*
X135571850Y-132920727D01*
X135724950Y-133087036D01*
X135724954Y-133087040D01*
X135903351Y-133225893D01*
X136102169Y-133333488D01*
X136102172Y-133333489D01*
X136315982Y-133406890D01*
X136315984Y-133406890D01*
X136315986Y-133406891D01*
X136538967Y-133444100D01*
X136538968Y-133444100D01*
X136765032Y-133444100D01*
X136765033Y-133444100D01*
X136988014Y-133406891D01*
X137201831Y-133333488D01*
X137400649Y-133225893D01*
X137579046Y-133087040D01*
X137732156Y-132920719D01*
X137836063Y-132761678D01*
X137889209Y-132716322D01*
X137939871Y-132705500D01*
X144333607Y-132705500D01*
X144394029Y-132693481D01*
X144454452Y-132681463D01*
X144454455Y-132681461D01*
X144454458Y-132681461D01*
X144487787Y-132667654D01*
X144487786Y-132667654D01*
X144487792Y-132667652D01*
X144568286Y-132634312D01*
X144619509Y-132600084D01*
X144670733Y-132565858D01*
X144757858Y-132478733D01*
X144757858Y-132478731D01*
X144768066Y-132468524D01*
X144768067Y-132468521D01*
X146281857Y-130954734D01*
X146350311Y-130852286D01*
X146397463Y-130738452D01*
X146421500Y-130617607D01*
X146421500Y-130494394D01*
X146421500Y-120940854D01*
X146440507Y-120874881D01*
X146460969Y-120842317D01*
X146521789Y-120745522D01*
X146581368Y-120575255D01*
X146595632Y-120448661D01*
X146601565Y-120396003D01*
X146601565Y-120395996D01*
X146581369Y-120216750D01*
X146581368Y-120216745D01*
X146521788Y-120046476D01*
X146425815Y-119893737D01*
X146298262Y-119766184D01*
X146145523Y-119670211D01*
X145975254Y-119610631D01*
X145975249Y-119610630D01*
X145796004Y-119590435D01*
X145795996Y-119590435D01*
X145616750Y-119610630D01*
X145616745Y-119610631D01*
X145446476Y-119670211D01*
X145293737Y-119766184D01*
X145166184Y-119893737D01*
X145070211Y-120046476D01*
X145010631Y-120216745D01*
X145010630Y-120216750D01*
X144990435Y-120395996D01*
X144990435Y-120396003D01*
X145010630Y-120575249D01*
X145010631Y-120575254D01*
X145070211Y-120745524D01*
X145151493Y-120874881D01*
X145170500Y-120940854D01*
X145170500Y-130245547D01*
X145150815Y-130312586D01*
X145134181Y-130333228D01*
X144049229Y-131418181D01*
X143987906Y-131451666D01*
X143961548Y-131454500D01*
X137939871Y-131454500D01*
X137872832Y-131434815D01*
X137836063Y-131398322D01*
X137732157Y-131239283D01*
X137732149Y-131239272D01*
X137579049Y-131072963D01*
X137579048Y-131072962D01*
X137579046Y-131072960D01*
X137400649Y-130934107D01*
X137400647Y-130934106D01*
X137400646Y-130934105D01*
X137400639Y-130934100D01*
X137372836Y-130919055D01*
X137323244Y-130869837D01*
X137308135Y-130801620D01*
X137332306Y-130736064D01*
X137372836Y-130700945D01*
X137400639Y-130685899D01*
X137400642Y-130685896D01*
X137400649Y-130685893D01*
X137579046Y-130547040D01*
X137732156Y-130380719D01*
X137855802Y-130191465D01*
X137946611Y-129984441D01*
X138002107Y-129765293D01*
X138020775Y-129540000D01*
X138020775Y-129539996D01*
X138020775Y-129539993D01*
X138002107Y-129314710D01*
X138002107Y-129314707D01*
X137946611Y-129095559D01*
X137855802Y-128888535D01*
X137732156Y-128699281D01*
X137732153Y-128699278D01*
X137732149Y-128699272D01*
X137579049Y-128532963D01*
X137579048Y-128532962D01*
X137579046Y-128532960D01*
X137400649Y-128394107D01*
X137400647Y-128394106D01*
X137400646Y-128394105D01*
X137400639Y-128394100D01*
X137372836Y-128379055D01*
X137323244Y-128329837D01*
X137308135Y-128261620D01*
X137332306Y-128196064D01*
X137372836Y-128160945D01*
X137400639Y-128145899D01*
X137400642Y-128145896D01*
X137400649Y-128145893D01*
X137579046Y-128007040D01*
X137732156Y-127840719D01*
X137855802Y-127651465D01*
X137946611Y-127444441D01*
X138002107Y-127225293D01*
X138020775Y-127000000D01*
X138020775Y-126999996D01*
X138020775Y-126999993D01*
X138002107Y-126774710D01*
X138002107Y-126774707D01*
X137946611Y-126555559D01*
X137855802Y-126348535D01*
X137732156Y-126159281D01*
X137732153Y-126159278D01*
X137732149Y-126159272D01*
X137579049Y-125992963D01*
X137579048Y-125992962D01*
X137579046Y-125992960D01*
X137400649Y-125854107D01*
X137400647Y-125854106D01*
X137400646Y-125854105D01*
X137400643Y-125854103D01*
X137372309Y-125838770D01*
X137322718Y-125789551D01*
X137307610Y-125721334D01*
X137331780Y-125655778D01*
X137372309Y-125620660D01*
X137400372Y-125605473D01*
X137400376Y-125605470D01*
X137578703Y-125466672D01*
X137578715Y-125466661D01*
X137731759Y-125300412D01*
X137855360Y-125111225D01*
X137946135Y-124904278D01*
X137995334Y-124710000D01*
X137094251Y-124710000D01*
X137125381Y-124656081D01*
X137160000Y-124526880D01*
X137160000Y-124393120D01*
X137125381Y-124263919D01*
X137094251Y-124210000D01*
X137995334Y-124210000D01*
X137946135Y-124015721D01*
X137855360Y-123808774D01*
X137731759Y-123619587D01*
X137578715Y-123453338D01*
X137578703Y-123453327D01*
X137400376Y-123314529D01*
X137201630Y-123206972D01*
X137201624Y-123206970D01*
X136987893Y-123133596D01*
X136902000Y-123119263D01*
X136902000Y-124017748D01*
X136848081Y-123986619D01*
X136718880Y-123952000D01*
X136585120Y-123952000D01*
X136455919Y-123986619D01*
X136402000Y-124017748D01*
X136402000Y-123119263D01*
X136401999Y-123119263D01*
X136316106Y-123133596D01*
X136102375Y-123206970D01*
X136102369Y-123206972D01*
X135903623Y-123314529D01*
X135725296Y-123453327D01*
X135725290Y-123453333D01*
X135670761Y-123512567D01*
X135610874Y-123548557D01*
X135541035Y-123546456D01*
X135483420Y-123506931D01*
X135463350Y-123471916D01*
X135419397Y-123354071D01*
X135419393Y-123354064D01*
X135333147Y-123238855D01*
X135333144Y-123238852D01*
X135217935Y-123152606D01*
X135217928Y-123152602D01*
X135083082Y-123102308D01*
X135083083Y-123102308D01*
X135023483Y-123095901D01*
X135023481Y-123095900D01*
X135023473Y-123095900D01*
X135023464Y-123095900D01*
X133200529Y-123095900D01*
X133200523Y-123095901D01*
X133140916Y-123102308D01*
X133006071Y-123152602D01*
X133006064Y-123152606D01*
X132890855Y-123238852D01*
X132890852Y-123238855D01*
X132804606Y-123354064D01*
X132804602Y-123354071D01*
X132754308Y-123488917D01*
X132747901Y-123548516D01*
X132747900Y-123548535D01*
X132747900Y-125371470D01*
X132747901Y-125371476D01*
X132754308Y-125431083D01*
X132804602Y-125565928D01*
X132804606Y-125565935D01*
X132890852Y-125681144D01*
X132890855Y-125681147D01*
X133006064Y-125767393D01*
X133006071Y-125767397D01*
X133120983Y-125810256D01*
X133176916Y-125852127D01*
X133201334Y-125917591D01*
X133186483Y-125985864D01*
X133168880Y-126010421D01*
X133031845Y-126159279D01*
X133031842Y-126159283D01*
X132908198Y-126348533D01*
X132817388Y-126555560D01*
X132761892Y-126774710D01*
X132743225Y-126999993D01*
X132743225Y-127000006D01*
X132761892Y-127225289D01*
X132817388Y-127444439D01*
X132908198Y-127651466D01*
X133031842Y-127840716D01*
X133031850Y-127840727D01*
X133184950Y-128007036D01*
X133184954Y-128007040D01*
X133363351Y-128145893D01*
X133391165Y-128160945D01*
X133440755Y-128210165D01*
X133455863Y-128278382D01*
X133431692Y-128343937D01*
X133391165Y-128379055D01*
X133363352Y-128394106D01*
X133184955Y-128532959D01*
X133184950Y-128532963D01*
X133031850Y-128699272D01*
X133031842Y-128699283D01*
X132908198Y-128888533D01*
X132817388Y-129095560D01*
X132761892Y-129314710D01*
X132743225Y-129539993D01*
X132743225Y-129540006D01*
X132761892Y-129765289D01*
X132817388Y-129984439D01*
X132908198Y-130191466D01*
X133031842Y-130380716D01*
X133031850Y-130380727D01*
X133184950Y-130547036D01*
X133184954Y-130547040D01*
X133363351Y-130685893D01*
X133391165Y-130700945D01*
X133440755Y-130750165D01*
X133455863Y-130818382D01*
X133431692Y-130883937D01*
X133391165Y-130919055D01*
X133363352Y-130934106D01*
X133184955Y-131072959D01*
X133184950Y-131072963D01*
X133031850Y-131239272D01*
X133031842Y-131239283D01*
X132908198Y-131428533D01*
X132817388Y-131635560D01*
X132761892Y-131854710D01*
X132743225Y-132079993D01*
X132743225Y-132080006D01*
X114526500Y-132080006D01*
X114526500Y-121243870D01*
X118587500Y-121243870D01*
X118587501Y-121243876D01*
X118593908Y-121303483D01*
X118644202Y-121438328D01*
X118644206Y-121438335D01*
X118730452Y-121553544D01*
X118730455Y-121553547D01*
X118845664Y-121639793D01*
X118845671Y-121639797D01*
X118980517Y-121690091D01*
X118980516Y-121690091D01*
X118987444Y-121690835D01*
X119040127Y-121696500D01*
X120735872Y-121696499D01*
X120795483Y-121690091D01*
X120930331Y-121639796D01*
X121045546Y-121553546D01*
X121052350Y-121544455D01*
X121108280Y-121502584D01*
X121177971Y-121497597D01*
X121222740Y-121517188D01*
X121235512Y-121526130D01*
X121235518Y-121526134D01*
X121441673Y-121622265D01*
X121441682Y-121622269D01*
X121661389Y-121681139D01*
X121661400Y-121681141D01*
X121887998Y-121700966D01*
X121888002Y-121700966D01*
X122114599Y-121681141D01*
X122114610Y-121681139D01*
X122334317Y-121622269D01*
X122334331Y-121622264D01*
X122540478Y-121526136D01*
X122613471Y-121475024D01*
X122382317Y-121243870D01*
X124744388Y-121243870D01*
X124744389Y-121243876D01*
X124750796Y-121303483D01*
X124801090Y-121438328D01*
X124801094Y-121438335D01*
X124887340Y-121553544D01*
X124887343Y-121553547D01*
X125002552Y-121639793D01*
X125002559Y-121639797D01*
X125137405Y-121690091D01*
X125137404Y-121690091D01*
X125144332Y-121690835D01*
X125197015Y-121696500D01*
X126892760Y-121696499D01*
X126952371Y-121690091D01*
X127087219Y-121639796D01*
X127202434Y-121553546D01*
X127209238Y-121544455D01*
X127265168Y-121502584D01*
X127334859Y-121497597D01*
X127379628Y-121517188D01*
X127392400Y-121526130D01*
X127392406Y-121526134D01*
X127598561Y-121622265D01*
X127598570Y-121622269D01*
X127818277Y-121681139D01*
X127818288Y-121681141D01*
X128044886Y-121700966D01*
X128044890Y-121700966D01*
X128271487Y-121681141D01*
X128271498Y-121681139D01*
X128491205Y-121622269D01*
X128491219Y-121622264D01*
X128697366Y-121526136D01*
X128770359Y-121475024D01*
X128091335Y-120796000D01*
X128097549Y-120796000D01*
X128199282Y-120768741D01*
X128290494Y-120716080D01*
X128364968Y-120641606D01*
X128417629Y-120550394D01*
X128444888Y-120448661D01*
X128444888Y-120442447D01*
X129123912Y-121121471D01*
X129175024Y-121048478D01*
X129271152Y-120842331D01*
X129271157Y-120842317D01*
X129330027Y-120622610D01*
X129330029Y-120622599D01*
X129349854Y-120396002D01*
X129349854Y-120395997D01*
X129330029Y-120169400D01*
X129330027Y-120169389D01*
X129271157Y-119949682D01*
X129271152Y-119949668D01*
X129175024Y-119743521D01*
X129175020Y-119743513D01*
X129123913Y-119670526D01*
X128444888Y-120349551D01*
X128444888Y-120343339D01*
X128417629Y-120241606D01*
X128364968Y-120150394D01*
X128290494Y-120075920D01*
X128199282Y-120023259D01*
X128097549Y-119996000D01*
X128091335Y-119996000D01*
X128770360Y-119316974D01*
X128697366Y-119265863D01*
X128491219Y-119169735D01*
X128491205Y-119169730D01*
X128271498Y-119110860D01*
X128271487Y-119110858D01*
X128044890Y-119091034D01*
X128044886Y-119091034D01*
X127818288Y-119110858D01*
X127818277Y-119110860D01*
X127598570Y-119169730D01*
X127598561Y-119169734D01*
X127392400Y-119265868D01*
X127392395Y-119265871D01*
X127379624Y-119274813D01*
X127313417Y-119297138D01*
X127245651Y-119280124D01*
X127209240Y-119247546D01*
X127202434Y-119238454D01*
X127202432Y-119238453D01*
X127202432Y-119238452D01*
X127087223Y-119152206D01*
X127087216Y-119152202D01*
X126952370Y-119101908D01*
X126952371Y-119101908D01*
X126892771Y-119095501D01*
X126892769Y-119095500D01*
X126892761Y-119095500D01*
X126892752Y-119095500D01*
X125197017Y-119095500D01*
X125197011Y-119095501D01*
X125137404Y-119101908D01*
X125002559Y-119152202D01*
X125002552Y-119152206D01*
X124887343Y-119238452D01*
X124887340Y-119238455D01*
X124801094Y-119353664D01*
X124801090Y-119353671D01*
X124750796Y-119488517D01*
X124744389Y-119548116D01*
X124744388Y-119548135D01*
X124744388Y-121243870D01*
X122382317Y-121243870D01*
X121934447Y-120796000D01*
X121940661Y-120796000D01*
X122042394Y-120768741D01*
X122133606Y-120716080D01*
X122208080Y-120641606D01*
X122260741Y-120550394D01*
X122288000Y-120448661D01*
X122288000Y-120442447D01*
X122967024Y-121121471D01*
X123018136Y-121048478D01*
X123114264Y-120842331D01*
X123114269Y-120842317D01*
X123173139Y-120622610D01*
X123173141Y-120622599D01*
X123192966Y-120396002D01*
X123192966Y-120395997D01*
X123173141Y-120169400D01*
X123173139Y-120169389D01*
X123114269Y-119949682D01*
X123114264Y-119949668D01*
X123018136Y-119743521D01*
X123018132Y-119743513D01*
X122967025Y-119670526D01*
X122288000Y-120349551D01*
X122288000Y-120343339D01*
X122260741Y-120241606D01*
X122208080Y-120150394D01*
X122133606Y-120075920D01*
X122042394Y-120023259D01*
X121940661Y-119996000D01*
X121934447Y-119996000D01*
X122613472Y-119316974D01*
X122540478Y-119265863D01*
X122334331Y-119169735D01*
X122334317Y-119169730D01*
X122114610Y-119110860D01*
X122114599Y-119110858D01*
X121888002Y-119091034D01*
X121887998Y-119091034D01*
X121661400Y-119110858D01*
X121661389Y-119110860D01*
X121441682Y-119169730D01*
X121441673Y-119169734D01*
X121235512Y-119265868D01*
X121235507Y-119265871D01*
X121222736Y-119274813D01*
X121156529Y-119297138D01*
X121088763Y-119280124D01*
X121052352Y-119247546D01*
X121045546Y-119238454D01*
X121045544Y-119238453D01*
X121045544Y-119238452D01*
X120930335Y-119152206D01*
X120930328Y-119152202D01*
X120795482Y-119101908D01*
X120795483Y-119101908D01*
X120735883Y-119095501D01*
X120735881Y-119095500D01*
X120735873Y-119095500D01*
X120735864Y-119095500D01*
X119040129Y-119095500D01*
X119040123Y-119095501D01*
X118980516Y-119101908D01*
X118845671Y-119152202D01*
X118845664Y-119152206D01*
X118730455Y-119238452D01*
X118730452Y-119238455D01*
X118644206Y-119353664D01*
X118644202Y-119353671D01*
X118593908Y-119488517D01*
X118587501Y-119548116D01*
X118587500Y-119548135D01*
X118587500Y-121243870D01*
X114526500Y-121243870D01*
X114526500Y-104201611D01*
X116722500Y-104201611D01*
X116731979Y-104249265D01*
X116731979Y-104249266D01*
X116731980Y-104249266D01*
X116731980Y-104249267D01*
X116744026Y-104309830D01*
X116744026Y-104309832D01*
X116746535Y-104322445D01*
X116746536Y-104322448D01*
X116746537Y-104322451D01*
X116793688Y-104436286D01*
X116793689Y-104436288D01*
X116793690Y-104436289D01*
X116793690Y-104436290D01*
X116807113Y-104456378D01*
X116807114Y-104456379D01*
X116862141Y-104538732D01*
X116862144Y-104538736D01*
X116953586Y-104630178D01*
X116953608Y-104630198D01*
X117621016Y-105297606D01*
X117621045Y-105297637D01*
X117711264Y-105387856D01*
X117711267Y-105387858D01*
X117788190Y-105439256D01*
X117813710Y-105456309D01*
X117813712Y-105456310D01*
X117813715Y-105456312D01*
X117852881Y-105472534D01*
X117852883Y-105472536D01*
X117852884Y-105472536D01*
X117927548Y-105503463D01*
X117930179Y-105503986D01*
X117931429Y-105504639D01*
X117933378Y-105505231D01*
X117933265Y-105505600D01*
X117992092Y-105536363D01*
X118026673Y-105597075D01*
X118030000Y-105625605D01*
X118030000Y-105922000D01*
X118946988Y-105922000D01*
X118914075Y-105979007D01*
X118880000Y-106106174D01*
X118880000Y-106237826D01*
X118914075Y-106364993D01*
X118946988Y-106422000D01*
X118030000Y-106422000D01*
X118030000Y-107069844D01*
X118036401Y-107129372D01*
X118036403Y-107129379D01*
X118086645Y-107264086D01*
X118086649Y-107264093D01*
X118172809Y-107379187D01*
X118172812Y-107379190D01*
X118287906Y-107465350D01*
X118287913Y-107465354D01*
X118422620Y-107515596D01*
X118422627Y-107515598D01*
X118482155Y-107521999D01*
X118482172Y-107522000D01*
X119130000Y-107522000D01*
X119130000Y-106605012D01*
X119187007Y-106637925D01*
X119314174Y-106672000D01*
X119445826Y-106672000D01*
X119572993Y-106637925D01*
X119630000Y-106605012D01*
X119630000Y-107522000D01*
X120277828Y-107522000D01*
X120277844Y-107521999D01*
X120337372Y-107515598D01*
X120337379Y-107515596D01*
X120472086Y-107465354D01*
X120472093Y-107465350D01*
X120587187Y-107379190D01*
X120587190Y-107379187D01*
X120673350Y-107264093D01*
X120673354Y-107264086D01*
X120723596Y-107129379D01*
X120723598Y-107129372D01*
X120729999Y-107069844D01*
X120730000Y-107069827D01*
X120730000Y-106422000D01*
X119813012Y-106422000D01*
X119845925Y-106364993D01*
X119880000Y-106237826D01*
X119880000Y-106106174D01*
X119845925Y-105979007D01*
X119813012Y-105922000D01*
X120730000Y-105922000D01*
X120730000Y-105651500D01*
X120749685Y-105584461D01*
X120802489Y-105538706D01*
X120854000Y-105527500D01*
X121606951Y-105527500D01*
X121673990Y-105547185D01*
X121719745Y-105599989D01*
X121729689Y-105669147D01*
X121719333Y-105703905D01*
X121709262Y-105725502D01*
X121709258Y-105725511D01*
X121650366Y-105945302D01*
X121650364Y-105945313D01*
X121630532Y-106171998D01*
X121630532Y-106172001D01*
X121650364Y-106398686D01*
X121650366Y-106398697D01*
X121709258Y-106618488D01*
X121709261Y-106618497D01*
X121805431Y-106824732D01*
X121805432Y-106824734D01*
X121935954Y-107011141D01*
X122096858Y-107172045D01*
X122096861Y-107172047D01*
X122283266Y-107302568D01*
X122489504Y-107398739D01*
X122709308Y-107457635D01*
X122871230Y-107471801D01*
X122935998Y-107477468D01*
X122936000Y-107477468D01*
X122936002Y-107477468D01*
X122992807Y-107472498D01*
X123162692Y-107457635D01*
X123382496Y-107398739D01*
X123588734Y-107302568D01*
X123775139Y-107172047D01*
X123936047Y-107011139D01*
X124066568Y-106824734D01*
X124162739Y-106618496D01*
X124221635Y-106398692D01*
X124240128Y-106187313D01*
X124241468Y-106172001D01*
X124241468Y-106171998D01*
X124233275Y-106078351D01*
X124221635Y-105945308D01*
X124175171Y-105771901D01*
X124162741Y-105725511D01*
X124162740Y-105725510D01*
X124162739Y-105725504D01*
X124152666Y-105703904D01*
X124142175Y-105634827D01*
X124170695Y-105571043D01*
X124229171Y-105532804D01*
X124265049Y-105527500D01*
X128975548Y-105527500D01*
X129042587Y-105547185D01*
X129063229Y-105563819D01*
X129219181Y-105719771D01*
X129252666Y-105781094D01*
X129255500Y-105807452D01*
X129255500Y-107019870D01*
X129255501Y-107019876D01*
X129261908Y-107079483D01*
X129312202Y-107214328D01*
X129312206Y-107214335D01*
X129398452Y-107329544D01*
X129398455Y-107329547D01*
X129513664Y-107415793D01*
X129513671Y-107415797D01*
X129558618Y-107432561D01*
X129648517Y-107466091D01*
X129708127Y-107472500D01*
X129806500Y-107472499D01*
X129873538Y-107492183D01*
X129919294Y-107544986D01*
X129930500Y-107596499D01*
X129930500Y-108773606D01*
X129949768Y-108870478D01*
X129949768Y-108870480D01*
X129954535Y-108894444D01*
X129954536Y-108894446D01*
X129954537Y-108894451D01*
X130001688Y-109008286D01*
X130001689Y-109008288D01*
X130001690Y-109008289D01*
X130001690Y-109008290D01*
X130021241Y-109037549D01*
X130021242Y-109037550D01*
X130070140Y-109110731D01*
X130070141Y-109110732D01*
X130070142Y-109110733D01*
X130157267Y-109197858D01*
X130157268Y-109197858D01*
X130164335Y-109204925D01*
X130164334Y-109204925D01*
X130164337Y-109204927D01*
X130578141Y-109618732D01*
X130578142Y-109618733D01*
X130665267Y-109705858D01*
X130665268Y-109705859D01*
X130767707Y-109774307D01*
X130767713Y-109774310D01*
X130767714Y-109774311D01*
X130881548Y-109821463D01*
X131002388Y-109845499D01*
X131002392Y-109845500D01*
X131002393Y-109845500D01*
X131002394Y-109845500D01*
X137123145Y-109845500D01*
X137189116Y-109864505D01*
X137318478Y-109945789D01*
X137488745Y-110005368D01*
X137488750Y-110005369D01*
X137667996Y-110025565D01*
X137668000Y-110025565D01*
X137668004Y-110025565D01*
X137847249Y-110005369D01*
X137847252Y-110005368D01*
X137847255Y-110005368D01*
X138017522Y-109945789D01*
X138170262Y-109849816D01*
X138297816Y-109722262D01*
X138393789Y-109569522D01*
X138453368Y-109399255D01*
X138473565Y-109220000D01*
X138471866Y-109204925D01*
X138453369Y-109040750D01*
X138453368Y-109040745D01*
X138452249Y-109037548D01*
X138393789Y-108870478D01*
X138297816Y-108717738D01*
X138170262Y-108590184D01*
X138146883Y-108575494D01*
X138017523Y-108494211D01*
X137847254Y-108434631D01*
X137847249Y-108434630D01*
X137668004Y-108414435D01*
X137667996Y-108414435D01*
X137488750Y-108434630D01*
X137488745Y-108434631D01*
X137318476Y-108494211D01*
X137189117Y-108575494D01*
X137123145Y-108594500D01*
X131374453Y-108594500D01*
X131307414Y-108574815D01*
X131286772Y-108558181D01*
X131217819Y-108489228D01*
X131184334Y-108427905D01*
X131181500Y-108401547D01*
X131181500Y-107596499D01*
X131201185Y-107529460D01*
X131253989Y-107483705D01*
X131305500Y-107472499D01*
X131403871Y-107472499D01*
X131403872Y-107472499D01*
X131463483Y-107466091D01*
X131598331Y-107415796D01*
X131713546Y-107329546D01*
X131799796Y-107214331D01*
X131850091Y-107079483D01*
X131856500Y-107019873D01*
X131856499Y-105324128D01*
X131850091Y-105264517D01*
X131799796Y-105129669D01*
X131799795Y-105129668D01*
X131799793Y-105129664D01*
X131713547Y-105014455D01*
X131713544Y-105014452D01*
X131598335Y-104928206D01*
X131598328Y-104928202D01*
X131463482Y-104877908D01*
X131463483Y-104877908D01*
X131428404Y-104874137D01*
X131363853Y-104847399D01*
X131324005Y-104790006D01*
X131321512Y-104720181D01*
X131357165Y-104660092D01*
X131370539Y-104649272D01*
X131395140Y-104632046D01*
X131556045Y-104471141D01*
X131556047Y-104471139D01*
X131639671Y-104351710D01*
X131668613Y-104310377D01*
X131723189Y-104266752D01*
X131770188Y-104257500D01*
X133727603Y-104257500D01*
X133794642Y-104277185D01*
X133840397Y-104329989D01*
X133850341Y-104399147D01*
X133824550Y-104458811D01*
X133711004Y-104601195D01*
X133661042Y-104663845D01*
X133528361Y-104893654D01*
X133431416Y-105140667D01*
X133431410Y-105140686D01*
X133372364Y-105399385D01*
X133372363Y-105399390D01*
X133352535Y-105663995D01*
X133352535Y-105664004D01*
X133372363Y-105928609D01*
X133372364Y-105928614D01*
X133431410Y-106187313D01*
X133431412Y-106187322D01*
X133431414Y-106187327D01*
X133528361Y-106434345D01*
X133661042Y-106664155D01*
X133826492Y-106871623D01*
X134021016Y-107052114D01*
X134240268Y-107201598D01*
X134240273Y-107201600D01*
X134240274Y-107201601D01*
X134240276Y-107201602D01*
X134370025Y-107264086D01*
X134479350Y-107316734D01*
X134732922Y-107394950D01*
X134732923Y-107394950D01*
X134732926Y-107394951D01*
X134995311Y-107434499D01*
X134995316Y-107434499D01*
X134995319Y-107434500D01*
X134995320Y-107434500D01*
X135260680Y-107434500D01*
X135260681Y-107434500D01*
X135260688Y-107434499D01*
X135523073Y-107394951D01*
X135523074Y-107394950D01*
X135523078Y-107394950D01*
X135776650Y-107316734D01*
X136015733Y-107201598D01*
X136234984Y-107052114D01*
X136429508Y-106871623D01*
X136594958Y-106664155D01*
X136727639Y-106434345D01*
X136824586Y-106187327D01*
X136883635Y-105928619D01*
X136883641Y-105928540D01*
X136903465Y-105664004D01*
X136903465Y-105663995D01*
X136883636Y-105399390D01*
X136883635Y-105399385D01*
X136883635Y-105399381D01*
X136824586Y-105140673D01*
X136727639Y-104893655D01*
X136594958Y-104663845D01*
X136431449Y-104458811D01*
X136405041Y-104394126D01*
X136417798Y-104325431D01*
X136465668Y-104274537D01*
X136528397Y-104257500D01*
X138373548Y-104257500D01*
X138440587Y-104277185D01*
X138461229Y-104293819D01*
X139038181Y-104870771D01*
X139071666Y-104932094D01*
X139074500Y-104958452D01*
X139074500Y-114771145D01*
X139055494Y-114837117D01*
X138974211Y-114966476D01*
X138914631Y-115136745D01*
X138914630Y-115136750D01*
X138894435Y-115315996D01*
X138894435Y-115316003D01*
X138914630Y-115495249D01*
X138914631Y-115495254D01*
X138974211Y-115665523D01*
X139070184Y-115818262D01*
X139197738Y-115945816D01*
X139350478Y-116041789D01*
X139520745Y-116101368D01*
X139520750Y-116101369D01*
X139699996Y-116121565D01*
X139700000Y-116121565D01*
X139700004Y-116121565D01*
X139879249Y-116101369D01*
X139879252Y-116101368D01*
X139879255Y-116101368D01*
X140049522Y-116041789D01*
X140202262Y-115945816D01*
X140329816Y-115818262D01*
X140425789Y-115665522D01*
X140485368Y-115495255D01*
X140505565Y-115316000D01*
X140485368Y-115136745D01*
X140425789Y-114966478D01*
X140344505Y-114837116D01*
X140325500Y-114771145D01*
X140325500Y-114082330D01*
X140345185Y-114015291D01*
X140397989Y-113969536D01*
X140467147Y-113959592D01*
X140523812Y-113983064D01*
X140524451Y-113983542D01*
X140524454Y-113983546D01*
X140639665Y-114069793D01*
X140639668Y-114069795D01*
X140639671Y-114069797D01*
X140774517Y-114120091D01*
X140774516Y-114120091D01*
X140781444Y-114120835D01*
X140834127Y-114126500D01*
X142629872Y-114126499D01*
X142689483Y-114120091D01*
X142824331Y-114069796D01*
X142939546Y-113983546D01*
X143025796Y-113868331D01*
X143076091Y-113733483D01*
X143082500Y-113673873D01*
X143082499Y-111878128D01*
X143076091Y-111818517D01*
X143025796Y-111683669D01*
X143025795Y-111683668D01*
X143025793Y-111683664D01*
X142939547Y-111568455D01*
X142939544Y-111568452D01*
X142824335Y-111482206D01*
X142824328Y-111482202D01*
X142689482Y-111431908D01*
X142689483Y-111431908D01*
X142629883Y-111425501D01*
X142629881Y-111425500D01*
X142629873Y-111425500D01*
X142629865Y-111425500D01*
X142481500Y-111425500D01*
X142414461Y-111405815D01*
X142368706Y-111353011D01*
X142357500Y-111301500D01*
X142357500Y-104078395D01*
X142357500Y-104078393D01*
X142351163Y-104046537D01*
X142333463Y-103957549D01*
X142323315Y-103933050D01*
X142319652Y-103924207D01*
X142319652Y-103924205D01*
X142286313Y-103843716D01*
X142286312Y-103843714D01*
X142277259Y-103830166D01*
X142252084Y-103792490D01*
X142217858Y-103741267D01*
X142217856Y-103741264D01*
X142127637Y-103651045D01*
X142127606Y-103651016D01*
X141206198Y-102729608D01*
X141206178Y-102729586D01*
X141114733Y-102638141D01*
X141063509Y-102603915D01*
X141012287Y-102569689D01*
X141012286Y-102569688D01*
X141012283Y-102569686D01*
X141012280Y-102569685D01*
X140931792Y-102536347D01*
X140898454Y-102522538D01*
X140898455Y-102522538D01*
X140898452Y-102522537D01*
X140898448Y-102522536D01*
X140898444Y-102522535D01*
X140792347Y-102501431D01*
X140792346Y-102501431D01*
X140777611Y-102498500D01*
X140777607Y-102498500D01*
X140777606Y-102498500D01*
X136599969Y-102498500D01*
X136532930Y-102478815D01*
X136487175Y-102426011D01*
X136477231Y-102356853D01*
X136506256Y-102293297D01*
X136552516Y-102259939D01*
X136560789Y-102256511D01*
X136583212Y-102247224D01*
X136793289Y-102125936D01*
X136985738Y-101978265D01*
X137157265Y-101806738D01*
X137304936Y-101614289D01*
X137426224Y-101404212D01*
X137519054Y-101180100D01*
X137581838Y-100945789D01*
X137613500Y-100705288D01*
X137613500Y-100462712D01*
X137610413Y-100439267D01*
X137585873Y-100252861D01*
X137581838Y-100222211D01*
X137519054Y-99987900D01*
X137426224Y-99763788D01*
X137304936Y-99553711D01*
X137180192Y-99391141D01*
X137157266Y-99361263D01*
X137157260Y-99361256D01*
X136985743Y-99189739D01*
X136985736Y-99189733D01*
X136793293Y-99042067D01*
X136793292Y-99042066D01*
X136793289Y-99042064D01*
X136583212Y-98920776D01*
X136583205Y-98920773D01*
X136359104Y-98827947D01*
X136124785Y-98765161D01*
X135884289Y-98733500D01*
X135884288Y-98733500D01*
X135641712Y-98733500D01*
X135641711Y-98733500D01*
X135401214Y-98765161D01*
X135166895Y-98827947D01*
X134942794Y-98920773D01*
X134942785Y-98920777D01*
X134732706Y-99042067D01*
X134540263Y-99189733D01*
X134540256Y-99189739D01*
X134368739Y-99361256D01*
X134368733Y-99361263D01*
X134221067Y-99553706D01*
X134099777Y-99763785D01*
X134099773Y-99763794D01*
X134006947Y-99987895D01*
X133944161Y-100222214D01*
X133912500Y-100462711D01*
X133912500Y-100705288D01*
X133944161Y-100945785D01*
X134006947Y-101180104D01*
X134067963Y-101327408D01*
X134099776Y-101404212D01*
X134221064Y-101614289D01*
X134221066Y-101614292D01*
X134221067Y-101614293D01*
X134368733Y-101806736D01*
X134368739Y-101806743D01*
X134540256Y-101978260D01*
X134540262Y-101978265D01*
X134732711Y-102125936D01*
X134942788Y-102247224D01*
X134948568Y-102249618D01*
X134973484Y-102259939D01*
X135027887Y-102303780D01*
X135049952Y-102370074D01*
X135032673Y-102437773D01*
X134981536Y-102485384D01*
X134926031Y-102498500D01*
X134422452Y-102498500D01*
X134355413Y-102478815D01*
X134334771Y-102462181D01*
X132570198Y-100697608D01*
X132570178Y-100697586D01*
X132478733Y-100606141D01*
X132427509Y-100571915D01*
X132376287Y-100537689D01*
X132376286Y-100537688D01*
X132376283Y-100537686D01*
X132376280Y-100537685D01*
X132295792Y-100504347D01*
X132262453Y-100490537D01*
X132252427Y-100488543D01*
X132202029Y-100478518D01*
X132196785Y-100477475D01*
X132141610Y-100466500D01*
X132141607Y-100466500D01*
X132141606Y-100466500D01*
X131770188Y-100466500D01*
X131703149Y-100446815D01*
X131668613Y-100413623D01*
X131556045Y-100252858D01*
X131395141Y-100091954D01*
X131208734Y-99961432D01*
X131208728Y-99961429D01*
X131150725Y-99934382D01*
X131098285Y-99888210D01*
X131079133Y-99821017D01*
X131099348Y-99754135D01*
X131150725Y-99709618D01*
X131208734Y-99682568D01*
X131395139Y-99552047D01*
X131556047Y-99391139D01*
X131686568Y-99204734D01*
X131782739Y-98998496D01*
X131841635Y-98778692D01*
X131861468Y-98552000D01*
X131841635Y-98325308D01*
X131782739Y-98105504D01*
X131686568Y-97899266D01*
X131556047Y-97712861D01*
X131556045Y-97712858D01*
X131395141Y-97551954D01*
X131208734Y-97421432D01*
X131208728Y-97421429D01*
X131150725Y-97394382D01*
X131098285Y-97348210D01*
X131079133Y-97281017D01*
X131099348Y-97214135D01*
X131150725Y-97169618D01*
X131208734Y-97142568D01*
X131395139Y-97012047D01*
X131556047Y-96851139D01*
X131668613Y-96690377D01*
X131723189Y-96646752D01*
X131770188Y-96637500D01*
X148025548Y-96637500D01*
X148092587Y-96657185D01*
X148113229Y-96673819D01*
X148690181Y-97250771D01*
X148723666Y-97312094D01*
X148726500Y-97338452D01*
X148726500Y-128995145D01*
X148707494Y-129061117D01*
X148626211Y-129190476D01*
X148566631Y-129360745D01*
X148566630Y-129360750D01*
X148546435Y-129539996D01*
X148546435Y-129540003D01*
X148566630Y-129719249D01*
X148566631Y-129719254D01*
X148626211Y-129889523D01*
X148721107Y-130040548D01*
X148722184Y-130042262D01*
X148849738Y-130169816D01*
X149002478Y-130265789D01*
X149091414Y-130296909D01*
X149172745Y-130325368D01*
X149172750Y-130325369D01*
X149351996Y-130345565D01*
X149352000Y-130345565D01*
X149352004Y-130345565D01*
X149531249Y-130325369D01*
X149531252Y-130325368D01*
X149531255Y-130325368D01*
X149701522Y-130265789D01*
X149854262Y-130169816D01*
X149981816Y-130042262D01*
X150077789Y-129889522D01*
X150137368Y-129719255D01*
X150137369Y-129719249D01*
X150157565Y-129540003D01*
X150157565Y-129539996D01*
X150137369Y-129360750D01*
X150137368Y-129360745D01*
X150077788Y-129190476D01*
X149996506Y-129061117D01*
X149977500Y-128995145D01*
X149977500Y-127505067D01*
X149997185Y-127438028D01*
X150049989Y-127392273D01*
X150119147Y-127382329D01*
X150182703Y-127411354D01*
X150206492Y-127439092D01*
X150246184Y-127502262D01*
X150373738Y-127629816D01*
X150526478Y-127725789D01*
X150696745Y-127785368D01*
X150696750Y-127785369D01*
X150875996Y-127805565D01*
X150876000Y-127805565D01*
X150876004Y-127805565D01*
X151055249Y-127785369D01*
X151055252Y-127785368D01*
X151055255Y-127785368D01*
X151225522Y-127725789D01*
X151378262Y-127629816D01*
X151505816Y-127502262D01*
X151601789Y-127349522D01*
X151661368Y-127179255D01*
X151661369Y-127179249D01*
X151681565Y-127000003D01*
X151681565Y-126999996D01*
X151661369Y-126820750D01*
X151661368Y-126820745D01*
X151601788Y-126650476D01*
X151520506Y-126521117D01*
X151501500Y-126455145D01*
X151501500Y-125807643D01*
X152726602Y-125807643D01*
X152726602Y-135304356D01*
X156549836Y-135304356D01*
X156549836Y-125807643D01*
X152726602Y-125807643D01*
X151501500Y-125807643D01*
X151501500Y-106768309D01*
X151521185Y-106701270D01*
X151537819Y-106680628D01*
X152306958Y-105911488D01*
X152331978Y-105971890D01*
X152403112Y-106078351D01*
X152493649Y-106168888D01*
X152600110Y-106240022D01*
X152660510Y-106265041D01*
X151844438Y-107081112D01*
X152020525Y-107201166D01*
X152020526Y-107201167D01*
X152259530Y-107316264D01*
X152259528Y-107316264D01*
X152513025Y-107394458D01*
X152513031Y-107394459D01*
X152775351Y-107433999D01*
X152775358Y-107434000D01*
X153040642Y-107434000D01*
X153040648Y-107433999D01*
X153302968Y-107394459D01*
X153302974Y-107394458D01*
X153556470Y-107316264D01*
X153795479Y-107201164D01*
X153971560Y-107081112D01*
X153155488Y-106265041D01*
X153215890Y-106240022D01*
X153322351Y-106168888D01*
X153412888Y-106078351D01*
X153484022Y-105971890D01*
X153509041Y-105911488D01*
X154324355Y-106726803D01*
X154324356Y-106726802D01*
X154374545Y-106663869D01*
X154507185Y-106434128D01*
X154604103Y-106187185D01*
X154604109Y-106187166D01*
X154663138Y-105928540D01*
X154663139Y-105928535D01*
X154682963Y-105664004D01*
X154682963Y-105663995D01*
X154663139Y-105399464D01*
X154663138Y-105399459D01*
X154604109Y-105140833D01*
X154604103Y-105140814D01*
X154507185Y-104893871D01*
X154507186Y-104893871D01*
X154374543Y-104664129D01*
X154374536Y-104664118D01*
X154324356Y-104601196D01*
X154324355Y-104601195D01*
X153509041Y-105416510D01*
X153484022Y-105356110D01*
X153412888Y-105249649D01*
X153322351Y-105159112D01*
X153215890Y-105087978D01*
X153155488Y-105062958D01*
X153971560Y-104246886D01*
X153795484Y-104126839D01*
X153795474Y-104126832D01*
X153556469Y-104011735D01*
X153556471Y-104011735D01*
X153302974Y-103933541D01*
X153302968Y-103933540D01*
X153040648Y-103894000D01*
X152775351Y-103894000D01*
X152513031Y-103933540D01*
X152513025Y-103933541D01*
X152259529Y-104011735D01*
X152020526Y-104126832D01*
X152020518Y-104126837D01*
X151844438Y-104246886D01*
X152660511Y-105062958D01*
X152600110Y-105087978D01*
X152493649Y-105159112D01*
X152403112Y-105249649D01*
X152331978Y-105356110D01*
X152306958Y-105416511D01*
X151537819Y-104647372D01*
X151504334Y-104586049D01*
X151501500Y-104559691D01*
X151501500Y-95442395D01*
X151501500Y-95442394D01*
X151495163Y-95410537D01*
X151492772Y-95398518D01*
X151477464Y-95321554D01*
X151477463Y-95321553D01*
X151477463Y-95321549D01*
X151477460Y-95321543D01*
X151477459Y-95321538D01*
X151430314Y-95207719D01*
X151430313Y-95207717D01*
X151407023Y-95172861D01*
X151361858Y-95105266D01*
X151271637Y-95015045D01*
X151271606Y-95015016D01*
X149334198Y-93077608D01*
X149334178Y-93077586D01*
X149242733Y-92986141D01*
X149191509Y-92951915D01*
X149140287Y-92917689D01*
X149140286Y-92917688D01*
X149140283Y-92917686D01*
X149140280Y-92917685D01*
X149059792Y-92884347D01*
X149026453Y-92870537D01*
X149016427Y-92868543D01*
X148966029Y-92858518D01*
X148905610Y-92846500D01*
X148905607Y-92846500D01*
X148905606Y-92846500D01*
X131770188Y-92846500D01*
X131703149Y-92826815D01*
X131668613Y-92793623D01*
X131556045Y-92632858D01*
X131395141Y-92471954D01*
X131208734Y-92341432D01*
X131208728Y-92341429D01*
X131150725Y-92314382D01*
X131098285Y-92268210D01*
X131079133Y-92201017D01*
X131099348Y-92134135D01*
X131150725Y-92089618D01*
X131151319Y-92089341D01*
X131208734Y-92062568D01*
X131395139Y-91932047D01*
X131556047Y-91771139D01*
X131581088Y-91735377D01*
X131635665Y-91691752D01*
X131682663Y-91682500D01*
X139773920Y-91682500D01*
X139871462Y-91663096D01*
X139918913Y-91653658D01*
X140055495Y-91597084D01*
X140104729Y-91564186D01*
X140178416Y-91514952D01*
X140790951Y-90902416D01*
X140873084Y-90779495D01*
X140873867Y-90777606D01*
X140885902Y-90748547D01*
X140929658Y-90642913D01*
X140942867Y-90576506D01*
X140946298Y-90559259D01*
X140958500Y-90497920D01*
X140958500Y-88082976D01*
X140978185Y-88015937D01*
X140986632Y-88004329D01*
X141043910Y-87934538D01*
X141136814Y-87760727D01*
X141194024Y-87572132D01*
X141213341Y-87376000D01*
X141194024Y-87179868D01*
X141136814Y-86991273D01*
X141136811Y-86991269D01*
X141136811Y-86991266D01*
X141043913Y-86817467D01*
X141043909Y-86817460D01*
X140931233Y-86680165D01*
X140903920Y-86615855D01*
X140915711Y-86546988D01*
X140962863Y-86495427D01*
X141027086Y-86477500D01*
X145445941Y-86477500D01*
X145512980Y-86497185D01*
X145558735Y-86549989D01*
X145569469Y-86612307D01*
X145556723Y-86757997D01*
X145556723Y-86758002D01*
X145575793Y-86975975D01*
X145575793Y-86975979D01*
X145632422Y-87187322D01*
X145632424Y-87187326D01*
X145632425Y-87187330D01*
X145633735Y-87190139D01*
X145724897Y-87385638D01*
X145746990Y-87417190D01*
X145850402Y-87564877D01*
X146005123Y-87719598D01*
X146184361Y-87845102D01*
X146382670Y-87937575D01*
X146594023Y-87994207D01*
X146776926Y-88010208D01*
X146811998Y-88013277D01*
X146812000Y-88013277D01*
X146812002Y-88013277D01*
X146840254Y-88010805D01*
X147029977Y-87994207D01*
X147241330Y-87937575D01*
X147439639Y-87845102D01*
X147618877Y-87719598D01*
X147773598Y-87564877D01*
X147899102Y-87385639D01*
X147991575Y-87187330D01*
X148048207Y-86975977D01*
X148067277Y-86758000D01*
X148048207Y-86540023D01*
X147991575Y-86328670D01*
X147899102Y-86130362D01*
X147899100Y-86130359D01*
X147899099Y-86130357D01*
X147773599Y-85951124D01*
X147773598Y-85951123D01*
X147618877Y-85796402D01*
X147439639Y-85670898D01*
X147439640Y-85670898D01*
X147439638Y-85670897D01*
X147340484Y-85624661D01*
X147241330Y-85578425D01*
X147241326Y-85578424D01*
X147241322Y-85578422D01*
X147029977Y-85521793D01*
X146812002Y-85502723D01*
X146811998Y-85502723D01*
X146666682Y-85515436D01*
X146594023Y-85521793D01*
X146594021Y-85521793D01*
X146594017Y-85521794D01*
X146557774Y-85531505D01*
X146487924Y-85529841D01*
X146438001Y-85499411D01*
X146398928Y-85460338D01*
X146398925Y-85460334D01*
X146398925Y-85460335D01*
X146391858Y-85453268D01*
X146391858Y-85453267D01*
X146304733Y-85366142D01*
X146304732Y-85366141D01*
X146304731Y-85366140D01*
X146253509Y-85331915D01*
X146202287Y-85297689D01*
X146202286Y-85297688D01*
X146202283Y-85297686D01*
X146202280Y-85297685D01*
X146121792Y-85264347D01*
X146088453Y-85250537D01*
X146078427Y-85248543D01*
X146028029Y-85238518D01*
X145967610Y-85226500D01*
X145967607Y-85226500D01*
X145967606Y-85226500D01*
X131770188Y-85226500D01*
X131703149Y-85206815D01*
X131668613Y-85173623D01*
X131556045Y-85012858D01*
X131395141Y-84851954D01*
X131208734Y-84721432D01*
X131208728Y-84721429D01*
X131150725Y-84694382D01*
X131098285Y-84648210D01*
X131079133Y-84581017D01*
X131099348Y-84514135D01*
X131150725Y-84469618D01*
X131208734Y-84442568D01*
X131395139Y-84312047D01*
X131556047Y-84151139D01*
X131668613Y-83990377D01*
X131723189Y-83946752D01*
X131770188Y-83937500D01*
X135189607Y-83937500D01*
X135250029Y-83925481D01*
X135310452Y-83913463D01*
X135310455Y-83913461D01*
X135310458Y-83913461D01*
X135343787Y-83899654D01*
X135343786Y-83899654D01*
X135343792Y-83899652D01*
X135424286Y-83866312D01*
X135475509Y-83832084D01*
X135526733Y-83797858D01*
X135613858Y-83710733D01*
X135613858Y-83710731D01*
X135624066Y-83700524D01*
X135624067Y-83700521D01*
X136851688Y-82472902D01*
X136913009Y-82439419D01*
X136982701Y-82444403D01*
X136986816Y-82446022D01*
X137067548Y-82479463D01*
X137127971Y-82491481D01*
X137188393Y-82503500D01*
X137188394Y-82503500D01*
X145658851Y-82503500D01*
X145725890Y-82523185D01*
X145760423Y-82556374D01*
X145850402Y-82684877D01*
X146005123Y-82839598D01*
X146184361Y-82965102D01*
X146382670Y-83057575D01*
X146594023Y-83114207D01*
X146776926Y-83130208D01*
X146811998Y-83133277D01*
X146812000Y-83133277D01*
X146812002Y-83133277D01*
X146840254Y-83130805D01*
X147029977Y-83114207D01*
X147241330Y-83057575D01*
X147439639Y-82965102D01*
X147618877Y-82839598D01*
X147773598Y-82684877D01*
X147899102Y-82505639D01*
X147991575Y-82307330D01*
X148048207Y-82095977D01*
X148067277Y-81878000D01*
X148048207Y-81660023D01*
X148013548Y-81530675D01*
X147991577Y-81448677D01*
X147991576Y-81448676D01*
X147991575Y-81448670D01*
X147899102Y-81250362D01*
X147899100Y-81250359D01*
X147899099Y-81250357D01*
X147773599Y-81071124D01*
X147701161Y-80998686D01*
X147618877Y-80916402D01*
X147439639Y-80790898D01*
X147439640Y-80790898D01*
X147439638Y-80790897D01*
X147340484Y-80744661D01*
X147241330Y-80698425D01*
X147241326Y-80698424D01*
X147241322Y-80698422D01*
X147029977Y-80641793D01*
X146812002Y-80622723D01*
X146811998Y-80622723D01*
X146666682Y-80635436D01*
X146594023Y-80641793D01*
X146594020Y-80641793D01*
X146382677Y-80698422D01*
X146382668Y-80698426D01*
X146184361Y-80790898D01*
X146184357Y-80790900D01*
X146005121Y-80916402D01*
X145850402Y-81071121D01*
X145760425Y-81199623D01*
X145705848Y-81243248D01*
X145658850Y-81252500D01*
X140927163Y-81252500D01*
X140860124Y-81232815D01*
X140814369Y-81180011D01*
X140804425Y-81110853D01*
X140833450Y-81047297D01*
X140848498Y-81032647D01*
X140918883Y-80974883D01*
X141043910Y-80822538D01*
X141110250Y-80698425D01*
X141136811Y-80648733D01*
X141136811Y-80648732D01*
X141136814Y-80648727D01*
X141194024Y-80460132D01*
X141213341Y-80264000D01*
X141194024Y-80067868D01*
X141136814Y-79879273D01*
X141136811Y-79879269D01*
X141136811Y-79879266D01*
X141043913Y-79705467D01*
X141043909Y-79705460D01*
X140918883Y-79553116D01*
X140766539Y-79428090D01*
X140766532Y-79428086D01*
X140592733Y-79335188D01*
X140592727Y-79335186D01*
X140404132Y-79277976D01*
X140404129Y-79277975D01*
X140208000Y-79258659D01*
X140011870Y-79277975D01*
X139823266Y-79335188D01*
X139649467Y-79428086D01*
X139649460Y-79428090D01*
X139579687Y-79485353D01*
X139515377Y-79512666D01*
X139501022Y-79513500D01*
X135834978Y-79513500D01*
X135767939Y-79493815D01*
X135756313Y-79485353D01*
X135686539Y-79428090D01*
X135686532Y-79428086D01*
X135512733Y-79335188D01*
X135512727Y-79335186D01*
X135324132Y-79277976D01*
X135324129Y-79277975D01*
X135128000Y-79258659D01*
X134931870Y-79277975D01*
X134743266Y-79335188D01*
X134569467Y-79428086D01*
X134569460Y-79428090D01*
X134417116Y-79553116D01*
X134292090Y-79705460D01*
X134292086Y-79705467D01*
X134199188Y-79879266D01*
X134141975Y-80067870D01*
X134122659Y-80264000D01*
X134141975Y-80460129D01*
X134199188Y-80648733D01*
X134292086Y-80822532D01*
X134292090Y-80822539D01*
X134417116Y-80974883D01*
X134569460Y-81099909D01*
X134569467Y-81099913D01*
X134743266Y-81192811D01*
X134743269Y-81192811D01*
X134743273Y-81192814D01*
X134931868Y-81250024D01*
X135128000Y-81269341D01*
X135324132Y-81250024D01*
X135512727Y-81192814D01*
X135524471Y-81186537D01*
X135686532Y-81099913D01*
X135686538Y-81099910D01*
X135756313Y-81042647D01*
X135820623Y-81015334D01*
X135834978Y-81014500D01*
X136274981Y-81014500D01*
X136342020Y-81034185D01*
X136387775Y-81086989D01*
X136397719Y-81156147D01*
X136368694Y-81219703D01*
X136343873Y-81241600D01*
X136331268Y-81250024D01*
X136327562Y-81252500D01*
X136327561Y-81252500D01*
X136253270Y-81302139D01*
X136253262Y-81302145D01*
X134905229Y-82650181D01*
X134843906Y-82683666D01*
X134817548Y-82686500D01*
X131770188Y-82686500D01*
X131703149Y-82666815D01*
X131668613Y-82633623D01*
X131556045Y-82472858D01*
X131395141Y-82311954D01*
X131208734Y-82181432D01*
X131208728Y-82181429D01*
X131150725Y-82154382D01*
X131098285Y-82108210D01*
X131079133Y-82041017D01*
X131099348Y-81974135D01*
X131150725Y-81929618D01*
X131208734Y-81902568D01*
X131395139Y-81772047D01*
X131556047Y-81611139D01*
X131686568Y-81424734D01*
X131782739Y-81218496D01*
X131841635Y-80998692D01*
X131861468Y-80772000D01*
X131841635Y-80545308D01*
X131782739Y-80325504D01*
X131686568Y-80119266D01*
X131556047Y-79932861D01*
X131556045Y-79932858D01*
X131395141Y-79771954D01*
X131208734Y-79641432D01*
X131208728Y-79641429D01*
X131150725Y-79614382D01*
X131098285Y-79568210D01*
X131079133Y-79501017D01*
X131099348Y-79434135D01*
X131150725Y-79389618D01*
X131208734Y-79362568D01*
X131395139Y-79232047D01*
X131556047Y-79071139D01*
X131686568Y-78884734D01*
X131782739Y-78678496D01*
X131841635Y-78458692D01*
X131861468Y-78232000D01*
X131841635Y-78005308D01*
X131782739Y-77785504D01*
X131686568Y-77579266D01*
X131556047Y-77392861D01*
X131556045Y-77392858D01*
X131395141Y-77231954D01*
X131208734Y-77101432D01*
X131208728Y-77101429D01*
X131150725Y-77074382D01*
X131098285Y-77028210D01*
X131079133Y-76961017D01*
X131099348Y-76894135D01*
X131150725Y-76849618D01*
X131208734Y-76822568D01*
X131395139Y-76692047D01*
X131556047Y-76531139D01*
X131686568Y-76344734D01*
X131782739Y-76138496D01*
X131841635Y-75918692D01*
X131861468Y-75692000D01*
X131841635Y-75465308D01*
X131782739Y-75245504D01*
X131686568Y-75039266D01*
X131556047Y-74852861D01*
X131556045Y-74852858D01*
X131395141Y-74691954D01*
X131208734Y-74561432D01*
X131208728Y-74561429D01*
X131150725Y-74534382D01*
X131098285Y-74488210D01*
X131079133Y-74421017D01*
X131099348Y-74354135D01*
X131150725Y-74309618D01*
X131208734Y-74282568D01*
X131395139Y-74152047D01*
X131556047Y-73991139D01*
X131668613Y-73830377D01*
X131723189Y-73786752D01*
X131770188Y-73777500D01*
X132649606Y-73777500D01*
X136107145Y-73777500D01*
X136173116Y-73796505D01*
X136302478Y-73877789D01*
X136472745Y-73937368D01*
X136472750Y-73937369D01*
X136651996Y-73957565D01*
X136652000Y-73957565D01*
X136652004Y-73957565D01*
X136831249Y-73937369D01*
X136831252Y-73937368D01*
X136831255Y-73937368D01*
X137001522Y-73877789D01*
X137154262Y-73781816D01*
X137281816Y-73654262D01*
X137377789Y-73501522D01*
X137437368Y-73331255D01*
X137457565Y-73152000D01*
X137437368Y-72972745D01*
X137377789Y-72802478D01*
X137281816Y-72649738D01*
X137154262Y-72522184D01*
X137130883Y-72507494D01*
X137001523Y-72426211D01*
X136831254Y-72366631D01*
X136831249Y-72366630D01*
X136652004Y-72346435D01*
X136651996Y-72346435D01*
X136472750Y-72366630D01*
X136472745Y-72366631D01*
X136302476Y-72426211D01*
X136173117Y-72507494D01*
X136107145Y-72526500D01*
X131770188Y-72526500D01*
X131703149Y-72506815D01*
X131668613Y-72473623D01*
X131556045Y-72312858D01*
X131395141Y-72151954D01*
X131208734Y-72021432D01*
X131208732Y-72021431D01*
X131002497Y-71925261D01*
X131002488Y-71925258D01*
X130782697Y-71866366D01*
X130782693Y-71866365D01*
X130782692Y-71866365D01*
X130782691Y-71866364D01*
X130782686Y-71866364D01*
X130556002Y-71846532D01*
X130555998Y-71846532D01*
X130329313Y-71866364D01*
X130329302Y-71866366D01*
X130109511Y-71925258D01*
X130109502Y-71925261D01*
X129903267Y-72021431D01*
X129903265Y-72021432D01*
X129716858Y-72151954D01*
X129555954Y-72312858D01*
X129425432Y-72499265D01*
X129425431Y-72499267D01*
X129329261Y-72705502D01*
X129329258Y-72705511D01*
X129270366Y-72925302D01*
X129270364Y-72925313D01*
X129250532Y-73151998D01*
X129250532Y-73152001D01*
X129270364Y-73378686D01*
X129270366Y-73378697D01*
X129329258Y-73598488D01*
X129329261Y-73598497D01*
X129425431Y-73804732D01*
X129425432Y-73804734D01*
X129555954Y-73991141D01*
X129716858Y-74152045D01*
X129716861Y-74152047D01*
X129903266Y-74282568D01*
X129961275Y-74309618D01*
X130013714Y-74355791D01*
X130032866Y-74422984D01*
X130012650Y-74489865D01*
X129961275Y-74534382D01*
X129903267Y-74561431D01*
X129903265Y-74561432D01*
X129716858Y-74691954D01*
X129555954Y-74852858D01*
X129443387Y-75013623D01*
X129388811Y-75057248D01*
X129341812Y-75066500D01*
X127818452Y-75066500D01*
X127751413Y-75046815D01*
X127730771Y-75030181D01*
X127153819Y-74453229D01*
X127120334Y-74391906D01*
X127117500Y-74365548D01*
X127117500Y-69088003D01*
X130766435Y-69088003D01*
X130786630Y-69267249D01*
X130786631Y-69267254D01*
X130846211Y-69437523D01*
X130890429Y-69507895D01*
X130942184Y-69590262D01*
X131069738Y-69717816D01*
X131222478Y-69813789D01*
X131392745Y-69873368D01*
X131392750Y-69873369D01*
X131571996Y-69893565D01*
X131572000Y-69893565D01*
X131572004Y-69893565D01*
X131751249Y-69873369D01*
X131751252Y-69873368D01*
X131751255Y-69873368D01*
X131921522Y-69813789D01*
X132074262Y-69717816D01*
X132201816Y-69590262D01*
X132297789Y-69437522D01*
X132357368Y-69267255D01*
X132377565Y-69088000D01*
X132375954Y-69073706D01*
X132357369Y-68908750D01*
X132357368Y-68908745D01*
X132297788Y-68738476D01*
X132216506Y-68609117D01*
X132197500Y-68543145D01*
X132197500Y-65024004D01*
X133353037Y-65024004D01*
X133372860Y-65288535D01*
X133372861Y-65288540D01*
X133431890Y-65547166D01*
X133431896Y-65547185D01*
X133528814Y-65794128D01*
X133528813Y-65794128D01*
X133661457Y-66023871D01*
X133711642Y-66086803D01*
X133711643Y-66086803D01*
X134526958Y-65271488D01*
X134551978Y-65331890D01*
X134623112Y-65438351D01*
X134713649Y-65528888D01*
X134820110Y-65600022D01*
X134880510Y-65625041D01*
X134064438Y-66441112D01*
X134240525Y-66561166D01*
X134240526Y-66561167D01*
X134479530Y-66676264D01*
X134479528Y-66676264D01*
X134733025Y-66754458D01*
X134733031Y-66754459D01*
X134995351Y-66793999D01*
X134995358Y-66794000D01*
X135260642Y-66794000D01*
X135260648Y-66793999D01*
X135522968Y-66754459D01*
X135522974Y-66754458D01*
X135776470Y-66676264D01*
X136015479Y-66561164D01*
X136191560Y-66441112D01*
X135375488Y-65625041D01*
X135435890Y-65600022D01*
X135542351Y-65528888D01*
X135632888Y-65438351D01*
X135704022Y-65331890D01*
X135729041Y-65271488D01*
X136544355Y-66086803D01*
X136544356Y-66086802D01*
X136594545Y-66023869D01*
X136727185Y-65794128D01*
X136824103Y-65547185D01*
X136824109Y-65547166D01*
X136883138Y-65288540D01*
X136883139Y-65288535D01*
X136902963Y-65024004D01*
X136902963Y-65023995D01*
X136883139Y-64759464D01*
X136883138Y-64759459D01*
X136824109Y-64500833D01*
X136824103Y-64500814D01*
X136727185Y-64253871D01*
X136727186Y-64253871D01*
X136594543Y-64024129D01*
X136594536Y-64024118D01*
X136544356Y-63961196D01*
X136544355Y-63961195D01*
X135729041Y-64776510D01*
X135704022Y-64716110D01*
X135632888Y-64609649D01*
X135542351Y-64519112D01*
X135435890Y-64447978D01*
X135375488Y-64422958D01*
X136191560Y-63606886D01*
X136015484Y-63486839D01*
X136015474Y-63486832D01*
X135776469Y-63371735D01*
X135776471Y-63371735D01*
X135522974Y-63293541D01*
X135522968Y-63293540D01*
X135260648Y-63254000D01*
X134995351Y-63254000D01*
X134733031Y-63293540D01*
X134733025Y-63293541D01*
X134479529Y-63371735D01*
X134240526Y-63486832D01*
X134240518Y-63486837D01*
X134064438Y-63606886D01*
X134880511Y-64422958D01*
X134820110Y-64447978D01*
X134713649Y-64519112D01*
X134623112Y-64609649D01*
X134551978Y-64716110D01*
X134526958Y-64776511D01*
X133711643Y-63961196D01*
X133661456Y-64024128D01*
X133528814Y-64253871D01*
X133431896Y-64500814D01*
X133431890Y-64500833D01*
X133372861Y-64759459D01*
X133372860Y-64759464D01*
X133353037Y-65023995D01*
X133353037Y-65024004D01*
X132197500Y-65024004D01*
X132197500Y-64552854D01*
X132216507Y-64486881D01*
X132297788Y-64357524D01*
X132315422Y-64307129D01*
X132357368Y-64187255D01*
X132360871Y-64156164D01*
X132377565Y-64008003D01*
X132377565Y-64007996D01*
X132357369Y-63828750D01*
X132357368Y-63828745D01*
X132314462Y-63706127D01*
X132297789Y-63658478D01*
X132290273Y-63646517D01*
X132205544Y-63511671D01*
X132201816Y-63505738D01*
X132074262Y-63378184D01*
X131921523Y-63282211D01*
X131751254Y-63222631D01*
X131751249Y-63222630D01*
X131572004Y-63202435D01*
X131571996Y-63202435D01*
X131392750Y-63222630D01*
X131392745Y-63222631D01*
X131222476Y-63282211D01*
X131069737Y-63378184D01*
X130942184Y-63505737D01*
X130846211Y-63658476D01*
X130786631Y-63828745D01*
X130786630Y-63828750D01*
X130766435Y-64007996D01*
X130766435Y-64008003D01*
X130786630Y-64187249D01*
X130786631Y-64187254D01*
X130846211Y-64357524D01*
X130927493Y-64486881D01*
X130946500Y-64552854D01*
X130946500Y-68543145D01*
X130927494Y-68609117D01*
X130846211Y-68738476D01*
X130786631Y-68908745D01*
X130786630Y-68908750D01*
X130766435Y-69087996D01*
X130766435Y-69088003D01*
X127117500Y-69088003D01*
X127117500Y-64552854D01*
X127136507Y-64486881D01*
X127217788Y-64357524D01*
X127235422Y-64307129D01*
X127277368Y-64187255D01*
X127280871Y-64156164D01*
X127297565Y-64008003D01*
X127297565Y-64007996D01*
X127277369Y-63828750D01*
X127277368Y-63828745D01*
X127234462Y-63706127D01*
X127217789Y-63658478D01*
X127210273Y-63646517D01*
X127125544Y-63511671D01*
X127121816Y-63505738D01*
X126994262Y-63378184D01*
X126841523Y-63282211D01*
X126671254Y-63222631D01*
X126671249Y-63222630D01*
X126492004Y-63202435D01*
X126491996Y-63202435D01*
X126312750Y-63222630D01*
X126312745Y-63222631D01*
X126142476Y-63282211D01*
X125989737Y-63378184D01*
X125862184Y-63505737D01*
X125766211Y-63658476D01*
X125706631Y-63828745D01*
X125706630Y-63828750D01*
X125686435Y-64007996D01*
X125686435Y-64008003D01*
X125706630Y-64187249D01*
X125706631Y-64187254D01*
X125766211Y-64357524D01*
X125847493Y-64486881D01*
X125866500Y-64552854D01*
X125866500Y-74737611D01*
X125890535Y-74858444D01*
X125890540Y-74858461D01*
X125937685Y-74972280D01*
X125937690Y-74972289D01*
X125971914Y-75023507D01*
X125971915Y-75023509D01*
X126006141Y-75074733D01*
X126097586Y-75166178D01*
X126097608Y-75166198D01*
X127019016Y-76087606D01*
X127019045Y-76087637D01*
X127109264Y-76177856D01*
X127109267Y-76177858D01*
X127160490Y-76212084D01*
X127211714Y-76246312D01*
X127292207Y-76279652D01*
X127325548Y-76293463D01*
X127385971Y-76305481D01*
X127446393Y-76317500D01*
X127446394Y-76317500D01*
X129341812Y-76317500D01*
X129408851Y-76337185D01*
X129443387Y-76370377D01*
X129555954Y-76531141D01*
X129716858Y-76692045D01*
X129716861Y-76692047D01*
X129903266Y-76822568D01*
X129961275Y-76849618D01*
X130013714Y-76895791D01*
X130032866Y-76962984D01*
X130012650Y-77029865D01*
X129961275Y-77074382D01*
X129903267Y-77101431D01*
X129903265Y-77101432D01*
X129716858Y-77231954D01*
X129555954Y-77392858D01*
X129425432Y-77579265D01*
X129425431Y-77579267D01*
X129329261Y-77785502D01*
X129329258Y-77785511D01*
X129270366Y-78005302D01*
X129270364Y-78005313D01*
X129250532Y-78231998D01*
X129250532Y-78232001D01*
X129270364Y-78458686D01*
X129270366Y-78458697D01*
X129329258Y-78678488D01*
X129329261Y-78678497D01*
X129425431Y-78884732D01*
X129425432Y-78884734D01*
X129555954Y-79071141D01*
X129716858Y-79232045D01*
X129716861Y-79232047D01*
X129903266Y-79362568D01*
X129961275Y-79389618D01*
X130013714Y-79435791D01*
X130032866Y-79502984D01*
X130012650Y-79569865D01*
X129961275Y-79614382D01*
X129903267Y-79641431D01*
X129903265Y-79641432D01*
X129716858Y-79771954D01*
X129555954Y-79932858D01*
X129425432Y-80119265D01*
X129425431Y-80119267D01*
X129329261Y-80325502D01*
X129329258Y-80325511D01*
X129270366Y-80545302D01*
X129270364Y-80545313D01*
X129250532Y-80771998D01*
X129250532Y-80772001D01*
X129270364Y-80998686D01*
X129270366Y-80998697D01*
X129329258Y-81218488D01*
X129329261Y-81218497D01*
X129425431Y-81424732D01*
X129425432Y-81424734D01*
X129555954Y-81611141D01*
X129716858Y-81772045D01*
X129716861Y-81772047D01*
X129903266Y-81902568D01*
X129961275Y-81929618D01*
X130013714Y-81975791D01*
X130032866Y-82042984D01*
X130012650Y-82109865D01*
X129961275Y-82154382D01*
X129903267Y-82181431D01*
X129903265Y-82181432D01*
X129716858Y-82311954D01*
X129555954Y-82472858D01*
X129425432Y-82659265D01*
X129425431Y-82659267D01*
X129329261Y-82865502D01*
X129329258Y-82865511D01*
X129270366Y-83085302D01*
X129270364Y-83085313D01*
X129250532Y-83311998D01*
X129250532Y-83312001D01*
X129270364Y-83538686D01*
X129270366Y-83538697D01*
X129329258Y-83758488D01*
X129329261Y-83758497D01*
X129425431Y-83964732D01*
X129425432Y-83964734D01*
X129555954Y-84151141D01*
X129716858Y-84312045D01*
X129716861Y-84312047D01*
X129903266Y-84442568D01*
X129961275Y-84469618D01*
X130013714Y-84515791D01*
X130032866Y-84582984D01*
X130012650Y-84649865D01*
X129961275Y-84694382D01*
X129903267Y-84721431D01*
X129903265Y-84721432D01*
X129716858Y-84851954D01*
X129555954Y-85012858D01*
X129425432Y-85199265D01*
X129425431Y-85199267D01*
X129329261Y-85405502D01*
X129329258Y-85405511D01*
X129270366Y-85625302D01*
X129270364Y-85625313D01*
X129250532Y-85851998D01*
X129250532Y-85852001D01*
X129270364Y-86078686D01*
X129270366Y-86078697D01*
X129329258Y-86298488D01*
X129329261Y-86298497D01*
X129425431Y-86504732D01*
X129425432Y-86504734D01*
X129555954Y-86691141D01*
X129716858Y-86852045D01*
X129716861Y-86852047D01*
X129903266Y-86982568D01*
X129961865Y-87009893D01*
X130014305Y-87056065D01*
X130033457Y-87123258D01*
X130013242Y-87190139D01*
X129961867Y-87234657D01*
X129903515Y-87261867D01*
X129717179Y-87392342D01*
X129556342Y-87553179D01*
X129425865Y-87739517D01*
X129329734Y-87945673D01*
X129329730Y-87945682D01*
X129277127Y-88141999D01*
X129277128Y-88142000D01*
X130240314Y-88142000D01*
X130235920Y-88146394D01*
X130183259Y-88237606D01*
X130156000Y-88339339D01*
X130156000Y-88444661D01*
X130183259Y-88546394D01*
X130235920Y-88637606D01*
X130240314Y-88642000D01*
X129277128Y-88642000D01*
X129329730Y-88838317D01*
X129329734Y-88838326D01*
X129425865Y-89044482D01*
X129556342Y-89230820D01*
X129717179Y-89391657D01*
X129903518Y-89522134D01*
X129903520Y-89522135D01*
X129961865Y-89549342D01*
X130014305Y-89595514D01*
X130033457Y-89662707D01*
X130013242Y-89729589D01*
X129961867Y-89774105D01*
X129960685Y-89774657D01*
X129903264Y-89801433D01*
X129716858Y-89931954D01*
X129555954Y-90092858D01*
X129530912Y-90128623D01*
X129476335Y-90172248D01*
X129429337Y-90181500D01*
X128378229Y-90181500D01*
X128311190Y-90161815D01*
X128290548Y-90145181D01*
X126262819Y-88117451D01*
X126229334Y-88056128D01*
X126226500Y-88029770D01*
X126226500Y-86794079D01*
X126197659Y-86649092D01*
X126197658Y-86649091D01*
X126197658Y-86649087D01*
X126141084Y-86512505D01*
X126103941Y-86456916D01*
X126103941Y-86456915D01*
X126058950Y-86389581D01*
X124938421Y-85269052D01*
X124938414Y-85269046D01*
X124864729Y-85219812D01*
X124864729Y-85219813D01*
X124815491Y-85186913D01*
X124678917Y-85130343D01*
X124678907Y-85130340D01*
X124533920Y-85101500D01*
X124533918Y-85101500D01*
X124062663Y-85101500D01*
X123995624Y-85081815D01*
X123961088Y-85048623D01*
X123936045Y-85012858D01*
X123775141Y-84851954D01*
X123588734Y-84721432D01*
X123588728Y-84721429D01*
X123530725Y-84694382D01*
X123478285Y-84648210D01*
X123459133Y-84581017D01*
X123479348Y-84514135D01*
X123530725Y-84469618D01*
X123588734Y-84442568D01*
X123775139Y-84312047D01*
X123936047Y-84151139D01*
X124066568Y-83964734D01*
X124162739Y-83758496D01*
X124221635Y-83538692D01*
X124241468Y-83312000D01*
X124221635Y-83085308D01*
X124162739Y-82865504D01*
X124066568Y-82659266D01*
X123958998Y-82505639D01*
X123936045Y-82472858D01*
X123775141Y-82311954D01*
X123588734Y-82181432D01*
X123588728Y-82181429D01*
X123530725Y-82154382D01*
X123478285Y-82108210D01*
X123459133Y-82041017D01*
X123479348Y-81974135D01*
X123530725Y-81929618D01*
X123588734Y-81902568D01*
X123775139Y-81772047D01*
X123936047Y-81611139D01*
X124066568Y-81424734D01*
X124162739Y-81218496D01*
X124221635Y-80998692D01*
X124241468Y-80772000D01*
X124221635Y-80545308D01*
X124162739Y-80325504D01*
X124066568Y-80119266D01*
X123936047Y-79932861D01*
X123936045Y-79932858D01*
X123775141Y-79771954D01*
X123588734Y-79641432D01*
X123588728Y-79641429D01*
X123530725Y-79614382D01*
X123478285Y-79568210D01*
X123459133Y-79501017D01*
X123479348Y-79434135D01*
X123530725Y-79389618D01*
X123588734Y-79362568D01*
X123775139Y-79232047D01*
X123936047Y-79071139D01*
X124066568Y-78884734D01*
X124162739Y-78678496D01*
X124221635Y-78458692D01*
X124241468Y-78232000D01*
X124221635Y-78005308D01*
X124162739Y-77785504D01*
X124066568Y-77579266D01*
X123936047Y-77392861D01*
X123936045Y-77392858D01*
X123775141Y-77231954D01*
X123588734Y-77101432D01*
X123588728Y-77101429D01*
X123530725Y-77074382D01*
X123478285Y-77028210D01*
X123459133Y-76961017D01*
X123479348Y-76894135D01*
X123530725Y-76849618D01*
X123588734Y-76822568D01*
X123775139Y-76692047D01*
X123936047Y-76531139D01*
X124066568Y-76344734D01*
X124162739Y-76138496D01*
X124221635Y-75918692D01*
X124241468Y-75692000D01*
X124221635Y-75465308D01*
X124162739Y-75245504D01*
X124066568Y-75039266D01*
X123936047Y-74852861D01*
X123936045Y-74852858D01*
X123775141Y-74691954D01*
X123588734Y-74561432D01*
X123588728Y-74561429D01*
X123530725Y-74534382D01*
X123478285Y-74488210D01*
X123459133Y-74421017D01*
X123479348Y-74354135D01*
X123530725Y-74309618D01*
X123588734Y-74282568D01*
X123775139Y-74152047D01*
X123936047Y-73991139D01*
X124066568Y-73804734D01*
X124162739Y-73598496D01*
X124221635Y-73378692D01*
X124241468Y-73152000D01*
X124221635Y-72925308D01*
X124162739Y-72705504D01*
X124066568Y-72499266D01*
X123936047Y-72312861D01*
X123936045Y-72312858D01*
X123775141Y-72151954D01*
X123588734Y-72021432D01*
X123588732Y-72021431D01*
X123382497Y-71925261D01*
X123382488Y-71925258D01*
X123162697Y-71866366D01*
X123162693Y-71866365D01*
X123162692Y-71866365D01*
X123162691Y-71866364D01*
X123162686Y-71866364D01*
X122936002Y-71846532D01*
X122935998Y-71846532D01*
X122709313Y-71866364D01*
X122709302Y-71866366D01*
X122489511Y-71925258D01*
X122489502Y-71925261D01*
X122283267Y-72021431D01*
X122283265Y-72021432D01*
X122096858Y-72151954D01*
X121935954Y-72312858D01*
X121805432Y-72499265D01*
X121805431Y-72499267D01*
X121709261Y-72705502D01*
X121709258Y-72705511D01*
X121650366Y-72925302D01*
X121650364Y-72925313D01*
X121630532Y-73151998D01*
X121630532Y-73152001D01*
X121650364Y-73378686D01*
X121650366Y-73378697D01*
X121709258Y-73598488D01*
X121709261Y-73598497D01*
X121805431Y-73804732D01*
X121805432Y-73804734D01*
X121935954Y-73991141D01*
X122096858Y-74152045D01*
X122096861Y-74152047D01*
X122283266Y-74282568D01*
X122341275Y-74309618D01*
X122393714Y-74355791D01*
X122412866Y-74422984D01*
X122392650Y-74489865D01*
X122341275Y-74534382D01*
X122283267Y-74561431D01*
X122283265Y-74561432D01*
X122096858Y-74691954D01*
X121935954Y-74852858D01*
X121805432Y-75039265D01*
X121805431Y-75039267D01*
X121709261Y-75245502D01*
X121709258Y-75245511D01*
X121650366Y-75465302D01*
X121650364Y-75465313D01*
X121630532Y-75691998D01*
X121630532Y-75692001D01*
X121650364Y-75918686D01*
X121650366Y-75918697D01*
X121709258Y-76138488D01*
X121709261Y-76138497D01*
X121805431Y-76344732D01*
X121805432Y-76344734D01*
X121935954Y-76531141D01*
X122096858Y-76692045D01*
X122096861Y-76692047D01*
X122283266Y-76822568D01*
X122341275Y-76849618D01*
X122393714Y-76895791D01*
X122412866Y-76962984D01*
X122392650Y-77029865D01*
X122341275Y-77074382D01*
X122283267Y-77101431D01*
X122283265Y-77101432D01*
X122096858Y-77231954D01*
X121935954Y-77392858D01*
X121823387Y-77553623D01*
X121768811Y-77597248D01*
X121721812Y-77606500D01*
X120706452Y-77606500D01*
X120639413Y-77586815D01*
X120618771Y-77570181D01*
X120041819Y-76993229D01*
X120008334Y-76931906D01*
X120005500Y-76905548D01*
X120005500Y-58730453D01*
X120025185Y-58663414D01*
X120041819Y-58642771D01*
X120110773Y-58573818D01*
X120172097Y-58540334D01*
X120198454Y-58537500D01*
X121981607Y-58537500D01*
X122042029Y-58525481D01*
X122102452Y-58513463D01*
X122102455Y-58513461D01*
X122102458Y-58513461D01*
X122135787Y-58499654D01*
X122135786Y-58499654D01*
X122135792Y-58499652D01*
X122216286Y-58466312D01*
X122267509Y-58432084D01*
X122318733Y-58397858D01*
X122405858Y-58310733D01*
X122405859Y-58310731D01*
X122412925Y-58303665D01*
X122412928Y-58303661D01*
X124350729Y-56365860D01*
X124350733Y-56365858D01*
X124408587Y-56308004D01*
X131798451Y-56308004D01*
X131818616Y-56577101D01*
X131878664Y-56840188D01*
X131878666Y-56840195D01*
X131924901Y-56958000D01*
X131977257Y-57091398D01*
X132112185Y-57325102D01*
X132165655Y-57392151D01*
X132280442Y-57536089D01*
X132417318Y-57663090D01*
X132478259Y-57719635D01*
X132701226Y-57871651D01*
X132944359Y-57988738D01*
X133202228Y-58068280D01*
X133202229Y-58068280D01*
X133202232Y-58068281D01*
X133469063Y-58108499D01*
X133469068Y-58108499D01*
X133469071Y-58108500D01*
X133469072Y-58108500D01*
X133738928Y-58108500D01*
X133738929Y-58108500D01*
X133738936Y-58108499D01*
X134005767Y-58068281D01*
X134005768Y-58068280D01*
X134005772Y-58068280D01*
X134263641Y-57988738D01*
X134506775Y-57871651D01*
X134729741Y-57719635D01*
X134927561Y-57536085D01*
X135095815Y-57325102D01*
X135230743Y-57091398D01*
X135329334Y-56840195D01*
X135389383Y-56577103D01*
X135409549Y-56308004D01*
X136878451Y-56308004D01*
X136898616Y-56577101D01*
X136958664Y-56840188D01*
X136958666Y-56840195D01*
X137004901Y-56958000D01*
X137057257Y-57091398D01*
X137192185Y-57325102D01*
X137245655Y-57392151D01*
X137360442Y-57536089D01*
X137497318Y-57663090D01*
X137558259Y-57719635D01*
X137781226Y-57871651D01*
X137781231Y-57871653D01*
X137781232Y-57871654D01*
X137781233Y-57871655D01*
X137916311Y-57936705D01*
X137988301Y-57971373D01*
X138040161Y-58018195D01*
X138058500Y-58083093D01*
X138058500Y-76829040D01*
X138038815Y-76896079D01*
X137986011Y-76941834D01*
X137975454Y-76946082D01*
X137826478Y-76998210D01*
X137673737Y-77094184D01*
X137546184Y-77221737D01*
X137450211Y-77374476D01*
X137390632Y-77544744D01*
X137390630Y-77544750D01*
X137370435Y-77723996D01*
X137370435Y-77724003D01*
X137390630Y-77903249D01*
X137390631Y-77903254D01*
X137450211Y-78073523D01*
X137546184Y-78226262D01*
X137673738Y-78353816D01*
X137764080Y-78410582D01*
X137794264Y-78429548D01*
X137826478Y-78449789D01*
X137851936Y-78458697D01*
X137996745Y-78509368D01*
X137996750Y-78509369D01*
X138175996Y-78529565D01*
X138176000Y-78529565D01*
X138176004Y-78529565D01*
X138355249Y-78509369D01*
X138355252Y-78509368D01*
X138355255Y-78509368D01*
X138525522Y-78449789D01*
X138678262Y-78353816D01*
X138805816Y-78226262D01*
X138901789Y-78073522D01*
X138961368Y-77903255D01*
X138966672Y-77856174D01*
X138993737Y-77791764D01*
X139002191Y-77782399D01*
X139169857Y-77614734D01*
X139216623Y-77544745D01*
X139238311Y-77512286D01*
X139285463Y-77398452D01*
X139309500Y-77277606D01*
X139309500Y-75615000D01*
X140360551Y-75615000D01*
X140380317Y-75866151D01*
X140439126Y-76111110D01*
X140535533Y-76343859D01*
X140667160Y-76558653D01*
X140667161Y-76558656D01*
X140667164Y-76558659D01*
X140830776Y-76750224D01*
X140979066Y-76876875D01*
X141022343Y-76913838D01*
X141022346Y-76913839D01*
X141237140Y-77045466D01*
X141354757Y-77094184D01*
X141469889Y-77141873D01*
X141714852Y-77200683D01*
X141966000Y-77220449D01*
X142217148Y-77200683D01*
X142462111Y-77141873D01*
X142694859Y-77045466D01*
X142909659Y-76913836D01*
X143086417Y-76762870D01*
X145445500Y-76762870D01*
X145445501Y-76762876D01*
X145451908Y-76822483D01*
X145502202Y-76957328D01*
X145502206Y-76957335D01*
X145588452Y-77072544D01*
X145588455Y-77072547D01*
X145703664Y-77158793D01*
X145703671Y-77158797D01*
X145838517Y-77209091D01*
X145838516Y-77209091D01*
X145845444Y-77209835D01*
X145898127Y-77215500D01*
X148193872Y-77215499D01*
X148253483Y-77209091D01*
X148388331Y-77158796D01*
X148503546Y-77072546D01*
X148589796Y-76957331D01*
X148640091Y-76822483D01*
X148646500Y-76762873D01*
X148646499Y-74467128D01*
X148640091Y-74407517D01*
X148634268Y-74391906D01*
X148589797Y-74272671D01*
X148589793Y-74272664D01*
X148503547Y-74157455D01*
X148503544Y-74157452D01*
X148388335Y-74071206D01*
X148388328Y-74071202D01*
X148253482Y-74020908D01*
X148253483Y-74020908D01*
X148193883Y-74014501D01*
X148193881Y-74014500D01*
X148193873Y-74014500D01*
X148193864Y-74014500D01*
X145898129Y-74014500D01*
X145898123Y-74014501D01*
X145838516Y-74020908D01*
X145703671Y-74071202D01*
X145703664Y-74071206D01*
X145588455Y-74157452D01*
X145588452Y-74157455D01*
X145502206Y-74272664D01*
X145502202Y-74272671D01*
X145451908Y-74407517D01*
X145445501Y-74467116D01*
X145445501Y-74467123D01*
X145445500Y-74467135D01*
X145445500Y-76762870D01*
X143086417Y-76762870D01*
X143101224Y-76750224D01*
X143264836Y-76558659D01*
X143396466Y-76343859D01*
X143492873Y-76111111D01*
X143551683Y-75866148D01*
X143571449Y-75615000D01*
X143551683Y-75363852D01*
X143492873Y-75118889D01*
X143456129Y-75030181D01*
X143396466Y-74886140D01*
X143264839Y-74671346D01*
X143264838Y-74671343D01*
X143216198Y-74614393D01*
X143101224Y-74479776D01*
X142954117Y-74354135D01*
X142909656Y-74316161D01*
X142909653Y-74316160D01*
X142694859Y-74184533D01*
X142462110Y-74088126D01*
X142217151Y-74029317D01*
X141966000Y-74009551D01*
X141714848Y-74029317D01*
X141469889Y-74088126D01*
X141237140Y-74184533D01*
X141022346Y-74316160D01*
X141022343Y-74316161D01*
X140830776Y-74479776D01*
X140667161Y-74671343D01*
X140667160Y-74671346D01*
X140535533Y-74886140D01*
X140439126Y-75118889D01*
X140380317Y-75363848D01*
X140360551Y-75615000D01*
X139309500Y-75615000D01*
X139309500Y-70225288D01*
X150422500Y-70225288D01*
X150454161Y-70465785D01*
X150516947Y-70700104D01*
X150609773Y-70924205D01*
X150609776Y-70924212D01*
X150731064Y-71134289D01*
X150731066Y-71134292D01*
X150731067Y-71134293D01*
X150878733Y-71326736D01*
X150878739Y-71326743D01*
X151050256Y-71498260D01*
X151050262Y-71498265D01*
X151242711Y-71645936D01*
X151452788Y-71767224D01*
X151676900Y-71860054D01*
X151911211Y-71922838D01*
X152091586Y-71946584D01*
X152151711Y-71954500D01*
X152151712Y-71954500D01*
X152394289Y-71954500D01*
X152442388Y-71948167D01*
X152634789Y-71922838D01*
X152869100Y-71860054D01*
X153093212Y-71767224D01*
X153303289Y-71645936D01*
X153495738Y-71498265D01*
X153667265Y-71326738D01*
X153814936Y-71134289D01*
X153936224Y-70924212D01*
X154029054Y-70700100D01*
X154091838Y-70465789D01*
X154123500Y-70225288D01*
X154123500Y-69982712D01*
X154091838Y-69742211D01*
X154029054Y-69507900D01*
X153936224Y-69283788D01*
X153814936Y-69073711D01*
X153688357Y-68908750D01*
X153667266Y-68881263D01*
X153667260Y-68881256D01*
X153495743Y-68709739D01*
X153495736Y-68709733D01*
X153303293Y-68562067D01*
X153303292Y-68562066D01*
X153303289Y-68562064D01*
X153093212Y-68440776D01*
X153093205Y-68440773D01*
X152869104Y-68347947D01*
X152634785Y-68285161D01*
X152394289Y-68253500D01*
X152394288Y-68253500D01*
X152151712Y-68253500D01*
X152151711Y-68253500D01*
X151911214Y-68285161D01*
X151676895Y-68347947D01*
X151452794Y-68440773D01*
X151452785Y-68440777D01*
X151242706Y-68562067D01*
X151050263Y-68709733D01*
X151050256Y-68709739D01*
X150878739Y-68881256D01*
X150878733Y-68881263D01*
X150731067Y-69073706D01*
X150609777Y-69283785D01*
X150609773Y-69283794D01*
X150516947Y-69507895D01*
X150454161Y-69742214D01*
X150422500Y-69982711D01*
X150422500Y-70225288D01*
X139309500Y-70225288D01*
X139309500Y-66602870D01*
X140365500Y-66602870D01*
X140365501Y-66602876D01*
X140371908Y-66662483D01*
X140422202Y-66797328D01*
X140422206Y-66797335D01*
X140508452Y-66912544D01*
X140508455Y-66912547D01*
X140623664Y-66998793D01*
X140623671Y-66998797D01*
X140758517Y-67049091D01*
X140758516Y-67049091D01*
X140765444Y-67049835D01*
X140818127Y-67055500D01*
X143113872Y-67055499D01*
X143173483Y-67049091D01*
X143308331Y-66998796D01*
X143423546Y-66912546D01*
X143509796Y-66797331D01*
X143560091Y-66662483D01*
X143566500Y-66602873D01*
X143566499Y-65455000D01*
X145440551Y-65455000D01*
X145460317Y-65706151D01*
X145519126Y-65951110D01*
X145615533Y-66183859D01*
X145747160Y-66398653D01*
X145747161Y-66398656D01*
X145747164Y-66398659D01*
X145910776Y-66590224D01*
X146011516Y-66676264D01*
X146102343Y-66753838D01*
X146102346Y-66753839D01*
X146317140Y-66885466D01*
X146549889Y-66981873D01*
X146794852Y-67040683D01*
X147046000Y-67060449D01*
X147297148Y-67040683D01*
X147542111Y-66981873D01*
X147774859Y-66885466D01*
X147989659Y-66753836D01*
X148181224Y-66590224D01*
X148344836Y-66398659D01*
X148379636Y-66341870D01*
X151137500Y-66341870D01*
X151137501Y-66341876D01*
X151143908Y-66401483D01*
X151194202Y-66536328D01*
X151194206Y-66536335D01*
X151280452Y-66651544D01*
X151280455Y-66651547D01*
X151395664Y-66737793D01*
X151395671Y-66737797D01*
X151530517Y-66788091D01*
X151530516Y-66788091D01*
X151537444Y-66788835D01*
X151590127Y-66794500D01*
X154225872Y-66794499D01*
X154285483Y-66788091D01*
X154420331Y-66737796D01*
X154535546Y-66651546D01*
X154621796Y-66536331D01*
X154672091Y-66401483D01*
X154678500Y-66341873D01*
X154678499Y-63706128D01*
X154672091Y-63646517D01*
X154621796Y-63511669D01*
X154621795Y-63511668D01*
X154621793Y-63511664D01*
X154535547Y-63396455D01*
X154535544Y-63396452D01*
X154420335Y-63310206D01*
X154420328Y-63310202D01*
X154285482Y-63259908D01*
X154285483Y-63259908D01*
X154225883Y-63253501D01*
X154225881Y-63253500D01*
X154225873Y-63253500D01*
X154225864Y-63253500D01*
X151590129Y-63253500D01*
X151590123Y-63253501D01*
X151530516Y-63259908D01*
X151395671Y-63310202D01*
X151395664Y-63310206D01*
X151280455Y-63396452D01*
X151280452Y-63396455D01*
X151194206Y-63511664D01*
X151194202Y-63511671D01*
X151143908Y-63646517D01*
X151137501Y-63706116D01*
X151137501Y-63706123D01*
X151137500Y-63706135D01*
X151137500Y-66341870D01*
X148379636Y-66341870D01*
X148476466Y-66183859D01*
X148572873Y-65951111D01*
X148631683Y-65706148D01*
X148651449Y-65455000D01*
X148631683Y-65203852D01*
X148572873Y-64958889D01*
X148476466Y-64726141D01*
X148476466Y-64726140D01*
X148344839Y-64511346D01*
X148344838Y-64511343D01*
X148290719Y-64447978D01*
X148181224Y-64319776D01*
X148026055Y-64187249D01*
X147989656Y-64156161D01*
X147989653Y-64156160D01*
X147774859Y-64024533D01*
X147542110Y-63928126D01*
X147297151Y-63869317D01*
X147046000Y-63849551D01*
X146794848Y-63869317D01*
X146549889Y-63928126D01*
X146317140Y-64024533D01*
X146102346Y-64156160D01*
X146102343Y-64156161D01*
X145910776Y-64319776D01*
X145747161Y-64511343D01*
X145747160Y-64511346D01*
X145615533Y-64726140D01*
X145519126Y-64958889D01*
X145460317Y-65203848D01*
X145440551Y-65455000D01*
X143566499Y-65455000D01*
X143566499Y-64307128D01*
X143560091Y-64247517D01*
X143537614Y-64187254D01*
X143509797Y-64112671D01*
X143509793Y-64112664D01*
X143423547Y-63997455D01*
X143423544Y-63997452D01*
X143308335Y-63911206D01*
X143308328Y-63911202D01*
X143173482Y-63860908D01*
X143173483Y-63860908D01*
X143113883Y-63854501D01*
X143113881Y-63854500D01*
X143113873Y-63854500D01*
X143113864Y-63854500D01*
X140818129Y-63854500D01*
X140818123Y-63854501D01*
X140758516Y-63860908D01*
X140623671Y-63911202D01*
X140623664Y-63911206D01*
X140508455Y-63997452D01*
X140508452Y-63997455D01*
X140422206Y-64112664D01*
X140422202Y-64112671D01*
X140371908Y-64247517D01*
X140365501Y-64307116D01*
X140365501Y-64307123D01*
X140365500Y-64307135D01*
X140365500Y-66602870D01*
X139309500Y-66602870D01*
X139309500Y-58083093D01*
X139329185Y-58016054D01*
X139379697Y-57971373D01*
X139586775Y-57871651D01*
X139809741Y-57719635D01*
X140007561Y-57536085D01*
X140175815Y-57325102D01*
X140310743Y-57091398D01*
X140409334Y-56840195D01*
X140469383Y-56577103D01*
X140489549Y-56308004D01*
X141958953Y-56308004D01*
X141979113Y-56577026D01*
X141979113Y-56577028D01*
X142039142Y-56840033D01*
X142039148Y-56840052D01*
X142137709Y-57091181D01*
X142137708Y-57091181D01*
X142272602Y-57324822D01*
X142326294Y-57392151D01*
X142326295Y-57392151D01*
X143162958Y-56555488D01*
X143187978Y-56615890D01*
X143259112Y-56722351D01*
X143349649Y-56812888D01*
X143456110Y-56884022D01*
X143516510Y-56909041D01*
X142678848Y-57746702D01*
X142861483Y-57871220D01*
X142861485Y-57871221D01*
X143104539Y-57988269D01*
X143104537Y-57988269D01*
X143362337Y-58067790D01*
X143362343Y-58067792D01*
X143629101Y-58107999D01*
X143629110Y-58108000D01*
X143898890Y-58108000D01*
X143898898Y-58107999D01*
X144165656Y-58067792D01*
X144165662Y-58067790D01*
X144423461Y-57988269D01*
X144666521Y-57871218D01*
X144849150Y-57746702D01*
X144011488Y-56909041D01*
X144071890Y-56884022D01*
X144178351Y-56812888D01*
X144268888Y-56722351D01*
X144340022Y-56615890D01*
X144365041Y-56555488D01*
X145201703Y-57392151D01*
X145201704Y-57392150D01*
X145255393Y-57324828D01*
X145255400Y-57324817D01*
X145390290Y-57091181D01*
X145488851Y-56840052D01*
X145488857Y-56840033D01*
X145548886Y-56577028D01*
X145548886Y-56577026D01*
X145569047Y-56308004D01*
X147038953Y-56308004D01*
X147059113Y-56577026D01*
X147059113Y-56577028D01*
X147119142Y-56840033D01*
X147119148Y-56840052D01*
X147217709Y-57091181D01*
X147217708Y-57091181D01*
X147352602Y-57324822D01*
X147406294Y-57392151D01*
X148242957Y-56555487D01*
X148267978Y-56615890D01*
X148339112Y-56722351D01*
X148429649Y-56812888D01*
X148536110Y-56884022D01*
X148596510Y-56909041D01*
X147758848Y-57746702D01*
X147941483Y-57871220D01*
X147941485Y-57871221D01*
X148184539Y-57988269D01*
X148184537Y-57988269D01*
X148442337Y-58067790D01*
X148442343Y-58067792D01*
X148709101Y-58107999D01*
X148709110Y-58108000D01*
X148978890Y-58108000D01*
X148978898Y-58107999D01*
X149245656Y-58067792D01*
X149245662Y-58067790D01*
X149503461Y-57988269D01*
X149746521Y-57871218D01*
X149929150Y-57746702D01*
X149091488Y-56909041D01*
X149151890Y-56884022D01*
X149258351Y-56812888D01*
X149348888Y-56722351D01*
X149420022Y-56615890D01*
X149445041Y-56555489D01*
X150281703Y-57392151D01*
X150281704Y-57392150D01*
X150335393Y-57324828D01*
X150335400Y-57324817D01*
X150470290Y-57091181D01*
X150568851Y-56840052D01*
X150568857Y-56840033D01*
X150628886Y-56577028D01*
X150628886Y-56577026D01*
X150649047Y-56308004D01*
X152118451Y-56308004D01*
X152138616Y-56577101D01*
X152198664Y-56840188D01*
X152198666Y-56840195D01*
X152244901Y-56958000D01*
X152297257Y-57091398D01*
X152432185Y-57325102D01*
X152485655Y-57392151D01*
X152600442Y-57536089D01*
X152737318Y-57663090D01*
X152798259Y-57719635D01*
X153021226Y-57871651D01*
X153264359Y-57988738D01*
X153522228Y-58068280D01*
X153522229Y-58068280D01*
X153522232Y-58068281D01*
X153789063Y-58108499D01*
X153789068Y-58108499D01*
X153789071Y-58108500D01*
X153789072Y-58108500D01*
X154058928Y-58108500D01*
X154058929Y-58108500D01*
X154058936Y-58108499D01*
X154325767Y-58068281D01*
X154325768Y-58068280D01*
X154325772Y-58068280D01*
X154583641Y-57988738D01*
X154826775Y-57871651D01*
X155049741Y-57719635D01*
X155247561Y-57536085D01*
X155415815Y-57325102D01*
X155550743Y-57091398D01*
X155649334Y-56840195D01*
X155709383Y-56577103D01*
X155729549Y-56308000D01*
X155728540Y-56294539D01*
X155709389Y-56038973D01*
X155709383Y-56038897D01*
X155649334Y-55775805D01*
X155550743Y-55524602D01*
X155415815Y-55290898D01*
X155247561Y-55079915D01*
X155247560Y-55079914D01*
X155247557Y-55079910D01*
X155049741Y-54896365D01*
X155010038Y-54869296D01*
X154826775Y-54744349D01*
X154826769Y-54744346D01*
X154826768Y-54744345D01*
X154826767Y-54744344D01*
X154583643Y-54627263D01*
X154583645Y-54627263D01*
X154325773Y-54547720D01*
X154325767Y-54547718D01*
X154058936Y-54507500D01*
X154058929Y-54507500D01*
X153789071Y-54507500D01*
X153789063Y-54507500D01*
X153522232Y-54547718D01*
X153522226Y-54547720D01*
X153264358Y-54627262D01*
X153021230Y-54744346D01*
X152798258Y-54896365D01*
X152600442Y-55079910D01*
X152432185Y-55290898D01*
X152297258Y-55524599D01*
X152297256Y-55524603D01*
X152198666Y-55775804D01*
X152198664Y-55775811D01*
X152138616Y-56038898D01*
X152118451Y-56307995D01*
X152118451Y-56308004D01*
X150649047Y-56308004D01*
X150649047Y-56307995D01*
X150628886Y-56038973D01*
X150628886Y-56038971D01*
X150568857Y-55775966D01*
X150568851Y-55775947D01*
X150470290Y-55524818D01*
X150470291Y-55524818D01*
X150335397Y-55291177D01*
X150281704Y-55223847D01*
X149445041Y-56060510D01*
X149420022Y-56000110D01*
X149348888Y-55893649D01*
X149258351Y-55803112D01*
X149151890Y-55731978D01*
X149091488Y-55706958D01*
X149929150Y-54869296D01*
X149746517Y-54744779D01*
X149746516Y-54744778D01*
X149503460Y-54627730D01*
X149503462Y-54627730D01*
X149245662Y-54548209D01*
X149245656Y-54548207D01*
X148978898Y-54508000D01*
X148709101Y-54508000D01*
X148442343Y-54548207D01*
X148442337Y-54548209D01*
X148184538Y-54627730D01*
X147941485Y-54744778D01*
X147941476Y-54744783D01*
X147758848Y-54869296D01*
X148596511Y-55706958D01*
X148536110Y-55731978D01*
X148429649Y-55803112D01*
X148339112Y-55893649D01*
X148267978Y-56000110D01*
X148242958Y-56060511D01*
X147406295Y-55223848D01*
X147352600Y-55291180D01*
X147217709Y-55524818D01*
X147119148Y-55775947D01*
X147119142Y-55775966D01*
X147059113Y-56038971D01*
X147059113Y-56038973D01*
X147038953Y-56307995D01*
X147038953Y-56308004D01*
X145569047Y-56308004D01*
X145569047Y-56307995D01*
X145548886Y-56038973D01*
X145548886Y-56038971D01*
X145488857Y-55775966D01*
X145488851Y-55775947D01*
X145390290Y-55524818D01*
X145390291Y-55524818D01*
X145255397Y-55291177D01*
X145201704Y-55223847D01*
X144365041Y-56060510D01*
X144340022Y-56000110D01*
X144268888Y-55893649D01*
X144178351Y-55803112D01*
X144071890Y-55731978D01*
X144011488Y-55706958D01*
X144849150Y-54869296D01*
X144666517Y-54744779D01*
X144666516Y-54744778D01*
X144423460Y-54627730D01*
X144423462Y-54627730D01*
X144165662Y-54548209D01*
X144165656Y-54548207D01*
X143898898Y-54508000D01*
X143629101Y-54508000D01*
X143362343Y-54548207D01*
X143362337Y-54548209D01*
X143104538Y-54627730D01*
X142861485Y-54744778D01*
X142861476Y-54744783D01*
X142678848Y-54869296D01*
X143516511Y-55706958D01*
X143456110Y-55731978D01*
X143349649Y-55803112D01*
X143259112Y-55893649D01*
X143187978Y-56000110D01*
X143162958Y-56060511D01*
X142326295Y-55223848D01*
X142272600Y-55291180D01*
X142137709Y-55524818D01*
X142039148Y-55775947D01*
X142039142Y-55775966D01*
X141979113Y-56038971D01*
X141979113Y-56038973D01*
X141958953Y-56307995D01*
X141958953Y-56308004D01*
X140489549Y-56308004D01*
X140489549Y-56308000D01*
X140488540Y-56294539D01*
X140469389Y-56038973D01*
X140469383Y-56038897D01*
X140409334Y-55775805D01*
X140310743Y-55524602D01*
X140175815Y-55290898D01*
X140007561Y-55079915D01*
X140007560Y-55079914D01*
X140007557Y-55079910D01*
X139809741Y-54896365D01*
X139770038Y-54869296D01*
X139586775Y-54744349D01*
X139586769Y-54744346D01*
X139586768Y-54744345D01*
X139586767Y-54744344D01*
X139343643Y-54627263D01*
X139343645Y-54627263D01*
X139085773Y-54547720D01*
X139085767Y-54547718D01*
X138818936Y-54507500D01*
X138818929Y-54507500D01*
X138549071Y-54507500D01*
X138549063Y-54507500D01*
X138282232Y-54547718D01*
X138282226Y-54547720D01*
X138024358Y-54627262D01*
X137781230Y-54744346D01*
X137558258Y-54896365D01*
X137360442Y-55079910D01*
X137192185Y-55290898D01*
X137057258Y-55524599D01*
X137057256Y-55524603D01*
X136958666Y-55775804D01*
X136958664Y-55775811D01*
X136898616Y-56038898D01*
X136878451Y-56307995D01*
X136878451Y-56308004D01*
X135409549Y-56308004D01*
X135409549Y-56308000D01*
X135408540Y-56294539D01*
X135389389Y-56038973D01*
X135389383Y-56038897D01*
X135329334Y-55775805D01*
X135230743Y-55524602D01*
X135095815Y-55290898D01*
X134927561Y-55079915D01*
X134927560Y-55079914D01*
X134927557Y-55079910D01*
X134729741Y-54896365D01*
X134690038Y-54869296D01*
X134506775Y-54744349D01*
X134506769Y-54744346D01*
X134506768Y-54744345D01*
X134506767Y-54744344D01*
X134263643Y-54627263D01*
X134263645Y-54627263D01*
X134005773Y-54547720D01*
X134005767Y-54547718D01*
X133738936Y-54507500D01*
X133738929Y-54507500D01*
X133469071Y-54507500D01*
X133469063Y-54507500D01*
X133202232Y-54547718D01*
X133202226Y-54547720D01*
X132944358Y-54627262D01*
X132701230Y-54744346D01*
X132478258Y-54896365D01*
X132280442Y-55079910D01*
X132112185Y-55290898D01*
X131977258Y-55524599D01*
X131977256Y-55524603D01*
X131878666Y-55775804D01*
X131878664Y-55775811D01*
X131818616Y-56038898D01*
X131798451Y-56307995D01*
X131798451Y-56308004D01*
X124408587Y-56308004D01*
X124437858Y-56278733D01*
X124506311Y-56176286D01*
X124506312Y-56176285D01*
X124506313Y-56176282D01*
X124506315Y-56176279D01*
X124516672Y-56151272D01*
X124553463Y-56062451D01*
X124577500Y-55941607D01*
X124577500Y-55818393D01*
X124577500Y-53884854D01*
X124596507Y-53818881D01*
X124677788Y-53689524D01*
X124737368Y-53519254D01*
X124737369Y-53519249D01*
X124757565Y-53340003D01*
X124757565Y-53339996D01*
X124737369Y-53160750D01*
X124737368Y-53160745D01*
X124704842Y-53067792D01*
X124677789Y-52990478D01*
X124676694Y-52988736D01*
X124581815Y-52837737D01*
X124454262Y-52710184D01*
X124301523Y-52614211D01*
X124131254Y-52554631D01*
X124131249Y-52554630D01*
X123952004Y-52534435D01*
X123951996Y-52534435D01*
X123772750Y-52554630D01*
X123772739Y-52554633D01*
X123726453Y-52570829D01*
X123656675Y-52574390D01*
X123596048Y-52539661D01*
X123563821Y-52477667D01*
X123561500Y-52453787D01*
X123561500Y-52360854D01*
X123580507Y-52294881D01*
X123661788Y-52165524D01*
X123687726Y-52091398D01*
X123721368Y-51995255D01*
X123741565Y-51816000D01*
X123741214Y-51812888D01*
X123721369Y-51636750D01*
X123721368Y-51636745D01*
X123661789Y-51466478D01*
X123565816Y-51313738D01*
X123560082Y-51308004D01*
X131798451Y-51308004D01*
X131818616Y-51577101D01*
X131878664Y-51840188D01*
X131878666Y-51840195D01*
X131924901Y-51958000D01*
X131977257Y-52091398D01*
X132112185Y-52325102D01*
X132165655Y-52392151D01*
X132280442Y-52536089D01*
X132467183Y-52709358D01*
X132478259Y-52719635D01*
X132701226Y-52871651D01*
X132944359Y-52988738D01*
X133202228Y-53068280D01*
X133202229Y-53068280D01*
X133202232Y-53068281D01*
X133469063Y-53108499D01*
X133469068Y-53108499D01*
X133469071Y-53108500D01*
X133469072Y-53108500D01*
X133738928Y-53108500D01*
X133738929Y-53108500D01*
X133738936Y-53108499D01*
X134005767Y-53068281D01*
X134005768Y-53068280D01*
X134005772Y-53068280D01*
X134263641Y-52988738D01*
X134506775Y-52871651D01*
X134729741Y-52719635D01*
X134927561Y-52536085D01*
X135095815Y-52325102D01*
X135230743Y-52091398D01*
X135329334Y-51840195D01*
X135389383Y-51577103D01*
X135409549Y-51308004D01*
X136878451Y-51308004D01*
X136898616Y-51577101D01*
X136958664Y-51840188D01*
X136958666Y-51840195D01*
X137004901Y-51958000D01*
X137057257Y-52091398D01*
X137192185Y-52325102D01*
X137245655Y-52392151D01*
X137360442Y-52536089D01*
X137547183Y-52709358D01*
X137558259Y-52719635D01*
X137781226Y-52871651D01*
X138024359Y-52988738D01*
X138282228Y-53068280D01*
X138282229Y-53068280D01*
X138282232Y-53068281D01*
X138549063Y-53108499D01*
X138549068Y-53108499D01*
X138549071Y-53108500D01*
X138549072Y-53108500D01*
X138818928Y-53108500D01*
X138818929Y-53108500D01*
X138818936Y-53108499D01*
X139085767Y-53068281D01*
X139085768Y-53068280D01*
X139085772Y-53068280D01*
X139343641Y-52988738D01*
X139586775Y-52871651D01*
X139809741Y-52719635D01*
X140007561Y-52536085D01*
X140175815Y-52325102D01*
X140310743Y-52091398D01*
X140409334Y-51840195D01*
X140469383Y-51577103D01*
X140489549Y-51308004D01*
X141958953Y-51308004D01*
X141979113Y-51577026D01*
X141979113Y-51577028D01*
X142039142Y-51840033D01*
X142039148Y-51840052D01*
X142137709Y-52091181D01*
X142137708Y-52091181D01*
X142272602Y-52324822D01*
X142326294Y-52392151D01*
X142326295Y-52392151D01*
X143162958Y-51555488D01*
X143187978Y-51615890D01*
X143259112Y-51722351D01*
X143349649Y-51812888D01*
X143456110Y-51884022D01*
X143516510Y-51909041D01*
X142678848Y-52746702D01*
X142861483Y-52871220D01*
X142861485Y-52871221D01*
X143104539Y-52988269D01*
X143104537Y-52988269D01*
X143362337Y-53067790D01*
X143362343Y-53067792D01*
X143629101Y-53107999D01*
X143629110Y-53108000D01*
X143898890Y-53108000D01*
X143898898Y-53107999D01*
X144165656Y-53067792D01*
X144165662Y-53067790D01*
X144423461Y-52988269D01*
X144666521Y-52871218D01*
X144849150Y-52746702D01*
X144011488Y-51909041D01*
X144071890Y-51884022D01*
X144178351Y-51812888D01*
X144268888Y-51722351D01*
X144340022Y-51615890D01*
X144365041Y-51555488D01*
X145201703Y-52392151D01*
X145201704Y-52392150D01*
X145255393Y-52324828D01*
X145255400Y-52324817D01*
X145390290Y-52091181D01*
X145488851Y-51840052D01*
X145488857Y-51840033D01*
X145548886Y-51577028D01*
X145548886Y-51577026D01*
X145569047Y-51308004D01*
X147038953Y-51308004D01*
X147059113Y-51577026D01*
X147059113Y-51577028D01*
X147119142Y-51840033D01*
X147119148Y-51840052D01*
X147217709Y-52091181D01*
X147217708Y-52091181D01*
X147352602Y-52324822D01*
X147406294Y-52392151D01*
X148242957Y-51555487D01*
X148267978Y-51615890D01*
X148339112Y-51722351D01*
X148429649Y-51812888D01*
X148536110Y-51884022D01*
X148596510Y-51909041D01*
X147758848Y-52746702D01*
X147941483Y-52871220D01*
X147941485Y-52871221D01*
X148184539Y-52988269D01*
X148184537Y-52988269D01*
X148442337Y-53067790D01*
X148442343Y-53067792D01*
X148709101Y-53107999D01*
X148709110Y-53108000D01*
X148978890Y-53108000D01*
X148978898Y-53107999D01*
X149245656Y-53067792D01*
X149245662Y-53067790D01*
X149503461Y-52988269D01*
X149746521Y-52871218D01*
X149929150Y-52746702D01*
X149091488Y-51909041D01*
X149151890Y-51884022D01*
X149258351Y-51812888D01*
X149348888Y-51722351D01*
X149420022Y-51615890D01*
X149445041Y-51555489D01*
X150281703Y-52392151D01*
X150281704Y-52392150D01*
X150335393Y-52324828D01*
X150335400Y-52324817D01*
X150470290Y-52091181D01*
X150568851Y-51840052D01*
X150568857Y-51840033D01*
X150628886Y-51577028D01*
X150628886Y-51577026D01*
X150649047Y-51308004D01*
X152118451Y-51308004D01*
X152138616Y-51577101D01*
X152198664Y-51840188D01*
X152198666Y-51840195D01*
X152244901Y-51958000D01*
X152297257Y-52091398D01*
X152432185Y-52325102D01*
X152485655Y-52392151D01*
X152600442Y-52536089D01*
X152787183Y-52709358D01*
X152798259Y-52719635D01*
X153021226Y-52871651D01*
X153264359Y-52988738D01*
X153522228Y-53068280D01*
X153522229Y-53068280D01*
X153522232Y-53068281D01*
X153789063Y-53108499D01*
X153789068Y-53108499D01*
X153789071Y-53108500D01*
X153789072Y-53108500D01*
X154058928Y-53108500D01*
X154058929Y-53108500D01*
X154058936Y-53108499D01*
X154325767Y-53068281D01*
X154325768Y-53068280D01*
X154325772Y-53068280D01*
X154583641Y-52988738D01*
X154826775Y-52871651D01*
X155049741Y-52719635D01*
X155247561Y-52536085D01*
X155415815Y-52325102D01*
X155550743Y-52091398D01*
X155649334Y-51840195D01*
X155709383Y-51577103D01*
X155729549Y-51308000D01*
X155720420Y-51186184D01*
X155709389Y-51038973D01*
X155709383Y-51038897D01*
X155649334Y-50775805D01*
X155550743Y-50524602D01*
X155415815Y-50290898D01*
X155247561Y-50079915D01*
X155247560Y-50079914D01*
X155247557Y-50079910D01*
X155049741Y-49896365D01*
X155010038Y-49869296D01*
X154826775Y-49744349D01*
X154826769Y-49744346D01*
X154826768Y-49744345D01*
X154826767Y-49744344D01*
X154583643Y-49627263D01*
X154583645Y-49627263D01*
X154325773Y-49547720D01*
X154325767Y-49547718D01*
X154058936Y-49507500D01*
X154058929Y-49507500D01*
X153789071Y-49507500D01*
X153789063Y-49507500D01*
X153522232Y-49547718D01*
X153522226Y-49547720D01*
X153264358Y-49627262D01*
X153021230Y-49744346D01*
X152798258Y-49896365D01*
X152600442Y-50079910D01*
X152432185Y-50290898D01*
X152297258Y-50524599D01*
X152297256Y-50524603D01*
X152198666Y-50775804D01*
X152198664Y-50775811D01*
X152138616Y-51038898D01*
X152118451Y-51307995D01*
X152118451Y-51308004D01*
X150649047Y-51308004D01*
X150649047Y-51307995D01*
X150628886Y-51038973D01*
X150628886Y-51038971D01*
X150568857Y-50775966D01*
X150568851Y-50775947D01*
X150470290Y-50524818D01*
X150470291Y-50524818D01*
X150335397Y-50291177D01*
X150281704Y-50223847D01*
X149445041Y-51060510D01*
X149420022Y-51000110D01*
X149348888Y-50893649D01*
X149258351Y-50803112D01*
X149151890Y-50731978D01*
X149091488Y-50706958D01*
X149929150Y-49869296D01*
X149746517Y-49744779D01*
X149746516Y-49744778D01*
X149503460Y-49627730D01*
X149503462Y-49627730D01*
X149245662Y-49548209D01*
X149245656Y-49548207D01*
X148978898Y-49508000D01*
X148709101Y-49508000D01*
X148442343Y-49548207D01*
X148442337Y-49548209D01*
X148184538Y-49627730D01*
X147941485Y-49744778D01*
X147941476Y-49744783D01*
X147758848Y-49869296D01*
X148596511Y-50706958D01*
X148536110Y-50731978D01*
X148429649Y-50803112D01*
X148339112Y-50893649D01*
X148267978Y-51000110D01*
X148242958Y-51060511D01*
X147406295Y-50223848D01*
X147352600Y-50291180D01*
X147217709Y-50524818D01*
X147119148Y-50775947D01*
X147119142Y-50775966D01*
X147059113Y-51038971D01*
X147059113Y-51038973D01*
X147038953Y-51307995D01*
X147038953Y-51308004D01*
X145569047Y-51308004D01*
X145569047Y-51307995D01*
X145548886Y-51038973D01*
X145548886Y-51038971D01*
X145488857Y-50775966D01*
X145488851Y-50775947D01*
X145390290Y-50524818D01*
X145390291Y-50524818D01*
X145255397Y-50291177D01*
X145201704Y-50223847D01*
X144365041Y-51060510D01*
X144340022Y-51000110D01*
X144268888Y-50893649D01*
X144178351Y-50803112D01*
X144071890Y-50731978D01*
X144011488Y-50706958D01*
X144849150Y-49869296D01*
X144666517Y-49744779D01*
X144666516Y-49744778D01*
X144423460Y-49627730D01*
X144423462Y-49627730D01*
X144165662Y-49548209D01*
X144165656Y-49548207D01*
X143898898Y-49508000D01*
X143629101Y-49508000D01*
X143362343Y-49548207D01*
X143362337Y-49548209D01*
X143104538Y-49627730D01*
X142861485Y-49744778D01*
X142861476Y-49744783D01*
X142678848Y-49869296D01*
X143516511Y-50706958D01*
X143456110Y-50731978D01*
X143349649Y-50803112D01*
X143259112Y-50893649D01*
X143187978Y-51000110D01*
X143162958Y-51060511D01*
X142326295Y-50223848D01*
X142272600Y-50291180D01*
X142137709Y-50524818D01*
X142039148Y-50775947D01*
X142039142Y-50775966D01*
X141979113Y-51038971D01*
X141979113Y-51038973D01*
X141958953Y-51307995D01*
X141958953Y-51308004D01*
X140489549Y-51308004D01*
X140489549Y-51308000D01*
X140480420Y-51186184D01*
X140469389Y-51038973D01*
X140469383Y-51038897D01*
X140409334Y-50775805D01*
X140310743Y-50524602D01*
X140175815Y-50290898D01*
X140007561Y-50079915D01*
X140007560Y-50079914D01*
X140007557Y-50079910D01*
X139809741Y-49896365D01*
X139770038Y-49869296D01*
X139586775Y-49744349D01*
X139586769Y-49744346D01*
X139586768Y-49744345D01*
X139586767Y-49744344D01*
X139343643Y-49627263D01*
X139343645Y-49627263D01*
X139085773Y-49547720D01*
X139085767Y-49547718D01*
X138818936Y-49507500D01*
X138818929Y-49507500D01*
X138549071Y-49507500D01*
X138549063Y-49507500D01*
X138282232Y-49547718D01*
X138282226Y-49547720D01*
X138024358Y-49627262D01*
X137781230Y-49744346D01*
X137558258Y-49896365D01*
X137360442Y-50079910D01*
X137192185Y-50290898D01*
X137057258Y-50524599D01*
X137057256Y-50524603D01*
X136958666Y-50775804D01*
X136958664Y-50775811D01*
X136898616Y-51038898D01*
X136878451Y-51307995D01*
X136878451Y-51308004D01*
X135409549Y-51308004D01*
X135409549Y-51308000D01*
X135400420Y-51186184D01*
X135389389Y-51038973D01*
X135389383Y-51038897D01*
X135329334Y-50775805D01*
X135230743Y-50524602D01*
X135095815Y-50290898D01*
X134927561Y-50079915D01*
X134927560Y-50079914D01*
X134927557Y-50079910D01*
X134729741Y-49896365D01*
X134690038Y-49869296D01*
X134506775Y-49744349D01*
X134506769Y-49744346D01*
X134506768Y-49744345D01*
X134506767Y-49744344D01*
X134263643Y-49627263D01*
X134263645Y-49627263D01*
X134005773Y-49547720D01*
X134005767Y-49547718D01*
X133738936Y-49507500D01*
X133738929Y-49507500D01*
X133469071Y-49507500D01*
X133469063Y-49507500D01*
X133202232Y-49547718D01*
X133202226Y-49547720D01*
X132944358Y-49627262D01*
X132701230Y-49744346D01*
X132478258Y-49896365D01*
X132280442Y-50079910D01*
X132112185Y-50290898D01*
X131977258Y-50524599D01*
X131977256Y-50524603D01*
X131878666Y-50775804D01*
X131878664Y-50775811D01*
X131818616Y-51038898D01*
X131798451Y-51307995D01*
X131798451Y-51308004D01*
X123560082Y-51308004D01*
X123438262Y-51186184D01*
X123330388Y-51118402D01*
X123285523Y-51090211D01*
X123115254Y-51030631D01*
X123115249Y-51030630D01*
X122936004Y-51010435D01*
X122935996Y-51010435D01*
X122756750Y-51030630D01*
X122756745Y-51030631D01*
X122586476Y-51090211D01*
X122433737Y-51186184D01*
X122306184Y-51313737D01*
X122210211Y-51466476D01*
X122150631Y-51636745D01*
X122150630Y-51636750D01*
X122130435Y-51815996D01*
X122130435Y-51816003D01*
X122150630Y-51995249D01*
X122150631Y-51995254D01*
X122210211Y-52165524D01*
X122291493Y-52294881D01*
X122310500Y-52360854D01*
X122310500Y-54553547D01*
X122290815Y-54620586D01*
X122274181Y-54641228D01*
X122029267Y-54886143D01*
X121329542Y-55585866D01*
X121268219Y-55619351D01*
X121198527Y-55614367D01*
X121142594Y-55572495D01*
X121124818Y-55539135D01*
X121121789Y-55530478D01*
X121025816Y-55377738D01*
X120898262Y-55250184D01*
X120856347Y-55223847D01*
X120745523Y-55154211D01*
X120575254Y-55094631D01*
X120575249Y-55094630D01*
X120396004Y-55074435D01*
X120395996Y-55074435D01*
X120216750Y-55094630D01*
X120216745Y-55094631D01*
X120046476Y-55154211D01*
X119917117Y-55235494D01*
X119851145Y-55254500D01*
X117794388Y-55254500D01*
X117673555Y-55278535D01*
X117673547Y-55278537D01*
X117559716Y-55325687D01*
X117481818Y-55377738D01*
X117481817Y-55377739D01*
X117457263Y-55394144D01*
X117457262Y-55394145D01*
X117075605Y-55775804D01*
X116949269Y-55902140D01*
X116949267Y-55902142D01*
X116909802Y-55941607D01*
X116862139Y-55989269D01*
X116862138Y-55989271D01*
X116829186Y-56038588D01*
X116829185Y-56038590D01*
X116793690Y-56091708D01*
X116793686Y-56091716D01*
X116779674Y-56125547D01*
X116746538Y-56205543D01*
X116746535Y-56205553D01*
X116734518Y-56265966D01*
X116734518Y-56265971D01*
X116728837Y-56294537D01*
X116728837Y-56294539D01*
X116722500Y-56326394D01*
X116722500Y-104201611D01*
X114526500Y-104201611D01*
X114526500Y-45251500D01*
X114546185Y-45184461D01*
X114598989Y-45138706D01*
X114650500Y-45127500D01*
X158105500Y-45127500D01*
X158172539Y-45147185D01*
G37*
%TD.AperFunction*%
%TD*%
M02*
