%TF.GenerationSoftware,KiCad,Pcbnew,8.0.1*%
%TF.CreationDate,2024-10-28T19:37:41+01:00*%
%TF.ProjectId,ESP_01_MQTT,4553505f-3031-45f4-9d51-54542e6b6963,rev?*%
%TF.SameCoordinates,Original*%
%TF.FileFunction,Legend,Top*%
%TF.FilePolarity,Positive*%
%FSLAX46Y46*%
G04 Gerber Fmt 4.6, Leading zero omitted, Abs format (unit mm)*
G04 Created by KiCad (PCBNEW 8.0.1) date 2024-10-28 19:37:41*
%MOMM*%
%LPD*%
G01*
G04 APERTURE LIST*
%ADD10C,0.200000*%
%ADD11C,0.150000*%
%ADD12C,0.010000*%
%ADD13C,0.120000*%
%ADD14C,0.254000*%
%ADD15C,0.152400*%
%ADD16R,1.727200X1.727200*%
%ADD17O,1.727200X1.727200*%
G04 APERTURE END LIST*
D10*
X120002562Y-76804095D02*
X120002562Y-77137428D01*
X119478752Y-77280285D02*
X119478752Y-76804095D01*
X119478752Y-76804095D02*
X120478752Y-76804095D01*
X120478752Y-76804095D02*
X120478752Y-77280285D01*
X119526372Y-77661238D02*
X119478752Y-77804095D01*
X119478752Y-77804095D02*
X119478752Y-78042190D01*
X119478752Y-78042190D02*
X119526372Y-78137428D01*
X119526372Y-78137428D02*
X119573991Y-78185047D01*
X119573991Y-78185047D02*
X119669229Y-78232666D01*
X119669229Y-78232666D02*
X119764467Y-78232666D01*
X119764467Y-78232666D02*
X119859705Y-78185047D01*
X119859705Y-78185047D02*
X119907324Y-78137428D01*
X119907324Y-78137428D02*
X119954943Y-78042190D01*
X119954943Y-78042190D02*
X120002562Y-77851714D01*
X120002562Y-77851714D02*
X120050181Y-77756476D01*
X120050181Y-77756476D02*
X120097800Y-77708857D01*
X120097800Y-77708857D02*
X120193038Y-77661238D01*
X120193038Y-77661238D02*
X120288276Y-77661238D01*
X120288276Y-77661238D02*
X120383514Y-77708857D01*
X120383514Y-77708857D02*
X120431133Y-77756476D01*
X120431133Y-77756476D02*
X120478752Y-77851714D01*
X120478752Y-77851714D02*
X120478752Y-78089809D01*
X120478752Y-78089809D02*
X120431133Y-78232666D01*
X119478752Y-78661238D02*
X120478752Y-78661238D01*
X120478752Y-78661238D02*
X120478752Y-79042190D01*
X120478752Y-79042190D02*
X120431133Y-79137428D01*
X120431133Y-79137428D02*
X120383514Y-79185047D01*
X120383514Y-79185047D02*
X120288276Y-79232666D01*
X120288276Y-79232666D02*
X120145419Y-79232666D01*
X120145419Y-79232666D02*
X120050181Y-79185047D01*
X120050181Y-79185047D02*
X120002562Y-79137428D01*
X120002562Y-79137428D02*
X119954943Y-79042190D01*
X119954943Y-79042190D02*
X119954943Y-78661238D01*
X120478752Y-80613619D02*
X120478752Y-80708857D01*
X120478752Y-80708857D02*
X120431133Y-80804095D01*
X120431133Y-80804095D02*
X120383514Y-80851714D01*
X120383514Y-80851714D02*
X120288276Y-80899333D01*
X120288276Y-80899333D02*
X120097800Y-80946952D01*
X120097800Y-80946952D02*
X119859705Y-80946952D01*
X119859705Y-80946952D02*
X119669229Y-80899333D01*
X119669229Y-80899333D02*
X119573991Y-80851714D01*
X119573991Y-80851714D02*
X119526372Y-80804095D01*
X119526372Y-80804095D02*
X119478752Y-80708857D01*
X119478752Y-80708857D02*
X119478752Y-80613619D01*
X119478752Y-80613619D02*
X119526372Y-80518381D01*
X119526372Y-80518381D02*
X119573991Y-80470762D01*
X119573991Y-80470762D02*
X119669229Y-80423143D01*
X119669229Y-80423143D02*
X119859705Y-80375524D01*
X119859705Y-80375524D02*
X120097800Y-80375524D01*
X120097800Y-80375524D02*
X120288276Y-80423143D01*
X120288276Y-80423143D02*
X120383514Y-80470762D01*
X120383514Y-80470762D02*
X120431133Y-80518381D01*
X120431133Y-80518381D02*
X120478752Y-80613619D01*
X119478752Y-81899333D02*
X119478752Y-81327905D01*
X119478752Y-81613619D02*
X120478752Y-81613619D01*
X120478752Y-81613619D02*
X120335895Y-81518381D01*
X120335895Y-81518381D02*
X120240657Y-81423143D01*
X120240657Y-81423143D02*
X120193038Y-81327905D01*
X119478752Y-83089810D02*
X120478752Y-83089810D01*
X120478752Y-83089810D02*
X119764467Y-83423143D01*
X119764467Y-83423143D02*
X120478752Y-83756476D01*
X120478752Y-83756476D02*
X119478752Y-83756476D01*
X119383514Y-84899333D02*
X119431133Y-84804095D01*
X119431133Y-84804095D02*
X119526372Y-84708857D01*
X119526372Y-84708857D02*
X119669229Y-84566000D01*
X119669229Y-84566000D02*
X119716848Y-84470762D01*
X119716848Y-84470762D02*
X119716848Y-84375524D01*
X119478752Y-84423143D02*
X119526372Y-84327905D01*
X119526372Y-84327905D02*
X119621610Y-84232667D01*
X119621610Y-84232667D02*
X119812086Y-84185048D01*
X119812086Y-84185048D02*
X120145419Y-84185048D01*
X120145419Y-84185048D02*
X120335895Y-84232667D01*
X120335895Y-84232667D02*
X120431133Y-84327905D01*
X120431133Y-84327905D02*
X120478752Y-84423143D01*
X120478752Y-84423143D02*
X120478752Y-84613619D01*
X120478752Y-84613619D02*
X120431133Y-84708857D01*
X120431133Y-84708857D02*
X120335895Y-84804095D01*
X120335895Y-84804095D02*
X120145419Y-84851714D01*
X120145419Y-84851714D02*
X119812086Y-84851714D01*
X119812086Y-84851714D02*
X119621610Y-84804095D01*
X119621610Y-84804095D02*
X119526372Y-84708857D01*
X119526372Y-84708857D02*
X119478752Y-84613619D01*
X119478752Y-84613619D02*
X119478752Y-84423143D01*
X120478752Y-85137429D02*
X120478752Y-85708857D01*
X119478752Y-85423143D02*
X120478752Y-85423143D01*
X120478752Y-85899334D02*
X120478752Y-86470762D01*
X119478752Y-86185048D02*
X120478752Y-86185048D01*
X120478752Y-87423144D02*
X119478752Y-87756477D01*
X119478752Y-87756477D02*
X120478752Y-88089810D01*
X120478752Y-88613620D02*
X120478752Y-88708858D01*
X120478752Y-88708858D02*
X120431133Y-88804096D01*
X120431133Y-88804096D02*
X120383514Y-88851715D01*
X120383514Y-88851715D02*
X120288276Y-88899334D01*
X120288276Y-88899334D02*
X120097800Y-88946953D01*
X120097800Y-88946953D02*
X119859705Y-88946953D01*
X119859705Y-88946953D02*
X119669229Y-88899334D01*
X119669229Y-88899334D02*
X119573991Y-88851715D01*
X119573991Y-88851715D02*
X119526372Y-88804096D01*
X119526372Y-88804096D02*
X119478752Y-88708858D01*
X119478752Y-88708858D02*
X119478752Y-88613620D01*
X119478752Y-88613620D02*
X119526372Y-88518382D01*
X119526372Y-88518382D02*
X119573991Y-88470763D01*
X119573991Y-88470763D02*
X119669229Y-88423144D01*
X119669229Y-88423144D02*
X119859705Y-88375525D01*
X119859705Y-88375525D02*
X120097800Y-88375525D01*
X120097800Y-88375525D02*
X120288276Y-88423144D01*
X120288276Y-88423144D02*
X120383514Y-88470763D01*
X120383514Y-88470763D02*
X120431133Y-88518382D01*
X120431133Y-88518382D02*
X120478752Y-88613620D01*
X119573991Y-89375525D02*
X119526372Y-89423144D01*
X119526372Y-89423144D02*
X119478752Y-89375525D01*
X119478752Y-89375525D02*
X119526372Y-89327906D01*
X119526372Y-89327906D02*
X119573991Y-89375525D01*
X119573991Y-89375525D02*
X119478752Y-89375525D01*
X120478752Y-90042191D02*
X120478752Y-90137429D01*
X120478752Y-90137429D02*
X120431133Y-90232667D01*
X120431133Y-90232667D02*
X120383514Y-90280286D01*
X120383514Y-90280286D02*
X120288276Y-90327905D01*
X120288276Y-90327905D02*
X120097800Y-90375524D01*
X120097800Y-90375524D02*
X119859705Y-90375524D01*
X119859705Y-90375524D02*
X119669229Y-90327905D01*
X119669229Y-90327905D02*
X119573991Y-90280286D01*
X119573991Y-90280286D02*
X119526372Y-90232667D01*
X119526372Y-90232667D02*
X119478752Y-90137429D01*
X119478752Y-90137429D02*
X119478752Y-90042191D01*
X119478752Y-90042191D02*
X119526372Y-89946953D01*
X119526372Y-89946953D02*
X119573991Y-89899334D01*
X119573991Y-89899334D02*
X119669229Y-89851715D01*
X119669229Y-89851715D02*
X119859705Y-89804096D01*
X119859705Y-89804096D02*
X120097800Y-89804096D01*
X120097800Y-89804096D02*
X120288276Y-89851715D01*
X120288276Y-89851715D02*
X120383514Y-89899334D01*
X120383514Y-89899334D02*
X120431133Y-89946953D01*
X120431133Y-89946953D02*
X120478752Y-90042191D01*
X118773570Y-79470762D02*
X118821189Y-79518381D01*
X118821189Y-79518381D02*
X118868808Y-79613619D01*
X118868808Y-79613619D02*
X118868808Y-79851714D01*
X118868808Y-79851714D02*
X118821189Y-79946952D01*
X118821189Y-79946952D02*
X118773570Y-79994571D01*
X118773570Y-79994571D02*
X118678332Y-80042190D01*
X118678332Y-80042190D02*
X118583094Y-80042190D01*
X118583094Y-80042190D02*
X118440237Y-79994571D01*
X118440237Y-79994571D02*
X117868808Y-79423143D01*
X117868808Y-79423143D02*
X117868808Y-80042190D01*
X118440237Y-80613619D02*
X118487856Y-80518381D01*
X118487856Y-80518381D02*
X118535475Y-80470762D01*
X118535475Y-80470762D02*
X118630713Y-80423143D01*
X118630713Y-80423143D02*
X118678332Y-80423143D01*
X118678332Y-80423143D02*
X118773570Y-80470762D01*
X118773570Y-80470762D02*
X118821189Y-80518381D01*
X118821189Y-80518381D02*
X118868808Y-80613619D01*
X118868808Y-80613619D02*
X118868808Y-80804095D01*
X118868808Y-80804095D02*
X118821189Y-80899333D01*
X118821189Y-80899333D02*
X118773570Y-80946952D01*
X118773570Y-80946952D02*
X118678332Y-80994571D01*
X118678332Y-80994571D02*
X118630713Y-80994571D01*
X118630713Y-80994571D02*
X118535475Y-80946952D01*
X118535475Y-80946952D02*
X118487856Y-80899333D01*
X118487856Y-80899333D02*
X118440237Y-80804095D01*
X118440237Y-80804095D02*
X118440237Y-80613619D01*
X118440237Y-80613619D02*
X118392618Y-80518381D01*
X118392618Y-80518381D02*
X118344999Y-80470762D01*
X118344999Y-80470762D02*
X118249761Y-80423143D01*
X118249761Y-80423143D02*
X118059285Y-80423143D01*
X118059285Y-80423143D02*
X117964047Y-80470762D01*
X117964047Y-80470762D02*
X117916428Y-80518381D01*
X117916428Y-80518381D02*
X117868808Y-80613619D01*
X117868808Y-80613619D02*
X117868808Y-80804095D01*
X117868808Y-80804095D02*
X117916428Y-80899333D01*
X117916428Y-80899333D02*
X117964047Y-80946952D01*
X117964047Y-80946952D02*
X118059285Y-80994571D01*
X118059285Y-80994571D02*
X118249761Y-80994571D01*
X118249761Y-80994571D02*
X118344999Y-80946952D01*
X118344999Y-80946952D02*
X118392618Y-80899333D01*
X118392618Y-80899333D02*
X118440237Y-80804095D01*
X117964047Y-81423143D02*
X117916428Y-81470762D01*
X117916428Y-81470762D02*
X117868808Y-81423143D01*
X117868808Y-81423143D02*
X117916428Y-81375524D01*
X117916428Y-81375524D02*
X117964047Y-81423143D01*
X117964047Y-81423143D02*
X117868808Y-81423143D01*
X117868808Y-82423142D02*
X117868808Y-81851714D01*
X117868808Y-82137428D02*
X118868808Y-82137428D01*
X118868808Y-82137428D02*
X118725951Y-82042190D01*
X118725951Y-82042190D02*
X118630713Y-81946952D01*
X118630713Y-81946952D02*
X118583094Y-81851714D01*
X118868808Y-83042190D02*
X118868808Y-83137428D01*
X118868808Y-83137428D02*
X118821189Y-83232666D01*
X118821189Y-83232666D02*
X118773570Y-83280285D01*
X118773570Y-83280285D02*
X118678332Y-83327904D01*
X118678332Y-83327904D02*
X118487856Y-83375523D01*
X118487856Y-83375523D02*
X118249761Y-83375523D01*
X118249761Y-83375523D02*
X118059285Y-83327904D01*
X118059285Y-83327904D02*
X117964047Y-83280285D01*
X117964047Y-83280285D02*
X117916428Y-83232666D01*
X117916428Y-83232666D02*
X117868808Y-83137428D01*
X117868808Y-83137428D02*
X117868808Y-83042190D01*
X117868808Y-83042190D02*
X117916428Y-82946952D01*
X117916428Y-82946952D02*
X117964047Y-82899333D01*
X117964047Y-82899333D02*
X118059285Y-82851714D01*
X118059285Y-82851714D02*
X118249761Y-82804095D01*
X118249761Y-82804095D02*
X118487856Y-82804095D01*
X118487856Y-82804095D02*
X118678332Y-82851714D01*
X118678332Y-82851714D02*
X118773570Y-82899333D01*
X118773570Y-82899333D02*
X118821189Y-82946952D01*
X118821189Y-82946952D02*
X118868808Y-83042190D01*
X117964047Y-83804095D02*
X117916428Y-83851714D01*
X117916428Y-83851714D02*
X117868808Y-83804095D01*
X117868808Y-83804095D02*
X117916428Y-83756476D01*
X117916428Y-83756476D02*
X117964047Y-83804095D01*
X117964047Y-83804095D02*
X117868808Y-83804095D01*
X118773570Y-84232666D02*
X118821189Y-84280285D01*
X118821189Y-84280285D02*
X118868808Y-84375523D01*
X118868808Y-84375523D02*
X118868808Y-84613618D01*
X118868808Y-84613618D02*
X118821189Y-84708856D01*
X118821189Y-84708856D02*
X118773570Y-84756475D01*
X118773570Y-84756475D02*
X118678332Y-84804094D01*
X118678332Y-84804094D02*
X118583094Y-84804094D01*
X118583094Y-84804094D02*
X118440237Y-84756475D01*
X118440237Y-84756475D02*
X117868808Y-84185047D01*
X117868808Y-84185047D02*
X117868808Y-84804094D01*
X118868808Y-85423142D02*
X118868808Y-85518380D01*
X118868808Y-85518380D02*
X118821189Y-85613618D01*
X118821189Y-85613618D02*
X118773570Y-85661237D01*
X118773570Y-85661237D02*
X118678332Y-85708856D01*
X118678332Y-85708856D02*
X118487856Y-85756475D01*
X118487856Y-85756475D02*
X118249761Y-85756475D01*
X118249761Y-85756475D02*
X118059285Y-85708856D01*
X118059285Y-85708856D02*
X117964047Y-85661237D01*
X117964047Y-85661237D02*
X117916428Y-85613618D01*
X117916428Y-85613618D02*
X117868808Y-85518380D01*
X117868808Y-85518380D02*
X117868808Y-85423142D01*
X117868808Y-85423142D02*
X117916428Y-85327904D01*
X117916428Y-85327904D02*
X117964047Y-85280285D01*
X117964047Y-85280285D02*
X118059285Y-85232666D01*
X118059285Y-85232666D02*
X118249761Y-85185047D01*
X118249761Y-85185047D02*
X118487856Y-85185047D01*
X118487856Y-85185047D02*
X118678332Y-85232666D01*
X118678332Y-85232666D02*
X118773570Y-85280285D01*
X118773570Y-85280285D02*
X118821189Y-85327904D01*
X118821189Y-85327904D02*
X118868808Y-85423142D01*
X118773570Y-86137428D02*
X118821189Y-86185047D01*
X118821189Y-86185047D02*
X118868808Y-86280285D01*
X118868808Y-86280285D02*
X118868808Y-86518380D01*
X118868808Y-86518380D02*
X118821189Y-86613618D01*
X118821189Y-86613618D02*
X118773570Y-86661237D01*
X118773570Y-86661237D02*
X118678332Y-86708856D01*
X118678332Y-86708856D02*
X118583094Y-86708856D01*
X118583094Y-86708856D02*
X118440237Y-86661237D01*
X118440237Y-86661237D02*
X117868808Y-86089809D01*
X117868808Y-86089809D02*
X117868808Y-86708856D01*
X118535475Y-87565999D02*
X117868808Y-87565999D01*
X118916428Y-87327904D02*
X118202142Y-87089809D01*
X118202142Y-87089809D02*
X118202142Y-87708856D01*
X140942816Y-109611219D02*
X141514244Y-109611219D01*
X141228530Y-110611219D02*
X141228530Y-109611219D01*
X141752340Y-109611219D02*
X142419006Y-110611219D01*
X142419006Y-109611219D02*
X141752340Y-110611219D01*
X116845733Y-94603673D02*
X116845733Y-95365578D01*
X116464780Y-94984625D02*
X117226685Y-94984625D01*
X117464780Y-96317958D02*
X117464780Y-95841768D01*
X117464780Y-95841768D02*
X116988590Y-95794149D01*
X116988590Y-95794149D02*
X117036209Y-95841768D01*
X117036209Y-95841768D02*
X117083828Y-95937006D01*
X117083828Y-95937006D02*
X117083828Y-96175101D01*
X117083828Y-96175101D02*
X117036209Y-96270339D01*
X117036209Y-96270339D02*
X116988590Y-96317958D01*
X116988590Y-96317958D02*
X116893352Y-96365577D01*
X116893352Y-96365577D02*
X116655257Y-96365577D01*
X116655257Y-96365577D02*
X116560019Y-96317958D01*
X116560019Y-96317958D02*
X116512400Y-96270339D01*
X116512400Y-96270339D02*
X116464780Y-96175101D01*
X116464780Y-96175101D02*
X116464780Y-95937006D01*
X116464780Y-95937006D02*
X116512400Y-95841768D01*
X116512400Y-95841768D02*
X116560019Y-95794149D01*
X117464780Y-96651292D02*
X116464780Y-96984625D01*
X116464780Y-96984625D02*
X117464780Y-97317958D01*
X117417161Y-105541482D02*
X117464780Y-105446244D01*
X117464780Y-105446244D02*
X117464780Y-105303387D01*
X117464780Y-105303387D02*
X117417161Y-105160530D01*
X117417161Y-105160530D02*
X117321923Y-105065292D01*
X117321923Y-105065292D02*
X117226685Y-105017673D01*
X117226685Y-105017673D02*
X117036209Y-104970054D01*
X117036209Y-104970054D02*
X116893352Y-104970054D01*
X116893352Y-104970054D02*
X116702876Y-105017673D01*
X116702876Y-105017673D02*
X116607638Y-105065292D01*
X116607638Y-105065292D02*
X116512400Y-105160530D01*
X116512400Y-105160530D02*
X116464780Y-105303387D01*
X116464780Y-105303387D02*
X116464780Y-105398625D01*
X116464780Y-105398625D02*
X116512400Y-105541482D01*
X116512400Y-105541482D02*
X116560019Y-105589101D01*
X116560019Y-105589101D02*
X116893352Y-105589101D01*
X116893352Y-105589101D02*
X116893352Y-105398625D01*
X116464780Y-106017673D02*
X117464780Y-106017673D01*
X117464780Y-106017673D02*
X116464780Y-106589101D01*
X116464780Y-106589101D02*
X117464780Y-106589101D01*
X116464780Y-107065292D02*
X117464780Y-107065292D01*
X117464780Y-107065292D02*
X117464780Y-107303387D01*
X117464780Y-107303387D02*
X117417161Y-107446244D01*
X117417161Y-107446244D02*
X117321923Y-107541482D01*
X117321923Y-107541482D02*
X117226685Y-107589101D01*
X117226685Y-107589101D02*
X117036209Y-107636720D01*
X117036209Y-107636720D02*
X116893352Y-107636720D01*
X116893352Y-107636720D02*
X116702876Y-107589101D01*
X116702876Y-107589101D02*
X116607638Y-107541482D01*
X116607638Y-107541482D02*
X116512400Y-107446244D01*
X116512400Y-107446244D02*
X116464780Y-107303387D01*
X116464780Y-107303387D02*
X116464780Y-107065292D01*
X135313945Y-45392400D02*
X135171088Y-45344780D01*
X135171088Y-45344780D02*
X134932993Y-45344780D01*
X134932993Y-45344780D02*
X134837755Y-45392400D01*
X134837755Y-45392400D02*
X134790136Y-45440019D01*
X134790136Y-45440019D02*
X134742517Y-45535257D01*
X134742517Y-45535257D02*
X134742517Y-45630495D01*
X134742517Y-45630495D02*
X134790136Y-45725733D01*
X134790136Y-45725733D02*
X134837755Y-45773352D01*
X134837755Y-45773352D02*
X134932993Y-45820971D01*
X134932993Y-45820971D02*
X135123469Y-45868590D01*
X135123469Y-45868590D02*
X135218707Y-45916209D01*
X135218707Y-45916209D02*
X135266326Y-45963828D01*
X135266326Y-45963828D02*
X135313945Y-46059066D01*
X135313945Y-46059066D02*
X135313945Y-46154304D01*
X135313945Y-46154304D02*
X135266326Y-46249542D01*
X135266326Y-46249542D02*
X135218707Y-46297161D01*
X135218707Y-46297161D02*
X135123469Y-46344780D01*
X135123469Y-46344780D02*
X134885374Y-46344780D01*
X134885374Y-46344780D02*
X134742517Y-46297161D01*
X134313945Y-45440019D02*
X134266326Y-45392400D01*
X134266326Y-45392400D02*
X134313945Y-45344780D01*
X134313945Y-45344780D02*
X134361564Y-45392400D01*
X134361564Y-45392400D02*
X134313945Y-45440019D01*
X134313945Y-45440019D02*
X134313945Y-45344780D01*
X133837755Y-45344780D02*
X133837755Y-46344780D01*
X133837755Y-46344780D02*
X133456803Y-46344780D01*
X133456803Y-46344780D02*
X133361565Y-46297161D01*
X133361565Y-46297161D02*
X133313946Y-46249542D01*
X133313946Y-46249542D02*
X133266327Y-46154304D01*
X133266327Y-46154304D02*
X133266327Y-46011447D01*
X133266327Y-46011447D02*
X133313946Y-45916209D01*
X133313946Y-45916209D02*
X133361565Y-45868590D01*
X133361565Y-45868590D02*
X133456803Y-45820971D01*
X133456803Y-45820971D02*
X133837755Y-45820971D01*
X132932993Y-46344780D02*
X132694898Y-45344780D01*
X132694898Y-45344780D02*
X132504422Y-46059066D01*
X132504422Y-46059066D02*
X132313946Y-45344780D01*
X132313946Y-45344780D02*
X132075851Y-46344780D01*
X131123470Y-45344780D02*
X131456803Y-45820971D01*
X131694898Y-45344780D02*
X131694898Y-46344780D01*
X131694898Y-46344780D02*
X131313946Y-46344780D01*
X131313946Y-46344780D02*
X131218708Y-46297161D01*
X131218708Y-46297161D02*
X131171089Y-46249542D01*
X131171089Y-46249542D02*
X131123470Y-46154304D01*
X131123470Y-46154304D02*
X131123470Y-46011447D01*
X131123470Y-46011447D02*
X131171089Y-45916209D01*
X131171089Y-45916209D02*
X131218708Y-45868590D01*
X131218708Y-45868590D02*
X131313946Y-45820971D01*
X131313946Y-45820971D02*
X131694898Y-45820971D01*
X139377945Y-45392400D02*
X139235088Y-45344780D01*
X139235088Y-45344780D02*
X138996993Y-45344780D01*
X138996993Y-45344780D02*
X138901755Y-45392400D01*
X138901755Y-45392400D02*
X138854136Y-45440019D01*
X138854136Y-45440019D02*
X138806517Y-45535257D01*
X138806517Y-45535257D02*
X138806517Y-45630495D01*
X138806517Y-45630495D02*
X138854136Y-45725733D01*
X138854136Y-45725733D02*
X138901755Y-45773352D01*
X138901755Y-45773352D02*
X138996993Y-45820971D01*
X138996993Y-45820971D02*
X139187469Y-45868590D01*
X139187469Y-45868590D02*
X139282707Y-45916209D01*
X139282707Y-45916209D02*
X139330326Y-45963828D01*
X139330326Y-45963828D02*
X139377945Y-46059066D01*
X139377945Y-46059066D02*
X139377945Y-46154304D01*
X139377945Y-46154304D02*
X139330326Y-46249542D01*
X139330326Y-46249542D02*
X139282707Y-46297161D01*
X139282707Y-46297161D02*
X139187469Y-46344780D01*
X139187469Y-46344780D02*
X138949374Y-46344780D01*
X138949374Y-46344780D02*
X138806517Y-46297161D01*
X138377945Y-45440019D02*
X138330326Y-45392400D01*
X138330326Y-45392400D02*
X138377945Y-45344780D01*
X138377945Y-45344780D02*
X138425564Y-45392400D01*
X138425564Y-45392400D02*
X138377945Y-45440019D01*
X138377945Y-45440019D02*
X138377945Y-45344780D01*
X137901755Y-45344780D02*
X137901755Y-46011447D01*
X137901755Y-46344780D02*
X137949374Y-46297161D01*
X137949374Y-46297161D02*
X137901755Y-46249542D01*
X137901755Y-46249542D02*
X137854136Y-46297161D01*
X137854136Y-46297161D02*
X137901755Y-46344780D01*
X137901755Y-46344780D02*
X137901755Y-46249542D01*
X137425565Y-46011447D02*
X137425565Y-45344780D01*
X137425565Y-45916209D02*
X137377946Y-45963828D01*
X137377946Y-45963828D02*
X137282708Y-46011447D01*
X137282708Y-46011447D02*
X137139851Y-46011447D01*
X137139851Y-46011447D02*
X137044613Y-45963828D01*
X137044613Y-45963828D02*
X136996994Y-45868590D01*
X136996994Y-45868590D02*
X136996994Y-45344780D01*
X155586326Y-45725733D02*
X154824422Y-45725733D01*
X155205374Y-45344780D02*
X155205374Y-46106685D01*
X153824422Y-45344780D02*
X154395850Y-45344780D01*
X154110136Y-45344780D02*
X154110136Y-46344780D01*
X154110136Y-46344780D02*
X154205374Y-46201923D01*
X154205374Y-46201923D02*
X154300612Y-46106685D01*
X154300612Y-46106685D02*
X154395850Y-46059066D01*
X153443469Y-46249542D02*
X153395850Y-46297161D01*
X153395850Y-46297161D02*
X153300612Y-46344780D01*
X153300612Y-46344780D02*
X153062517Y-46344780D01*
X153062517Y-46344780D02*
X152967279Y-46297161D01*
X152967279Y-46297161D02*
X152919660Y-46249542D01*
X152919660Y-46249542D02*
X152872041Y-46154304D01*
X152872041Y-46154304D02*
X152872041Y-46059066D01*
X152872041Y-46059066D02*
X152919660Y-45916209D01*
X152919660Y-45916209D02*
X153491088Y-45344780D01*
X153491088Y-45344780D02*
X152872041Y-45344780D01*
X152586326Y-46344780D02*
X152252993Y-45344780D01*
X152252993Y-45344780D02*
X151919660Y-46344780D01*
X149220517Y-46297161D02*
X149315755Y-46344780D01*
X149315755Y-46344780D02*
X149458612Y-46344780D01*
X149458612Y-46344780D02*
X149601469Y-46297161D01*
X149601469Y-46297161D02*
X149696707Y-46201923D01*
X149696707Y-46201923D02*
X149744326Y-46106685D01*
X149744326Y-46106685D02*
X149791945Y-45916209D01*
X149791945Y-45916209D02*
X149791945Y-45773352D01*
X149791945Y-45773352D02*
X149744326Y-45582876D01*
X149744326Y-45582876D02*
X149696707Y-45487638D01*
X149696707Y-45487638D02*
X149601469Y-45392400D01*
X149601469Y-45392400D02*
X149458612Y-45344780D01*
X149458612Y-45344780D02*
X149363374Y-45344780D01*
X149363374Y-45344780D02*
X149220517Y-45392400D01*
X149220517Y-45392400D02*
X149172898Y-45440019D01*
X149172898Y-45440019D02*
X149172898Y-45773352D01*
X149172898Y-45773352D02*
X149363374Y-45773352D01*
X148744326Y-45344780D02*
X148744326Y-46344780D01*
X148744326Y-46344780D02*
X148172898Y-45344780D01*
X148172898Y-45344780D02*
X148172898Y-46344780D01*
X147696707Y-45344780D02*
X147696707Y-46344780D01*
X147696707Y-46344780D02*
X147458612Y-46344780D01*
X147458612Y-46344780D02*
X147315755Y-46297161D01*
X147315755Y-46297161D02*
X147220517Y-46201923D01*
X147220517Y-46201923D02*
X147172898Y-46106685D01*
X147172898Y-46106685D02*
X147125279Y-45916209D01*
X147125279Y-45916209D02*
X147125279Y-45773352D01*
X147125279Y-45773352D02*
X147172898Y-45582876D01*
X147172898Y-45582876D02*
X147220517Y-45487638D01*
X147220517Y-45487638D02*
X147315755Y-45392400D01*
X147315755Y-45392400D02*
X147458612Y-45344780D01*
X147458612Y-45344780D02*
X147696707Y-45344780D01*
X145219945Y-45392400D02*
X145077088Y-45344780D01*
X145077088Y-45344780D02*
X144838993Y-45344780D01*
X144838993Y-45344780D02*
X144743755Y-45392400D01*
X144743755Y-45392400D02*
X144696136Y-45440019D01*
X144696136Y-45440019D02*
X144648517Y-45535257D01*
X144648517Y-45535257D02*
X144648517Y-45630495D01*
X144648517Y-45630495D02*
X144696136Y-45725733D01*
X144696136Y-45725733D02*
X144743755Y-45773352D01*
X144743755Y-45773352D02*
X144838993Y-45820971D01*
X144838993Y-45820971D02*
X145029469Y-45868590D01*
X145029469Y-45868590D02*
X145124707Y-45916209D01*
X145124707Y-45916209D02*
X145172326Y-45963828D01*
X145172326Y-45963828D02*
X145219945Y-46059066D01*
X145219945Y-46059066D02*
X145219945Y-46154304D01*
X145219945Y-46154304D02*
X145172326Y-46249542D01*
X145172326Y-46249542D02*
X145124707Y-46297161D01*
X145124707Y-46297161D02*
X145029469Y-46344780D01*
X145029469Y-46344780D02*
X144791374Y-46344780D01*
X144791374Y-46344780D02*
X144648517Y-46297161D01*
X144219945Y-45440019D02*
X144172326Y-45392400D01*
X144172326Y-45392400D02*
X144219945Y-45344780D01*
X144219945Y-45344780D02*
X144267564Y-45392400D01*
X144267564Y-45392400D02*
X144219945Y-45440019D01*
X144219945Y-45440019D02*
X144219945Y-45344780D01*
X143219946Y-46297161D02*
X143315184Y-46344780D01*
X143315184Y-46344780D02*
X143458041Y-46344780D01*
X143458041Y-46344780D02*
X143600898Y-46297161D01*
X143600898Y-46297161D02*
X143696136Y-46201923D01*
X143696136Y-46201923D02*
X143743755Y-46106685D01*
X143743755Y-46106685D02*
X143791374Y-45916209D01*
X143791374Y-45916209D02*
X143791374Y-45773352D01*
X143791374Y-45773352D02*
X143743755Y-45582876D01*
X143743755Y-45582876D02*
X143696136Y-45487638D01*
X143696136Y-45487638D02*
X143600898Y-45392400D01*
X143600898Y-45392400D02*
X143458041Y-45344780D01*
X143458041Y-45344780D02*
X143362803Y-45344780D01*
X143362803Y-45344780D02*
X143219946Y-45392400D01*
X143219946Y-45392400D02*
X143172327Y-45440019D01*
X143172327Y-45440019D02*
X143172327Y-45773352D01*
X143172327Y-45773352D02*
X143362803Y-45773352D01*
X142743755Y-45344780D02*
X142743755Y-46344780D01*
X142743755Y-46344780D02*
X142172327Y-45344780D01*
X142172327Y-45344780D02*
X142172327Y-46344780D01*
X141696136Y-45344780D02*
X141696136Y-46344780D01*
X141696136Y-46344780D02*
X141458041Y-46344780D01*
X141458041Y-46344780D02*
X141315184Y-46297161D01*
X141315184Y-46297161D02*
X141219946Y-46201923D01*
X141219946Y-46201923D02*
X141172327Y-46106685D01*
X141172327Y-46106685D02*
X141124708Y-45916209D01*
X141124708Y-45916209D02*
X141124708Y-45773352D01*
X141124708Y-45773352D02*
X141172327Y-45582876D01*
X141172327Y-45582876D02*
X141219946Y-45487638D01*
X141219946Y-45487638D02*
X141315184Y-45392400D01*
X141315184Y-45392400D02*
X141458041Y-45344780D01*
X141458041Y-45344780D02*
X141696136Y-45344780D01*
D11*
X119179999Y-108118033D02*
X119179999Y-108618033D01*
X119179999Y-108618033D02*
X119151428Y-108718033D01*
X119151428Y-108718033D02*
X119094285Y-108784700D01*
X119094285Y-108784700D02*
X119008571Y-108818033D01*
X119008571Y-108818033D02*
X118951428Y-108818033D01*
X119551428Y-108418033D02*
X119494285Y-108384700D01*
X119494285Y-108384700D02*
X119465714Y-108351366D01*
X119465714Y-108351366D02*
X119437142Y-108284700D01*
X119437142Y-108284700D02*
X119437142Y-108251366D01*
X119437142Y-108251366D02*
X119465714Y-108184700D01*
X119465714Y-108184700D02*
X119494285Y-108151366D01*
X119494285Y-108151366D02*
X119551428Y-108118033D01*
X119551428Y-108118033D02*
X119665714Y-108118033D01*
X119665714Y-108118033D02*
X119722857Y-108151366D01*
X119722857Y-108151366D02*
X119751428Y-108184700D01*
X119751428Y-108184700D02*
X119779999Y-108251366D01*
X119779999Y-108251366D02*
X119779999Y-108284700D01*
X119779999Y-108284700D02*
X119751428Y-108351366D01*
X119751428Y-108351366D02*
X119722857Y-108384700D01*
X119722857Y-108384700D02*
X119665714Y-108418033D01*
X119665714Y-108418033D02*
X119551428Y-108418033D01*
X119551428Y-108418033D02*
X119494285Y-108451366D01*
X119494285Y-108451366D02*
X119465714Y-108484700D01*
X119465714Y-108484700D02*
X119437142Y-108551366D01*
X119437142Y-108551366D02*
X119437142Y-108684700D01*
X119437142Y-108684700D02*
X119465714Y-108751366D01*
X119465714Y-108751366D02*
X119494285Y-108784700D01*
X119494285Y-108784700D02*
X119551428Y-108818033D01*
X119551428Y-108818033D02*
X119665714Y-108818033D01*
X119665714Y-108818033D02*
X119722857Y-108784700D01*
X119722857Y-108784700D02*
X119751428Y-108751366D01*
X119751428Y-108751366D02*
X119779999Y-108684700D01*
X119779999Y-108684700D02*
X119779999Y-108551366D01*
X119779999Y-108551366D02*
X119751428Y-108484700D01*
X119751428Y-108484700D02*
X119722857Y-108451366D01*
X119722857Y-108451366D02*
X119665714Y-108418033D01*
X150319700Y-84603714D02*
X150653033Y-84603714D01*
X149953033Y-84803714D02*
X150319700Y-84603714D01*
X150319700Y-84603714D02*
X149953033Y-84403714D01*
X150653033Y-83889428D02*
X150653033Y-84232285D01*
X150653033Y-84060856D02*
X149953033Y-84060856D01*
X149953033Y-84060856D02*
X150053033Y-84117999D01*
X150053033Y-84117999D02*
X150119700Y-84175142D01*
X150119700Y-84175142D02*
X150153033Y-84232285D01*
X152300000Y-83717366D02*
X152271428Y-83750700D01*
X152271428Y-83750700D02*
X152185714Y-83784033D01*
X152185714Y-83784033D02*
X152128571Y-83784033D01*
X152128571Y-83784033D02*
X152042857Y-83750700D01*
X152042857Y-83750700D02*
X151985714Y-83684033D01*
X151985714Y-83684033D02*
X151957143Y-83617366D01*
X151957143Y-83617366D02*
X151928571Y-83484033D01*
X151928571Y-83484033D02*
X151928571Y-83384033D01*
X151928571Y-83384033D02*
X151957143Y-83250700D01*
X151957143Y-83250700D02*
X151985714Y-83184033D01*
X151985714Y-83184033D02*
X152042857Y-83117366D01*
X152042857Y-83117366D02*
X152128571Y-83084033D01*
X152128571Y-83084033D02*
X152185714Y-83084033D01*
X152185714Y-83084033D02*
X152271428Y-83117366D01*
X152271428Y-83117366D02*
X152300000Y-83150700D01*
X152842857Y-83084033D02*
X152557143Y-83084033D01*
X152557143Y-83084033D02*
X152528571Y-83417366D01*
X152528571Y-83417366D02*
X152557143Y-83384033D01*
X152557143Y-83384033D02*
X152614286Y-83350700D01*
X152614286Y-83350700D02*
X152757143Y-83350700D01*
X152757143Y-83350700D02*
X152814286Y-83384033D01*
X152814286Y-83384033D02*
X152842857Y-83417366D01*
X152842857Y-83417366D02*
X152871428Y-83484033D01*
X152871428Y-83484033D02*
X152871428Y-83650700D01*
X152871428Y-83650700D02*
X152842857Y-83717366D01*
X152842857Y-83717366D02*
X152814286Y-83750700D01*
X152814286Y-83750700D02*
X152757143Y-83784033D01*
X152757143Y-83784033D02*
X152614286Y-83784033D01*
X152614286Y-83784033D02*
X152557143Y-83750700D01*
X152557143Y-83750700D02*
X152528571Y-83717366D01*
X152300000Y-88797366D02*
X152271428Y-88830700D01*
X152271428Y-88830700D02*
X152185714Y-88864033D01*
X152185714Y-88864033D02*
X152128571Y-88864033D01*
X152128571Y-88864033D02*
X152042857Y-88830700D01*
X152042857Y-88830700D02*
X151985714Y-88764033D01*
X151985714Y-88764033D02*
X151957143Y-88697366D01*
X151957143Y-88697366D02*
X151928571Y-88564033D01*
X151928571Y-88564033D02*
X151928571Y-88464033D01*
X151928571Y-88464033D02*
X151957143Y-88330700D01*
X151957143Y-88330700D02*
X151985714Y-88264033D01*
X151985714Y-88264033D02*
X152042857Y-88197366D01*
X152042857Y-88197366D02*
X152128571Y-88164033D01*
X152128571Y-88164033D02*
X152185714Y-88164033D01*
X152185714Y-88164033D02*
X152271428Y-88197366D01*
X152271428Y-88197366D02*
X152300000Y-88230700D01*
X152814286Y-88397366D02*
X152814286Y-88864033D01*
X152671428Y-88130700D02*
X152528571Y-88630700D01*
X152528571Y-88630700D02*
X152900000Y-88630700D01*
X128068033Y-131013142D02*
X128634700Y-131013142D01*
X128634700Y-131013142D02*
X128701366Y-130984571D01*
X128701366Y-130984571D02*
X128734700Y-130956000D01*
X128734700Y-130956000D02*
X128768033Y-130898857D01*
X128768033Y-130898857D02*
X128768033Y-130784571D01*
X128768033Y-130784571D02*
X128734700Y-130727428D01*
X128734700Y-130727428D02*
X128701366Y-130698857D01*
X128701366Y-130698857D02*
X128634700Y-130670285D01*
X128634700Y-130670285D02*
X128068033Y-130670285D01*
X128134700Y-130413143D02*
X128101366Y-130384571D01*
X128101366Y-130384571D02*
X128068033Y-130327429D01*
X128068033Y-130327429D02*
X128068033Y-130184571D01*
X128068033Y-130184571D02*
X128101366Y-130127429D01*
X128101366Y-130127429D02*
X128134700Y-130098857D01*
X128134700Y-130098857D02*
X128201366Y-130070286D01*
X128201366Y-130070286D02*
X128268033Y-130070286D01*
X128268033Y-130070286D02*
X128368033Y-130098857D01*
X128368033Y-130098857D02*
X128768033Y-130441714D01*
X128768033Y-130441714D02*
X128768033Y-130070286D01*
X133403999Y-61674033D02*
X133403999Y-62174033D01*
X133403999Y-62174033D02*
X133375428Y-62274033D01*
X133375428Y-62274033D02*
X133318285Y-62340700D01*
X133318285Y-62340700D02*
X133232571Y-62374033D01*
X133232571Y-62374033D02*
X133175428Y-62374033D01*
X133632571Y-61674033D02*
X134003999Y-61674033D01*
X134003999Y-61674033D02*
X133803999Y-61940700D01*
X133803999Y-61940700D02*
X133889714Y-61940700D01*
X133889714Y-61940700D02*
X133946857Y-61974033D01*
X133946857Y-61974033D02*
X133975428Y-62007366D01*
X133975428Y-62007366D02*
X134003999Y-62074033D01*
X134003999Y-62074033D02*
X134003999Y-62240700D01*
X134003999Y-62240700D02*
X133975428Y-62307366D01*
X133975428Y-62307366D02*
X133946857Y-62340700D01*
X133946857Y-62340700D02*
X133889714Y-62374033D01*
X133889714Y-62374033D02*
X133718285Y-62374033D01*
X133718285Y-62374033D02*
X133661142Y-62340700D01*
X133661142Y-62340700D02*
X133632571Y-62307366D01*
X123894857Y-66054700D02*
X123837714Y-66021366D01*
X123837714Y-66021366D02*
X123780571Y-65954700D01*
X123780571Y-65954700D02*
X123694857Y-65854700D01*
X123694857Y-65854700D02*
X123637714Y-65821366D01*
X123637714Y-65821366D02*
X123580571Y-65821366D01*
X123609142Y-65988033D02*
X123552000Y-65954700D01*
X123552000Y-65954700D02*
X123494857Y-65888033D01*
X123494857Y-65888033D02*
X123466285Y-65754700D01*
X123466285Y-65754700D02*
X123466285Y-65521366D01*
X123466285Y-65521366D02*
X123494857Y-65388033D01*
X123494857Y-65388033D02*
X123552000Y-65321366D01*
X123552000Y-65321366D02*
X123609142Y-65288033D01*
X123609142Y-65288033D02*
X123723428Y-65288033D01*
X123723428Y-65288033D02*
X123780571Y-65321366D01*
X123780571Y-65321366D02*
X123837714Y-65388033D01*
X123837714Y-65388033D02*
X123866285Y-65521366D01*
X123866285Y-65521366D02*
X123866285Y-65754700D01*
X123866285Y-65754700D02*
X123837714Y-65888033D01*
X123837714Y-65888033D02*
X123780571Y-65954700D01*
X123780571Y-65954700D02*
X123723428Y-65988033D01*
X123723428Y-65988033D02*
X123609142Y-65988033D01*
X124437713Y-65988033D02*
X124094856Y-65988033D01*
X124266285Y-65988033D02*
X124266285Y-65288033D01*
X124266285Y-65288033D02*
X124209142Y-65388033D01*
X124209142Y-65388033D02*
X124151999Y-65454700D01*
X124151999Y-65454700D02*
X124094856Y-65488033D01*
X141531999Y-114678033D02*
X141531999Y-115178033D01*
X141531999Y-115178033D02*
X141503428Y-115278033D01*
X141503428Y-115278033D02*
X141446285Y-115344700D01*
X141446285Y-115344700D02*
X141360571Y-115378033D01*
X141360571Y-115378033D02*
X141303428Y-115378033D01*
X142074857Y-114678033D02*
X141960571Y-114678033D01*
X141960571Y-114678033D02*
X141903428Y-114711366D01*
X141903428Y-114711366D02*
X141874857Y-114744700D01*
X141874857Y-114744700D02*
X141817714Y-114844700D01*
X141817714Y-114844700D02*
X141789142Y-114978033D01*
X141789142Y-114978033D02*
X141789142Y-115244700D01*
X141789142Y-115244700D02*
X141817714Y-115311366D01*
X141817714Y-115311366D02*
X141846285Y-115344700D01*
X141846285Y-115344700D02*
X141903428Y-115378033D01*
X141903428Y-115378033D02*
X142017714Y-115378033D01*
X142017714Y-115378033D02*
X142074857Y-115344700D01*
X142074857Y-115344700D02*
X142103428Y-115311366D01*
X142103428Y-115311366D02*
X142131999Y-115244700D01*
X142131999Y-115244700D02*
X142131999Y-115078033D01*
X142131999Y-115078033D02*
X142103428Y-115011366D01*
X142103428Y-115011366D02*
X142074857Y-114978033D01*
X142074857Y-114978033D02*
X142017714Y-114944700D01*
X142017714Y-114944700D02*
X141903428Y-114944700D01*
X141903428Y-114944700D02*
X141846285Y-114978033D01*
X141846285Y-114978033D02*
X141817714Y-115011366D01*
X141817714Y-115011366D02*
X141789142Y-115078033D01*
X140398033Y-117447999D02*
X140064700Y-117647999D01*
X140398033Y-117790856D02*
X139698033Y-117790856D01*
X139698033Y-117790856D02*
X139698033Y-117562285D01*
X139698033Y-117562285D02*
X139731366Y-117505142D01*
X139731366Y-117505142D02*
X139764700Y-117476571D01*
X139764700Y-117476571D02*
X139831366Y-117447999D01*
X139831366Y-117447999D02*
X139931366Y-117447999D01*
X139931366Y-117447999D02*
X139998033Y-117476571D01*
X139998033Y-117476571D02*
X140031366Y-117505142D01*
X140031366Y-117505142D02*
X140064700Y-117562285D01*
X140064700Y-117562285D02*
X140064700Y-117790856D01*
X139764700Y-117219428D02*
X139731366Y-117190856D01*
X139731366Y-117190856D02*
X139698033Y-117133714D01*
X139698033Y-117133714D02*
X139698033Y-116990856D01*
X139698033Y-116990856D02*
X139731366Y-116933714D01*
X139731366Y-116933714D02*
X139764700Y-116905142D01*
X139764700Y-116905142D02*
X139831366Y-116876571D01*
X139831366Y-116876571D02*
X139898033Y-116876571D01*
X139898033Y-116876571D02*
X139998033Y-116905142D01*
X139998033Y-116905142D02*
X140398033Y-117247999D01*
X140398033Y-117247999D02*
X140398033Y-116876571D01*
X156272033Y-65509713D02*
X155572033Y-65509713D01*
X155572033Y-65509713D02*
X156072033Y-65309713D01*
X156072033Y-65309713D02*
X155572033Y-65109713D01*
X155572033Y-65109713D02*
X156272033Y-65109713D01*
X156272033Y-64509714D02*
X156272033Y-64852571D01*
X156272033Y-64681142D02*
X155572033Y-64681142D01*
X155572033Y-64681142D02*
X155672033Y-64738285D01*
X155672033Y-64738285D02*
X155738700Y-64795428D01*
X155738700Y-64795428D02*
X155772033Y-64852571D01*
X153723999Y-61674033D02*
X153723999Y-62174033D01*
X153723999Y-62174033D02*
X153695428Y-62274033D01*
X153695428Y-62274033D02*
X153638285Y-62340700D01*
X153638285Y-62340700D02*
X153552571Y-62374033D01*
X153552571Y-62374033D02*
X153495428Y-62374033D01*
X154323999Y-62374033D02*
X153981142Y-62374033D01*
X154152571Y-62374033D02*
X154152571Y-61674033D01*
X154152571Y-61674033D02*
X154095428Y-61774033D01*
X154095428Y-61774033D02*
X154038285Y-61840700D01*
X154038285Y-61840700D02*
X153981142Y-61874033D01*
X148643999Y-61674033D02*
X148643999Y-62174033D01*
X148643999Y-62174033D02*
X148615428Y-62274033D01*
X148615428Y-62274033D02*
X148558285Y-62340700D01*
X148558285Y-62340700D02*
X148472571Y-62374033D01*
X148472571Y-62374033D02*
X148415428Y-62374033D01*
X148901142Y-61740700D02*
X148929714Y-61707366D01*
X148929714Y-61707366D02*
X148986857Y-61674033D01*
X148986857Y-61674033D02*
X149129714Y-61674033D01*
X149129714Y-61674033D02*
X149186857Y-61707366D01*
X149186857Y-61707366D02*
X149215428Y-61740700D01*
X149215428Y-61740700D02*
X149243999Y-61807366D01*
X149243999Y-61807366D02*
X149243999Y-61874033D01*
X149243999Y-61874033D02*
X149215428Y-61974033D01*
X149215428Y-61974033D02*
X148872571Y-62374033D01*
X148872571Y-62374033D02*
X149243999Y-62374033D01*
X128974857Y-66168700D02*
X128917714Y-66135366D01*
X128917714Y-66135366D02*
X128860571Y-66068700D01*
X128860571Y-66068700D02*
X128774857Y-65968700D01*
X128774857Y-65968700D02*
X128717714Y-65935366D01*
X128717714Y-65935366D02*
X128660571Y-65935366D01*
X128689142Y-66102033D02*
X128632000Y-66068700D01*
X128632000Y-66068700D02*
X128574857Y-66002033D01*
X128574857Y-66002033D02*
X128546285Y-65868700D01*
X128546285Y-65868700D02*
X128546285Y-65635366D01*
X128546285Y-65635366D02*
X128574857Y-65502033D01*
X128574857Y-65502033D02*
X128632000Y-65435366D01*
X128632000Y-65435366D02*
X128689142Y-65402033D01*
X128689142Y-65402033D02*
X128803428Y-65402033D01*
X128803428Y-65402033D02*
X128860571Y-65435366D01*
X128860571Y-65435366D02*
X128917714Y-65502033D01*
X128917714Y-65502033D02*
X128946285Y-65635366D01*
X128946285Y-65635366D02*
X128946285Y-65868700D01*
X128946285Y-65868700D02*
X128917714Y-66002033D01*
X128917714Y-66002033D02*
X128860571Y-66068700D01*
X128860571Y-66068700D02*
X128803428Y-66102033D01*
X128803428Y-66102033D02*
X128689142Y-66102033D01*
X129174856Y-65468700D02*
X129203428Y-65435366D01*
X129203428Y-65435366D02*
X129260571Y-65402033D01*
X129260571Y-65402033D02*
X129403428Y-65402033D01*
X129403428Y-65402033D02*
X129460571Y-65435366D01*
X129460571Y-65435366D02*
X129489142Y-65468700D01*
X129489142Y-65468700D02*
X129517713Y-65535366D01*
X129517713Y-65535366D02*
X129517713Y-65602033D01*
X129517713Y-65602033D02*
X129489142Y-65702033D01*
X129489142Y-65702033D02*
X129146285Y-66102033D01*
X129146285Y-66102033D02*
X129517713Y-66102033D01*
X126944888Y-116895366D02*
X126916316Y-116928700D01*
X126916316Y-116928700D02*
X126830602Y-116962033D01*
X126830602Y-116962033D02*
X126773459Y-116962033D01*
X126773459Y-116962033D02*
X126687745Y-116928700D01*
X126687745Y-116928700D02*
X126630602Y-116862033D01*
X126630602Y-116862033D02*
X126602031Y-116795366D01*
X126602031Y-116795366D02*
X126573459Y-116662033D01*
X126573459Y-116662033D02*
X126573459Y-116562033D01*
X126573459Y-116562033D02*
X126602031Y-116428700D01*
X126602031Y-116428700D02*
X126630602Y-116362033D01*
X126630602Y-116362033D02*
X126687745Y-116295366D01*
X126687745Y-116295366D02*
X126773459Y-116262033D01*
X126773459Y-116262033D02*
X126830602Y-116262033D01*
X126830602Y-116262033D02*
X126916316Y-116295366D01*
X126916316Y-116295366D02*
X126944888Y-116328700D01*
X127173459Y-116328700D02*
X127202031Y-116295366D01*
X127202031Y-116295366D02*
X127259174Y-116262033D01*
X127259174Y-116262033D02*
X127402031Y-116262033D01*
X127402031Y-116262033D02*
X127459174Y-116295366D01*
X127459174Y-116295366D02*
X127487745Y-116328700D01*
X127487745Y-116328700D02*
X127516316Y-116395366D01*
X127516316Y-116395366D02*
X127516316Y-116462033D01*
X127516316Y-116462033D02*
X127487745Y-116562033D01*
X127487745Y-116562033D02*
X127144888Y-116962033D01*
X127144888Y-116962033D02*
X127516316Y-116962033D01*
X125158033Y-56830856D02*
X124458033Y-56830856D01*
X124458033Y-56830856D02*
X124458033Y-56687999D01*
X124458033Y-56687999D02*
X124491366Y-56602285D01*
X124491366Y-56602285D02*
X124558033Y-56545142D01*
X124558033Y-56545142D02*
X124624700Y-56516571D01*
X124624700Y-56516571D02*
X124758033Y-56487999D01*
X124758033Y-56487999D02*
X124858033Y-56487999D01*
X124858033Y-56487999D02*
X124991366Y-56516571D01*
X124991366Y-56516571D02*
X125058033Y-56545142D01*
X125058033Y-56545142D02*
X125124700Y-56602285D01*
X125124700Y-56602285D02*
X125158033Y-56687999D01*
X125158033Y-56687999D02*
X125158033Y-56830856D01*
X124458033Y-56287999D02*
X124458033Y-55916571D01*
X124458033Y-55916571D02*
X124724700Y-56116571D01*
X124724700Y-56116571D02*
X124724700Y-56030856D01*
X124724700Y-56030856D02*
X124758033Y-55973714D01*
X124758033Y-55973714D02*
X124791366Y-55945142D01*
X124791366Y-55945142D02*
X124858033Y-55916571D01*
X124858033Y-55916571D02*
X125024700Y-55916571D01*
X125024700Y-55916571D02*
X125091366Y-55945142D01*
X125091366Y-55945142D02*
X125124700Y-55973714D01*
X125124700Y-55973714D02*
X125158033Y-56030856D01*
X125158033Y-56030856D02*
X125158033Y-56202285D01*
X125158033Y-56202285D02*
X125124700Y-56259428D01*
X125124700Y-56259428D02*
X125091366Y-56287999D01*
X147762033Y-112979499D02*
X147428700Y-113179499D01*
X147762033Y-113322356D02*
X147062033Y-113322356D01*
X147062033Y-113322356D02*
X147062033Y-113093785D01*
X147062033Y-113093785D02*
X147095366Y-113036642D01*
X147095366Y-113036642D02*
X147128700Y-113008071D01*
X147128700Y-113008071D02*
X147195366Y-112979499D01*
X147195366Y-112979499D02*
X147295366Y-112979499D01*
X147295366Y-112979499D02*
X147362033Y-113008071D01*
X147362033Y-113008071D02*
X147395366Y-113036642D01*
X147395366Y-113036642D02*
X147428700Y-113093785D01*
X147428700Y-113093785D02*
X147428700Y-113322356D01*
X147062033Y-112465214D02*
X147062033Y-112579499D01*
X147062033Y-112579499D02*
X147095366Y-112636642D01*
X147095366Y-112636642D02*
X147128700Y-112665214D01*
X147128700Y-112665214D02*
X147228700Y-112722356D01*
X147228700Y-112722356D02*
X147362033Y-112750928D01*
X147362033Y-112750928D02*
X147628700Y-112750928D01*
X147628700Y-112750928D02*
X147695366Y-112722356D01*
X147695366Y-112722356D02*
X147728700Y-112693785D01*
X147728700Y-112693785D02*
X147762033Y-112636642D01*
X147762033Y-112636642D02*
X147762033Y-112522356D01*
X147762033Y-112522356D02*
X147728700Y-112465214D01*
X147728700Y-112465214D02*
X147695366Y-112436642D01*
X147695366Y-112436642D02*
X147628700Y-112408071D01*
X147628700Y-112408071D02*
X147462033Y-112408071D01*
X147462033Y-112408071D02*
X147395366Y-112436642D01*
X147395366Y-112436642D02*
X147362033Y-112465214D01*
X147362033Y-112465214D02*
X147328700Y-112522356D01*
X147328700Y-112522356D02*
X147328700Y-112636642D01*
X147328700Y-112636642D02*
X147362033Y-112693785D01*
X147362033Y-112693785D02*
X147395366Y-112722356D01*
X147395366Y-112722356D02*
X147462033Y-112750928D01*
X123852000Y-62674033D02*
X123652000Y-62340700D01*
X123509143Y-62674033D02*
X123509143Y-61974033D01*
X123509143Y-61974033D02*
X123737714Y-61974033D01*
X123737714Y-61974033D02*
X123794857Y-62007366D01*
X123794857Y-62007366D02*
X123823428Y-62040700D01*
X123823428Y-62040700D02*
X123852000Y-62107366D01*
X123852000Y-62107366D02*
X123852000Y-62207366D01*
X123852000Y-62207366D02*
X123823428Y-62274033D01*
X123823428Y-62274033D02*
X123794857Y-62307366D01*
X123794857Y-62307366D02*
X123737714Y-62340700D01*
X123737714Y-62340700D02*
X123509143Y-62340700D01*
X124423428Y-62674033D02*
X124080571Y-62674033D01*
X124252000Y-62674033D02*
X124252000Y-61974033D01*
X124252000Y-61974033D02*
X124194857Y-62074033D01*
X124194857Y-62074033D02*
X124137714Y-62140700D01*
X124137714Y-62140700D02*
X124080571Y-62174033D01*
X140016033Y-71054856D02*
X139316033Y-71054856D01*
X139316033Y-71054856D02*
X139316033Y-70911999D01*
X139316033Y-70911999D02*
X139349366Y-70826285D01*
X139349366Y-70826285D02*
X139416033Y-70769142D01*
X139416033Y-70769142D02*
X139482700Y-70740571D01*
X139482700Y-70740571D02*
X139616033Y-70711999D01*
X139616033Y-70711999D02*
X139716033Y-70711999D01*
X139716033Y-70711999D02*
X139849366Y-70740571D01*
X139849366Y-70740571D02*
X139916033Y-70769142D01*
X139916033Y-70769142D02*
X139982700Y-70826285D01*
X139982700Y-70826285D02*
X140016033Y-70911999D01*
X140016033Y-70911999D02*
X140016033Y-71054856D01*
X139382700Y-70483428D02*
X139349366Y-70454856D01*
X139349366Y-70454856D02*
X139316033Y-70397714D01*
X139316033Y-70397714D02*
X139316033Y-70254856D01*
X139316033Y-70254856D02*
X139349366Y-70197714D01*
X139349366Y-70197714D02*
X139382700Y-70169142D01*
X139382700Y-70169142D02*
X139449366Y-70140571D01*
X139449366Y-70140571D02*
X139516033Y-70140571D01*
X139516033Y-70140571D02*
X139616033Y-70169142D01*
X139616033Y-70169142D02*
X140016033Y-70511999D01*
X140016033Y-70511999D02*
X140016033Y-70140571D01*
X144520819Y-65716904D02*
X143520819Y-65716904D01*
X144520819Y-65145476D02*
X143949390Y-65574047D01*
X143520819Y-65145476D02*
X144092247Y-65716904D01*
X142524033Y-91374856D02*
X141824033Y-91374856D01*
X141824033Y-91374856D02*
X141824033Y-91231999D01*
X141824033Y-91231999D02*
X141857366Y-91146285D01*
X141857366Y-91146285D02*
X141924033Y-91089142D01*
X141924033Y-91089142D02*
X141990700Y-91060571D01*
X141990700Y-91060571D02*
X142124033Y-91031999D01*
X142124033Y-91031999D02*
X142224033Y-91031999D01*
X142224033Y-91031999D02*
X142357366Y-91060571D01*
X142357366Y-91060571D02*
X142424033Y-91089142D01*
X142424033Y-91089142D02*
X142490700Y-91146285D01*
X142490700Y-91146285D02*
X142524033Y-91231999D01*
X142524033Y-91231999D02*
X142524033Y-91374856D01*
X142057366Y-90517714D02*
X142524033Y-90517714D01*
X141790700Y-90660571D02*
X142290700Y-90803428D01*
X142290700Y-90803428D02*
X142290700Y-90431999D01*
X136206033Y-112979499D02*
X135872700Y-113179499D01*
X136206033Y-113322356D02*
X135506033Y-113322356D01*
X135506033Y-113322356D02*
X135506033Y-113093785D01*
X135506033Y-113093785D02*
X135539366Y-113036642D01*
X135539366Y-113036642D02*
X135572700Y-113008071D01*
X135572700Y-113008071D02*
X135639366Y-112979499D01*
X135639366Y-112979499D02*
X135739366Y-112979499D01*
X135739366Y-112979499D02*
X135806033Y-113008071D01*
X135806033Y-113008071D02*
X135839366Y-113036642D01*
X135839366Y-113036642D02*
X135872700Y-113093785D01*
X135872700Y-113093785D02*
X135872700Y-113322356D01*
X135506033Y-112779499D02*
X135506033Y-112379499D01*
X135506033Y-112379499D02*
X136206033Y-112636642D01*
X145096033Y-71054856D02*
X144396033Y-71054856D01*
X144396033Y-71054856D02*
X144396033Y-70911999D01*
X144396033Y-70911999D02*
X144429366Y-70826285D01*
X144429366Y-70826285D02*
X144496033Y-70769142D01*
X144496033Y-70769142D02*
X144562700Y-70740571D01*
X144562700Y-70740571D02*
X144696033Y-70711999D01*
X144696033Y-70711999D02*
X144796033Y-70711999D01*
X144796033Y-70711999D02*
X144929366Y-70740571D01*
X144929366Y-70740571D02*
X144996033Y-70769142D01*
X144996033Y-70769142D02*
X145062700Y-70826285D01*
X145062700Y-70826285D02*
X145096033Y-70911999D01*
X145096033Y-70911999D02*
X145096033Y-71054856D01*
X145096033Y-70140571D02*
X145096033Y-70483428D01*
X145096033Y-70311999D02*
X144396033Y-70311999D01*
X144396033Y-70311999D02*
X144496033Y-70369142D01*
X144496033Y-70369142D02*
X144562700Y-70426285D01*
X144562700Y-70426285D02*
X144596033Y-70483428D01*
X145400819Y-75876904D02*
X144400819Y-75876904D01*
X145400819Y-75305476D02*
X144829390Y-75734047D01*
X144400819Y-75305476D02*
X144972247Y-75876904D01*
X144462033Y-117551499D02*
X144128700Y-117751499D01*
X144462033Y-117894356D02*
X143762033Y-117894356D01*
X143762033Y-117894356D02*
X143762033Y-117665785D01*
X143762033Y-117665785D02*
X143795366Y-117608642D01*
X143795366Y-117608642D02*
X143828700Y-117580071D01*
X143828700Y-117580071D02*
X143895366Y-117551499D01*
X143895366Y-117551499D02*
X143995366Y-117551499D01*
X143995366Y-117551499D02*
X144062033Y-117580071D01*
X144062033Y-117580071D02*
X144095366Y-117608642D01*
X144095366Y-117608642D02*
X144128700Y-117665785D01*
X144128700Y-117665785D02*
X144128700Y-117894356D01*
X143762033Y-117008642D02*
X143762033Y-117294356D01*
X143762033Y-117294356D02*
X144095366Y-117322928D01*
X144095366Y-117322928D02*
X144062033Y-117294356D01*
X144062033Y-117294356D02*
X144028700Y-117237214D01*
X144028700Y-117237214D02*
X144028700Y-117094356D01*
X144028700Y-117094356D02*
X144062033Y-117037214D01*
X144062033Y-117037214D02*
X144095366Y-117008642D01*
X144095366Y-117008642D02*
X144162033Y-116980071D01*
X144162033Y-116980071D02*
X144328700Y-116980071D01*
X144328700Y-116980071D02*
X144395366Y-117008642D01*
X144395366Y-117008642D02*
X144428700Y-117037214D01*
X144428700Y-117037214D02*
X144462033Y-117094356D01*
X144462033Y-117094356D02*
X144462033Y-117237214D01*
X144462033Y-117237214D02*
X144428700Y-117294356D01*
X144428700Y-117294356D02*
X144395366Y-117322928D01*
X125151033Y-51407999D02*
X124817700Y-51607999D01*
X125151033Y-51750856D02*
X124451033Y-51750856D01*
X124451033Y-51750856D02*
X124451033Y-51522285D01*
X124451033Y-51522285D02*
X124484366Y-51465142D01*
X124484366Y-51465142D02*
X124517700Y-51436571D01*
X124517700Y-51436571D02*
X124584366Y-51407999D01*
X124584366Y-51407999D02*
X124684366Y-51407999D01*
X124684366Y-51407999D02*
X124751033Y-51436571D01*
X124751033Y-51436571D02*
X124784366Y-51465142D01*
X124784366Y-51465142D02*
X124817700Y-51522285D01*
X124817700Y-51522285D02*
X124817700Y-51750856D01*
X124684366Y-50893714D02*
X125151033Y-50893714D01*
X124417700Y-51036571D02*
X124917700Y-51179428D01*
X124917700Y-51179428D02*
X124917700Y-50807999D01*
X133794033Y-88491999D02*
X133460700Y-88691999D01*
X133794033Y-88834856D02*
X133094033Y-88834856D01*
X133094033Y-88834856D02*
X133094033Y-88606285D01*
X133094033Y-88606285D02*
X133127366Y-88549142D01*
X133127366Y-88549142D02*
X133160700Y-88520571D01*
X133160700Y-88520571D02*
X133227366Y-88491999D01*
X133227366Y-88491999D02*
X133327366Y-88491999D01*
X133327366Y-88491999D02*
X133394033Y-88520571D01*
X133394033Y-88520571D02*
X133427366Y-88549142D01*
X133427366Y-88549142D02*
X133460700Y-88606285D01*
X133460700Y-88606285D02*
X133460700Y-88834856D01*
X133794033Y-88206285D02*
X133794033Y-88091999D01*
X133794033Y-88091999D02*
X133760700Y-88034856D01*
X133760700Y-88034856D02*
X133727366Y-88006285D01*
X133727366Y-88006285D02*
X133627366Y-87949142D01*
X133627366Y-87949142D02*
X133494033Y-87920571D01*
X133494033Y-87920571D02*
X133227366Y-87920571D01*
X133227366Y-87920571D02*
X133160700Y-87949142D01*
X133160700Y-87949142D02*
X133127366Y-87977714D01*
X133127366Y-87977714D02*
X133094033Y-88034856D01*
X133094033Y-88034856D02*
X133094033Y-88149142D01*
X133094033Y-88149142D02*
X133127366Y-88206285D01*
X133127366Y-88206285D02*
X133160700Y-88234856D01*
X133160700Y-88234856D02*
X133227366Y-88263428D01*
X133227366Y-88263428D02*
X133394033Y-88263428D01*
X133394033Y-88263428D02*
X133460700Y-88234856D01*
X133460700Y-88234856D02*
X133494033Y-88206285D01*
X133494033Y-88206285D02*
X133527366Y-88149142D01*
X133527366Y-88149142D02*
X133527366Y-88034856D01*
X133527366Y-88034856D02*
X133494033Y-87977714D01*
X133494033Y-87977714D02*
X133460700Y-87949142D01*
X133460700Y-87949142D02*
X133394033Y-87920571D01*
X138483999Y-61674033D02*
X138483999Y-62174033D01*
X138483999Y-62174033D02*
X138455428Y-62274033D01*
X138455428Y-62274033D02*
X138398285Y-62340700D01*
X138398285Y-62340700D02*
X138312571Y-62374033D01*
X138312571Y-62374033D02*
X138255428Y-62374033D01*
X139026857Y-61907366D02*
X139026857Y-62374033D01*
X138883999Y-61640700D02*
X138741142Y-62140700D01*
X138741142Y-62140700D02*
X139112571Y-62140700D01*
X137094033Y-93571999D02*
X136760700Y-93771999D01*
X137094033Y-93914856D02*
X136394033Y-93914856D01*
X136394033Y-93914856D02*
X136394033Y-93686285D01*
X136394033Y-93686285D02*
X136427366Y-93629142D01*
X136427366Y-93629142D02*
X136460700Y-93600571D01*
X136460700Y-93600571D02*
X136527366Y-93571999D01*
X136527366Y-93571999D02*
X136627366Y-93571999D01*
X136627366Y-93571999D02*
X136694033Y-93600571D01*
X136694033Y-93600571D02*
X136727366Y-93629142D01*
X136727366Y-93629142D02*
X136760700Y-93686285D01*
X136760700Y-93686285D02*
X136760700Y-93914856D01*
X136694033Y-93229142D02*
X136660700Y-93286285D01*
X136660700Y-93286285D02*
X136627366Y-93314856D01*
X136627366Y-93314856D02*
X136560700Y-93343428D01*
X136560700Y-93343428D02*
X136527366Y-93343428D01*
X136527366Y-93343428D02*
X136460700Y-93314856D01*
X136460700Y-93314856D02*
X136427366Y-93286285D01*
X136427366Y-93286285D02*
X136394033Y-93229142D01*
X136394033Y-93229142D02*
X136394033Y-93114856D01*
X136394033Y-93114856D02*
X136427366Y-93057714D01*
X136427366Y-93057714D02*
X136460700Y-93029142D01*
X136460700Y-93029142D02*
X136527366Y-93000571D01*
X136527366Y-93000571D02*
X136560700Y-93000571D01*
X136560700Y-93000571D02*
X136627366Y-93029142D01*
X136627366Y-93029142D02*
X136660700Y-93057714D01*
X136660700Y-93057714D02*
X136694033Y-93114856D01*
X136694033Y-93114856D02*
X136694033Y-93229142D01*
X136694033Y-93229142D02*
X136727366Y-93286285D01*
X136727366Y-93286285D02*
X136760700Y-93314856D01*
X136760700Y-93314856D02*
X136827366Y-93343428D01*
X136827366Y-93343428D02*
X136960700Y-93343428D01*
X136960700Y-93343428D02*
X137027366Y-93314856D01*
X137027366Y-93314856D02*
X137060700Y-93286285D01*
X137060700Y-93286285D02*
X137094033Y-93229142D01*
X137094033Y-93229142D02*
X137094033Y-93114856D01*
X137094033Y-93114856D02*
X137060700Y-93057714D01*
X137060700Y-93057714D02*
X137027366Y-93029142D01*
X137027366Y-93029142D02*
X136960700Y-93000571D01*
X136960700Y-93000571D02*
X136827366Y-93000571D01*
X136827366Y-93000571D02*
X136760700Y-93029142D01*
X136760700Y-93029142D02*
X136727366Y-93057714D01*
X136727366Y-93057714D02*
X136694033Y-93114856D01*
X137057366Y-82903999D02*
X137090700Y-82932571D01*
X137090700Y-82932571D02*
X137124033Y-83018285D01*
X137124033Y-83018285D02*
X137124033Y-83075428D01*
X137124033Y-83075428D02*
X137090700Y-83161142D01*
X137090700Y-83161142D02*
X137024033Y-83218285D01*
X137024033Y-83218285D02*
X136957366Y-83246856D01*
X136957366Y-83246856D02*
X136824033Y-83275428D01*
X136824033Y-83275428D02*
X136724033Y-83275428D01*
X136724033Y-83275428D02*
X136590700Y-83246856D01*
X136590700Y-83246856D02*
X136524033Y-83218285D01*
X136524033Y-83218285D02*
X136457366Y-83161142D01*
X136457366Y-83161142D02*
X136424033Y-83075428D01*
X136424033Y-83075428D02*
X136424033Y-83018285D01*
X136424033Y-83018285D02*
X136457366Y-82932571D01*
X136457366Y-82932571D02*
X136490700Y-82903999D01*
X136424033Y-82703999D02*
X136424033Y-82332571D01*
X136424033Y-82332571D02*
X136690700Y-82532571D01*
X136690700Y-82532571D02*
X136690700Y-82446856D01*
X136690700Y-82446856D02*
X136724033Y-82389714D01*
X136724033Y-82389714D02*
X136757366Y-82361142D01*
X136757366Y-82361142D02*
X136824033Y-82332571D01*
X136824033Y-82332571D02*
X136990700Y-82332571D01*
X136990700Y-82332571D02*
X137057366Y-82361142D01*
X137057366Y-82361142D02*
X137090700Y-82389714D01*
X137090700Y-82389714D02*
X137124033Y-82446856D01*
X137124033Y-82446856D02*
X137124033Y-82618285D01*
X137124033Y-82618285D02*
X137090700Y-82675428D01*
X137090700Y-82675428D02*
X137057366Y-82703999D01*
X126288857Y-108118033D02*
X126288857Y-108684700D01*
X126288857Y-108684700D02*
X126317428Y-108751366D01*
X126317428Y-108751366D02*
X126346000Y-108784700D01*
X126346000Y-108784700D02*
X126403142Y-108818033D01*
X126403142Y-108818033D02*
X126517428Y-108818033D01*
X126517428Y-108818033D02*
X126574571Y-108784700D01*
X126574571Y-108784700D02*
X126603142Y-108751366D01*
X126603142Y-108751366D02*
X126631714Y-108684700D01*
X126631714Y-108684700D02*
X126631714Y-108118033D01*
X126860285Y-108118033D02*
X127231713Y-108118033D01*
X127231713Y-108118033D02*
X127031713Y-108384700D01*
X127031713Y-108384700D02*
X127117428Y-108384700D01*
X127117428Y-108384700D02*
X127174571Y-108418033D01*
X127174571Y-108418033D02*
X127203142Y-108451366D01*
X127203142Y-108451366D02*
X127231713Y-108518033D01*
X127231713Y-108518033D02*
X127231713Y-108684700D01*
X127231713Y-108684700D02*
X127203142Y-108751366D01*
X127203142Y-108751366D02*
X127174571Y-108784700D01*
X127174571Y-108784700D02*
X127117428Y-108818033D01*
X127117428Y-108818033D02*
X126945999Y-108818033D01*
X126945999Y-108818033D02*
X126888856Y-108784700D01*
X126888856Y-108784700D02*
X126860285Y-108751366D01*
X143563999Y-61674033D02*
X143563999Y-62174033D01*
X143563999Y-62174033D02*
X143535428Y-62274033D01*
X143535428Y-62274033D02*
X143478285Y-62340700D01*
X143478285Y-62340700D02*
X143392571Y-62374033D01*
X143392571Y-62374033D02*
X143335428Y-62374033D01*
X144135428Y-61674033D02*
X143849714Y-61674033D01*
X143849714Y-61674033D02*
X143821142Y-62007366D01*
X143821142Y-62007366D02*
X143849714Y-61974033D01*
X143849714Y-61974033D02*
X143906857Y-61940700D01*
X143906857Y-61940700D02*
X144049714Y-61940700D01*
X144049714Y-61940700D02*
X144106857Y-61974033D01*
X144106857Y-61974033D02*
X144135428Y-62007366D01*
X144135428Y-62007366D02*
X144163999Y-62074033D01*
X144163999Y-62074033D02*
X144163999Y-62240700D01*
X144163999Y-62240700D02*
X144135428Y-62307366D01*
X144135428Y-62307366D02*
X144106857Y-62340700D01*
X144106857Y-62340700D02*
X144049714Y-62374033D01*
X144049714Y-62374033D02*
X143906857Y-62374033D01*
X143906857Y-62374033D02*
X143849714Y-62340700D01*
X143849714Y-62340700D02*
X143821142Y-62307366D01*
X133400857Y-121536033D02*
X133400857Y-122102700D01*
X133400857Y-122102700D02*
X133429428Y-122169366D01*
X133429428Y-122169366D02*
X133458000Y-122202700D01*
X133458000Y-122202700D02*
X133515142Y-122236033D01*
X133515142Y-122236033D02*
X133629428Y-122236033D01*
X133629428Y-122236033D02*
X133686571Y-122202700D01*
X133686571Y-122202700D02*
X133715142Y-122169366D01*
X133715142Y-122169366D02*
X133743714Y-122102700D01*
X133743714Y-122102700D02*
X133743714Y-121536033D01*
X134343713Y-122236033D02*
X134000856Y-122236033D01*
X134172285Y-122236033D02*
X134172285Y-121536033D01*
X134172285Y-121536033D02*
X134115142Y-121636033D01*
X134115142Y-121636033D02*
X134057999Y-121702700D01*
X134057999Y-121702700D02*
X134000856Y-121736033D01*
X128932000Y-62674033D02*
X128732000Y-62340700D01*
X128589143Y-62674033D02*
X128589143Y-61974033D01*
X128589143Y-61974033D02*
X128817714Y-61974033D01*
X128817714Y-61974033D02*
X128874857Y-62007366D01*
X128874857Y-62007366D02*
X128903428Y-62040700D01*
X128903428Y-62040700D02*
X128932000Y-62107366D01*
X128932000Y-62107366D02*
X128932000Y-62207366D01*
X128932000Y-62207366D02*
X128903428Y-62274033D01*
X128903428Y-62274033D02*
X128874857Y-62307366D01*
X128874857Y-62307366D02*
X128817714Y-62340700D01*
X128817714Y-62340700D02*
X128589143Y-62340700D01*
X129132000Y-61974033D02*
X129503428Y-61974033D01*
X129503428Y-61974033D02*
X129303428Y-62240700D01*
X129303428Y-62240700D02*
X129389143Y-62240700D01*
X129389143Y-62240700D02*
X129446286Y-62274033D01*
X129446286Y-62274033D02*
X129474857Y-62307366D01*
X129474857Y-62307366D02*
X129503428Y-62374033D01*
X129503428Y-62374033D02*
X129503428Y-62540700D01*
X129503428Y-62540700D02*
X129474857Y-62607366D01*
X129474857Y-62607366D02*
X129446286Y-62640700D01*
X129446286Y-62640700D02*
X129389143Y-62674033D01*
X129389143Y-62674033D02*
X129217714Y-62674033D01*
X129217714Y-62674033D02*
X129160571Y-62640700D01*
X129160571Y-62640700D02*
X129132000Y-62607366D01*
X116428033Y-53961000D02*
X116928033Y-53961000D01*
X116928033Y-53961000D02*
X117028033Y-53989571D01*
X117028033Y-53989571D02*
X117094700Y-54046714D01*
X117094700Y-54046714D02*
X117128033Y-54132428D01*
X117128033Y-54132428D02*
X117128033Y-54189571D01*
X116428033Y-53732428D02*
X116428033Y-53332428D01*
X116428033Y-53332428D02*
X117128033Y-53589571D01*
X120788000Y-116895366D02*
X120759428Y-116928700D01*
X120759428Y-116928700D02*
X120673714Y-116962033D01*
X120673714Y-116962033D02*
X120616571Y-116962033D01*
X120616571Y-116962033D02*
X120530857Y-116928700D01*
X120530857Y-116928700D02*
X120473714Y-116862033D01*
X120473714Y-116862033D02*
X120445143Y-116795366D01*
X120445143Y-116795366D02*
X120416571Y-116662033D01*
X120416571Y-116662033D02*
X120416571Y-116562033D01*
X120416571Y-116562033D02*
X120445143Y-116428700D01*
X120445143Y-116428700D02*
X120473714Y-116362033D01*
X120473714Y-116362033D02*
X120530857Y-116295366D01*
X120530857Y-116295366D02*
X120616571Y-116262033D01*
X120616571Y-116262033D02*
X120673714Y-116262033D01*
X120673714Y-116262033D02*
X120759428Y-116295366D01*
X120759428Y-116295366D02*
X120788000Y-116328700D01*
X121359428Y-116962033D02*
X121016571Y-116962033D01*
X121188000Y-116962033D02*
X121188000Y-116262033D01*
X121188000Y-116262033D02*
X121130857Y-116362033D01*
X121130857Y-116362033D02*
X121073714Y-116428700D01*
X121073714Y-116428700D02*
X121016571Y-116462033D01*
D12*
%TO.C,G\u002A\u002A\u002A*%
X152152570Y-108417004D02*
X152160561Y-108428014D01*
X152167148Y-108495858D01*
X152175671Y-108675159D01*
X152185874Y-108956443D01*
X152197504Y-109330234D01*
X152210307Y-109787056D01*
X152224029Y-110317436D01*
X152238417Y-110911897D01*
X152253216Y-111560964D01*
X152268173Y-112255163D01*
X152283034Y-112985018D01*
X152284106Y-113039323D01*
X152303128Y-114007838D01*
X152319897Y-114862730D01*
X152334704Y-115611301D01*
X152347835Y-116260854D01*
X152359579Y-116818692D01*
X152370224Y-117292118D01*
X152380058Y-117688433D01*
X152389370Y-118014941D01*
X152398448Y-118278943D01*
X152407580Y-118487744D01*
X152417054Y-118648645D01*
X152427159Y-118768949D01*
X152438182Y-118855958D01*
X152450412Y-118916976D01*
X152464138Y-118959304D01*
X152479647Y-118990246D01*
X152497227Y-119017104D01*
X152517168Y-119047180D01*
X152521512Y-119054303D01*
X152718766Y-119276601D01*
X152973835Y-119406831D01*
X153258974Y-119438421D01*
X153546437Y-119364796D01*
X153634330Y-119317974D01*
X153685988Y-119289441D01*
X153732438Y-119266060D01*
X153774079Y-119241661D01*
X153811313Y-119210075D01*
X153844537Y-119165135D01*
X153874153Y-119100672D01*
X153900560Y-119010518D01*
X153924158Y-118888504D01*
X153945347Y-118728461D01*
X153964526Y-118524221D01*
X153982096Y-118269617D01*
X153998457Y-117958478D01*
X154014007Y-117584637D01*
X154029148Y-117141925D01*
X154044279Y-116624174D01*
X154059799Y-116025216D01*
X154076109Y-115338881D01*
X154093609Y-114559002D01*
X154112698Y-113679410D01*
X154133776Y-112693936D01*
X154157244Y-111596412D01*
X154168360Y-111079643D01*
X154179989Y-110556326D01*
X154190473Y-110141413D01*
X154200844Y-109822377D01*
X154212134Y-109586691D01*
X154225376Y-109421827D01*
X154241602Y-109315256D01*
X154261844Y-109254452D01*
X154287136Y-109226885D01*
X154318509Y-109220030D01*
X154321620Y-109220000D01*
X154342058Y-109223226D01*
X154359833Y-109238077D01*
X154375101Y-109272311D01*
X154388013Y-109333689D01*
X154398724Y-109429970D01*
X154407388Y-109568913D01*
X154414157Y-109758277D01*
X154419186Y-110005822D01*
X154422627Y-110319307D01*
X154424635Y-110706491D01*
X154425364Y-111175134D01*
X154424966Y-111732996D01*
X154423595Y-112387834D01*
X154421405Y-113147410D01*
X154418549Y-114019481D01*
X154418266Y-114103453D01*
X154401762Y-118986905D01*
X154257574Y-119238557D01*
X154024356Y-119538681D01*
X153736639Y-119741890D01*
X153413811Y-119847030D01*
X153075263Y-119852946D01*
X152740384Y-119758482D01*
X152428562Y-119562486D01*
X152230368Y-119359286D01*
X152043191Y-119126905D01*
X152027112Y-113750119D01*
X152024817Y-112767234D01*
X152024054Y-111873908D01*
X152024796Y-111073660D01*
X152027014Y-110370010D01*
X152030681Y-109766476D01*
X152035771Y-109266579D01*
X152042256Y-108873837D01*
X152050108Y-108591770D01*
X152059300Y-108423896D01*
X152068900Y-108373334D01*
X152152570Y-108417004D01*
G36*
X152152570Y-108417004D02*
G01*
X152160561Y-108428014D01*
X152167148Y-108495858D01*
X152175671Y-108675159D01*
X152185874Y-108956443D01*
X152197504Y-109330234D01*
X152210307Y-109787056D01*
X152224029Y-110317436D01*
X152238417Y-110911897D01*
X152253216Y-111560964D01*
X152268173Y-112255163D01*
X152283034Y-112985018D01*
X152284106Y-113039323D01*
X152303128Y-114007838D01*
X152319897Y-114862730D01*
X152334704Y-115611301D01*
X152347835Y-116260854D01*
X152359579Y-116818692D01*
X152370224Y-117292118D01*
X152380058Y-117688433D01*
X152389370Y-118014941D01*
X152398448Y-118278943D01*
X152407580Y-118487744D01*
X152417054Y-118648645D01*
X152427159Y-118768949D01*
X152438182Y-118855958D01*
X152450412Y-118916976D01*
X152464138Y-118959304D01*
X152479647Y-118990246D01*
X152497227Y-119017104D01*
X152517168Y-119047180D01*
X152521512Y-119054303D01*
X152718766Y-119276601D01*
X152973835Y-119406831D01*
X153258974Y-119438421D01*
X153546437Y-119364796D01*
X153634330Y-119317974D01*
X153685988Y-119289441D01*
X153732438Y-119266060D01*
X153774079Y-119241661D01*
X153811313Y-119210075D01*
X153844537Y-119165135D01*
X153874153Y-119100672D01*
X153900560Y-119010518D01*
X153924158Y-118888504D01*
X153945347Y-118728461D01*
X153964526Y-118524221D01*
X153982096Y-118269617D01*
X153998457Y-117958478D01*
X154014007Y-117584637D01*
X154029148Y-117141925D01*
X154044279Y-116624174D01*
X154059799Y-116025216D01*
X154076109Y-115338881D01*
X154093609Y-114559002D01*
X154112698Y-113679410D01*
X154133776Y-112693936D01*
X154157244Y-111596412D01*
X154168360Y-111079643D01*
X154179989Y-110556326D01*
X154190473Y-110141413D01*
X154200844Y-109822377D01*
X154212134Y-109586691D01*
X154225376Y-109421827D01*
X154241602Y-109315256D01*
X154261844Y-109254452D01*
X154287136Y-109226885D01*
X154318509Y-109220030D01*
X154321620Y-109220000D01*
X154342058Y-109223226D01*
X154359833Y-109238077D01*
X154375101Y-109272311D01*
X154388013Y-109333689D01*
X154398724Y-109429970D01*
X154407388Y-109568913D01*
X154414157Y-109758277D01*
X154419186Y-110005822D01*
X154422627Y-110319307D01*
X154424635Y-110706491D01*
X154425364Y-111175134D01*
X154424966Y-111732996D01*
X154423595Y-112387834D01*
X154421405Y-113147410D01*
X154418549Y-114019481D01*
X154418266Y-114103453D01*
X154401762Y-118986905D01*
X154257574Y-119238557D01*
X154024356Y-119538681D01*
X153736639Y-119741890D01*
X153413811Y-119847030D01*
X153075263Y-119852946D01*
X152740384Y-119758482D01*
X152428562Y-119562486D01*
X152230368Y-119359286D01*
X152043191Y-119126905D01*
X152027112Y-113750119D01*
X152024817Y-112767234D01*
X152024054Y-111873908D01*
X152024796Y-111073660D01*
X152027014Y-110370010D01*
X152030681Y-109766476D01*
X152035771Y-109266579D01*
X152042256Y-108873837D01*
X152050108Y-108591770D01*
X152059300Y-108423896D01*
X152068900Y-108373334D01*
X152152570Y-108417004D01*
G37*
X153112245Y-109600844D02*
X153220339Y-109607975D01*
X153354270Y-109691303D01*
X153431814Y-109858664D01*
X153462736Y-110123964D01*
X153464381Y-110227297D01*
X153467269Y-110433097D01*
X153484211Y-110547428D01*
X153527624Y-110599761D01*
X153609923Y-110619569D01*
X153630691Y-110622055D01*
X153760400Y-110666100D01*
X153797000Y-110762143D01*
X153787716Y-110818099D01*
X153745136Y-110854755D01*
X153647171Y-110877289D01*
X153471729Y-110890883D01*
X153207357Y-110900405D01*
X152956767Y-110903227D01*
X152758603Y-110896840D01*
X152638885Y-110882571D01*
X152615454Y-110870167D01*
X152600247Y-110522368D01*
X152593894Y-110272247D01*
X152596295Y-110159459D01*
X152799143Y-110159459D01*
X152816388Y-110341239D01*
X152858251Y-110487106D01*
X152861747Y-110493976D01*
X152969065Y-110593340D01*
X153102096Y-110595915D01*
X153215133Y-110502527D01*
X153223847Y-110487440D01*
X153263660Y-110344202D01*
X153272684Y-110159365D01*
X153271331Y-110139702D01*
X153243394Y-109984195D01*
X153178754Y-109912925D01*
X153112245Y-109895575D01*
X152928274Y-109896682D01*
X152829809Y-109975825D01*
X152799208Y-110147872D01*
X152799143Y-110159459D01*
X152596295Y-110159459D01*
X152597630Y-110096770D01*
X152612691Y-109972901D01*
X152640311Y-109877607D01*
X152672510Y-109806004D01*
X152756248Y-109676920D01*
X152867794Y-109615861D01*
X153020258Y-109594776D01*
X153112245Y-109600844D01*
G36*
X153112245Y-109600844D02*
G01*
X153220339Y-109607975D01*
X153354270Y-109691303D01*
X153431814Y-109858664D01*
X153462736Y-110123964D01*
X153464381Y-110227297D01*
X153467269Y-110433097D01*
X153484211Y-110547428D01*
X153527624Y-110599761D01*
X153609923Y-110619569D01*
X153630691Y-110622055D01*
X153760400Y-110666100D01*
X153797000Y-110762143D01*
X153787716Y-110818099D01*
X153745136Y-110854755D01*
X153647171Y-110877289D01*
X153471729Y-110890883D01*
X153207357Y-110900405D01*
X152956767Y-110903227D01*
X152758603Y-110896840D01*
X152638885Y-110882571D01*
X152615454Y-110870167D01*
X152600247Y-110522368D01*
X152593894Y-110272247D01*
X152596295Y-110159459D01*
X152799143Y-110159459D01*
X152816388Y-110341239D01*
X152858251Y-110487106D01*
X152861747Y-110493976D01*
X152969065Y-110593340D01*
X153102096Y-110595915D01*
X153215133Y-110502527D01*
X153223847Y-110487440D01*
X153263660Y-110344202D01*
X153272684Y-110159365D01*
X153271331Y-110139702D01*
X153243394Y-109984195D01*
X153178754Y-109912925D01*
X153112245Y-109895575D01*
X152928274Y-109896682D01*
X152829809Y-109975825D01*
X152799208Y-110147872D01*
X152799143Y-110159459D01*
X152596295Y-110159459D01*
X152597630Y-110096770D01*
X152612691Y-109972901D01*
X152640311Y-109877607D01*
X152672510Y-109806004D01*
X152756248Y-109676920D01*
X152867794Y-109615861D01*
X153020258Y-109594776D01*
X153112245Y-109600844D01*
G37*
X153025945Y-113551854D02*
X153110269Y-113673975D01*
X153153427Y-113892153D01*
X153162000Y-114114596D01*
X153173897Y-114342293D01*
X153203062Y-114457746D01*
X153239707Y-114459198D01*
X153274045Y-114344893D01*
X153295054Y-114138469D01*
X153318926Y-113927682D01*
X153360531Y-113798081D01*
X153388786Y-113770572D01*
X153430524Y-113791727D01*
X153454667Y-113899247D01*
X153464023Y-114108274D01*
X153464381Y-114177984D01*
X153457180Y-114469914D01*
X153425558Y-114661865D01*
X153354485Y-114774444D01*
X153228932Y-114828258D01*
X153033870Y-114843915D01*
X152978444Y-114844286D01*
X152617714Y-114844286D01*
X152611551Y-114617500D01*
X152604376Y-114394747D01*
X152595339Y-114162339D01*
X152594750Y-114148810D01*
X152594327Y-114083387D01*
X152799143Y-114083387D01*
X152807135Y-114270445D01*
X152827136Y-114416057D01*
X152835718Y-114445897D01*
X152886679Y-114521319D01*
X152932458Y-114490341D01*
X152966052Y-114367501D01*
X152980456Y-114167337D01*
X152980571Y-114145241D01*
X152972266Y-113945866D01*
X152943162Y-113843789D01*
X152889857Y-113816191D01*
X152829570Y-113852429D01*
X152802485Y-113975207D01*
X152799143Y-114083387D01*
X152594327Y-114083387D01*
X152593531Y-113960052D01*
X152604193Y-113805766D01*
X152607421Y-113785953D01*
X152685687Y-113602515D01*
X152831049Y-113519400D01*
X152889857Y-113514271D01*
X152895134Y-113513810D01*
X153025945Y-113551854D01*
G36*
X153025945Y-113551854D02*
G01*
X153110269Y-113673975D01*
X153153427Y-113892153D01*
X153162000Y-114114596D01*
X153173897Y-114342293D01*
X153203062Y-114457746D01*
X153239707Y-114459198D01*
X153274045Y-114344893D01*
X153295054Y-114138469D01*
X153318926Y-113927682D01*
X153360531Y-113798081D01*
X153388786Y-113770572D01*
X153430524Y-113791727D01*
X153454667Y-113899247D01*
X153464023Y-114108274D01*
X153464381Y-114177984D01*
X153457180Y-114469914D01*
X153425558Y-114661865D01*
X153354485Y-114774444D01*
X153228932Y-114828258D01*
X153033870Y-114843915D01*
X152978444Y-114844286D01*
X152617714Y-114844286D01*
X152611551Y-114617500D01*
X152604376Y-114394747D01*
X152595339Y-114162339D01*
X152594750Y-114148810D01*
X152594327Y-114083387D01*
X152799143Y-114083387D01*
X152807135Y-114270445D01*
X152827136Y-114416057D01*
X152835718Y-114445897D01*
X152886679Y-114521319D01*
X152932458Y-114490341D01*
X152966052Y-114367501D01*
X152980456Y-114167337D01*
X152980571Y-114145241D01*
X152972266Y-113945866D01*
X152943162Y-113843789D01*
X152889857Y-113816191D01*
X152829570Y-113852429D01*
X152802485Y-113975207D01*
X152799143Y-114083387D01*
X152594327Y-114083387D01*
X152593531Y-113960052D01*
X152604193Y-113805766D01*
X152607421Y-113785953D01*
X152685687Y-113602515D01*
X152831049Y-113519400D01*
X152889857Y-113514271D01*
X152895134Y-113513810D01*
X153025945Y-113551854D01*
G37*
X153438050Y-117465963D02*
X153492547Y-117559185D01*
X153577079Y-117669149D01*
X153647813Y-117704714D01*
X153746575Y-117775722D01*
X153756669Y-117879853D01*
X153675548Y-117965362D01*
X153660929Y-117971416D01*
X153547027Y-118037751D01*
X153486999Y-118150831D01*
X153466121Y-118343086D01*
X153465307Y-118402302D01*
X153448904Y-118578670D01*
X153410234Y-118647316D01*
X153362640Y-118616108D01*
X153319462Y-118492916D01*
X153294911Y-118301794D01*
X153276632Y-117989048D01*
X153037887Y-117989048D01*
X152885071Y-117995001D01*
X152817167Y-118036138D01*
X152799717Y-118147374D01*
X152799143Y-118230953D01*
X152812556Y-118382434D01*
X152846063Y-118466689D01*
X152859619Y-118472858D01*
X152909143Y-118519637D01*
X152916357Y-118621392D01*
X152882479Y-118720254D01*
X152853816Y-118748587D01*
X152761652Y-118751168D01*
X152681488Y-118657582D01*
X152621863Y-118492565D01*
X152591314Y-118280853D01*
X152598378Y-118047182D01*
X152602094Y-118019286D01*
X152654328Y-117827796D01*
X152758827Y-117724892D01*
X152943163Y-117688152D01*
X153011161Y-117686667D01*
X153183410Y-117674752D01*
X153270543Y-117629441D01*
X153300475Y-117565715D01*
X153361165Y-117460137D01*
X153438050Y-117465963D01*
G36*
X153438050Y-117465963D02*
G01*
X153492547Y-117559185D01*
X153577079Y-117669149D01*
X153647813Y-117704714D01*
X153746575Y-117775722D01*
X153756669Y-117879853D01*
X153675548Y-117965362D01*
X153660929Y-117971416D01*
X153547027Y-118037751D01*
X153486999Y-118150831D01*
X153466121Y-118343086D01*
X153465307Y-118402302D01*
X153448904Y-118578670D01*
X153410234Y-118647316D01*
X153362640Y-118616108D01*
X153319462Y-118492916D01*
X153294911Y-118301794D01*
X153276632Y-117989048D01*
X153037887Y-117989048D01*
X152885071Y-117995001D01*
X152817167Y-118036138D01*
X152799717Y-118147374D01*
X152799143Y-118230953D01*
X152812556Y-118382434D01*
X152846063Y-118466689D01*
X152859619Y-118472858D01*
X152909143Y-118519637D01*
X152916357Y-118621392D01*
X152882479Y-118720254D01*
X152853816Y-118748587D01*
X152761652Y-118751168D01*
X152681488Y-118657582D01*
X152621863Y-118492565D01*
X152591314Y-118280853D01*
X152598378Y-118047182D01*
X152602094Y-118019286D01*
X152654328Y-117827796D01*
X152758827Y-117724892D01*
X152943163Y-117688152D01*
X153011161Y-117686667D01*
X153183410Y-117674752D01*
X153270543Y-117629441D01*
X153300475Y-117565715D01*
X153361165Y-117460137D01*
X153438050Y-117465963D01*
G37*
X153107966Y-111529780D02*
X153432610Y-111548334D01*
X153449531Y-112132621D01*
X153453793Y-112420971D01*
X153444724Y-112613321D01*
X153419475Y-112734166D01*
X153375196Y-112808004D01*
X153370382Y-112812978D01*
X153270086Y-112889898D01*
X153216259Y-112909048D01*
X153140704Y-112862624D01*
X153122859Y-112755517D01*
X153167863Y-112635976D01*
X153184904Y-112614772D01*
X153273480Y-112432017D01*
X153252006Y-112205365D01*
X153192584Y-112063049D01*
X153097363Y-111935986D01*
X152956117Y-111879419D01*
X152875084Y-111869505D01*
X152717777Y-111841500D01*
X152645538Y-111777753D01*
X152628592Y-111714373D01*
X152647004Y-111591920D01*
X152696277Y-111544629D01*
X152803397Y-111528972D01*
X152982704Y-111525314D01*
X153107966Y-111529780D01*
G36*
X153107966Y-111529780D02*
G01*
X153432610Y-111548334D01*
X153449531Y-112132621D01*
X153453793Y-112420971D01*
X153444724Y-112613321D01*
X153419475Y-112734166D01*
X153375196Y-112808004D01*
X153370382Y-112812978D01*
X153270086Y-112889898D01*
X153216259Y-112909048D01*
X153140704Y-112862624D01*
X153122859Y-112755517D01*
X153167863Y-112635976D01*
X153184904Y-112614772D01*
X153273480Y-112432017D01*
X153252006Y-112205365D01*
X153192584Y-112063049D01*
X153097363Y-111935986D01*
X152956117Y-111879419D01*
X152875084Y-111869505D01*
X152717777Y-111841500D01*
X152645538Y-111777753D01*
X152628592Y-111714373D01*
X152647004Y-111591920D01*
X152696277Y-111544629D01*
X152803397Y-111528972D01*
X152982704Y-111525314D01*
X153107966Y-111529780D01*
G37*
X153439442Y-115600238D02*
X153516235Y-115723873D01*
X153639200Y-115850847D01*
X153729915Y-115943181D01*
X153777195Y-116053634D01*
X153794519Y-116223758D01*
X153796144Y-116334656D01*
X153784395Y-116552100D01*
X153753992Y-116674152D01*
X153714103Y-116694511D01*
X153673899Y-116606877D01*
X153645810Y-116437960D01*
X153613797Y-116265602D01*
X153567024Y-116151814D01*
X153542650Y-116129946D01*
X153491231Y-116154753D01*
X153491901Y-116221125D01*
X153487817Y-116356049D01*
X153434792Y-116445996D01*
X153355518Y-116454143D01*
X153350190Y-116451084D01*
X153298040Y-116364148D01*
X153282952Y-116261907D01*
X153273829Y-116177319D01*
X153226757Y-116133271D01*
X153112190Y-116116649D01*
X152950333Y-116114286D01*
X152759835Y-116110361D01*
X152660645Y-116089618D01*
X152623164Y-116038603D01*
X152617714Y-115963096D01*
X152629975Y-115867757D01*
X152688882Y-115823740D01*
X152827623Y-115811402D01*
X152874738Y-115810979D01*
X153083451Y-115797913D01*
X153213293Y-115748010D01*
X153305006Y-115642387D01*
X153329411Y-115600238D01*
X153395771Y-115479286D01*
X153439442Y-115600238D01*
G36*
X153439442Y-115600238D02*
G01*
X153516235Y-115723873D01*
X153639200Y-115850847D01*
X153729915Y-115943181D01*
X153777195Y-116053634D01*
X153794519Y-116223758D01*
X153796144Y-116334656D01*
X153784395Y-116552100D01*
X153753992Y-116674152D01*
X153714103Y-116694511D01*
X153673899Y-116606877D01*
X153645810Y-116437960D01*
X153613797Y-116265602D01*
X153567024Y-116151814D01*
X153542650Y-116129946D01*
X153491231Y-116154753D01*
X153491901Y-116221125D01*
X153487817Y-116356049D01*
X153434792Y-116445996D01*
X153355518Y-116454143D01*
X153350190Y-116451084D01*
X153298040Y-116364148D01*
X153282952Y-116261907D01*
X153273829Y-116177319D01*
X153226757Y-116133271D01*
X153112190Y-116116649D01*
X152950333Y-116114286D01*
X152759835Y-116110361D01*
X152660645Y-116089618D01*
X152623164Y-116038603D01*
X152617714Y-115963096D01*
X152629975Y-115867757D01*
X152688882Y-115823740D01*
X152827623Y-115811402D01*
X152874738Y-115810979D01*
X153083451Y-115797913D01*
X153213293Y-115748010D01*
X153305006Y-115642387D01*
X153329411Y-115600238D01*
X153395771Y-115479286D01*
X153439442Y-115600238D01*
G37*
X154779738Y-109310360D02*
X154895642Y-109384138D01*
X155085906Y-109506444D01*
X155323496Y-109659859D01*
X155564860Y-109816244D01*
X156183673Y-110217858D01*
X156184741Y-110747024D01*
X156182034Y-110983054D01*
X156173888Y-111164841D01*
X156161806Y-111265018D01*
X156155673Y-111276191D01*
X156097042Y-111244974D01*
X155955696Y-111159008D01*
X155750097Y-111029820D01*
X155498709Y-110868937D01*
X155369483Y-110785323D01*
X154613429Y-110294455D01*
X154613429Y-109206090D01*
X154779738Y-109310360D01*
G36*
X154779738Y-109310360D02*
G01*
X154895642Y-109384138D01*
X155085906Y-109506444D01*
X155323496Y-109659859D01*
X155564860Y-109816244D01*
X156183673Y-110217858D01*
X156184741Y-110747024D01*
X156182034Y-110983054D01*
X156173888Y-111164841D01*
X156161806Y-111265018D01*
X156155673Y-111276191D01*
X156097042Y-111244974D01*
X155955696Y-111159008D01*
X155750097Y-111029820D01*
X155498709Y-110868937D01*
X155369483Y-110785323D01*
X154613429Y-110294455D01*
X154613429Y-109206090D01*
X154779738Y-109310360D01*
G37*
X156594024Y-108656487D02*
X156790571Y-108904787D01*
X156790571Y-110681718D01*
X156787376Y-111389997D01*
X156776925Y-111987092D01*
X156757921Y-112482623D01*
X156729066Y-112886211D01*
X156689062Y-113207478D01*
X156636611Y-113456045D01*
X156570417Y-113641532D01*
X156489181Y-113773561D01*
X156391607Y-113861753D01*
X156359060Y-113881044D01*
X156203505Y-113903571D01*
X156046342Y-113808694D01*
X155889987Y-113599892D01*
X155736855Y-113280649D01*
X155589361Y-112854443D01*
X155548312Y-112712500D01*
X155469285Y-112488222D01*
X155380619Y-112380482D01*
X155267776Y-112384966D01*
X155116221Y-112497359D01*
X155048625Y-112564189D01*
X154959637Y-112660697D01*
X154903261Y-112748006D01*
X154872055Y-112856379D01*
X154858580Y-113016081D01*
X154855395Y-113257375D01*
X154855333Y-113350379D01*
X154850476Y-113600098D01*
X154837405Y-113796956D01*
X154818366Y-113914969D01*
X154804565Y-113937143D01*
X154733194Y-113893474D01*
X154679488Y-113757801D01*
X154642354Y-113523127D01*
X154620700Y-113182454D01*
X154613436Y-112728784D01*
X154613429Y-112711973D01*
X154613429Y-111794874D01*
X154957075Y-111475056D01*
X155134521Y-111322007D01*
X155290445Y-111208873D01*
X155395445Y-111156577D01*
X155406572Y-111155238D01*
X155461655Y-111161228D01*
X155503767Y-111193174D01*
X155541735Y-111272041D01*
X155584388Y-111418793D01*
X155640556Y-111654394D01*
X155668627Y-111777513D01*
X155770537Y-112146245D01*
X155882911Y-112405574D01*
X156003433Y-112552514D01*
X156129783Y-112584078D01*
X156241904Y-112516105D01*
X156268470Y-112475448D01*
X156290347Y-112403606D01*
X156308262Y-112288407D01*
X156322941Y-112117675D01*
X156335110Y-111879236D01*
X156345495Y-111560915D01*
X156354822Y-111150537D01*
X156363818Y-110635928D01*
X156367238Y-110414643D01*
X156397476Y-108408187D01*
X156594024Y-108656487D01*
G36*
X156594024Y-108656487D02*
G01*
X156790571Y-108904787D01*
X156790571Y-110681718D01*
X156787376Y-111389997D01*
X156776925Y-111987092D01*
X156757921Y-112482623D01*
X156729066Y-112886211D01*
X156689062Y-113207478D01*
X156636611Y-113456045D01*
X156570417Y-113641532D01*
X156489181Y-113773561D01*
X156391607Y-113861753D01*
X156359060Y-113881044D01*
X156203505Y-113903571D01*
X156046342Y-113808694D01*
X155889987Y-113599892D01*
X155736855Y-113280649D01*
X155589361Y-112854443D01*
X155548312Y-112712500D01*
X155469285Y-112488222D01*
X155380619Y-112380482D01*
X155267776Y-112384966D01*
X155116221Y-112497359D01*
X155048625Y-112564189D01*
X154959637Y-112660697D01*
X154903261Y-112748006D01*
X154872055Y-112856379D01*
X154858580Y-113016081D01*
X154855395Y-113257375D01*
X154855333Y-113350379D01*
X154850476Y-113600098D01*
X154837405Y-113796956D01*
X154818366Y-113914969D01*
X154804565Y-113937143D01*
X154733194Y-113893474D01*
X154679488Y-113757801D01*
X154642354Y-113523127D01*
X154620700Y-113182454D01*
X154613436Y-112728784D01*
X154613429Y-112711973D01*
X154613429Y-111794874D01*
X154957075Y-111475056D01*
X155134521Y-111322007D01*
X155290445Y-111208873D01*
X155395445Y-111156577D01*
X155406572Y-111155238D01*
X155461655Y-111161228D01*
X155503767Y-111193174D01*
X155541735Y-111272041D01*
X155584388Y-111418793D01*
X155640556Y-111654394D01*
X155668627Y-111777513D01*
X155770537Y-112146245D01*
X155882911Y-112405574D01*
X156003433Y-112552514D01*
X156129783Y-112584078D01*
X156241904Y-112516105D01*
X156268470Y-112475448D01*
X156290347Y-112403606D01*
X156308262Y-112288407D01*
X156322941Y-112117675D01*
X156335110Y-111879236D01*
X156345495Y-111560915D01*
X156354822Y-111150537D01*
X156363818Y-110635928D01*
X156367238Y-110414643D01*
X156397476Y-108408187D01*
X156594024Y-108656487D01*
G37*
X156786030Y-115297858D02*
X156787842Y-116960953D01*
X156784699Y-117672960D01*
X156773259Y-118271017D01*
X156753026Y-118761872D01*
X156723504Y-119152275D01*
X156684195Y-119448976D01*
X156634605Y-119658725D01*
X156580645Y-119778927D01*
X156424722Y-119950025D01*
X156257198Y-120002057D01*
X156123319Y-119964848D01*
X155930800Y-119805170D01*
X155753984Y-119525884D01*
X155592840Y-119126910D01*
X155447338Y-118608172D01*
X155317450Y-117969592D01*
X155279903Y-117744479D01*
X155230221Y-117434977D01*
X155185450Y-117160744D01*
X155149916Y-116947958D01*
X155127946Y-116822794D01*
X155125392Y-116809762D01*
X155060201Y-116708149D01*
X154925123Y-116593707D01*
X154856934Y-116550933D01*
X154613429Y-116413055D01*
X154613429Y-115870576D01*
X154616177Y-115631309D01*
X154623538Y-115445950D01*
X154634184Y-115341530D01*
X154640070Y-115328096D01*
X154697494Y-115359197D01*
X154837910Y-115444860D01*
X155042968Y-115573627D01*
X155294316Y-115734035D01*
X155426261Y-115819063D01*
X156185810Y-116310030D01*
X156185810Y-116847158D01*
X156182058Y-117085125D01*
X156172017Y-117269053D01*
X156157510Y-117371779D01*
X156149788Y-117384286D01*
X156081169Y-117352459D01*
X155959598Y-117274316D01*
X155937772Y-117258967D01*
X155753404Y-117164085D01*
X155619121Y-117172926D01*
X155542638Y-117283872D01*
X155531222Y-117344127D01*
X155541331Y-117521079D01*
X155592813Y-117763732D01*
X155672587Y-118029787D01*
X155767573Y-118276943D01*
X155864690Y-118462900D01*
X155886618Y-118493415D01*
X156020993Y-118608021D01*
X156166358Y-118651895D01*
X156285707Y-118619600D01*
X156330530Y-118558626D01*
X156339781Y-118475903D01*
X156348237Y-118288018D01*
X156355587Y-118010760D01*
X156361523Y-117659917D01*
X156365735Y-117251278D01*
X156367914Y-116800632D01*
X156368138Y-116638507D01*
X156369038Y-114814048D01*
X156786030Y-115297858D01*
G36*
X156786030Y-115297858D02*
G01*
X156787842Y-116960953D01*
X156784699Y-117672960D01*
X156773259Y-118271017D01*
X156753026Y-118761872D01*
X156723504Y-119152275D01*
X156684195Y-119448976D01*
X156634605Y-119658725D01*
X156580645Y-119778927D01*
X156424722Y-119950025D01*
X156257198Y-120002057D01*
X156123319Y-119964848D01*
X155930800Y-119805170D01*
X155753984Y-119525884D01*
X155592840Y-119126910D01*
X155447338Y-118608172D01*
X155317450Y-117969592D01*
X155279903Y-117744479D01*
X155230221Y-117434977D01*
X155185450Y-117160744D01*
X155149916Y-116947958D01*
X155127946Y-116822794D01*
X155125392Y-116809762D01*
X155060201Y-116708149D01*
X154925123Y-116593707D01*
X154856934Y-116550933D01*
X154613429Y-116413055D01*
X154613429Y-115870576D01*
X154616177Y-115631309D01*
X154623538Y-115445950D01*
X154634184Y-115341530D01*
X154640070Y-115328096D01*
X154697494Y-115359197D01*
X154837910Y-115444860D01*
X155042968Y-115573627D01*
X155294316Y-115734035D01*
X155426261Y-115819063D01*
X156185810Y-116310030D01*
X156185810Y-116847158D01*
X156182058Y-117085125D01*
X156172017Y-117269053D01*
X156157510Y-117371779D01*
X156149788Y-117384286D01*
X156081169Y-117352459D01*
X155959598Y-117274316D01*
X155937772Y-117258967D01*
X155753404Y-117164085D01*
X155619121Y-117172926D01*
X155542638Y-117283872D01*
X155531222Y-117344127D01*
X155541331Y-117521079D01*
X155592813Y-117763732D01*
X155672587Y-118029787D01*
X155767573Y-118276943D01*
X155864690Y-118462900D01*
X155886618Y-118493415D01*
X156020993Y-118608021D01*
X156166358Y-118651895D01*
X156285707Y-118619600D01*
X156330530Y-118558626D01*
X156339781Y-118475903D01*
X156348237Y-118288018D01*
X156355587Y-118010760D01*
X156361523Y-117659917D01*
X156365735Y-117251278D01*
X156367914Y-116800632D01*
X156368138Y-116638507D01*
X156369038Y-114814048D01*
X156786030Y-115297858D01*
G37*
D13*
%TO.C,J8*%
X120710000Y-107502000D02*
X119380000Y-107502000D01*
X120710000Y-106172000D02*
X120710000Y-107502000D01*
X120710000Y-104902000D02*
X120710000Y-94682000D01*
X120710000Y-104902000D02*
X118050000Y-104902000D01*
X120710000Y-94682000D02*
X118050000Y-94682000D01*
X118050000Y-104902000D02*
X118050000Y-94682000D01*
%TO.C,Y1*%
X149337000Y-81118000D02*
X149337000Y-87518000D01*
X144287000Y-81118000D02*
X144287000Y-87518000D01*
X144287000Y-81118000D02*
G75*
G02*
X149337000Y-81118000I2525000J0D01*
G01*
X149337000Y-87518000D02*
G75*
G02*
X144287000Y-87518000I-2525000J0D01*
G01*
%TO.C,C5*%
X152661252Y-82523000D02*
X152138748Y-82523000D01*
X152661252Y-81053000D02*
X152138748Y-81053000D01*
%TO.C,C4*%
X152661252Y-87603000D02*
X152138748Y-87603000D01*
X152661252Y-86133000D02*
X152138748Y-86133000D01*
%TO.C,U2*%
X120542000Y-128706000D02*
X120542000Y-132466000D01*
X120542000Y-132466000D02*
X121802000Y-132466000D01*
X127362000Y-128706000D02*
X127362000Y-132466000D01*
X127362000Y-132466000D02*
X126102000Y-132466000D01*
X127592000Y-127666000D02*
X127262000Y-127426000D01*
X127592000Y-127186000D01*
X127592000Y-127666000D01*
G36*
X127592000Y-127666000D02*
G01*
X127262000Y-127426000D01*
X127592000Y-127186000D01*
X127592000Y-127666000D01*
G37*
D10*
%TO.C,J3*%
X130556000Y-46656000D02*
X135636000Y-46656000D01*
X130556000Y-61388000D02*
X130556000Y-46656000D01*
X131064000Y-47164000D02*
X131064000Y-49308000D01*
X131064000Y-49308000D02*
X135128000Y-49308000D01*
X133604000Y-61388000D02*
X130556000Y-61388000D01*
X135128000Y-47164000D02*
X131064000Y-47164000D01*
X135128000Y-49308000D02*
X135128000Y-47164000D01*
X135636000Y-46656000D02*
X135636000Y-61388000D01*
X135636000Y-54276000D02*
X130556000Y-54276000D01*
X135636000Y-61388000D02*
X133604000Y-61388000D01*
D13*
%TO.C,Q1*%
X123952000Y-66512000D02*
X123302000Y-66512000D01*
X123952000Y-66512000D02*
X124602000Y-66512000D01*
X123952000Y-69632000D02*
X123302000Y-69632000D01*
X123952000Y-69632000D02*
X124602000Y-69632000D01*
X122789500Y-66562000D02*
X122549500Y-66232000D01*
X123029500Y-66232000D01*
X122789500Y-66562000D01*
G36*
X122789500Y-66562000D02*
G01*
X122549500Y-66232000D01*
X123029500Y-66232000D01*
X122789500Y-66562000D01*
G37*
%TO.C,J6*%
X140402000Y-111446000D02*
X141732000Y-111446000D01*
X140402000Y-112776000D02*
X140402000Y-111446000D01*
X140402000Y-114046000D02*
X140402000Y-114106000D01*
X140402000Y-114046000D02*
X143062000Y-114046000D01*
X140402000Y-114106000D02*
X143062000Y-114106000D01*
X143062000Y-114046000D02*
X143062000Y-114106000D01*
%TO.C,R2*%
X140997000Y-117575064D02*
X140997000Y-117120936D01*
X142467000Y-117575064D02*
X142467000Y-117120936D01*
%TO.C,M1*%
X133350000Y-63500000D02*
X133350000Y-66294000D01*
X133350000Y-104394000D02*
X133350000Y-107188000D01*
X133350000Y-107188000D02*
X136398000Y-107188000D01*
X136398000Y-63500000D02*
X133350000Y-63500000D01*
X154686000Y-63500000D02*
X151638000Y-63500000D01*
X154686000Y-63500000D02*
X154686000Y-66294000D01*
X154686000Y-104394000D02*
X154686000Y-107188000D01*
X154686000Y-107188000D02*
X151638000Y-107188000D01*
D10*
%TO.C,J1*%
X150876000Y-46656000D02*
X155956000Y-46656000D01*
X150876000Y-61388000D02*
X150876000Y-46656000D01*
X151384000Y-47164000D02*
X151384000Y-49308000D01*
X151384000Y-49308000D02*
X155448000Y-49308000D01*
X153924000Y-61388000D02*
X150876000Y-61388000D01*
X155448000Y-47164000D02*
X151384000Y-47164000D01*
X155448000Y-49308000D02*
X155448000Y-47164000D01*
X155956000Y-46656000D02*
X155956000Y-61388000D01*
X155956000Y-54276000D02*
X150876000Y-54276000D01*
X155956000Y-61388000D02*
X153924000Y-61388000D01*
%TO.C,J2*%
X145796000Y-46656000D02*
X150876000Y-46656000D01*
X145796000Y-61388000D02*
X145796000Y-46656000D01*
X146304000Y-47164000D02*
X146304000Y-49308000D01*
X146304000Y-49308000D02*
X150368000Y-49308000D01*
X148844000Y-61388000D02*
X145796000Y-61388000D01*
X150368000Y-47164000D02*
X146304000Y-47164000D01*
X150368000Y-49308000D02*
X150368000Y-47164000D01*
X150876000Y-46656000D02*
X150876000Y-61388000D01*
X150876000Y-54276000D02*
X145796000Y-54276000D01*
X150876000Y-61388000D02*
X148844000Y-61388000D01*
D13*
%TO.C,Q2*%
X129032000Y-66512000D02*
X128382000Y-66512000D01*
X129032000Y-66512000D02*
X129682000Y-66512000D01*
X129032000Y-69632000D02*
X128382000Y-69632000D01*
X129032000Y-69632000D02*
X129682000Y-69632000D01*
X130434500Y-69912000D02*
X129954500Y-69912000D01*
X130194500Y-69582000D01*
X130434500Y-69912000D01*
G36*
X130434500Y-69912000D02*
G01*
X129954500Y-69912000D01*
X130194500Y-69582000D01*
X130434500Y-69912000D01*
G37*
%TO.C,C2*%
X124240113Y-118921000D02*
X124740113Y-118921000D01*
X124490113Y-118671000D02*
X124490113Y-119171000D01*
X127044888Y-117816000D02*
X127044888Y-119356000D01*
X127044888Y-121436000D02*
X127044888Y-122976000D01*
X127084888Y-117816000D02*
X127084888Y-119356000D01*
X127084888Y-121436000D02*
X127084888Y-122976000D01*
X127124888Y-117817000D02*
X127124888Y-119356000D01*
X127124888Y-121436000D02*
X127124888Y-122975000D01*
X127164888Y-117818000D02*
X127164888Y-119356000D01*
X127164888Y-121436000D02*
X127164888Y-122974000D01*
X127204888Y-117820000D02*
X127204888Y-119356000D01*
X127204888Y-121436000D02*
X127204888Y-122972000D01*
X127244888Y-117823000D02*
X127244888Y-119356000D01*
X127244888Y-121436000D02*
X127244888Y-122969000D01*
X127284888Y-117827000D02*
X127284888Y-119356000D01*
X127284888Y-121436000D02*
X127284888Y-122965000D01*
X127324888Y-117831000D02*
X127324888Y-119356000D01*
X127324888Y-121436000D02*
X127324888Y-122961000D01*
X127364888Y-117835000D02*
X127364888Y-119356000D01*
X127364888Y-121436000D02*
X127364888Y-122957000D01*
X127404888Y-117840000D02*
X127404888Y-119356000D01*
X127404888Y-121436000D02*
X127404888Y-122952000D01*
X127444888Y-117846000D02*
X127444888Y-119356000D01*
X127444888Y-121436000D02*
X127444888Y-122946000D01*
X127484888Y-117853000D02*
X127484888Y-119356000D01*
X127484888Y-121436000D02*
X127484888Y-122939000D01*
X127524888Y-117860000D02*
X127524888Y-119356000D01*
X127524888Y-121436000D02*
X127524888Y-122932000D01*
X127564888Y-117868000D02*
X127564888Y-119356000D01*
X127564888Y-121436000D02*
X127564888Y-122924000D01*
X127604888Y-117876000D02*
X127604888Y-119356000D01*
X127604888Y-121436000D02*
X127604888Y-122916000D01*
X127644888Y-117885000D02*
X127644888Y-119356000D01*
X127644888Y-121436000D02*
X127644888Y-122907000D01*
X127684888Y-117895000D02*
X127684888Y-119356000D01*
X127684888Y-121436000D02*
X127684888Y-122897000D01*
X127724888Y-117905000D02*
X127724888Y-119356000D01*
X127724888Y-121436000D02*
X127724888Y-122887000D01*
X127765888Y-117916000D02*
X127765888Y-119356000D01*
X127765888Y-121436000D02*
X127765888Y-122876000D01*
X127805888Y-117928000D02*
X127805888Y-119356000D01*
X127805888Y-121436000D02*
X127805888Y-122864000D01*
X127845888Y-117941000D02*
X127845888Y-119356000D01*
X127845888Y-121436000D02*
X127845888Y-122851000D01*
X127885888Y-117954000D02*
X127885888Y-119356000D01*
X127885888Y-121436000D02*
X127885888Y-122838000D01*
X127925888Y-117968000D02*
X127925888Y-119356000D01*
X127925888Y-121436000D02*
X127925888Y-122824000D01*
X127965888Y-117982000D02*
X127965888Y-119356000D01*
X127965888Y-121436000D02*
X127965888Y-122810000D01*
X128005888Y-117998000D02*
X128005888Y-119356000D01*
X128005888Y-121436000D02*
X128005888Y-122794000D01*
X128045888Y-118014000D02*
X128045888Y-119356000D01*
X128045888Y-121436000D02*
X128045888Y-122778000D01*
X128085888Y-118031000D02*
X128085888Y-119356000D01*
X128085888Y-121436000D02*
X128085888Y-122761000D01*
X128125888Y-118048000D02*
X128125888Y-119356000D01*
X128125888Y-121436000D02*
X128125888Y-122744000D01*
X128165888Y-118067000D02*
X128165888Y-119356000D01*
X128165888Y-121436000D02*
X128165888Y-122725000D01*
X128205888Y-118086000D02*
X128205888Y-119356000D01*
X128205888Y-121436000D02*
X128205888Y-122706000D01*
X128245888Y-118106000D02*
X128245888Y-119356000D01*
X128245888Y-121436000D02*
X128245888Y-122686000D01*
X128285888Y-118128000D02*
X128285888Y-119356000D01*
X128285888Y-121436000D02*
X128285888Y-122664000D01*
X128325888Y-118149000D02*
X128325888Y-119356000D01*
X128325888Y-121436000D02*
X128325888Y-122643000D01*
X128365888Y-118172000D02*
X128365888Y-119356000D01*
X128365888Y-121436000D02*
X128365888Y-122620000D01*
X128405888Y-118196000D02*
X128405888Y-119356000D01*
X128405888Y-121436000D02*
X128405888Y-122596000D01*
X128445888Y-118221000D02*
X128445888Y-119356000D01*
X128445888Y-121436000D02*
X128445888Y-122571000D01*
X128485888Y-118247000D02*
X128485888Y-119356000D01*
X128485888Y-121436000D02*
X128485888Y-122545000D01*
X128525888Y-118274000D02*
X128525888Y-119356000D01*
X128525888Y-121436000D02*
X128525888Y-122518000D01*
X128565888Y-118301000D02*
X128565888Y-119356000D01*
X128565888Y-121436000D02*
X128565888Y-122491000D01*
X128605888Y-118331000D02*
X128605888Y-119356000D01*
X128605888Y-121436000D02*
X128605888Y-122461000D01*
X128645888Y-118361000D02*
X128645888Y-119356000D01*
X128645888Y-121436000D02*
X128645888Y-122431000D01*
X128685888Y-118392000D02*
X128685888Y-119356000D01*
X128685888Y-121436000D02*
X128685888Y-122400000D01*
X128725888Y-118425000D02*
X128725888Y-119356000D01*
X128725888Y-121436000D02*
X128725888Y-122367000D01*
X128765888Y-118459000D02*
X128765888Y-119356000D01*
X128765888Y-121436000D02*
X128765888Y-122333000D01*
X128805888Y-118495000D02*
X128805888Y-119356000D01*
X128805888Y-121436000D02*
X128805888Y-122297000D01*
X128845888Y-118532000D02*
X128845888Y-119356000D01*
X128845888Y-121436000D02*
X128845888Y-122260000D01*
X128885888Y-118570000D02*
X128885888Y-119356000D01*
X128885888Y-121436000D02*
X128885888Y-122222000D01*
X128925888Y-118611000D02*
X128925888Y-119356000D01*
X128925888Y-121436000D02*
X128925888Y-122181000D01*
X128965888Y-118653000D02*
X128965888Y-119356000D01*
X128965888Y-121436000D02*
X128965888Y-122139000D01*
X129005888Y-118697000D02*
X129005888Y-119356000D01*
X129005888Y-121436000D02*
X129005888Y-122095000D01*
X129045888Y-118743000D02*
X129045888Y-119356000D01*
X129045888Y-121436000D02*
X129045888Y-122049000D01*
X129085888Y-118791000D02*
X129085888Y-122001000D01*
X129125888Y-118842000D02*
X129125888Y-121950000D01*
X129165888Y-118896000D02*
X129165888Y-121896000D01*
X129205888Y-118953000D02*
X129205888Y-121839000D01*
X129245888Y-119013000D02*
X129245888Y-121779000D01*
X129285888Y-119077000D02*
X129285888Y-121715000D01*
X129325888Y-119145000D02*
X129325888Y-121647000D01*
X129365888Y-119218000D02*
X129365888Y-121574000D01*
X129405888Y-119298000D02*
X129405888Y-121494000D01*
X129445888Y-119385000D02*
X129445888Y-121407000D01*
X129485888Y-119481000D02*
X129485888Y-121311000D01*
X129525888Y-119591000D02*
X129525888Y-121201000D01*
X129565888Y-119719000D02*
X129565888Y-121073000D01*
X129605888Y-119878000D02*
X129605888Y-120914000D01*
X129645888Y-120112000D02*
X129645888Y-120680000D01*
X129664888Y-120396000D02*
G75*
G02*
X124424888Y-120396000I-2620000J0D01*
G01*
X124424888Y-120396000D02*
G75*
G02*
X129664888Y-120396000I2620000J0D01*
G01*
%TO.C,D3*%
X125532000Y-55388000D02*
X125532000Y-58073000D01*
X125532000Y-58073000D02*
X127452000Y-58073000D01*
X127452000Y-58073000D02*
X127452000Y-55388000D01*
%TO.C,R6*%
X145061000Y-112652436D02*
X145061000Y-113106564D01*
X146531000Y-112652436D02*
X146531000Y-113106564D01*
%TO.C,R1*%
X123724936Y-63273000D02*
X124179064Y-63273000D01*
X123724936Y-64743000D02*
X124179064Y-64743000D01*
%TO.C,D2*%
X140496000Y-67815000D02*
X140496000Y-73255000D01*
X140496000Y-73255000D02*
X143436000Y-73255000D01*
X141966000Y-66795000D02*
X141966000Y-67815000D01*
X141966000Y-74275000D02*
X141966000Y-73255000D01*
X143436000Y-67815000D02*
X140496000Y-67815000D01*
X143436000Y-68595000D02*
X140496000Y-68595000D01*
X143436000Y-68715000D02*
X140496000Y-68715000D01*
X143436000Y-68835000D02*
X140496000Y-68835000D01*
X143436000Y-73255000D02*
X143436000Y-67815000D01*
%TO.C,D4*%
X139098000Y-88272000D02*
X139098000Y-92682000D01*
X141318000Y-88272000D02*
X139098000Y-88272000D01*
X141318000Y-92682000D02*
X141318000Y-88272000D01*
%TO.C,R7*%
X136933000Y-112652436D02*
X136933000Y-113106564D01*
X138403000Y-112652436D02*
X138403000Y-113106564D01*
%TO.C,D1*%
X145576000Y-67815000D02*
X145576000Y-73255000D01*
X145576000Y-72235000D02*
X148516000Y-72235000D01*
X145576000Y-72355000D02*
X148516000Y-72355000D01*
X145576000Y-72475000D02*
X148516000Y-72475000D01*
X145576000Y-73255000D02*
X148516000Y-73255000D01*
X147046000Y-66795000D02*
X147046000Y-67815000D01*
X147046000Y-74275000D02*
X147046000Y-73255000D01*
X148516000Y-67815000D02*
X145576000Y-67815000D01*
X148516000Y-73255000D02*
X148516000Y-67815000D01*
%TO.C,R5*%
X145061000Y-117678564D02*
X145061000Y-117224436D01*
X146531000Y-117678564D02*
X146531000Y-117224436D01*
%TO.C,R4*%
X125750000Y-51535064D02*
X125750000Y-51080936D01*
X127220000Y-51535064D02*
X127220000Y-51080936D01*
%TO.C,R9*%
X134393000Y-88619064D02*
X134393000Y-88164936D01*
X135863000Y-88619064D02*
X135863000Y-88164936D01*
D10*
%TO.C,J4*%
X135636000Y-46656000D02*
X140716000Y-46656000D01*
X135636000Y-61388000D02*
X135636000Y-46656000D01*
X136144000Y-47164000D02*
X136144000Y-49308000D01*
X136144000Y-49308000D02*
X140208000Y-49308000D01*
X138684000Y-61388000D02*
X135636000Y-61388000D01*
X140208000Y-47164000D02*
X136144000Y-47164000D01*
X140208000Y-49308000D02*
X140208000Y-47164000D01*
X140716000Y-46656000D02*
X140716000Y-61388000D01*
X140716000Y-54276000D02*
X135636000Y-54276000D01*
X140716000Y-61388000D02*
X138684000Y-61388000D01*
D13*
%TO.C,R8*%
X134393000Y-93244936D02*
X134393000Y-93699064D01*
X135863000Y-93244936D02*
X135863000Y-93699064D01*
%TO.C,C3*%
X134393000Y-82542748D02*
X134393000Y-83065252D01*
X135863000Y-82542748D02*
X135863000Y-83065252D01*
%TO.C,U3*%
X124096000Y-71822000D02*
X124096000Y-107502000D01*
X124096000Y-107502000D02*
X125746000Y-107502000D01*
X127746000Y-107502000D02*
X129396000Y-107502000D01*
X129396000Y-71822000D02*
X124096000Y-71822000D01*
X129396000Y-107502000D02*
X129396000Y-71822000D01*
X125746000Y-107502000D02*
G75*
G02*
X127746000Y-107502000I1000000J0D01*
G01*
D10*
%TO.C,J5*%
X140716000Y-46656000D02*
X145796000Y-46656000D01*
X140716000Y-61388000D02*
X140716000Y-46656000D01*
X141224000Y-47164000D02*
X141224000Y-49308000D01*
X141224000Y-49308000D02*
X145288000Y-49308000D01*
X143764000Y-61388000D02*
X140716000Y-61388000D01*
X145288000Y-47164000D02*
X141224000Y-47164000D01*
X145288000Y-49308000D02*
X145288000Y-47164000D01*
X145796000Y-46656000D02*
X145796000Y-61388000D01*
X145796000Y-54276000D02*
X140716000Y-54276000D01*
X145796000Y-61388000D02*
X143764000Y-61388000D01*
D14*
%TO.C,U1*%
X132334000Y-121158000D02*
X156972000Y-121158000D01*
X132334000Y-135382000D02*
X132334000Y-121158000D01*
D15*
X132842000Y-123190000D02*
X132842000Y-125730000D01*
X132842000Y-125730000D02*
X132842000Y-133350000D01*
X132842000Y-133350000D02*
X137922000Y-133350000D01*
X135382000Y-123190000D02*
X132842000Y-123190000D01*
X137922000Y-123190000D02*
X135382000Y-123190000D01*
X137922000Y-133350000D02*
X137922000Y-123190000D01*
D14*
X156972000Y-121158000D02*
X156972000Y-135382000D01*
X156972000Y-135382000D02*
X132334000Y-135382000D01*
D13*
%TO.C,R3*%
X128804936Y-63273000D02*
X129259064Y-63273000D01*
X128804936Y-64743000D02*
X129259064Y-64743000D01*
%TO.C,J7*%
X118702000Y-49026000D02*
X118702000Y-49976000D01*
X118702000Y-57546000D02*
X118012000Y-57546000D01*
X118702000Y-58496000D02*
X118702000Y-57546000D01*
X119652000Y-49026000D02*
X118702000Y-49026000D01*
X119652000Y-58496000D02*
X118702000Y-58496000D01*
X122622000Y-58126000D02*
X122622000Y-49396000D01*
%TO.C,C1*%
X118083225Y-118921000D02*
X118583225Y-118921000D01*
X118333225Y-118671000D02*
X118333225Y-119171000D01*
X120888000Y-117816000D02*
X120888000Y-119356000D01*
X120888000Y-121436000D02*
X120888000Y-122976000D01*
X120928000Y-117816000D02*
X120928000Y-119356000D01*
X120928000Y-121436000D02*
X120928000Y-122976000D01*
X120968000Y-117817000D02*
X120968000Y-119356000D01*
X120968000Y-121436000D02*
X120968000Y-122975000D01*
X121008000Y-117818000D02*
X121008000Y-119356000D01*
X121008000Y-121436000D02*
X121008000Y-122974000D01*
X121048000Y-117820000D02*
X121048000Y-119356000D01*
X121048000Y-121436000D02*
X121048000Y-122972000D01*
X121088000Y-117823000D02*
X121088000Y-119356000D01*
X121088000Y-121436000D02*
X121088000Y-122969000D01*
X121128000Y-117827000D02*
X121128000Y-119356000D01*
X121128000Y-121436000D02*
X121128000Y-122965000D01*
X121168000Y-117831000D02*
X121168000Y-119356000D01*
X121168000Y-121436000D02*
X121168000Y-122961000D01*
X121208000Y-117835000D02*
X121208000Y-119356000D01*
X121208000Y-121436000D02*
X121208000Y-122957000D01*
X121248000Y-117840000D02*
X121248000Y-119356000D01*
X121248000Y-121436000D02*
X121248000Y-122952000D01*
X121288000Y-117846000D02*
X121288000Y-119356000D01*
X121288000Y-121436000D02*
X121288000Y-122946000D01*
X121328000Y-117853000D02*
X121328000Y-119356000D01*
X121328000Y-121436000D02*
X121328000Y-122939000D01*
X121368000Y-117860000D02*
X121368000Y-119356000D01*
X121368000Y-121436000D02*
X121368000Y-122932000D01*
X121408000Y-117868000D02*
X121408000Y-119356000D01*
X121408000Y-121436000D02*
X121408000Y-122924000D01*
X121448000Y-117876000D02*
X121448000Y-119356000D01*
X121448000Y-121436000D02*
X121448000Y-122916000D01*
X121488000Y-117885000D02*
X121488000Y-119356000D01*
X121488000Y-121436000D02*
X121488000Y-122907000D01*
X121528000Y-117895000D02*
X121528000Y-119356000D01*
X121528000Y-121436000D02*
X121528000Y-122897000D01*
X121568000Y-117905000D02*
X121568000Y-119356000D01*
X121568000Y-121436000D02*
X121568000Y-122887000D01*
X121609000Y-117916000D02*
X121609000Y-119356000D01*
X121609000Y-121436000D02*
X121609000Y-122876000D01*
X121649000Y-117928000D02*
X121649000Y-119356000D01*
X121649000Y-121436000D02*
X121649000Y-122864000D01*
X121689000Y-117941000D02*
X121689000Y-119356000D01*
X121689000Y-121436000D02*
X121689000Y-122851000D01*
X121729000Y-117954000D02*
X121729000Y-119356000D01*
X121729000Y-121436000D02*
X121729000Y-122838000D01*
X121769000Y-117968000D02*
X121769000Y-119356000D01*
X121769000Y-121436000D02*
X121769000Y-122824000D01*
X121809000Y-117982000D02*
X121809000Y-119356000D01*
X121809000Y-121436000D02*
X121809000Y-122810000D01*
X121849000Y-117998000D02*
X121849000Y-119356000D01*
X121849000Y-121436000D02*
X121849000Y-122794000D01*
X121889000Y-118014000D02*
X121889000Y-119356000D01*
X121889000Y-121436000D02*
X121889000Y-122778000D01*
X121929000Y-118031000D02*
X121929000Y-119356000D01*
X121929000Y-121436000D02*
X121929000Y-122761000D01*
X121969000Y-118048000D02*
X121969000Y-119356000D01*
X121969000Y-121436000D02*
X121969000Y-122744000D01*
X122009000Y-118067000D02*
X122009000Y-119356000D01*
X122009000Y-121436000D02*
X122009000Y-122725000D01*
X122049000Y-118086000D02*
X122049000Y-119356000D01*
X122049000Y-121436000D02*
X122049000Y-122706000D01*
X122089000Y-118106000D02*
X122089000Y-119356000D01*
X122089000Y-121436000D02*
X122089000Y-122686000D01*
X122129000Y-118128000D02*
X122129000Y-119356000D01*
X122129000Y-121436000D02*
X122129000Y-122664000D01*
X122169000Y-118149000D02*
X122169000Y-119356000D01*
X122169000Y-121436000D02*
X122169000Y-122643000D01*
X122209000Y-118172000D02*
X122209000Y-119356000D01*
X122209000Y-121436000D02*
X122209000Y-122620000D01*
X122249000Y-118196000D02*
X122249000Y-119356000D01*
X122249000Y-121436000D02*
X122249000Y-122596000D01*
X122289000Y-118221000D02*
X122289000Y-119356000D01*
X122289000Y-121436000D02*
X122289000Y-122571000D01*
X122329000Y-118247000D02*
X122329000Y-119356000D01*
X122329000Y-121436000D02*
X122329000Y-122545000D01*
X122369000Y-118274000D02*
X122369000Y-119356000D01*
X122369000Y-121436000D02*
X122369000Y-122518000D01*
X122409000Y-118301000D02*
X122409000Y-119356000D01*
X122409000Y-121436000D02*
X122409000Y-122491000D01*
X122449000Y-118331000D02*
X122449000Y-119356000D01*
X122449000Y-121436000D02*
X122449000Y-122461000D01*
X122489000Y-118361000D02*
X122489000Y-119356000D01*
X122489000Y-121436000D02*
X122489000Y-122431000D01*
X122529000Y-118392000D02*
X122529000Y-119356000D01*
X122529000Y-121436000D02*
X122529000Y-122400000D01*
X122569000Y-118425000D02*
X122569000Y-119356000D01*
X122569000Y-121436000D02*
X122569000Y-122367000D01*
X122609000Y-118459000D02*
X122609000Y-119356000D01*
X122609000Y-121436000D02*
X122609000Y-122333000D01*
X122649000Y-118495000D02*
X122649000Y-119356000D01*
X122649000Y-121436000D02*
X122649000Y-122297000D01*
X122689000Y-118532000D02*
X122689000Y-119356000D01*
X122689000Y-121436000D02*
X122689000Y-122260000D01*
X122729000Y-118570000D02*
X122729000Y-119356000D01*
X122729000Y-121436000D02*
X122729000Y-122222000D01*
X122769000Y-118611000D02*
X122769000Y-119356000D01*
X122769000Y-121436000D02*
X122769000Y-122181000D01*
X122809000Y-118653000D02*
X122809000Y-119356000D01*
X122809000Y-121436000D02*
X122809000Y-122139000D01*
X122849000Y-118697000D02*
X122849000Y-119356000D01*
X122849000Y-121436000D02*
X122849000Y-122095000D01*
X122889000Y-118743000D02*
X122889000Y-119356000D01*
X122889000Y-121436000D02*
X122889000Y-122049000D01*
X122929000Y-118791000D02*
X122929000Y-122001000D01*
X122969000Y-118842000D02*
X122969000Y-121950000D01*
X123009000Y-118896000D02*
X123009000Y-121896000D01*
X123049000Y-118953000D02*
X123049000Y-121839000D01*
X123089000Y-119013000D02*
X123089000Y-121779000D01*
X123129000Y-119077000D02*
X123129000Y-121715000D01*
X123169000Y-119145000D02*
X123169000Y-121647000D01*
X123209000Y-119218000D02*
X123209000Y-121574000D01*
X123249000Y-119298000D02*
X123249000Y-121494000D01*
X123289000Y-119385000D02*
X123289000Y-121407000D01*
X123329000Y-119481000D02*
X123329000Y-121311000D01*
X123369000Y-119591000D02*
X123369000Y-121201000D01*
X123409000Y-119719000D02*
X123409000Y-121073000D01*
X123449000Y-119878000D02*
X123449000Y-120914000D01*
X123489000Y-120112000D02*
X123489000Y-120680000D01*
X123508000Y-120396000D02*
G75*
G02*
X118268000Y-120396000I-2620000J0D01*
G01*
X118268000Y-120396000D02*
G75*
G02*
X123508000Y-120396000I2620000J0D01*
G01*
%TD*%
D16*
%TO.C,U1*%
X134112000Y-124460000D03*
D17*
X136652000Y-124460000D03*
X134112000Y-127000000D03*
X136652000Y-127000000D03*
X134112000Y-129540000D03*
X136652000Y-129540000D03*
X134112000Y-132080000D03*
X136652000Y-132080000D03*
%TD*%
M02*
