%TF.GenerationSoftware,KiCad,Pcbnew,8.0.1*%
%TF.CreationDate,2024-10-28T19:37:41+01:00*%
%TF.ProjectId,ESP_01_MQTT,4553505f-3031-45f4-9d51-54542e6b6963,rev?*%
%TF.SameCoordinates,Original*%
%TF.FileFunction,Copper,L1,Top*%
%TF.FilePolarity,Positive*%
%FSLAX46Y46*%
G04 Gerber Fmt 4.6, Leading zero omitted, Abs format (unit mm)*
G04 Created by KiCad (PCBNEW 8.0.1) date 2024-10-28 19:37:41*
%MOMM*%
%LPD*%
G01*
G04 APERTURE LIST*
G04 Aperture macros list*
%AMRoundRect*
0 Rectangle with rounded corners*
0 $1 Rounding radius*
0 $2 $3 $4 $5 $6 $7 $8 $9 X,Y pos of 4 corners*
0 Add a 4 corners polygon primitive as box body*
4,1,4,$2,$3,$4,$5,$6,$7,$8,$9,$2,$3,0*
0 Add four circle primitives for the rounded corners*
1,1,$1+$1,$2,$3*
1,1,$1+$1,$4,$5*
1,1,$1+$1,$6,$7*
1,1,$1+$1,$8,$9*
0 Add four rect primitives between the rounded corners*
20,1,$1+$1,$2,$3,$4,$5,0*
20,1,$1+$1,$4,$5,$6,$7,0*
20,1,$1+$1,$6,$7,$8,$9,0*
20,1,$1+$1,$8,$9,$2,$3,0*%
G04 Aperture macros list end*
%TA.AperFunction,ComponentPad*%
%ADD10R,1.700000X1.700000*%
%TD*%
%TA.AperFunction,ComponentPad*%
%ADD11O,1.700000X1.700000*%
%TD*%
%TA.AperFunction,ComponentPad*%
%ADD12C,1.500000*%
%TD*%
%TA.AperFunction,SMDPad,CuDef*%
%ADD13RoundRect,0.250000X0.250000X0.475000X-0.250000X0.475000X-0.250000X-0.475000X0.250000X-0.475000X0*%
%TD*%
%TA.AperFunction,SMDPad,CuDef*%
%ADD14RoundRect,0.375000X-0.375000X0.625000X-0.375000X-0.625000X0.375000X-0.625000X0.375000X0.625000X0*%
%TD*%
%TA.AperFunction,SMDPad,CuDef*%
%ADD15RoundRect,0.500000X-1.400000X0.500000X-1.400000X-0.500000X1.400000X-0.500000X1.400000X0.500000X0*%
%TD*%
%TA.AperFunction,ComponentPad*%
%ADD16C,2.600000*%
%TD*%
%TA.AperFunction,SMDPad,CuDef*%
%ADD17RoundRect,0.150000X-0.587500X-0.150000X0.587500X-0.150000X0.587500X0.150000X-0.587500X0.150000X0*%
%TD*%
%TA.AperFunction,SMDPad,CuDef*%
%ADD18RoundRect,0.250000X0.450000X-0.262500X0.450000X0.262500X-0.450000X0.262500X-0.450000X-0.262500X0*%
%TD*%
%TA.AperFunction,ComponentPad*%
%ADD19R,2.540000X2.540000*%
%TD*%
%TA.AperFunction,ComponentPad*%
%ADD20C,2.540000*%
%TD*%
%TA.AperFunction,SMDPad,CuDef*%
%ADD21RoundRect,0.150000X0.587500X0.150000X-0.587500X0.150000X-0.587500X-0.150000X0.587500X-0.150000X0*%
%TD*%
%TA.AperFunction,ComponentPad*%
%ADD22R,1.600000X1.600000*%
%TD*%
%TA.AperFunction,ComponentPad*%
%ADD23C,1.600000*%
%TD*%
%TA.AperFunction,SMDPad,CuDef*%
%ADD24RoundRect,0.243750X0.456250X-0.243750X0.456250X0.243750X-0.456250X0.243750X-0.456250X-0.243750X0*%
%TD*%
%TA.AperFunction,SMDPad,CuDef*%
%ADD25RoundRect,0.250000X-0.450000X0.262500X-0.450000X-0.262500X0.450000X-0.262500X0.450000X0.262500X0*%
%TD*%
%TA.AperFunction,SMDPad,CuDef*%
%ADD26RoundRect,0.250000X-0.262500X-0.450000X0.262500X-0.450000X0.262500X0.450000X-0.262500X0.450000X0*%
%TD*%
%TA.AperFunction,ComponentPad*%
%ADD27R,2.200000X2.200000*%
%TD*%
%TA.AperFunction,ComponentPad*%
%ADD28O,2.200000X2.200000*%
%TD*%
%TA.AperFunction,SMDPad,CuDef*%
%ADD29RoundRect,0.250000X-0.600000X0.400000X-0.600000X-0.400000X0.600000X-0.400000X0.600000X0.400000X0*%
%TD*%
%TA.AperFunction,SMDPad,CuDef*%
%ADD30RoundRect,0.250000X-0.475000X0.250000X-0.475000X-0.250000X0.475000X-0.250000X0.475000X0.250000X0*%
%TD*%
%TA.AperFunction,ComponentPad*%
%ADD31O,1.600000X1.600000*%
%TD*%
%TA.AperFunction,ComponentPad*%
%ADD32R,1.727200X1.727200*%
%TD*%
%TA.AperFunction,ComponentPad*%
%ADD33O,1.727200X1.727200*%
%TD*%
%TA.AperFunction,SMDPad,CuDef*%
%ADD34RoundRect,0.200000X0.450000X-0.200000X0.450000X0.200000X-0.450000X0.200000X-0.450000X-0.200000X0*%
%TD*%
%TA.AperFunction,SMDPad,CuDef*%
%ADD35RoundRect,0.250001X1.249999X-0.799999X1.249999X0.799999X-1.249999X0.799999X-1.249999X-0.799999X0*%
%TD*%
%TA.AperFunction,ViaPad*%
%ADD36C,1.000000*%
%TD*%
%TA.AperFunction,ViaPad*%
%ADD37C,0.600000*%
%TD*%
%TA.AperFunction,Conductor*%
%ADD38C,0.500000*%
%TD*%
%TA.AperFunction,Conductor*%
%ADD39C,0.250000*%
%TD*%
G04 APERTURE END LIST*
D10*
%TO.P,J8,1,Pin_1*%
%TO.N,GND*%
X119380000Y-106172000D03*
D11*
%TO.P,J8,2,Pin_2*%
%TO.N,/PC5*%
X119380000Y-103632000D03*
%TO.P,J8,3,Pin_3*%
%TO.N,/PC4*%
X119380000Y-101092000D03*
%TO.P,J8,4,Pin_4*%
%TO.N,/PC3*%
X119380000Y-98552000D03*
%TO.P,J8,5,Pin_5*%
%TO.N,+5V*%
X119380000Y-96012000D03*
%TD*%
D12*
%TO.P,Y1,1,1*%
%TO.N,Net-(U3-PB7{slash}XTAL2)*%
X146812000Y-81878000D03*
%TO.P,Y1,2,2*%
%TO.N,Net-(U3-PB6{slash}XTAL1)*%
X146812000Y-86758000D03*
%TD*%
D13*
%TO.P,C5,1*%
%TO.N,GND*%
X153350000Y-81788000D03*
%TO.P,C5,2*%
%TO.N,Net-(U3-PB7{slash}XTAL2)*%
X151450000Y-81788000D03*
%TD*%
%TO.P,C4,1*%
%TO.N,GND*%
X153350000Y-86868000D03*
%TO.P,C4,2*%
%TO.N,Net-(U3-PB6{slash}XTAL1)*%
X151450000Y-86868000D03*
%TD*%
D14*
%TO.P,U2,1,GND*%
%TO.N,GND*%
X126252000Y-127406000D03*
%TO.P,U2,2,VO*%
%TO.N,+3.3V*%
X123952000Y-127406000D03*
D15*
X123952000Y-133706000D03*
D14*
%TO.P,U2,3,VI*%
%TO.N,+5V*%
X121652000Y-127406000D03*
%TD*%
D16*
%TO.P,J3,1,Pin_1*%
%TO.N,Net-(D2-K)*%
X133604000Y-56308000D03*
X133604000Y-51308000D03*
%TD*%
D17*
%TO.P,Q1,1,B*%
%TO.N,Net-(Q1-B)*%
X123014500Y-67122000D03*
%TO.P,Q1,2,E*%
%TO.N,GND*%
X123014500Y-69022000D03*
%TO.P,Q1,3,C*%
%TO.N,Net-(Q1-C)*%
X124889500Y-68072000D03*
%TD*%
D10*
%TO.P,J6,1,Pin_1*%
%TO.N,/AVR_TX*%
X141732000Y-112776000D03*
%TD*%
D18*
%TO.P,R2,1*%
%TO.N,Net-(U1-UTXD)*%
X141732000Y-118260500D03*
%TO.P,R2,2*%
%TO.N,/AVR_RX*%
X141732000Y-116435500D03*
%TD*%
D19*
%TO.P,M1,1,IN+*%
%TO.N,+12V*%
X152908000Y-65024000D03*
D20*
%TO.P,M1,2,IN-*%
%TO.N,GND*%
X135128000Y-65024000D03*
%TO.P,M1,3,OUT+*%
%TO.N,+5V*%
X135128000Y-105664000D03*
%TO.P,M1,4,OUT-*%
%TO.N,GND*%
X152908000Y-105664000D03*
%TD*%
D16*
%TO.P,J1,1,Pin_1*%
%TO.N,Net-(D1-A)*%
X153924000Y-56308000D03*
X153924000Y-51308000D03*
%TD*%
%TO.P,J2,1,Pin_1*%
%TO.N,GND*%
X148844000Y-56308000D03*
X148844000Y-51308000D03*
%TD*%
D21*
%TO.P,Q2,1,G*%
%TO.N,Net-(Q1-C)*%
X129969500Y-69022000D03*
%TO.P,Q2,2,S*%
%TO.N,+12V*%
X129969500Y-67122000D03*
%TO.P,Q2,3,D*%
%TO.N,Net-(D2-A)*%
X128094500Y-68072000D03*
%TD*%
D22*
%TO.P,C2,1*%
%TO.N,+3.3V*%
X126044888Y-120396000D03*
D23*
%TO.P,C2,2*%
%TO.N,GND*%
X128044888Y-120396000D03*
%TD*%
D24*
%TO.P,D3,1,K*%
%TO.N,GND*%
X126492000Y-57325500D03*
%TO.P,D3,2,A*%
%TO.N,Net-(D3-A)*%
X126492000Y-55450500D03*
%TD*%
D25*
%TO.P,R6,1*%
%TO.N,/AVR_TX*%
X145796000Y-111967000D03*
%TO.P,R6,2*%
%TO.N,Net-(U1-URXD)*%
X145796000Y-113792000D03*
%TD*%
D26*
%TO.P,R1,1*%
%TO.N,Net-(Q1-B)*%
X123039500Y-64008000D03*
%TO.P,R1,2*%
%TO.N,/Sen_Ena*%
X124864500Y-64008000D03*
%TD*%
D27*
%TO.P,D2,1,K*%
%TO.N,Net-(D2-K)*%
X141966000Y-65455000D03*
D28*
%TO.P,D2,2,A*%
%TO.N,Net-(D2-A)*%
X141966000Y-75615000D03*
%TD*%
D29*
%TO.P,D4,1,K*%
%TO.N,+5V*%
X140208000Y-89182000D03*
%TO.P,D4,2,A*%
%TO.N,/SenIN*%
X140208000Y-92682000D03*
%TD*%
D25*
%TO.P,R7,1*%
%TO.N,/RST{slash}*%
X137668000Y-111967000D03*
%TO.P,R7,2*%
%TO.N,+5V*%
X137668000Y-113792000D03*
%TD*%
D27*
%TO.P,D1,1,K*%
%TO.N,+12V*%
X147046000Y-75615000D03*
D28*
%TO.P,D1,2,A*%
%TO.N,Net-(D1-A)*%
X147046000Y-65455000D03*
%TD*%
D18*
%TO.P,R5,1*%
%TO.N,Net-(U1-URXD)*%
X145796000Y-118364000D03*
%TO.P,R5,2*%
%TO.N,GND*%
X145796000Y-116539000D03*
%TD*%
%TO.P,R4,1*%
%TO.N,Net-(D2-K)*%
X126485000Y-52220500D03*
%TO.P,R4,2*%
%TO.N,Net-(D3-A)*%
X126485000Y-50395500D03*
%TD*%
%TO.P,R9,1*%
%TO.N,/SenIN*%
X135128000Y-89304500D03*
%TO.P,R9,2*%
%TO.N,GND*%
X135128000Y-87479500D03*
%TD*%
D16*
%TO.P,J4,1,Pin_1*%
%TO.N,/12V_SenIN*%
X138684000Y-56308000D03*
X138684000Y-51308000D03*
%TD*%
D25*
%TO.P,R8,1*%
%TO.N,/12V_SenIN*%
X135128000Y-92559500D03*
%TO.P,R8,2*%
%TO.N,/SenIN*%
X135128000Y-94384500D03*
%TD*%
D30*
%TO.P,C3,1*%
%TO.N,GND*%
X135128000Y-81854000D03*
%TO.P,C3,2*%
%TO.N,+5V*%
X135128000Y-83754000D03*
%TD*%
D22*
%TO.P,U3,1,PC6/~{RESET}*%
%TO.N,/RST{slash}*%
X130556000Y-106172000D03*
D31*
%TO.P,U3,2,PD0*%
%TO.N,/AVR_RX*%
X130556000Y-103632000D03*
%TO.P,U3,3,PD1*%
%TO.N,/AVR_TX*%
X130556000Y-101092000D03*
%TO.P,U3,4,PD2*%
%TO.N,/SenIN*%
X130556000Y-98552000D03*
%TO.P,U3,5,PD3*%
%TO.N,/ESP_GPIO0*%
X130556000Y-96012000D03*
%TO.P,U3,6,PD4*%
%TO.N,/ESP_GPIO2*%
X130556000Y-93472000D03*
%TO.P,U3,7,VCC*%
%TO.N,+5V*%
X130556000Y-90932000D03*
%TO.P,U3,8,GND*%
%TO.N,GND*%
X130556000Y-88392000D03*
%TO.P,U3,9,PB6/XTAL1*%
%TO.N,Net-(U3-PB6{slash}XTAL1)*%
X130556000Y-85852000D03*
%TO.P,U3,10,PB7/XTAL2*%
%TO.N,Net-(U3-PB7{slash}XTAL2)*%
X130556000Y-83312000D03*
%TO.P,U3,11,PD5*%
%TO.N,unconnected-(U3-PD5-Pad11)*%
X130556000Y-80772000D03*
%TO.P,U3,12,PD6*%
%TO.N,unconnected-(U3-PD6-Pad12)*%
X130556000Y-78232000D03*
%TO.P,U3,13,PD7*%
%TO.N,/Sen_Ena*%
X130556000Y-75692000D03*
%TO.P,U3,14,PB0*%
%TO.N,/SenIN*%
X130556000Y-73152000D03*
%TO.P,U3,15,PB1*%
%TO.N,unconnected-(U3-PB1-Pad15)*%
X122936000Y-73152000D03*
%TO.P,U3,16,PB2*%
%TO.N,unconnected-(U3-PB2-Pad16)*%
X122936000Y-75692000D03*
%TO.P,U3,17,PB3*%
%TO.N,/MOSI*%
X122936000Y-78232000D03*
%TO.P,U3,18,PB4*%
%TO.N,/MISO*%
X122936000Y-80772000D03*
%TO.P,U3,19,PB5*%
%TO.N,/SCK*%
X122936000Y-83312000D03*
%TO.P,U3,20,AVCC*%
%TO.N,+5V*%
X122936000Y-85852000D03*
%TO.P,U3,21,AREF*%
%TO.N,unconnected-(U3-AREF-Pad21)*%
X122936000Y-88392000D03*
%TO.P,U3,22,AGND*%
%TO.N,GND*%
X122936000Y-90932000D03*
%TO.P,U3,23,PC0*%
%TO.N,unconnected-(U3-PC0-Pad23)*%
X122936000Y-93472000D03*
%TO.P,U3,24,PC1*%
%TO.N,unconnected-(U3-PC1-Pad24)*%
X122936000Y-96012000D03*
%TO.P,U3,25,PC2*%
%TO.N,unconnected-(U3-PC2-Pad25)*%
X122936000Y-98552000D03*
%TO.P,U3,26,PC3*%
%TO.N,/PC3*%
X122936000Y-101092000D03*
%TO.P,U3,27,PC4*%
%TO.N,/PC4*%
X122936000Y-103632000D03*
%TO.P,U3,28,PC5*%
%TO.N,/PC5*%
X122936000Y-106172000D03*
%TD*%
D16*
%TO.P,J5,1,Pin_1*%
%TO.N,GND*%
X143764000Y-56308000D03*
X143764000Y-51308000D03*
%TD*%
D32*
%TO.P,U1,1,UTXD*%
%TO.N,Net-(U1-UTXD)*%
X134112000Y-124460000D03*
D33*
%TO.P,U1,2,GND*%
%TO.N,GND*%
X136652000Y-124460000D03*
%TO.P,U1,3,CH_PD*%
%TO.N,unconnected-(U1-CH_PD-Pad3)*%
X134112000Y-127000000D03*
%TO.P,U1,4,GPIO2*%
%TO.N,/ESP_GPIO2*%
X136652000Y-127000000D03*
%TO.P,U1,5,RST*%
%TO.N,unconnected-(U1-RST-Pad5)*%
X134112000Y-129540000D03*
%TO.P,U1,6,GPIO0*%
%TO.N,/ESP_GPIO0*%
X136652000Y-129540000D03*
%TO.P,U1,7,VCC*%
%TO.N,+3.3V*%
X134112000Y-132080000D03*
%TO.P,U1,8,URXD*%
%TO.N,Net-(U1-URXD)*%
X136652000Y-132080000D03*
%TD*%
D26*
%TO.P,R3,1*%
%TO.N,+12V*%
X128119500Y-64008000D03*
%TO.P,R3,2*%
%TO.N,Net-(Q1-C)*%
X129944500Y-64008000D03*
%TD*%
D34*
%TO.P,J7,1,Pin_1*%
%TO.N,GND*%
X118662000Y-56886000D03*
%TO.P,J7,2,Pin_2*%
%TO.N,/RST{slash}*%
X118662000Y-55636000D03*
%TO.P,J7,3,Pin_3*%
%TO.N,/SCK*%
X118662000Y-54386000D03*
%TO.P,J7,4,Pin_4*%
%TO.N,/MOSI*%
X118662000Y-53136000D03*
%TO.P,J7,5,Pin_5*%
%TO.N,/MISO*%
X118662000Y-51886000D03*
%TO.P,J7,6,Pin_6*%
%TO.N,unconnected-(J7-Pin_6-Pad6)*%
X118662000Y-50636000D03*
D35*
%TO.P,J7,MP*%
%TO.N,N/C*%
X121412000Y-59436000D03*
X121412000Y-48086000D03*
%TD*%
D22*
%TO.P,C1,1*%
%TO.N,+5V*%
X119888000Y-120396000D03*
D23*
%TO.P,C1,2*%
%TO.N,GND*%
X121888000Y-120396000D03*
%TD*%
D36*
%TO.N,GND*%
X138684000Y-110236000D03*
D37*
X155956000Y-81788000D03*
%TO.N,/SenIN*%
X136652000Y-73152000D03*
%TO.N,/ESP_GPIO0*%
X149352000Y-129540000D03*
%TO.N,/ESP_GPIO2*%
X150876000Y-127000000D03*
D36*
%TO.N,+5V*%
X135128000Y-80264000D03*
X140208000Y-80264000D03*
X140208000Y-87376000D03*
%TO.N,GND*%
X135128000Y-70612000D03*
X129032000Y-57325500D03*
D37*
%TO.N,/SenIN*%
X137160000Y-89408000D03*
%TO.N,/RST{slash}*%
X120396000Y-55880000D03*
X137668000Y-109220000D03*
%TO.N,/MISO*%
X122936000Y-51816000D03*
%TO.N,/MOSI*%
X123952000Y-53340000D03*
%TO.N,/12V_SenIN*%
X138176000Y-77724000D03*
%TO.N,Net-(Q1-C)*%
X131572000Y-69088000D03*
X131572000Y-64008000D03*
%TO.N,/AVR_RX*%
X139700000Y-115316000D03*
%TO.N,/Sen_Ena*%
X126492000Y-64008000D03*
%TO.N,Net-(U1-URXD)*%
X145796000Y-120396000D03*
%TD*%
D38*
%TO.N,GND*%
X147828000Y-105664000D02*
X152908000Y-105664000D01*
X143256000Y-110236000D02*
X147828000Y-105664000D01*
X138684000Y-110236000D02*
X143256000Y-110236000D01*
D39*
%TO.N,/PC5*%
X121920000Y-106172000D02*
X122936000Y-106172000D01*
X119380000Y-103632000D02*
X121920000Y-106172000D01*
%TO.N,/PC4*%
X121920000Y-103632000D02*
X122936000Y-103632000D01*
X119380000Y-101092000D02*
X121920000Y-103632000D01*
%TO.N,/PC3*%
X121920000Y-101092000D02*
X122936000Y-101092000D01*
X119380000Y-98552000D02*
X121920000Y-101092000D01*
%TO.N,GND*%
X153350000Y-81788000D02*
X155956000Y-81788000D01*
X153350000Y-81788000D02*
X153350000Y-86868000D01*
%TO.N,Net-(U3-PB6{slash}XTAL1)*%
X151340000Y-86758000D02*
X151450000Y-86868000D01*
X146812000Y-86758000D02*
X151340000Y-86758000D01*
%TO.N,Net-(U3-PB7{slash}XTAL2)*%
X151360000Y-81878000D02*
X151450000Y-81788000D01*
X146812000Y-81878000D02*
X151360000Y-81878000D01*
%TO.N,/SenIN*%
X136652000Y-74168000D02*
X136652000Y-73152000D01*
X137551000Y-75067000D02*
X136652000Y-74168000D01*
X137551000Y-83703000D02*
X137551000Y-75067000D01*
X137160000Y-84094000D02*
X137551000Y-83703000D01*
X137160000Y-89408000D02*
X137160000Y-84094000D01*
%TO.N,/ESP_GPIO0*%
X149352000Y-129540000D02*
X136652000Y-129540000D01*
%TO.N,/ESP_GPIO2*%
X150876000Y-127000000D02*
X136652000Y-127000000D01*
D38*
%TO.N,+5V*%
X119888000Y-116840000D02*
X119888000Y-120396000D01*
X137668000Y-113792000D02*
X135128000Y-113792000D01*
X122936000Y-113792000D02*
X119888000Y-116840000D01*
X135128000Y-113792000D02*
X122936000Y-113792000D01*
X121652000Y-125208000D02*
X121652000Y-127406000D01*
X135128000Y-81854000D02*
X135128000Y-80264000D01*
X140998000Y-89182000D02*
X140208000Y-89182000D01*
X119888000Y-123444000D02*
X121652000Y-125208000D01*
X135128000Y-105664000D02*
X141732000Y-105664000D01*
X142748000Y-104648000D02*
X142748000Y-90932000D01*
X141732000Y-105664000D02*
X142748000Y-104648000D01*
X142748000Y-90932000D02*
X140998000Y-89182000D01*
X135128000Y-105664000D02*
X135128000Y-113792000D01*
X140208000Y-87376000D02*
X140208000Y-89182000D01*
X119888000Y-120396000D02*
X119888000Y-123444000D01*
X140208000Y-80264000D02*
X140208000Y-87376000D01*
%TO.N,GND*%
X146812000Y-124460000D02*
X152908000Y-118364000D01*
X130477500Y-57325500D02*
X135128000Y-61976000D01*
X143764000Y-51308000D02*
X143764000Y-56308000D01*
X152908000Y-116332000D02*
X152908000Y-105664000D01*
X135128000Y-87479500D02*
X135128000Y-83754000D01*
X128044888Y-118392888D02*
X128044888Y-120396000D01*
X145796000Y-116539000D02*
X152701000Y-116539000D01*
X120386000Y-56886000D02*
X118662000Y-56886000D01*
X143764000Y-56308000D02*
X148844000Y-56308000D01*
X135128000Y-78740000D02*
X135128000Y-70612000D01*
X122428000Y-117856000D02*
X127508000Y-117856000D01*
X126252000Y-127406000D02*
X126252000Y-124700000D01*
X152908000Y-118364000D02*
X152908000Y-116332000D01*
X127508000Y-117856000D02*
X128044888Y-118392888D01*
X125476000Y-90932000D02*
X128016000Y-88392000D01*
X121888000Y-120396000D02*
X121888000Y-118396000D01*
X136652000Y-83312000D02*
X136652000Y-80264000D01*
X118662000Y-56886000D02*
X118662000Y-67288000D01*
X148844000Y-51308000D02*
X148844000Y-56308000D01*
X126252000Y-124700000D02*
X128044888Y-122907112D01*
X135128000Y-83754000D02*
X136210000Y-83754000D01*
X136652000Y-124460000D02*
X146812000Y-124460000D01*
X135024500Y-87376000D02*
X135128000Y-87479500D01*
X135128000Y-61976000D02*
X135128000Y-65024000D01*
X121888000Y-118396000D02*
X122428000Y-117856000D01*
X132080000Y-88392000D02*
X133096000Y-87376000D01*
X128044888Y-122907112D02*
X128044888Y-120396000D01*
X126492000Y-57325500D02*
X120825500Y-57325500D01*
X120396000Y-69022000D02*
X123014500Y-69022000D01*
X120825500Y-57325500D02*
X120386000Y-56886000D01*
X122936000Y-90932000D02*
X125476000Y-90932000D01*
X126492000Y-57325500D02*
X130477500Y-57325500D01*
X136652000Y-80264000D02*
X135128000Y-78740000D01*
X133096000Y-87376000D02*
X135024500Y-87376000D01*
X136210000Y-83754000D02*
X136652000Y-83312000D01*
X118662000Y-67288000D02*
X120396000Y-69022000D01*
X128016000Y-88392000D02*
X130556000Y-88392000D01*
X130556000Y-88392000D02*
X132080000Y-88392000D01*
%TO.N,+3.3V*%
X123952000Y-133706000D02*
X123952000Y-127406000D01*
X128422000Y-133706000D02*
X123952000Y-133706000D01*
X123952000Y-124968000D02*
X126044888Y-122875112D01*
X130048000Y-132080000D02*
X128422000Y-133706000D01*
X126044888Y-122875112D02*
X126044888Y-120396000D01*
X134112000Y-132080000D02*
X130048000Y-132080000D01*
X123952000Y-127406000D02*
X123952000Y-124968000D01*
%TO.N,+12V*%
X129969500Y-67122000D02*
X144806000Y-67122000D01*
X144806000Y-67122000D02*
X147046000Y-69362000D01*
X128119500Y-64008000D02*
X128119500Y-66651500D01*
X147046000Y-75615000D02*
X147046000Y-69362000D01*
X128590000Y-67122000D02*
X129969500Y-67122000D01*
X147046000Y-69362000D02*
X151384000Y-65024000D01*
X151384000Y-65024000D02*
X152908000Y-65024000D01*
X128119500Y-66651500D02*
X128590000Y-67122000D01*
%TO.N,Net-(D1-A)*%
X147046000Y-65455000D02*
X147046000Y-62758000D01*
X151892000Y-61468000D02*
X152400000Y-60960000D01*
X153924000Y-56308000D02*
X153924000Y-51308000D01*
X148336000Y-61468000D02*
X151892000Y-61468000D01*
X147046000Y-62758000D02*
X148336000Y-61468000D01*
X152400000Y-60960000D02*
X152400000Y-57832000D01*
X152400000Y-57832000D02*
X153924000Y-56308000D01*
%TO.N,Net-(D2-K)*%
X141966000Y-63226000D02*
X141966000Y-65455000D01*
X133604000Y-56308000D02*
X133604000Y-58420000D01*
X133604000Y-56308000D02*
X133604000Y-51308000D01*
D39*
X130048000Y-51308000D02*
X133604000Y-51308000D01*
D38*
X141224000Y-62484000D02*
X141966000Y-63226000D01*
X135636000Y-60452000D02*
X137668000Y-62484000D01*
D39*
X129135500Y-52220500D02*
X130048000Y-51308000D01*
X126485000Y-52220500D02*
X129135500Y-52220500D01*
D38*
X137668000Y-62484000D02*
X141224000Y-62484000D01*
X133604000Y-58420000D02*
X135636000Y-60452000D01*
%TO.N,Net-(D2-A)*%
X141966000Y-75615000D02*
X139115000Y-75615000D01*
X137668000Y-69596000D02*
X136144000Y-68072000D01*
X136144000Y-68072000D02*
X128094500Y-68072000D01*
X137668000Y-74168000D02*
X137668000Y-69596000D01*
X139115000Y-75615000D02*
X137668000Y-74168000D01*
D39*
%TO.N,/SenIN*%
X134215500Y-89304500D02*
X133604000Y-89916000D01*
X139295500Y-94384500D02*
X140208000Y-93472000D01*
X133604000Y-98552000D02*
X135128000Y-97028000D01*
X130556000Y-98552000D02*
X133604000Y-98552000D01*
X135231500Y-89408000D02*
X135128000Y-89304500D01*
X134008500Y-94384500D02*
X133604000Y-93980000D01*
X137160000Y-89408000D02*
X135231500Y-89408000D01*
X135128000Y-94384500D02*
X134008500Y-94384500D01*
X133604000Y-89916000D02*
X133604000Y-93980000D01*
X140208000Y-93472000D02*
X140208000Y-92682000D01*
X135128000Y-94384500D02*
X139295500Y-94384500D01*
X135128000Y-97028000D02*
X135128000Y-94384500D01*
X135128000Y-89304500D02*
X134215500Y-89304500D01*
%TO.N,/RST{slash}*%
X137668000Y-109220000D02*
X137668000Y-111967000D01*
X120396000Y-55880000D02*
X118906000Y-55880000D01*
X118906000Y-55880000D02*
X118662000Y-55636000D01*
%TO.N,/MISO*%
X122936000Y-51816000D02*
X122866000Y-51886000D01*
X122866000Y-51886000D02*
X118662000Y-51886000D01*
%TO.N,/MOSI*%
X122936000Y-53340000D02*
X122732000Y-53136000D01*
X123952000Y-53340000D02*
X122936000Y-53340000D01*
X122732000Y-53136000D02*
X118662000Y-53136000D01*
%TO.N,/SCK*%
X117348000Y-55050000D02*
X117348000Y-80772000D01*
X117348000Y-80772000D02*
X119888000Y-83312000D01*
X119888000Y-83312000D02*
X122936000Y-83312000D01*
X118012000Y-54386000D02*
X117348000Y-55050000D01*
X118662000Y-54386000D02*
X118012000Y-54386000D01*
%TO.N,/AVR_TX*%
X141732000Y-112776000D02*
X143256000Y-112776000D01*
X144065000Y-111967000D02*
X143764000Y-112268000D01*
X143256000Y-112776000D02*
X143764000Y-112268000D01*
X145796000Y-111967000D02*
X144065000Y-111967000D01*
%TO.N,/12V_SenIN*%
X138176000Y-90424000D02*
X138176000Y-77724000D01*
X137056500Y-92559500D02*
X138176000Y-91440000D01*
D38*
X138684000Y-51308000D02*
X138684000Y-56308000D01*
D39*
X138176000Y-91440000D02*
X138176000Y-90424000D01*
X135128000Y-92559500D02*
X137056500Y-92559500D01*
%TO.N,Net-(Q1-B)*%
X123014500Y-64033000D02*
X123039500Y-64008000D01*
X123014500Y-67122000D02*
X123014500Y-64033000D01*
%TO.N,Net-(Q1-C)*%
X131572000Y-64008000D02*
X129944500Y-64008000D01*
X124889500Y-68072000D02*
X125984000Y-68072000D01*
X129969500Y-69022000D02*
X131506000Y-69022000D01*
X128016000Y-69088000D02*
X128082000Y-69022000D01*
X127000000Y-69088000D02*
X128016000Y-69088000D01*
X125984000Y-68072000D02*
X127000000Y-69088000D01*
X131506000Y-69022000D02*
X131572000Y-69088000D01*
X128082000Y-69022000D02*
X129969500Y-69022000D01*
%TO.N,/AVR_RX*%
X139700000Y-115316000D02*
X140612500Y-115316000D01*
X140612500Y-115316000D02*
X141732000Y-116435500D01*
%TO.N,Net-(U1-UTXD)*%
X141732000Y-118260500D02*
X136755500Y-118260500D01*
X134112000Y-120904000D02*
X134112000Y-124460000D01*
X136755500Y-118260500D02*
X134112000Y-120904000D01*
%TO.N,/Sen_Ena*%
X126492000Y-64008000D02*
X124864500Y-64008000D01*
%TO.N,Net-(U1-URXD)*%
X145796000Y-113792000D02*
X144780000Y-113792000D01*
X144780000Y-118364000D02*
X145796000Y-118364000D01*
X144780000Y-113792000D02*
X144272000Y-114300000D01*
X145796000Y-120396000D02*
X145796000Y-118364000D01*
X144272000Y-114300000D02*
X144272000Y-117856000D01*
X144272000Y-117856000D02*
X144780000Y-118364000D01*
%TO.N,Net-(D3-A)*%
X126492000Y-55450500D02*
X124968000Y-53926500D01*
X124968000Y-53926500D02*
X124968000Y-51816000D01*
X126485000Y-50395500D02*
X126388500Y-50395500D01*
X126388500Y-50395500D02*
X124968000Y-51816000D01*
%TD*%
%TA.AperFunction,Conductor*%
%TO.N,GND*%
G36*
X158172539Y-45147185D02*
G01*
X158218294Y-45199989D01*
X158229500Y-45251500D01*
X158229500Y-136966500D01*
X158209815Y-137033539D01*
X158157011Y-137079294D01*
X158105500Y-137090500D01*
X114650500Y-137090500D01*
X114583461Y-137070815D01*
X114537706Y-137018011D01*
X114526500Y-136966500D01*
X114526500Y-80833611D01*
X116722500Y-80833611D01*
X116746535Y-80954444D01*
X116746540Y-80954461D01*
X116793685Y-81068280D01*
X116793690Y-81068289D01*
X116827914Y-81119507D01*
X116827915Y-81119509D01*
X116862140Y-81170731D01*
X116862141Y-81170732D01*
X116862142Y-81170733D01*
X116949267Y-81257858D01*
X116949268Y-81257858D01*
X116956335Y-81264925D01*
X116956334Y-81264925D01*
X116956338Y-81264928D01*
X119489262Y-83797854D01*
X119489265Y-83797857D01*
X119557411Y-83843390D01*
X119591714Y-83866311D01*
X119705548Y-83913463D01*
X119826388Y-83937499D01*
X119826392Y-83937500D01*
X119826393Y-83937500D01*
X119826394Y-83937500D01*
X121721812Y-83937500D01*
X121788851Y-83957185D01*
X121823387Y-83990377D01*
X121935954Y-84151141D01*
X122096858Y-84312045D01*
X122143693Y-84344839D01*
X122283266Y-84442568D01*
X122341275Y-84469618D01*
X122393714Y-84515791D01*
X122412866Y-84582984D01*
X122392650Y-84649865D01*
X122341275Y-84694382D01*
X122283267Y-84721431D01*
X122283265Y-84721432D01*
X122096858Y-84851954D01*
X121935954Y-85012858D01*
X121805432Y-85199265D01*
X121805431Y-85199267D01*
X121709261Y-85405502D01*
X121709258Y-85405511D01*
X121650366Y-85625302D01*
X121650364Y-85625313D01*
X121630532Y-85851998D01*
X121630532Y-85852001D01*
X121650364Y-86078686D01*
X121650366Y-86078697D01*
X121709258Y-86298488D01*
X121709261Y-86298497D01*
X121805431Y-86504732D01*
X121805432Y-86504734D01*
X121935954Y-86691141D01*
X122096858Y-86852045D01*
X122096861Y-86852047D01*
X122283266Y-86982568D01*
X122341275Y-87009618D01*
X122393714Y-87055791D01*
X122412866Y-87122984D01*
X122392650Y-87189865D01*
X122341275Y-87234382D01*
X122283267Y-87261431D01*
X122283265Y-87261432D01*
X122096858Y-87391954D01*
X121935954Y-87552858D01*
X121805432Y-87739265D01*
X121805431Y-87739267D01*
X121709261Y-87945502D01*
X121709258Y-87945511D01*
X121650366Y-88165302D01*
X121650364Y-88165313D01*
X121630532Y-88391998D01*
X121630532Y-88392001D01*
X121650364Y-88618686D01*
X121650366Y-88618697D01*
X121709258Y-88838488D01*
X121709261Y-88838497D01*
X121805431Y-89044732D01*
X121805432Y-89044734D01*
X121935954Y-89231141D01*
X122096858Y-89392045D01*
X122096861Y-89392047D01*
X122283266Y-89522568D01*
X122341865Y-89549893D01*
X122394305Y-89596065D01*
X122413457Y-89663258D01*
X122393242Y-89730139D01*
X122341867Y-89774657D01*
X122283515Y-89801867D01*
X122097179Y-89932342D01*
X121936342Y-90093179D01*
X121805865Y-90279517D01*
X121709734Y-90485673D01*
X121709730Y-90485682D01*
X121657127Y-90681999D01*
X121657128Y-90682000D01*
X122620314Y-90682000D01*
X122615920Y-90686394D01*
X122563259Y-90777606D01*
X122536000Y-90879339D01*
X122536000Y-90984661D01*
X122563259Y-91086394D01*
X122615920Y-91177606D01*
X122620314Y-91182000D01*
X121657128Y-91182000D01*
X121709730Y-91378317D01*
X121709734Y-91378326D01*
X121805865Y-91584482D01*
X121936342Y-91770820D01*
X122097179Y-91931657D01*
X122283518Y-92062134D01*
X122283520Y-92062135D01*
X122341865Y-92089342D01*
X122394305Y-92135514D01*
X122413457Y-92202707D01*
X122393242Y-92269589D01*
X122341867Y-92314105D01*
X122283268Y-92341431D01*
X122283264Y-92341433D01*
X122096858Y-92471954D01*
X121935954Y-92632858D01*
X121805432Y-92819265D01*
X121805431Y-92819267D01*
X121709261Y-93025502D01*
X121709258Y-93025511D01*
X121650366Y-93245302D01*
X121650364Y-93245313D01*
X121630532Y-93471998D01*
X121630532Y-93472001D01*
X121650364Y-93698686D01*
X121650366Y-93698697D01*
X121709258Y-93918488D01*
X121709261Y-93918497D01*
X121805431Y-94124732D01*
X121805432Y-94124734D01*
X121935954Y-94311141D01*
X122096858Y-94472045D01*
X122096861Y-94472047D01*
X122283266Y-94602568D01*
X122341275Y-94629618D01*
X122393714Y-94675791D01*
X122412866Y-94742984D01*
X122392650Y-94809865D01*
X122341275Y-94854382D01*
X122283267Y-94881431D01*
X122283265Y-94881432D01*
X122096858Y-95011954D01*
X121935954Y-95172858D01*
X121805432Y-95359265D01*
X121805431Y-95359267D01*
X121709261Y-95565502D01*
X121709258Y-95565511D01*
X121650366Y-95785302D01*
X121650364Y-95785313D01*
X121630532Y-96011998D01*
X121630532Y-96012001D01*
X121650364Y-96238686D01*
X121650366Y-96238697D01*
X121709258Y-96458488D01*
X121709261Y-96458497D01*
X121805431Y-96664732D01*
X121805432Y-96664734D01*
X121935954Y-96851141D01*
X122096858Y-97012045D01*
X122096861Y-97012047D01*
X122283266Y-97142568D01*
X122341275Y-97169618D01*
X122393714Y-97215791D01*
X122412866Y-97282984D01*
X122392650Y-97349865D01*
X122341275Y-97394382D01*
X122283267Y-97421431D01*
X122283265Y-97421432D01*
X122096858Y-97551954D01*
X121935954Y-97712858D01*
X121805432Y-97899265D01*
X121805431Y-97899267D01*
X121709261Y-98105502D01*
X121709258Y-98105511D01*
X121650366Y-98325302D01*
X121650364Y-98325313D01*
X121630532Y-98551998D01*
X121630532Y-98552001D01*
X121650364Y-98778686D01*
X121650366Y-98778697D01*
X121709258Y-98998488D01*
X121709261Y-98998497D01*
X121805431Y-99204732D01*
X121805432Y-99204734D01*
X121935954Y-99391141D01*
X122096858Y-99552045D01*
X122096861Y-99552047D01*
X122283266Y-99682568D01*
X122341275Y-99709618D01*
X122393714Y-99755791D01*
X122412866Y-99822984D01*
X122392650Y-99889865D01*
X122341275Y-99934382D01*
X122283267Y-99961431D01*
X122283265Y-99961432D01*
X122096861Y-100091952D01*
X122038381Y-100150431D01*
X121977057Y-100183915D01*
X121907366Y-100178929D01*
X121863020Y-100150429D01*
X120720237Y-99007647D01*
X120686752Y-98946324D01*
X120688143Y-98887872D01*
X120704200Y-98827947D01*
X120715063Y-98787408D01*
X120735659Y-98552000D01*
X120715063Y-98316592D01*
X120653903Y-98088337D01*
X120554035Y-97874171D01*
X120553652Y-97873623D01*
X120418494Y-97680597D01*
X120251402Y-97513506D01*
X120251396Y-97513501D01*
X120065842Y-97383575D01*
X120022217Y-97328998D01*
X120015023Y-97259500D01*
X120046546Y-97197145D01*
X120065842Y-97180425D01*
X120119909Y-97142567D01*
X120251401Y-97050495D01*
X120418495Y-96883401D01*
X120554035Y-96689830D01*
X120653903Y-96475663D01*
X120715063Y-96247408D01*
X120735659Y-96012000D01*
X120715063Y-95776592D01*
X120653903Y-95548337D01*
X120554035Y-95334171D01*
X120552386Y-95331815D01*
X120418494Y-95140597D01*
X120251402Y-94973506D01*
X120251395Y-94973501D01*
X120249471Y-94972154D01*
X120152976Y-94904587D01*
X120057834Y-94837967D01*
X120057830Y-94837965D01*
X120057828Y-94837964D01*
X119843663Y-94738097D01*
X119843659Y-94738096D01*
X119843655Y-94738094D01*
X119615413Y-94676938D01*
X119615403Y-94676936D01*
X119380001Y-94656341D01*
X119379999Y-94656341D01*
X119144596Y-94676936D01*
X119144586Y-94676938D01*
X118916344Y-94738094D01*
X118916335Y-94738098D01*
X118702171Y-94837964D01*
X118702169Y-94837965D01*
X118508597Y-94973505D01*
X118341505Y-95140597D01*
X118205965Y-95334169D01*
X118205964Y-95334171D01*
X118106098Y-95548335D01*
X118106094Y-95548344D01*
X118044938Y-95776586D01*
X118044936Y-95776596D01*
X118024341Y-96011999D01*
X118024341Y-96012000D01*
X118044936Y-96247403D01*
X118044938Y-96247413D01*
X118106094Y-96475655D01*
X118106096Y-96475659D01*
X118106097Y-96475663D01*
X118194262Y-96664732D01*
X118205965Y-96689830D01*
X118205967Y-96689834D01*
X118341501Y-96883395D01*
X118341506Y-96883402D01*
X118508597Y-97050493D01*
X118508603Y-97050498D01*
X118694158Y-97180425D01*
X118737783Y-97235002D01*
X118744977Y-97304500D01*
X118713454Y-97366855D01*
X118694158Y-97383575D01*
X118508597Y-97513505D01*
X118341505Y-97680597D01*
X118205965Y-97874169D01*
X118205964Y-97874171D01*
X118106098Y-98088335D01*
X118106094Y-98088344D01*
X118044938Y-98316586D01*
X118044936Y-98316596D01*
X118024341Y-98551999D01*
X118024341Y-98552000D01*
X118044936Y-98787403D01*
X118044938Y-98787413D01*
X118106094Y-99015655D01*
X118106096Y-99015659D01*
X118106097Y-99015663D01*
X118187268Y-99189735D01*
X118205965Y-99229830D01*
X118205967Y-99229834D01*
X118341501Y-99423395D01*
X118341506Y-99423402D01*
X118508597Y-99590493D01*
X118508603Y-99590498D01*
X118694158Y-99720425D01*
X118737783Y-99775002D01*
X118744977Y-99844500D01*
X118713454Y-99906855D01*
X118694158Y-99923575D01*
X118508597Y-100053505D01*
X118341505Y-100220597D01*
X118205965Y-100414169D01*
X118205964Y-100414171D01*
X118106098Y-100628335D01*
X118106094Y-100628344D01*
X118044938Y-100856586D01*
X118044936Y-100856596D01*
X118024341Y-101091999D01*
X118024341Y-101092000D01*
X118044936Y-101327403D01*
X118044938Y-101327413D01*
X118106094Y-101555655D01*
X118106096Y-101555659D01*
X118106097Y-101555663D01*
X118171991Y-101696972D01*
X118205965Y-101769830D01*
X118205967Y-101769834D01*
X118341501Y-101963395D01*
X118341506Y-101963402D01*
X118508597Y-102130493D01*
X118508603Y-102130498D01*
X118694158Y-102260425D01*
X118737783Y-102315002D01*
X118744977Y-102384500D01*
X118713454Y-102446855D01*
X118694158Y-102463575D01*
X118508597Y-102593505D01*
X118341505Y-102760597D01*
X118205965Y-102954169D01*
X118205964Y-102954171D01*
X118106098Y-103168335D01*
X118106094Y-103168344D01*
X118044938Y-103396586D01*
X118044936Y-103396596D01*
X118024341Y-103631999D01*
X118024341Y-103632000D01*
X118044936Y-103867403D01*
X118044938Y-103867413D01*
X118106094Y-104095655D01*
X118106096Y-104095659D01*
X118106097Y-104095663D01*
X118171991Y-104236972D01*
X118205965Y-104309830D01*
X118205967Y-104309834D01*
X118341501Y-104503395D01*
X118341506Y-104503402D01*
X118463818Y-104625714D01*
X118497303Y-104687037D01*
X118492319Y-104756729D01*
X118450447Y-104812662D01*
X118419471Y-104829577D01*
X118287912Y-104878646D01*
X118287906Y-104878649D01*
X118172812Y-104964809D01*
X118172809Y-104964812D01*
X118086649Y-105079906D01*
X118086645Y-105079913D01*
X118036403Y-105214620D01*
X118036401Y-105214627D01*
X118030000Y-105274155D01*
X118030000Y-105922000D01*
X118946988Y-105922000D01*
X118914075Y-105979007D01*
X118880000Y-106106174D01*
X118880000Y-106237826D01*
X118914075Y-106364993D01*
X118946988Y-106422000D01*
X118030000Y-106422000D01*
X118030000Y-107069844D01*
X118036401Y-107129372D01*
X118036403Y-107129379D01*
X118086645Y-107264086D01*
X118086649Y-107264093D01*
X118172809Y-107379187D01*
X118172812Y-107379190D01*
X118287906Y-107465350D01*
X118287913Y-107465354D01*
X118422620Y-107515596D01*
X118422627Y-107515598D01*
X118482155Y-107521999D01*
X118482172Y-107522000D01*
X119130000Y-107522000D01*
X119130000Y-106605012D01*
X119187007Y-106637925D01*
X119314174Y-106672000D01*
X119445826Y-106672000D01*
X119572993Y-106637925D01*
X119630000Y-106605012D01*
X119630000Y-107522000D01*
X120277828Y-107522000D01*
X120277844Y-107521999D01*
X120337372Y-107515598D01*
X120337379Y-107515596D01*
X120472086Y-107465354D01*
X120472093Y-107465350D01*
X120587187Y-107379190D01*
X120587190Y-107379187D01*
X120673350Y-107264093D01*
X120673354Y-107264086D01*
X120723596Y-107129379D01*
X120723598Y-107129372D01*
X120729999Y-107069844D01*
X120730000Y-107069827D01*
X120730000Y-106422000D01*
X119813012Y-106422000D01*
X119845925Y-106364993D01*
X119880000Y-106237826D01*
X119880000Y-106106174D01*
X119845925Y-105979007D01*
X119813012Y-105922000D01*
X120734048Y-105922000D01*
X120801087Y-105941685D01*
X120821725Y-105958316D01*
X121434141Y-106570732D01*
X121434142Y-106570733D01*
X121481897Y-106618488D01*
X121521268Y-106657859D01*
X121623707Y-106726307D01*
X121623716Y-106726312D01*
X121743176Y-106775794D01*
X121742687Y-106776972D01*
X121795583Y-106811629D01*
X121802733Y-106820880D01*
X121935954Y-107011141D01*
X122096858Y-107172045D01*
X122096861Y-107172047D01*
X122283266Y-107302568D01*
X122489504Y-107398739D01*
X122709308Y-107457635D01*
X122871230Y-107471801D01*
X122935998Y-107477468D01*
X122936000Y-107477468D01*
X122936002Y-107477468D01*
X122992807Y-107472498D01*
X123162692Y-107457635D01*
X123382496Y-107398739D01*
X123588734Y-107302568D01*
X123775139Y-107172047D01*
X123936047Y-107011139D01*
X124066568Y-106824734D01*
X124162739Y-106618496D01*
X124221635Y-106398692D01*
X124240128Y-106187313D01*
X124241468Y-106172001D01*
X124241468Y-106171998D01*
X124233275Y-106078351D01*
X124221635Y-105945308D01*
X124162739Y-105725504D01*
X124066568Y-105519266D01*
X123936047Y-105332861D01*
X123936045Y-105332858D01*
X123775141Y-105171954D01*
X123588734Y-105041432D01*
X123588728Y-105041429D01*
X123561038Y-105028517D01*
X123530724Y-105014381D01*
X123478285Y-104968210D01*
X123459133Y-104901017D01*
X123479348Y-104834135D01*
X123530725Y-104789618D01*
X123588734Y-104762568D01*
X123775139Y-104632047D01*
X123936047Y-104471139D01*
X124066568Y-104284734D01*
X124162739Y-104078496D01*
X124221635Y-103858692D01*
X124241468Y-103632000D01*
X124221635Y-103405308D01*
X124162739Y-103185504D01*
X124066568Y-102979266D01*
X123936047Y-102792861D01*
X123936045Y-102792858D01*
X123775141Y-102631954D01*
X123588734Y-102501432D01*
X123588728Y-102501429D01*
X123530725Y-102474382D01*
X123478285Y-102428210D01*
X123459133Y-102361017D01*
X123479348Y-102294135D01*
X123530725Y-102249618D01*
X123535859Y-102247224D01*
X123588734Y-102222568D01*
X123775139Y-102092047D01*
X123936047Y-101931139D01*
X124066568Y-101744734D01*
X124162739Y-101538496D01*
X124221635Y-101318692D01*
X124241468Y-101092000D01*
X124221635Y-100865308D01*
X124162739Y-100645504D01*
X124066568Y-100439266D01*
X123936047Y-100252861D01*
X123936045Y-100252858D01*
X123775141Y-100091954D01*
X123588734Y-99961432D01*
X123588728Y-99961429D01*
X123530725Y-99934382D01*
X123478285Y-99888210D01*
X123459133Y-99821017D01*
X123479348Y-99754135D01*
X123530725Y-99709618D01*
X123588734Y-99682568D01*
X123775139Y-99552047D01*
X123936047Y-99391139D01*
X124066568Y-99204734D01*
X124162739Y-98998496D01*
X124221635Y-98778692D01*
X124241468Y-98552000D01*
X124221635Y-98325308D01*
X124162739Y-98105504D01*
X124066568Y-97899266D01*
X123936047Y-97712861D01*
X123936045Y-97712858D01*
X123775141Y-97551954D01*
X123588734Y-97421432D01*
X123588728Y-97421429D01*
X123530725Y-97394382D01*
X123478285Y-97348210D01*
X123459133Y-97281017D01*
X123479348Y-97214135D01*
X123530725Y-97169618D01*
X123588734Y-97142568D01*
X123775139Y-97012047D01*
X123936047Y-96851139D01*
X124066568Y-96664734D01*
X124162739Y-96458496D01*
X124221635Y-96238692D01*
X124241468Y-96012000D01*
X124221635Y-95785308D01*
X124162739Y-95565504D01*
X124066568Y-95359266D01*
X123936047Y-95172861D01*
X123936045Y-95172858D01*
X123775141Y-95011954D01*
X123588734Y-94881432D01*
X123588728Y-94881429D01*
X123530725Y-94854382D01*
X123478285Y-94808210D01*
X123459133Y-94741017D01*
X123479348Y-94674135D01*
X123530725Y-94629618D01*
X123588734Y-94602568D01*
X123775139Y-94472047D01*
X123936047Y-94311139D01*
X124066568Y-94124734D01*
X124162739Y-93918496D01*
X124221635Y-93698692D01*
X124241468Y-93472000D01*
X124221635Y-93245308D01*
X124162739Y-93025504D01*
X124066568Y-92819266D01*
X123936047Y-92632861D01*
X123936045Y-92632858D01*
X123775141Y-92471954D01*
X123588734Y-92341432D01*
X123588732Y-92341431D01*
X123530725Y-92314382D01*
X123530132Y-92314105D01*
X123477694Y-92267934D01*
X123458542Y-92200740D01*
X123478758Y-92133859D01*
X123530134Y-92089341D01*
X123588484Y-92062132D01*
X123774820Y-91931657D01*
X123935657Y-91770820D01*
X124066134Y-91584482D01*
X124162265Y-91378326D01*
X124162269Y-91378317D01*
X124214872Y-91182000D01*
X123251686Y-91182000D01*
X123256080Y-91177606D01*
X123308741Y-91086394D01*
X123336000Y-90984661D01*
X123336000Y-90879339D01*
X123308741Y-90777606D01*
X123256080Y-90686394D01*
X123251686Y-90682000D01*
X124214872Y-90682000D01*
X124214872Y-90681999D01*
X124162269Y-90485682D01*
X124162265Y-90485673D01*
X124066134Y-90279517D01*
X123935657Y-90093179D01*
X123774820Y-89932342D01*
X123588482Y-89801865D01*
X123530133Y-89774657D01*
X123477694Y-89728484D01*
X123458542Y-89661291D01*
X123478758Y-89594410D01*
X123530129Y-89549895D01*
X123588734Y-89522568D01*
X123775139Y-89392047D01*
X123936047Y-89231139D01*
X124066568Y-89044734D01*
X124162739Y-88838496D01*
X124221635Y-88618692D01*
X124241468Y-88392000D01*
X124221635Y-88165308D01*
X124162739Y-87945504D01*
X124066568Y-87739266D01*
X123949541Y-87572132D01*
X123936045Y-87552858D01*
X123775141Y-87391954D01*
X123588734Y-87261432D01*
X123588728Y-87261429D01*
X123530725Y-87234382D01*
X123478285Y-87188210D01*
X123459133Y-87121017D01*
X123479348Y-87054135D01*
X123530725Y-87009618D01*
X123588734Y-86982568D01*
X123775139Y-86852047D01*
X123936047Y-86691139D01*
X124066568Y-86504734D01*
X124162739Y-86298496D01*
X124221635Y-86078692D01*
X124241468Y-85852000D01*
X124221635Y-85625308D01*
X124162739Y-85405504D01*
X124066568Y-85199266D01*
X123936047Y-85012861D01*
X123936045Y-85012858D01*
X123775141Y-84851954D01*
X123588734Y-84721432D01*
X123588728Y-84721429D01*
X123530725Y-84694382D01*
X123478285Y-84648210D01*
X123459133Y-84581017D01*
X123479348Y-84514135D01*
X123530725Y-84469618D01*
X123588734Y-84442568D01*
X123775139Y-84312047D01*
X123936047Y-84151139D01*
X124066568Y-83964734D01*
X124162739Y-83758496D01*
X124221635Y-83538692D01*
X124241468Y-83312000D01*
X124221635Y-83085308D01*
X124162739Y-82865504D01*
X124066568Y-82659266D01*
X123958998Y-82505639D01*
X123936045Y-82472858D01*
X123775141Y-82311954D01*
X123588734Y-82181432D01*
X123588728Y-82181429D01*
X123530725Y-82154382D01*
X123478285Y-82108210D01*
X123459133Y-82041017D01*
X123479348Y-81974135D01*
X123530725Y-81929618D01*
X123588734Y-81902568D01*
X123775139Y-81772047D01*
X123936047Y-81611139D01*
X124066568Y-81424734D01*
X124162739Y-81218496D01*
X124221635Y-80998692D01*
X124241468Y-80772000D01*
X124221635Y-80545308D01*
X124162739Y-80325504D01*
X124066568Y-80119266D01*
X123936047Y-79932861D01*
X123936045Y-79932858D01*
X123775141Y-79771954D01*
X123588734Y-79641432D01*
X123588728Y-79641429D01*
X123530725Y-79614382D01*
X123478285Y-79568210D01*
X123459133Y-79501017D01*
X123479348Y-79434135D01*
X123530725Y-79389618D01*
X123588734Y-79362568D01*
X123775139Y-79232047D01*
X123936047Y-79071139D01*
X124066568Y-78884734D01*
X124162739Y-78678496D01*
X124221635Y-78458692D01*
X124241468Y-78232000D01*
X124238920Y-78202881D01*
X124221635Y-78005313D01*
X124221635Y-78005308D01*
X124162739Y-77785504D01*
X124066568Y-77579266D01*
X123936047Y-77392861D01*
X123936045Y-77392858D01*
X123775141Y-77231954D01*
X123588734Y-77101432D01*
X123588728Y-77101429D01*
X123530725Y-77074382D01*
X123478285Y-77028210D01*
X123459133Y-76961017D01*
X123479348Y-76894135D01*
X123530725Y-76849618D01*
X123537980Y-76846235D01*
X123588734Y-76822568D01*
X123775139Y-76692047D01*
X123936047Y-76531139D01*
X124066568Y-76344734D01*
X124162739Y-76138496D01*
X124221635Y-75918692D01*
X124241468Y-75692000D01*
X124221635Y-75465308D01*
X124162739Y-75245504D01*
X124066568Y-75039266D01*
X123936047Y-74852861D01*
X123936045Y-74852858D01*
X123775141Y-74691954D01*
X123588734Y-74561432D01*
X123588728Y-74561429D01*
X123530725Y-74534382D01*
X123478285Y-74488210D01*
X123459133Y-74421017D01*
X123479348Y-74354135D01*
X123530725Y-74309618D01*
X123588734Y-74282568D01*
X123775139Y-74152047D01*
X123936047Y-73991139D01*
X124066568Y-73804734D01*
X124162739Y-73598496D01*
X124221635Y-73378692D01*
X124241468Y-73152000D01*
X124221635Y-72925308D01*
X124162739Y-72705504D01*
X124066568Y-72499266D01*
X123936047Y-72312861D01*
X123936045Y-72312858D01*
X123775141Y-72151954D01*
X123588734Y-72021432D01*
X123588732Y-72021431D01*
X123382497Y-71925261D01*
X123382488Y-71925258D01*
X123162697Y-71866366D01*
X123162693Y-71866365D01*
X123162692Y-71866365D01*
X123162691Y-71866364D01*
X123162686Y-71866364D01*
X122936002Y-71846532D01*
X122935998Y-71846532D01*
X122709313Y-71866364D01*
X122709302Y-71866366D01*
X122489511Y-71925258D01*
X122489502Y-71925261D01*
X122283267Y-72021431D01*
X122283265Y-72021432D01*
X122096858Y-72151954D01*
X121935954Y-72312858D01*
X121805432Y-72499265D01*
X121805431Y-72499267D01*
X121709261Y-72705502D01*
X121709258Y-72705511D01*
X121650366Y-72925302D01*
X121650364Y-72925313D01*
X121630532Y-73151998D01*
X121630532Y-73152001D01*
X121650364Y-73378686D01*
X121650366Y-73378697D01*
X121709258Y-73598488D01*
X121709261Y-73598497D01*
X121805431Y-73804732D01*
X121805432Y-73804734D01*
X121935954Y-73991141D01*
X122096858Y-74152045D01*
X122096861Y-74152047D01*
X122283266Y-74282568D01*
X122341275Y-74309618D01*
X122393714Y-74355791D01*
X122412866Y-74422984D01*
X122392650Y-74489865D01*
X122341275Y-74534382D01*
X122283267Y-74561431D01*
X122283265Y-74561432D01*
X122096858Y-74691954D01*
X121935954Y-74852858D01*
X121805432Y-75039265D01*
X121805431Y-75039267D01*
X121709261Y-75245502D01*
X121709258Y-75245511D01*
X121650366Y-75465302D01*
X121650364Y-75465313D01*
X121630532Y-75691998D01*
X121630532Y-75692001D01*
X121650364Y-75918686D01*
X121650366Y-75918697D01*
X121709258Y-76138488D01*
X121709261Y-76138497D01*
X121805431Y-76344732D01*
X121805432Y-76344734D01*
X121935954Y-76531141D01*
X122096858Y-76692045D01*
X122096861Y-76692047D01*
X122283266Y-76822568D01*
X122334020Y-76846235D01*
X122341275Y-76849618D01*
X122393714Y-76895791D01*
X122412866Y-76962984D01*
X122392650Y-77029865D01*
X122341275Y-77074382D01*
X122283267Y-77101431D01*
X122283265Y-77101432D01*
X122096858Y-77231954D01*
X121935954Y-77392858D01*
X121805432Y-77579265D01*
X121805431Y-77579267D01*
X121709261Y-77785502D01*
X121709258Y-77785511D01*
X121650366Y-78005302D01*
X121650364Y-78005313D01*
X121630532Y-78231998D01*
X121630532Y-78232001D01*
X121650364Y-78458686D01*
X121650366Y-78458697D01*
X121709258Y-78678488D01*
X121709261Y-78678497D01*
X121805431Y-78884732D01*
X121805432Y-78884734D01*
X121935954Y-79071141D01*
X122096858Y-79232045D01*
X122096861Y-79232047D01*
X122283266Y-79362568D01*
X122341275Y-79389618D01*
X122393714Y-79435791D01*
X122412866Y-79502984D01*
X122392650Y-79569865D01*
X122341275Y-79614382D01*
X122283267Y-79641431D01*
X122283265Y-79641432D01*
X122096858Y-79771954D01*
X121935954Y-79932858D01*
X121805432Y-80119265D01*
X121805431Y-80119267D01*
X121709261Y-80325502D01*
X121709258Y-80325511D01*
X121650366Y-80545302D01*
X121650364Y-80545313D01*
X121630532Y-80771998D01*
X121630532Y-80772001D01*
X121650364Y-80998686D01*
X121650366Y-80998697D01*
X121709258Y-81218488D01*
X121709261Y-81218497D01*
X121805431Y-81424732D01*
X121805432Y-81424734D01*
X121935954Y-81611141D01*
X122096858Y-81772045D01*
X122096861Y-81772047D01*
X122283266Y-81902568D01*
X122341275Y-81929618D01*
X122393714Y-81975791D01*
X122412866Y-82042984D01*
X122392650Y-82109865D01*
X122341275Y-82154382D01*
X122283267Y-82181431D01*
X122283265Y-82181432D01*
X122096858Y-82311954D01*
X121935954Y-82472858D01*
X121823387Y-82633623D01*
X121768811Y-82677248D01*
X121721812Y-82686500D01*
X120198453Y-82686500D01*
X120131414Y-82666815D01*
X120110772Y-82650181D01*
X118009819Y-80549228D01*
X117976334Y-80487905D01*
X117973500Y-80461547D01*
X117973500Y-69272001D01*
X121779704Y-69272001D01*
X121779899Y-69274486D01*
X121825718Y-69432198D01*
X121909314Y-69573552D01*
X121909321Y-69573561D01*
X122025438Y-69689678D01*
X122025447Y-69689685D01*
X122166803Y-69773282D01*
X122166806Y-69773283D01*
X122324504Y-69819099D01*
X122324510Y-69819100D01*
X122361350Y-69821999D01*
X122361366Y-69822000D01*
X122764500Y-69822000D01*
X122764500Y-69272000D01*
X123264500Y-69272000D01*
X123264500Y-69822000D01*
X123667634Y-69822000D01*
X123667649Y-69821999D01*
X123704489Y-69819100D01*
X123704495Y-69819099D01*
X123862193Y-69773283D01*
X123862196Y-69773282D01*
X124003552Y-69689685D01*
X124003561Y-69689678D01*
X124119678Y-69573561D01*
X124119685Y-69573552D01*
X124203281Y-69432198D01*
X124249100Y-69274486D01*
X124249295Y-69272001D01*
X124249295Y-69272000D01*
X123264500Y-69272000D01*
X122764500Y-69272000D01*
X121779705Y-69272000D01*
X121779704Y-69272001D01*
X117973500Y-69272001D01*
X117973500Y-68771998D01*
X121779704Y-68771998D01*
X121779705Y-68772000D01*
X122764500Y-68772000D01*
X122764500Y-68222000D01*
X122361350Y-68222000D01*
X122324510Y-68224899D01*
X122324504Y-68224900D01*
X122166806Y-68270716D01*
X122166803Y-68270717D01*
X122025447Y-68354314D01*
X122025438Y-68354321D01*
X121909321Y-68470438D01*
X121909314Y-68470447D01*
X121825718Y-68611801D01*
X121779899Y-68769513D01*
X121779704Y-68771998D01*
X117973500Y-68771998D01*
X117973500Y-60286015D01*
X119411500Y-60286015D01*
X119422000Y-60388795D01*
X119422001Y-60388796D01*
X119477186Y-60555335D01*
X119477187Y-60555337D01*
X119569286Y-60704651D01*
X119569289Y-60704655D01*
X119693344Y-60828710D01*
X119693348Y-60828713D01*
X119842662Y-60920812D01*
X119842664Y-60920813D01*
X119842666Y-60920814D01*
X120009203Y-60975999D01*
X120111992Y-60986500D01*
X120111997Y-60986500D01*
X122712003Y-60986500D01*
X122712008Y-60986500D01*
X122814797Y-60975999D01*
X122981334Y-60920814D01*
X123130655Y-60828711D01*
X123254711Y-60704655D01*
X123346814Y-60555334D01*
X123401999Y-60388797D01*
X123412500Y-60286008D01*
X123412500Y-58585992D01*
X123401999Y-58483203D01*
X123346814Y-58316666D01*
X123344552Y-58312999D01*
X123254713Y-58167348D01*
X123254710Y-58167344D01*
X123130655Y-58043289D01*
X123130651Y-58043286D01*
X122981337Y-57951187D01*
X122981335Y-57951186D01*
X122860589Y-57911175D01*
X122814797Y-57896001D01*
X122814795Y-57896000D01*
X122712015Y-57885500D01*
X122712008Y-57885500D01*
X120111992Y-57885500D01*
X120111984Y-57885500D01*
X120009204Y-57896000D01*
X120009203Y-57896001D01*
X119842664Y-57951186D01*
X119842662Y-57951187D01*
X119693348Y-58043286D01*
X119693344Y-58043289D01*
X119569289Y-58167344D01*
X119569286Y-58167348D01*
X119477187Y-58316662D01*
X119477186Y-58316664D01*
X119422001Y-58483203D01*
X119422000Y-58483204D01*
X119411500Y-58585984D01*
X119411500Y-60286015D01*
X117973500Y-60286015D01*
X117973500Y-57905246D01*
X117993185Y-57838207D01*
X118045989Y-57792452D01*
X118108724Y-57781755D01*
X118155431Y-57785999D01*
X118411999Y-57785999D01*
X118412000Y-57785998D01*
X118412000Y-57136000D01*
X118912000Y-57136000D01*
X118912000Y-57785999D01*
X119168581Y-57785999D01*
X119239102Y-57779591D01*
X119239107Y-57779590D01*
X119401396Y-57729018D01*
X119546877Y-57641072D01*
X119612449Y-57575500D01*
X125292000Y-57575500D01*
X125292000Y-57618815D01*
X125302407Y-57720673D01*
X125357094Y-57885709D01*
X125357096Y-57885714D01*
X125448370Y-58033691D01*
X125571308Y-58156629D01*
X125719285Y-58247903D01*
X125719290Y-58247905D01*
X125884326Y-58302592D01*
X125986184Y-58312999D01*
X125986197Y-58313000D01*
X126242000Y-58313000D01*
X126242000Y-57575500D01*
X126742000Y-57575500D01*
X126742000Y-58313000D01*
X126997803Y-58313000D01*
X126997815Y-58312999D01*
X127099673Y-58302592D01*
X127264709Y-58247905D01*
X127264714Y-58247903D01*
X127412691Y-58156629D01*
X127535629Y-58033691D01*
X127626903Y-57885714D01*
X127626905Y-57885709D01*
X127681592Y-57720673D01*
X127691999Y-57618815D01*
X127692000Y-57618802D01*
X127692000Y-57575500D01*
X126742000Y-57575500D01*
X126242000Y-57575500D01*
X125292000Y-57575500D01*
X119612449Y-57575500D01*
X119667072Y-57520877D01*
X119755019Y-57375395D01*
X119805590Y-57213106D01*
X119812000Y-57142572D01*
X119812000Y-57136000D01*
X118912000Y-57136000D01*
X118412000Y-57136000D01*
X118412000Y-56760000D01*
X118431685Y-56692961D01*
X118484489Y-56647206D01*
X118536000Y-56636000D01*
X119811999Y-56636000D01*
X119831460Y-56616538D01*
X119831684Y-56615778D01*
X119835706Y-56612292D01*
X119848318Y-56599681D01*
X119849219Y-56600582D01*
X119884488Y-56570023D01*
X119953646Y-56560079D01*
X120001972Y-56577824D01*
X120046475Y-56605788D01*
X120216745Y-56665368D01*
X120216750Y-56665369D01*
X120395996Y-56685565D01*
X120396000Y-56685565D01*
X120396004Y-56685565D01*
X120575249Y-56665369D01*
X120575252Y-56665368D01*
X120575255Y-56665368D01*
X120745522Y-56605789D01*
X120898262Y-56509816D01*
X121025816Y-56382262D01*
X121121789Y-56229522D01*
X121181368Y-56059255D01*
X121181369Y-56059249D01*
X121201565Y-55880003D01*
X121201565Y-55879996D01*
X121181369Y-55700750D01*
X121181368Y-55700745D01*
X121121788Y-55530476D01*
X121025815Y-55377737D01*
X120898262Y-55250184D01*
X120745523Y-55154211D01*
X120575254Y-55094631D01*
X120575249Y-55094630D01*
X120396004Y-55074435D01*
X120395996Y-55074435D01*
X120216750Y-55094630D01*
X120216745Y-55094631D01*
X120046474Y-55154212D01*
X119941585Y-55220118D01*
X119874349Y-55239118D01*
X119807514Y-55218750D01*
X119762300Y-55165482D01*
X119757227Y-55152008D01*
X119755478Y-55146395D01*
X119755478Y-55146394D01*
X119712408Y-55075149D01*
X119694573Y-55007595D01*
X119712409Y-54946850D01*
X119755478Y-54875606D01*
X119806086Y-54713196D01*
X119812500Y-54642616D01*
X119812500Y-54129384D01*
X119806086Y-54058804D01*
X119763577Y-53922388D01*
X119762428Y-53852529D01*
X119799229Y-53793137D01*
X119862298Y-53763069D01*
X119881964Y-53761500D01*
X122421546Y-53761500D01*
X122488585Y-53781185D01*
X122509227Y-53797819D01*
X122537263Y-53825855D01*
X122537267Y-53825858D01*
X122639708Y-53894308D01*
X122639715Y-53894312D01*
X122703504Y-53920734D01*
X122753548Y-53941463D01*
X122773597Y-53945451D01*
X122807196Y-53952134D01*
X122874392Y-53965501D01*
X122874394Y-53965501D01*
X123003721Y-53965501D01*
X123003741Y-53965500D01*
X123407145Y-53965500D01*
X123473116Y-53984505D01*
X123602478Y-54065789D01*
X123725828Y-54108951D01*
X123772745Y-54125368D01*
X123772750Y-54125369D01*
X123951996Y-54145565D01*
X123952000Y-54145565D01*
X123952004Y-54145565D01*
X124131249Y-54125369D01*
X124131251Y-54125368D01*
X124131255Y-54125368D01*
X124131258Y-54125366D01*
X124131262Y-54125366D01*
X124232038Y-54090103D01*
X124301817Y-54086541D01*
X124362444Y-54121269D01*
X124387554Y-54159692D01*
X124413685Y-54222780D01*
X124413690Y-54222789D01*
X124447914Y-54274007D01*
X124447915Y-54274009D01*
X124482140Y-54325231D01*
X124482141Y-54325232D01*
X124482142Y-54325233D01*
X124569267Y-54412358D01*
X124569268Y-54412358D01*
X124576335Y-54419425D01*
X124576334Y-54419425D01*
X124576338Y-54419428D01*
X125255181Y-55098271D01*
X125288666Y-55159594D01*
X125291500Y-55185952D01*
X125291500Y-55743855D01*
X125301913Y-55845776D01*
X125356637Y-56010922D01*
X125356642Y-56010933D01*
X125447971Y-56158999D01*
X125447974Y-56159003D01*
X125570999Y-56282028D01*
X125572183Y-56282758D01*
X125572823Y-56283470D01*
X125576664Y-56286507D01*
X125576145Y-56287163D01*
X125618906Y-56334708D01*
X125630125Y-56403671D01*
X125602279Y-56467752D01*
X125576877Y-56489762D01*
X125576977Y-56489888D01*
X125574177Y-56492101D01*
X125572184Y-56493829D01*
X125571315Y-56494364D01*
X125571309Y-56494369D01*
X125448370Y-56617308D01*
X125357096Y-56765285D01*
X125357094Y-56765290D01*
X125302407Y-56930326D01*
X125292000Y-57032184D01*
X125292000Y-57075500D01*
X127692000Y-57075500D01*
X127692000Y-57032197D01*
X127691999Y-57032184D01*
X127681592Y-56930326D01*
X127626905Y-56765290D01*
X127626903Y-56765285D01*
X127535629Y-56617308D01*
X127412690Y-56494369D01*
X127412685Y-56494365D01*
X127411822Y-56493833D01*
X127411353Y-56493312D01*
X127407023Y-56489888D01*
X127407608Y-56489148D01*
X127365096Y-56441886D01*
X127353873Y-56372924D01*
X127381716Y-56308841D01*
X127407398Y-56286586D01*
X127407336Y-56286507D01*
X127409106Y-56285107D01*
X127411820Y-56282755D01*
X127413003Y-56282026D01*
X127536026Y-56159003D01*
X127627362Y-56010925D01*
X127682087Y-55845775D01*
X127692500Y-55743848D01*
X127692500Y-55157152D01*
X127682087Y-55055225D01*
X127627362Y-54890075D01*
X127627358Y-54890069D01*
X127627357Y-54890066D01*
X127536028Y-54742000D01*
X127536025Y-54741996D01*
X127413003Y-54618974D01*
X127412999Y-54618971D01*
X127264933Y-54527642D01*
X127264927Y-54527639D01*
X127264925Y-54527638D01*
X127205661Y-54508000D01*
X127099776Y-54472913D01*
X126997855Y-54462500D01*
X126997848Y-54462500D01*
X126439953Y-54462500D01*
X126372914Y-54442815D01*
X126352272Y-54426181D01*
X125629819Y-53703728D01*
X125596334Y-53642405D01*
X125593500Y-53616047D01*
X125593500Y-53299051D01*
X125613185Y-53232012D01*
X125665989Y-53186257D01*
X125735147Y-53176313D01*
X125756486Y-53181340D01*
X125882203Y-53222999D01*
X125984991Y-53233500D01*
X126985008Y-53233499D01*
X126985016Y-53233498D01*
X126985019Y-53233498D01*
X127041302Y-53227748D01*
X127087797Y-53222999D01*
X127254334Y-53167814D01*
X127403656Y-53075712D01*
X127527712Y-52951656D01*
X127556549Y-52904902D01*
X127608497Y-52858179D01*
X127662088Y-52846000D01*
X129197107Y-52846000D01*
X129257529Y-52833981D01*
X129317952Y-52821963D01*
X129317955Y-52821961D01*
X129317958Y-52821961D01*
X129351287Y-52808154D01*
X129351286Y-52808154D01*
X129351292Y-52808152D01*
X129431786Y-52774812D01*
X129487974Y-52737267D01*
X129534233Y-52706358D01*
X129621358Y-52619233D01*
X129621359Y-52619231D01*
X129628425Y-52612165D01*
X129628427Y-52612161D01*
X130270771Y-51969819D01*
X130332094Y-51936334D01*
X130358452Y-51933500D01*
X131830745Y-51933500D01*
X131897784Y-51953185D01*
X131943539Y-52005989D01*
X131946167Y-52012184D01*
X131977257Y-52091398D01*
X132112185Y-52325102D01*
X132214808Y-52453787D01*
X132280442Y-52536089D01*
X132403363Y-52650142D01*
X132478259Y-52719635D01*
X132701226Y-52871651D01*
X132701231Y-52871653D01*
X132701232Y-52871654D01*
X132701233Y-52871655D01*
X132783301Y-52911176D01*
X132835161Y-52957998D01*
X132853500Y-53022896D01*
X132853500Y-54593102D01*
X132833815Y-54660141D01*
X132783303Y-54704821D01*
X132701235Y-54744344D01*
X132701232Y-54744345D01*
X132701226Y-54744348D01*
X132701226Y-54744349D01*
X132687493Y-54753712D01*
X132478258Y-54896365D01*
X132280442Y-55079910D01*
X132112185Y-55290898D01*
X131977258Y-55524599D01*
X131977256Y-55524603D01*
X131878666Y-55775804D01*
X131878664Y-55775811D01*
X131818616Y-56038898D01*
X131798451Y-56307995D01*
X131798451Y-56308004D01*
X131818616Y-56577101D01*
X131878664Y-56840188D01*
X131878666Y-56840195D01*
X131924901Y-56958000D01*
X131977257Y-57091398D01*
X132112185Y-57325102D01*
X132232918Y-57476496D01*
X132280442Y-57536089D01*
X132393588Y-57641072D01*
X132478259Y-57719635D01*
X132701226Y-57871651D01*
X132701231Y-57871653D01*
X132701232Y-57871654D01*
X132701233Y-57871655D01*
X132783301Y-57911176D01*
X132835161Y-57957998D01*
X132853500Y-58022896D01*
X132853500Y-58493918D01*
X132853500Y-58493920D01*
X132853499Y-58493920D01*
X132882340Y-58638907D01*
X132882343Y-58638917D01*
X132938914Y-58775492D01*
X132971812Y-58824727D01*
X132971813Y-58824730D01*
X133021046Y-58898414D01*
X133021052Y-58898421D01*
X135053048Y-60930416D01*
X137189586Y-63066954D01*
X137217446Y-63085568D01*
X137259241Y-63113494D01*
X137312505Y-63149084D01*
X137312507Y-63149085D01*
X137312511Y-63149087D01*
X137441306Y-63202435D01*
X137449087Y-63205658D01*
X137449091Y-63205658D01*
X137449092Y-63205659D01*
X137594079Y-63234500D01*
X137594082Y-63234500D01*
X137594083Y-63234500D01*
X137741917Y-63234500D01*
X140861770Y-63234500D01*
X140928809Y-63254185D01*
X140949451Y-63270819D01*
X141179181Y-63500548D01*
X141212666Y-63561871D01*
X141215500Y-63588229D01*
X141215500Y-63730500D01*
X141195815Y-63797539D01*
X141143011Y-63843294D01*
X141091500Y-63854500D01*
X140818130Y-63854500D01*
X140818123Y-63854501D01*
X140758516Y-63860908D01*
X140623671Y-63911202D01*
X140623664Y-63911206D01*
X140508455Y-63997452D01*
X140508452Y-63997455D01*
X140422206Y-64112664D01*
X140422202Y-64112671D01*
X140371908Y-64247517D01*
X140366486Y-64297953D01*
X140365500Y-64307127D01*
X140365500Y-65331890D01*
X140365501Y-66247500D01*
X140345816Y-66314539D01*
X140293013Y-66360294D01*
X140241501Y-66371500D01*
X136574807Y-66371500D01*
X136507768Y-66351815D01*
X136462013Y-66299011D01*
X136452069Y-66229853D01*
X136477860Y-66170187D01*
X136594542Y-66023871D01*
X136727185Y-65794128D01*
X136824103Y-65547185D01*
X136824109Y-65547166D01*
X136883138Y-65288540D01*
X136883139Y-65288535D01*
X136902963Y-65024004D01*
X136902963Y-65023995D01*
X136883139Y-64759464D01*
X136883138Y-64759459D01*
X136824109Y-64500833D01*
X136824103Y-64500814D01*
X136727185Y-64253871D01*
X136727186Y-64253871D01*
X136594543Y-64024129D01*
X136594536Y-64024118D01*
X136544356Y-63961196D01*
X136544355Y-63961195D01*
X135729040Y-64776509D01*
X135704022Y-64716110D01*
X135632888Y-64609649D01*
X135542351Y-64519112D01*
X135435890Y-64447978D01*
X135375488Y-64422958D01*
X136191560Y-63606886D01*
X136015484Y-63486839D01*
X136015474Y-63486832D01*
X135776469Y-63371735D01*
X135776471Y-63371735D01*
X135522974Y-63293541D01*
X135522968Y-63293540D01*
X135260648Y-63254000D01*
X134995351Y-63254000D01*
X134733031Y-63293540D01*
X134733025Y-63293541D01*
X134479529Y-63371735D01*
X134240526Y-63486832D01*
X134240518Y-63486837D01*
X134064438Y-63606886D01*
X134880511Y-64422958D01*
X134820110Y-64447978D01*
X134713649Y-64519112D01*
X134623112Y-64609649D01*
X134551978Y-64716110D01*
X134526958Y-64776511D01*
X133711643Y-63961196D01*
X133661456Y-64024128D01*
X133528814Y-64253871D01*
X133431896Y-64500814D01*
X133431890Y-64500833D01*
X133372861Y-64759459D01*
X133372860Y-64759464D01*
X133353037Y-65023995D01*
X133353037Y-65024004D01*
X133372860Y-65288535D01*
X133372861Y-65288540D01*
X133431890Y-65547166D01*
X133431896Y-65547185D01*
X133528814Y-65794128D01*
X133528813Y-65794128D01*
X133661457Y-66023871D01*
X133778140Y-66170187D01*
X133804548Y-66234874D01*
X133791793Y-66303569D01*
X133743922Y-66354463D01*
X133681193Y-66371500D01*
X130839328Y-66371500D01*
X130804733Y-66366576D01*
X130659573Y-66324402D01*
X130659567Y-66324401D01*
X130622701Y-66321500D01*
X130622694Y-66321500D01*
X129316306Y-66321500D01*
X129316298Y-66321500D01*
X129279432Y-66324401D01*
X129279426Y-66324402D01*
X129134267Y-66366576D01*
X129099672Y-66371500D01*
X128994000Y-66371500D01*
X128926961Y-66351815D01*
X128881206Y-66299011D01*
X128870000Y-66247500D01*
X128870000Y-65082730D01*
X128889685Y-65015691D01*
X128906319Y-64995049D01*
X128944319Y-64957049D01*
X129005642Y-64923564D01*
X129075334Y-64928548D01*
X129119681Y-64957049D01*
X129213344Y-65050712D01*
X129362666Y-65142814D01*
X129529203Y-65197999D01*
X129631991Y-65208500D01*
X130257008Y-65208499D01*
X130257016Y-65208498D01*
X130257019Y-65208498D01*
X130335245Y-65200507D01*
X130359797Y-65197999D01*
X130526334Y-65142814D01*
X130675656Y-65050712D01*
X130799712Y-64926656D01*
X130891814Y-64777334D01*
X130910989Y-64719467D01*
X130950760Y-64662024D01*
X131015276Y-64635201D01*
X131084052Y-64647516D01*
X131094661Y-64653476D01*
X131222478Y-64733789D01*
X131392745Y-64793368D01*
X131392750Y-64793369D01*
X131571996Y-64813565D01*
X131572000Y-64813565D01*
X131572004Y-64813565D01*
X131751249Y-64793369D01*
X131751252Y-64793368D01*
X131751255Y-64793368D01*
X131921522Y-64733789D01*
X132074262Y-64637816D01*
X132201816Y-64510262D01*
X132297789Y-64357522D01*
X132357368Y-64187255D01*
X132360871Y-64156164D01*
X132377565Y-64008003D01*
X132377565Y-64007996D01*
X132357369Y-63828750D01*
X132357368Y-63828745D01*
X132297789Y-63658478D01*
X132290273Y-63646517D01*
X132237087Y-63561871D01*
X132201816Y-63505738D01*
X132074262Y-63378184D01*
X131921523Y-63282211D01*
X131751254Y-63222631D01*
X131751249Y-63222630D01*
X131572004Y-63202435D01*
X131571996Y-63202435D01*
X131392750Y-63222630D01*
X131392745Y-63222631D01*
X131222476Y-63282211D01*
X131094666Y-63362520D01*
X131027429Y-63381520D01*
X130960594Y-63361152D01*
X130915380Y-63307884D01*
X130910988Y-63296530D01*
X130898853Y-63259909D01*
X130891814Y-63238666D01*
X130799712Y-63089344D01*
X130675656Y-62965288D01*
X130526334Y-62873186D01*
X130359797Y-62818001D01*
X130359795Y-62818000D01*
X130257010Y-62807500D01*
X129631998Y-62807500D01*
X129631980Y-62807501D01*
X129529203Y-62818000D01*
X129529200Y-62818001D01*
X129362668Y-62873185D01*
X129362663Y-62873187D01*
X129213342Y-62965289D01*
X129119681Y-63058951D01*
X129058358Y-63092436D01*
X128988666Y-63087452D01*
X128944319Y-63058951D01*
X128850657Y-62965289D01*
X128850656Y-62965288D01*
X128701334Y-62873186D01*
X128534797Y-62818001D01*
X128534795Y-62818000D01*
X128432010Y-62807500D01*
X127806998Y-62807500D01*
X127806980Y-62807501D01*
X127704203Y-62818000D01*
X127704200Y-62818001D01*
X127537668Y-62873185D01*
X127537663Y-62873187D01*
X127388342Y-62965289D01*
X127264289Y-63089342D01*
X127172187Y-63238663D01*
X127172183Y-63238672D01*
X127153010Y-63296532D01*
X127113237Y-63353976D01*
X127048720Y-63380798D01*
X126979945Y-63368482D01*
X126969333Y-63362520D01*
X126841523Y-63282211D01*
X126671254Y-63222631D01*
X126671249Y-63222630D01*
X126492004Y-63202435D01*
X126491996Y-63202435D01*
X126312750Y-63222630D01*
X126312745Y-63222631D01*
X126142476Y-63282211D01*
X126014666Y-63362520D01*
X125947429Y-63381520D01*
X125880594Y-63361152D01*
X125835380Y-63307884D01*
X125830988Y-63296530D01*
X125818853Y-63259909D01*
X125811814Y-63238666D01*
X125719712Y-63089344D01*
X125595656Y-62965288D01*
X125446334Y-62873186D01*
X125279797Y-62818001D01*
X125279795Y-62818000D01*
X125177010Y-62807500D01*
X124551998Y-62807500D01*
X124551980Y-62807501D01*
X124449203Y-62818000D01*
X124449200Y-62818001D01*
X124282668Y-62873185D01*
X124282663Y-62873187D01*
X124133342Y-62965289D01*
X124039681Y-63058951D01*
X123978358Y-63092436D01*
X123908666Y-63087452D01*
X123864319Y-63058951D01*
X123770657Y-62965289D01*
X123770656Y-62965288D01*
X123621334Y-62873186D01*
X123454797Y-62818001D01*
X123454795Y-62818000D01*
X123352010Y-62807500D01*
X122726998Y-62807500D01*
X122726980Y-62807501D01*
X122624203Y-62818000D01*
X122624200Y-62818001D01*
X122457668Y-62873185D01*
X122457663Y-62873187D01*
X122308342Y-62965289D01*
X122184289Y-63089342D01*
X122092187Y-63238663D01*
X122092185Y-63238668D01*
X122074002Y-63293541D01*
X122037001Y-63405203D01*
X122037001Y-63405204D01*
X122037000Y-63405204D01*
X122026500Y-63507983D01*
X122026500Y-64508001D01*
X122026501Y-64508019D01*
X122037000Y-64610796D01*
X122037001Y-64610799D01*
X122086263Y-64759459D01*
X122092186Y-64777334D01*
X122184288Y-64926656D01*
X122308344Y-65050712D01*
X122330094Y-65064127D01*
X122376820Y-65116073D01*
X122389000Y-65169667D01*
X122389000Y-66212541D01*
X122369315Y-66279580D01*
X122316511Y-66325335D01*
X122299595Y-66331617D01*
X122166606Y-66370254D01*
X122166603Y-66370255D01*
X122025137Y-66453917D01*
X122025129Y-66453923D01*
X121908923Y-66570129D01*
X121908917Y-66570137D01*
X121825255Y-66711603D01*
X121825254Y-66711606D01*
X121779402Y-66869426D01*
X121779401Y-66869432D01*
X121776500Y-66906298D01*
X121776500Y-67337701D01*
X121779401Y-67374567D01*
X121779402Y-67374573D01*
X121825254Y-67532393D01*
X121825255Y-67532396D01*
X121908917Y-67673862D01*
X121908923Y-67673870D01*
X122025129Y-67790076D01*
X122025133Y-67790079D01*
X122025135Y-67790081D01*
X122166602Y-67873744D01*
X122205414Y-67885020D01*
X122324426Y-67919597D01*
X122324429Y-67919597D01*
X122324431Y-67919598D01*
X122361306Y-67922500D01*
X123527500Y-67922500D01*
X123594539Y-67942185D01*
X123640294Y-67994989D01*
X123651500Y-68046500D01*
X123651500Y-68098000D01*
X123631815Y-68165039D01*
X123579011Y-68210794D01*
X123527500Y-68222000D01*
X123264500Y-68222000D01*
X123264500Y-68772000D01*
X123920185Y-68772000D01*
X123983306Y-68789268D01*
X124041602Y-68823744D01*
X124083224Y-68835836D01*
X124199426Y-68869597D01*
X124199429Y-68869597D01*
X124199431Y-68869598D01*
X124236306Y-68872500D01*
X124236314Y-68872500D01*
X125542686Y-68872500D01*
X125542694Y-68872500D01*
X125579569Y-68869598D01*
X125579571Y-68869597D01*
X125579573Y-68869597D01*
X125737389Y-68823747D01*
X125737391Y-68823745D01*
X125737398Y-68823744D01*
X125737403Y-68823740D01*
X125739441Y-68822859D01*
X125741190Y-68822642D01*
X125744890Y-68821568D01*
X125745063Y-68822164D01*
X125808783Y-68814291D01*
X125871750Y-68844572D01*
X125876383Y-68848973D01*
X126511016Y-69483606D01*
X126511045Y-69483637D01*
X126601264Y-69573856D01*
X126601267Y-69573858D01*
X126652490Y-69608084D01*
X126703714Y-69642312D01*
X126767504Y-69668734D01*
X126817548Y-69689463D01*
X126877971Y-69701481D01*
X126938393Y-69713500D01*
X128077607Y-69713500D01*
X128138029Y-69701481D01*
X128198452Y-69689463D01*
X128248496Y-69668734D01*
X128276975Y-69656938D01*
X128324426Y-69647500D01*
X128886191Y-69647500D01*
X128953230Y-69667185D01*
X128973872Y-69683819D01*
X128980129Y-69690076D01*
X128980133Y-69690079D01*
X128980135Y-69690081D01*
X129121602Y-69773744D01*
X129163224Y-69785836D01*
X129279426Y-69819597D01*
X129279429Y-69819597D01*
X129279431Y-69819598D01*
X129316306Y-69822500D01*
X129316314Y-69822500D01*
X130622686Y-69822500D01*
X130622694Y-69822500D01*
X130659569Y-69819598D01*
X130659571Y-69819597D01*
X130659573Y-69819597D01*
X130701191Y-69807505D01*
X130817398Y-69773744D01*
X130928968Y-69707761D01*
X130996691Y-69690579D01*
X131062953Y-69712739D01*
X131069401Y-69717547D01*
X131069737Y-69717815D01*
X131069738Y-69717816D01*
X131222478Y-69813789D01*
X131245944Y-69822000D01*
X131392745Y-69873368D01*
X131392750Y-69873369D01*
X131571996Y-69893565D01*
X131572000Y-69893565D01*
X131572004Y-69893565D01*
X131751249Y-69873369D01*
X131751252Y-69873368D01*
X131751255Y-69873368D01*
X131921522Y-69813789D01*
X132074262Y-69717816D01*
X132201816Y-69590262D01*
X132297789Y-69437522D01*
X132357368Y-69267255D01*
X132357369Y-69267249D01*
X132377565Y-69088003D01*
X132377565Y-69087996D01*
X132363187Y-68960383D01*
X132375242Y-68891561D01*
X132422591Y-68840182D01*
X132486407Y-68822500D01*
X135781770Y-68822500D01*
X135848809Y-68842185D01*
X135869451Y-68858819D01*
X136881181Y-69870548D01*
X136914666Y-69931871D01*
X136917500Y-69958229D01*
X136917500Y-72237593D01*
X136897815Y-72304632D01*
X136845011Y-72350387D01*
X136779617Y-72360813D01*
X136652004Y-72346435D01*
X136651996Y-72346435D01*
X136472750Y-72366630D01*
X136472745Y-72366631D01*
X136302476Y-72426211D01*
X136149737Y-72522184D01*
X136022184Y-72649737D01*
X135926211Y-72802476D01*
X135866631Y-72972745D01*
X135866630Y-72972750D01*
X135846435Y-73151996D01*
X135846435Y-73152003D01*
X135866630Y-73331249D01*
X135866631Y-73331254D01*
X135926211Y-73501524D01*
X136007493Y-73630881D01*
X136026500Y-73696854D01*
X136026500Y-74229611D01*
X136050535Y-74350444D01*
X136050540Y-74350461D01*
X136097685Y-74464281D01*
X136097688Y-74464287D01*
X136108038Y-74479776D01*
X136130029Y-74512686D01*
X136130030Y-74512690D01*
X136130032Y-74512690D01*
X136166143Y-74566735D01*
X136257586Y-74658178D01*
X136257608Y-74658198D01*
X136889181Y-75289771D01*
X136922666Y-75351094D01*
X136925500Y-75377452D01*
X136925500Y-83392547D01*
X136905815Y-83459586D01*
X136889181Y-83480228D01*
X136761269Y-83608140D01*
X136761267Y-83608142D01*
X136717704Y-83651704D01*
X136674142Y-83695266D01*
X136645223Y-83738547D01*
X136645222Y-83738546D01*
X136605689Y-83797712D01*
X136605684Y-83797722D01*
X136592059Y-83830615D01*
X136548218Y-83885018D01*
X136481923Y-83907082D01*
X136414224Y-83889802D01*
X136366614Y-83838664D01*
X136353499Y-83783163D01*
X136353499Y-83453992D01*
X136342999Y-83351203D01*
X136287814Y-83184666D01*
X136195712Y-83035344D01*
X136071656Y-82911288D01*
X136068342Y-82909243D01*
X136066546Y-82907248D01*
X136065989Y-82906807D01*
X136066064Y-82906711D01*
X136021618Y-82857297D01*
X136010397Y-82788334D01*
X136038240Y-82724252D01*
X136068348Y-82698165D01*
X136071342Y-82696318D01*
X136195315Y-82572345D01*
X136287356Y-82423124D01*
X136287358Y-82423119D01*
X136342505Y-82256697D01*
X136342506Y-82256690D01*
X136352999Y-82153986D01*
X136353000Y-82153973D01*
X136353000Y-82104000D01*
X135994570Y-82104000D01*
X135927531Y-82084315D01*
X135881776Y-82031511D01*
X135871832Y-81962353D01*
X135872953Y-81955809D01*
X135878499Y-81927922D01*
X135878500Y-81927920D01*
X135878500Y-81728000D01*
X135898185Y-81660961D01*
X135950989Y-81615206D01*
X136002500Y-81604000D01*
X136352999Y-81604000D01*
X136352999Y-81554028D01*
X136352998Y-81554013D01*
X136342505Y-81451302D01*
X136287358Y-81284880D01*
X136287356Y-81284875D01*
X136195315Y-81135654D01*
X136071344Y-81011683D01*
X136071340Y-81011680D01*
X136013723Y-80976141D01*
X135966998Y-80924193D01*
X135955777Y-80855230D01*
X135969460Y-80812153D01*
X136056814Y-80648727D01*
X136114024Y-80460132D01*
X136133341Y-80264000D01*
X136114024Y-80067868D01*
X136056814Y-79879273D01*
X136056811Y-79879269D01*
X136056811Y-79879266D01*
X135963913Y-79705467D01*
X135963909Y-79705460D01*
X135838883Y-79553116D01*
X135686539Y-79428090D01*
X135686532Y-79428086D01*
X135512733Y-79335188D01*
X135512727Y-79335186D01*
X135324132Y-79277976D01*
X135324129Y-79277975D01*
X135128000Y-79258659D01*
X134931870Y-79277975D01*
X134743266Y-79335188D01*
X134569467Y-79428086D01*
X134569460Y-79428090D01*
X134417116Y-79553116D01*
X134292090Y-79705460D01*
X134292086Y-79705467D01*
X134199188Y-79879266D01*
X134141975Y-80067870D01*
X134122659Y-80264000D01*
X134141975Y-80460129D01*
X134141976Y-80460132D01*
X134192955Y-80628187D01*
X134199188Y-80648732D01*
X134286537Y-80812150D01*
X134300779Y-80880552D01*
X134275779Y-80945796D01*
X134242277Y-80976141D01*
X134184656Y-81011682D01*
X134060684Y-81135654D01*
X133968643Y-81284875D01*
X133968641Y-81284880D01*
X133913494Y-81451302D01*
X133913493Y-81451309D01*
X133903000Y-81554013D01*
X133903000Y-81604000D01*
X134253500Y-81604000D01*
X134320539Y-81623685D01*
X134366294Y-81676489D01*
X134377500Y-81728000D01*
X134377500Y-81927922D01*
X134383047Y-81955809D01*
X134376820Y-82025401D01*
X134333956Y-82080578D01*
X134268066Y-82103822D01*
X134261430Y-82104000D01*
X133903001Y-82104000D01*
X133903001Y-82153986D01*
X133913494Y-82256697D01*
X133968641Y-82423119D01*
X133968643Y-82423124D01*
X134060684Y-82572345D01*
X134184655Y-82696316D01*
X134184659Y-82696319D01*
X134187656Y-82698168D01*
X134189279Y-82699972D01*
X134190323Y-82700798D01*
X134190181Y-82700976D01*
X134234381Y-82750116D01*
X134245602Y-82819079D01*
X134217759Y-82883161D01*
X134187661Y-82909241D01*
X134184349Y-82911283D01*
X134184343Y-82911288D01*
X134060289Y-83035342D01*
X133968187Y-83184663D01*
X133968186Y-83184666D01*
X133913001Y-83351203D01*
X133913001Y-83351204D01*
X133913000Y-83351204D01*
X133902500Y-83453983D01*
X133902500Y-84054001D01*
X133902501Y-84054019D01*
X133913000Y-84156796D01*
X133913001Y-84156799D01*
X133968185Y-84323331D01*
X133968187Y-84323336D01*
X134003069Y-84379888D01*
X134060288Y-84472656D01*
X134184344Y-84596712D01*
X134333666Y-84688814D01*
X134500203Y-84743999D01*
X134602991Y-84754500D01*
X135653008Y-84754499D01*
X135653016Y-84754498D01*
X135653019Y-84754498D01*
X135709302Y-84748748D01*
X135755797Y-84743999D01*
X135922334Y-84688814D01*
X136071656Y-84596712D01*
X136195712Y-84472656D01*
X136287814Y-84323334D01*
X136292794Y-84308304D01*
X136332565Y-84250859D01*
X136397081Y-84224035D01*
X136465857Y-84236349D01*
X136517057Y-84283892D01*
X136534500Y-84347307D01*
X136534500Y-86950724D01*
X136514815Y-87017763D01*
X136462011Y-87063518D01*
X136392853Y-87073462D01*
X136329297Y-87044437D01*
X136292794Y-86989728D01*
X136262358Y-86897880D01*
X136262356Y-86897875D01*
X136170315Y-86748654D01*
X136046345Y-86624684D01*
X135897124Y-86532643D01*
X135897119Y-86532641D01*
X135730697Y-86477494D01*
X135730690Y-86477493D01*
X135627986Y-86467000D01*
X135378000Y-86467000D01*
X135378000Y-87605500D01*
X135358315Y-87672539D01*
X135305511Y-87718294D01*
X135254000Y-87729500D01*
X133928001Y-87729500D01*
X133928001Y-87791986D01*
X133938494Y-87894697D01*
X133993641Y-88061119D01*
X133993643Y-88061124D01*
X134085684Y-88210345D01*
X134179304Y-88303965D01*
X134212789Y-88365288D01*
X134207805Y-88434980D01*
X134179305Y-88479327D01*
X134085285Y-88573347D01*
X134016814Y-88684356D01*
X133964866Y-88731081D01*
X133958730Y-88733820D01*
X133919215Y-88750187D01*
X133816766Y-88818641D01*
X133816763Y-88818644D01*
X133205269Y-89430140D01*
X133118144Y-89517264D01*
X133118138Y-89517272D01*
X133049690Y-89619708D01*
X133049689Y-89619710D01*
X133025696Y-89677633D01*
X133025697Y-89677634D01*
X133025697Y-89677635D01*
X133004863Y-89727934D01*
X133002537Y-89733549D01*
X133002535Y-89733556D01*
X132996290Y-89764950D01*
X132996291Y-89764951D01*
X132984837Y-89822537D01*
X132984836Y-89822539D01*
X132978500Y-89854391D01*
X132978500Y-94041611D01*
X133002535Y-94162444D01*
X133002540Y-94162461D01*
X133049685Y-94276280D01*
X133049690Y-94276289D01*
X133083914Y-94327507D01*
X133083915Y-94327509D01*
X133118140Y-94378731D01*
X133118141Y-94378732D01*
X133118142Y-94378733D01*
X133205267Y-94465858D01*
X133205268Y-94465858D01*
X133212335Y-94472925D01*
X133212334Y-94472925D01*
X133212337Y-94472927D01*
X133522641Y-94783232D01*
X133522642Y-94783233D01*
X133577373Y-94837964D01*
X133609768Y-94870359D01*
X133712207Y-94938807D01*
X133712211Y-94938809D01*
X133712214Y-94938811D01*
X133826048Y-94985963D01*
X133946888Y-95009999D01*
X133946892Y-95010000D01*
X133946893Y-95010000D01*
X133946894Y-95010000D01*
X133950912Y-95010000D01*
X133952940Y-95010595D01*
X133952954Y-95010597D01*
X133952953Y-95010599D01*
X134017951Y-95029685D01*
X134056449Y-95068901D01*
X134085288Y-95115656D01*
X134209344Y-95239712D01*
X134358666Y-95331814D01*
X134358668Y-95331815D01*
X134379110Y-95338588D01*
X134417502Y-95351310D01*
X134474947Y-95391081D01*
X134501772Y-95455596D01*
X134502500Y-95469016D01*
X134502500Y-96717547D01*
X134482815Y-96784586D01*
X134466181Y-96805228D01*
X133381229Y-97890181D01*
X133319906Y-97923666D01*
X133293548Y-97926500D01*
X131770188Y-97926500D01*
X131703149Y-97906815D01*
X131668613Y-97873623D01*
X131556045Y-97712858D01*
X131395141Y-97551954D01*
X131208734Y-97421432D01*
X131208728Y-97421429D01*
X131150725Y-97394382D01*
X131098285Y-97348210D01*
X131079133Y-97281017D01*
X131099348Y-97214135D01*
X131150725Y-97169618D01*
X131208734Y-97142568D01*
X131395139Y-97012047D01*
X131556047Y-96851139D01*
X131686568Y-96664734D01*
X131782739Y-96458496D01*
X131841635Y-96238692D01*
X131861468Y-96012000D01*
X131841635Y-95785308D01*
X131782739Y-95565504D01*
X131686568Y-95359266D01*
X131556047Y-95172861D01*
X131556045Y-95172858D01*
X131395141Y-95011954D01*
X131208734Y-94881432D01*
X131208728Y-94881429D01*
X131150725Y-94854382D01*
X131098285Y-94808210D01*
X131079133Y-94741017D01*
X131099348Y-94674135D01*
X131150725Y-94629618D01*
X131208734Y-94602568D01*
X131395139Y-94472047D01*
X131556047Y-94311139D01*
X131686568Y-94124734D01*
X131782739Y-93918496D01*
X131841635Y-93698692D01*
X131861468Y-93472000D01*
X131841635Y-93245308D01*
X131782739Y-93025504D01*
X131686568Y-92819266D01*
X131556047Y-92632861D01*
X131556045Y-92632858D01*
X131395141Y-92471954D01*
X131208734Y-92341432D01*
X131208728Y-92341429D01*
X131150725Y-92314382D01*
X131098285Y-92268210D01*
X131079133Y-92201017D01*
X131099348Y-92134135D01*
X131150725Y-92089618D01*
X131151319Y-92089341D01*
X131208734Y-92062568D01*
X131395139Y-91932047D01*
X131452089Y-91875097D01*
X131556047Y-91771140D01*
X131613359Y-91689288D01*
X131686568Y-91584734D01*
X131782739Y-91378496D01*
X131841635Y-91158692D01*
X131861468Y-90932000D01*
X131841635Y-90705308D01*
X131782739Y-90485504D01*
X131686568Y-90279266D01*
X131556047Y-90092861D01*
X131556045Y-90092858D01*
X131395141Y-89931954D01*
X131208734Y-89801432D01*
X131208732Y-89801431D01*
X131151315Y-89774657D01*
X131150132Y-89774105D01*
X131097694Y-89727934D01*
X131078542Y-89660740D01*
X131098758Y-89593859D01*
X131150134Y-89549341D01*
X131208484Y-89522132D01*
X131394820Y-89391657D01*
X131555657Y-89230820D01*
X131686134Y-89044482D01*
X131782265Y-88838326D01*
X131782269Y-88838317D01*
X131834872Y-88642000D01*
X130871686Y-88642000D01*
X130876080Y-88637606D01*
X130928741Y-88546394D01*
X130956000Y-88444661D01*
X130956000Y-88339339D01*
X130928741Y-88237606D01*
X130876080Y-88146394D01*
X130871686Y-88142000D01*
X131834872Y-88142000D01*
X131834872Y-88141999D01*
X131782269Y-87945682D01*
X131782265Y-87945673D01*
X131686134Y-87739517D01*
X131555657Y-87553179D01*
X131394820Y-87392342D01*
X131208482Y-87261865D01*
X131150133Y-87234657D01*
X131144276Y-87229500D01*
X133928000Y-87229500D01*
X134878000Y-87229500D01*
X134878000Y-86467000D01*
X134628029Y-86467000D01*
X134628012Y-86467001D01*
X134525302Y-86477494D01*
X134358880Y-86532641D01*
X134358875Y-86532643D01*
X134209654Y-86624684D01*
X134085684Y-86748654D01*
X133993643Y-86897875D01*
X133993641Y-86897880D01*
X133938494Y-87064302D01*
X133938493Y-87064309D01*
X133928000Y-87167013D01*
X133928000Y-87229500D01*
X131144276Y-87229500D01*
X131097694Y-87188484D01*
X131078542Y-87121291D01*
X131098758Y-87054410D01*
X131150129Y-87009895D01*
X131208734Y-86982568D01*
X131395139Y-86852047D01*
X131556047Y-86691139D01*
X131686568Y-86504734D01*
X131782739Y-86298496D01*
X131841635Y-86078692D01*
X131861468Y-85852000D01*
X131841635Y-85625308D01*
X131782739Y-85405504D01*
X131686568Y-85199266D01*
X131556047Y-85012861D01*
X131556045Y-85012858D01*
X131395141Y-84851954D01*
X131208734Y-84721432D01*
X131208728Y-84721429D01*
X131150725Y-84694382D01*
X131098285Y-84648210D01*
X131079133Y-84581017D01*
X131099348Y-84514135D01*
X131150725Y-84469618D01*
X131208734Y-84442568D01*
X131395139Y-84312047D01*
X131556047Y-84151139D01*
X131686568Y-83964734D01*
X131782739Y-83758496D01*
X131841635Y-83538692D01*
X131861468Y-83312000D01*
X131841635Y-83085308D01*
X131782739Y-82865504D01*
X131686568Y-82659266D01*
X131578998Y-82505639D01*
X131556045Y-82472858D01*
X131395141Y-82311954D01*
X131208734Y-82181432D01*
X131208728Y-82181429D01*
X131150725Y-82154382D01*
X131098285Y-82108210D01*
X131079133Y-82041017D01*
X131099348Y-81974135D01*
X131150725Y-81929618D01*
X131208734Y-81902568D01*
X131395139Y-81772047D01*
X131556047Y-81611139D01*
X131686568Y-81424734D01*
X131782739Y-81218496D01*
X131841635Y-80998692D01*
X131861468Y-80772000D01*
X131841635Y-80545308D01*
X131782739Y-80325504D01*
X131686568Y-80119266D01*
X131556047Y-79932861D01*
X131556045Y-79932858D01*
X131395141Y-79771954D01*
X131208734Y-79641432D01*
X131208728Y-79641429D01*
X131150725Y-79614382D01*
X131098285Y-79568210D01*
X131079133Y-79501017D01*
X131099348Y-79434135D01*
X131150725Y-79389618D01*
X131208734Y-79362568D01*
X131395139Y-79232047D01*
X131556047Y-79071139D01*
X131686568Y-78884734D01*
X131782739Y-78678496D01*
X131841635Y-78458692D01*
X131861468Y-78232000D01*
X131858920Y-78202881D01*
X131841635Y-78005313D01*
X131841635Y-78005308D01*
X131782739Y-77785504D01*
X131686568Y-77579266D01*
X131556047Y-77392861D01*
X131556045Y-77392858D01*
X131395141Y-77231954D01*
X131208734Y-77101432D01*
X131208728Y-77101429D01*
X131150725Y-77074382D01*
X131098285Y-77028210D01*
X131079133Y-76961017D01*
X131099348Y-76894135D01*
X131150725Y-76849618D01*
X131157980Y-76846235D01*
X131208734Y-76822568D01*
X131395139Y-76692047D01*
X131556047Y-76531139D01*
X131686568Y-76344734D01*
X131782739Y-76138496D01*
X131841635Y-75918692D01*
X131861468Y-75692000D01*
X131841635Y-75465308D01*
X131782739Y-75245504D01*
X131686568Y-75039266D01*
X131556047Y-74852861D01*
X131556045Y-74852858D01*
X131395141Y-74691954D01*
X131208734Y-74561432D01*
X131208728Y-74561429D01*
X131150725Y-74534382D01*
X131098285Y-74488210D01*
X131079133Y-74421017D01*
X131099348Y-74354135D01*
X131150725Y-74309618D01*
X131208734Y-74282568D01*
X131395139Y-74152047D01*
X131556047Y-73991139D01*
X131686568Y-73804734D01*
X131782739Y-73598496D01*
X131841635Y-73378692D01*
X131861468Y-73152000D01*
X131841635Y-72925308D01*
X131782739Y-72705504D01*
X131686568Y-72499266D01*
X131556047Y-72312861D01*
X131556045Y-72312858D01*
X131395141Y-72151954D01*
X131208734Y-72021432D01*
X131208732Y-72021431D01*
X131002497Y-71925261D01*
X131002488Y-71925258D01*
X130782697Y-71866366D01*
X130782693Y-71866365D01*
X130782692Y-71866365D01*
X130782691Y-71866364D01*
X130782686Y-71866364D01*
X130556002Y-71846532D01*
X130555998Y-71846532D01*
X130329313Y-71866364D01*
X130329302Y-71866366D01*
X130109511Y-71925258D01*
X130109502Y-71925261D01*
X129903267Y-72021431D01*
X129903265Y-72021432D01*
X129716858Y-72151954D01*
X129555954Y-72312858D01*
X129425432Y-72499265D01*
X129425431Y-72499267D01*
X129329261Y-72705502D01*
X129329258Y-72705511D01*
X129270366Y-72925302D01*
X129270364Y-72925313D01*
X129250532Y-73151998D01*
X129250532Y-73152001D01*
X129270364Y-73378686D01*
X129270366Y-73378697D01*
X129329258Y-73598488D01*
X129329261Y-73598497D01*
X129425431Y-73804732D01*
X129425432Y-73804734D01*
X129555954Y-73991141D01*
X129716858Y-74152045D01*
X129716861Y-74152047D01*
X129903266Y-74282568D01*
X129961275Y-74309618D01*
X130013714Y-74355791D01*
X130032866Y-74422984D01*
X130012650Y-74489865D01*
X129961275Y-74534382D01*
X129903267Y-74561431D01*
X129903265Y-74561432D01*
X129716858Y-74691954D01*
X129555954Y-74852858D01*
X129425432Y-75039265D01*
X129425431Y-75039267D01*
X129329261Y-75245502D01*
X129329258Y-75245511D01*
X129270366Y-75465302D01*
X129270364Y-75465313D01*
X129250532Y-75691998D01*
X129250532Y-75692001D01*
X129270364Y-75918686D01*
X129270366Y-75918697D01*
X129329258Y-76138488D01*
X129329261Y-76138497D01*
X129425431Y-76344732D01*
X129425432Y-76344734D01*
X129555954Y-76531141D01*
X129716858Y-76692045D01*
X129716861Y-76692047D01*
X129903266Y-76822568D01*
X129954020Y-76846235D01*
X129961275Y-76849618D01*
X130013714Y-76895791D01*
X130032866Y-76962984D01*
X130012650Y-77029865D01*
X129961275Y-77074382D01*
X129903267Y-77101431D01*
X129903265Y-77101432D01*
X129716858Y-77231954D01*
X129555954Y-77392858D01*
X129425432Y-77579265D01*
X129425431Y-77579267D01*
X129329261Y-77785502D01*
X129329258Y-77785511D01*
X129270366Y-78005302D01*
X129270364Y-78005313D01*
X129250532Y-78231998D01*
X129250532Y-78232001D01*
X129270364Y-78458686D01*
X129270366Y-78458697D01*
X129329258Y-78678488D01*
X129329261Y-78678497D01*
X129425431Y-78884732D01*
X129425432Y-78884734D01*
X129555954Y-79071141D01*
X129716858Y-79232045D01*
X129716861Y-79232047D01*
X129903266Y-79362568D01*
X129961275Y-79389618D01*
X130013714Y-79435791D01*
X130032866Y-79502984D01*
X130012650Y-79569865D01*
X129961275Y-79614382D01*
X129903267Y-79641431D01*
X129903265Y-79641432D01*
X129716858Y-79771954D01*
X129555954Y-79932858D01*
X129425432Y-80119265D01*
X129425431Y-80119267D01*
X129329261Y-80325502D01*
X129329258Y-80325511D01*
X129270366Y-80545302D01*
X129270364Y-80545313D01*
X129250532Y-80771998D01*
X129250532Y-80772001D01*
X129270364Y-80998686D01*
X129270366Y-80998697D01*
X129329258Y-81218488D01*
X129329261Y-81218497D01*
X129425431Y-81424732D01*
X129425432Y-81424734D01*
X129555954Y-81611141D01*
X129716858Y-81772045D01*
X129716861Y-81772047D01*
X129903266Y-81902568D01*
X129961275Y-81929618D01*
X130013714Y-81975791D01*
X130032866Y-82042984D01*
X130012650Y-82109865D01*
X129961275Y-82154382D01*
X129903267Y-82181431D01*
X129903265Y-82181432D01*
X129716858Y-82311954D01*
X129555954Y-82472858D01*
X129425432Y-82659265D01*
X129425431Y-82659267D01*
X129329261Y-82865502D01*
X129329258Y-82865511D01*
X129270366Y-83085302D01*
X129270364Y-83085313D01*
X129250532Y-83311998D01*
X129250532Y-83312001D01*
X129270364Y-83538686D01*
X129270366Y-83538697D01*
X129329258Y-83758488D01*
X129329261Y-83758497D01*
X129425431Y-83964732D01*
X129425432Y-83964734D01*
X129555954Y-84151141D01*
X129716858Y-84312045D01*
X129763693Y-84344839D01*
X129903266Y-84442568D01*
X129961275Y-84469618D01*
X130013714Y-84515791D01*
X130032866Y-84582984D01*
X130012650Y-84649865D01*
X129961275Y-84694382D01*
X129903267Y-84721431D01*
X129903265Y-84721432D01*
X129716858Y-84851954D01*
X129555954Y-85012858D01*
X129425432Y-85199265D01*
X129425431Y-85199267D01*
X129329261Y-85405502D01*
X129329258Y-85405511D01*
X129270366Y-85625302D01*
X129270364Y-85625313D01*
X129250532Y-85851998D01*
X129250532Y-85852001D01*
X129270364Y-86078686D01*
X129270366Y-86078697D01*
X129329258Y-86298488D01*
X129329261Y-86298497D01*
X129425431Y-86504732D01*
X129425432Y-86504734D01*
X129555954Y-86691141D01*
X129716858Y-86852045D01*
X129716861Y-86852047D01*
X129903266Y-86982568D01*
X129961865Y-87009893D01*
X130014305Y-87056065D01*
X130033457Y-87123258D01*
X130013242Y-87190139D01*
X129961867Y-87234657D01*
X129903515Y-87261867D01*
X129717179Y-87392342D01*
X129556342Y-87553179D01*
X129425865Y-87739517D01*
X129329734Y-87945673D01*
X129329730Y-87945682D01*
X129277127Y-88141999D01*
X129277128Y-88142000D01*
X130240314Y-88142000D01*
X130235920Y-88146394D01*
X130183259Y-88237606D01*
X130156000Y-88339339D01*
X130156000Y-88444661D01*
X130183259Y-88546394D01*
X130235920Y-88637606D01*
X130240314Y-88642000D01*
X129277128Y-88642000D01*
X129329730Y-88838317D01*
X129329734Y-88838326D01*
X129425865Y-89044482D01*
X129556342Y-89230820D01*
X129717179Y-89391657D01*
X129903518Y-89522134D01*
X129903520Y-89522135D01*
X129961865Y-89549342D01*
X130014305Y-89595514D01*
X130033457Y-89662707D01*
X130013242Y-89729589D01*
X129961867Y-89774105D01*
X129960685Y-89774657D01*
X129903264Y-89801433D01*
X129716858Y-89931954D01*
X129555954Y-90092858D01*
X129425432Y-90279265D01*
X129425431Y-90279267D01*
X129329261Y-90485502D01*
X129329258Y-90485511D01*
X129270366Y-90705302D01*
X129270364Y-90705313D01*
X129250532Y-90931998D01*
X129250532Y-90932001D01*
X129270364Y-91158686D01*
X129270366Y-91158697D01*
X129329258Y-91378488D01*
X129329261Y-91378497D01*
X129425431Y-91584732D01*
X129425432Y-91584734D01*
X129555953Y-91771140D01*
X129716858Y-91932045D01*
X129716861Y-91932047D01*
X129903266Y-92062568D01*
X129960681Y-92089341D01*
X129961275Y-92089618D01*
X130013714Y-92135791D01*
X130032866Y-92202984D01*
X130012650Y-92269865D01*
X129961275Y-92314382D01*
X129903267Y-92341431D01*
X129903265Y-92341432D01*
X129716858Y-92471954D01*
X129555954Y-92632858D01*
X129425432Y-92819265D01*
X129425431Y-92819267D01*
X129329261Y-93025502D01*
X129329258Y-93025511D01*
X129270366Y-93245302D01*
X129270364Y-93245313D01*
X129250532Y-93471998D01*
X129250532Y-93472001D01*
X129270364Y-93698686D01*
X129270366Y-93698697D01*
X129329258Y-93918488D01*
X129329261Y-93918497D01*
X129425431Y-94124732D01*
X129425432Y-94124734D01*
X129555954Y-94311141D01*
X129716858Y-94472045D01*
X129716861Y-94472047D01*
X129903266Y-94602568D01*
X129961275Y-94629618D01*
X130013714Y-94675791D01*
X130032866Y-94742984D01*
X130012650Y-94809865D01*
X129961275Y-94854382D01*
X129903267Y-94881431D01*
X129903265Y-94881432D01*
X129716858Y-95011954D01*
X129555954Y-95172858D01*
X129425432Y-95359265D01*
X129425431Y-95359267D01*
X129329261Y-95565502D01*
X129329258Y-95565511D01*
X129270366Y-95785302D01*
X129270364Y-95785313D01*
X129250532Y-96011998D01*
X129250532Y-96012001D01*
X129270364Y-96238686D01*
X129270366Y-96238697D01*
X129329258Y-96458488D01*
X129329261Y-96458497D01*
X129425431Y-96664732D01*
X129425432Y-96664734D01*
X129555954Y-96851141D01*
X129716858Y-97012045D01*
X129716861Y-97012047D01*
X129903266Y-97142568D01*
X129961275Y-97169618D01*
X130013714Y-97215791D01*
X130032866Y-97282984D01*
X130012650Y-97349865D01*
X129961275Y-97394382D01*
X129903267Y-97421431D01*
X129903265Y-97421432D01*
X129716858Y-97551954D01*
X129555954Y-97712858D01*
X129425432Y-97899265D01*
X129425431Y-97899267D01*
X129329261Y-98105502D01*
X129329258Y-98105511D01*
X129270366Y-98325302D01*
X129270364Y-98325313D01*
X129250532Y-98551998D01*
X129250532Y-98552001D01*
X129270364Y-98778686D01*
X129270366Y-98778697D01*
X129329258Y-98998488D01*
X129329261Y-98998497D01*
X129425431Y-99204732D01*
X129425432Y-99204734D01*
X129555954Y-99391141D01*
X129716858Y-99552045D01*
X129716861Y-99552047D01*
X129903266Y-99682568D01*
X129961275Y-99709618D01*
X130013714Y-99755791D01*
X130032866Y-99822984D01*
X130012650Y-99889865D01*
X129961275Y-99934382D01*
X129903267Y-99961431D01*
X129903265Y-99961432D01*
X129716858Y-100091954D01*
X129555954Y-100252858D01*
X129425432Y-100439265D01*
X129425431Y-100439267D01*
X129329261Y-100645502D01*
X129329258Y-100645511D01*
X129270366Y-100865302D01*
X129270364Y-100865313D01*
X129250532Y-101091998D01*
X129250532Y-101092001D01*
X129270364Y-101318686D01*
X129270366Y-101318697D01*
X129329258Y-101538488D01*
X129329261Y-101538497D01*
X129425431Y-101744732D01*
X129425432Y-101744734D01*
X129555954Y-101931141D01*
X129716858Y-102092045D01*
X129716861Y-102092047D01*
X129903266Y-102222568D01*
X129956141Y-102247224D01*
X129961275Y-102249618D01*
X130013714Y-102295791D01*
X130032866Y-102362984D01*
X130012650Y-102429865D01*
X129961275Y-102474382D01*
X129903267Y-102501431D01*
X129903265Y-102501432D01*
X129716858Y-102631954D01*
X129555954Y-102792858D01*
X129425432Y-102979265D01*
X129425431Y-102979267D01*
X129329261Y-103185502D01*
X129329258Y-103185511D01*
X129270366Y-103405302D01*
X129270364Y-103405313D01*
X129250532Y-103631998D01*
X129250532Y-103632001D01*
X129270364Y-103858686D01*
X129270366Y-103858697D01*
X129329258Y-104078488D01*
X129329261Y-104078497D01*
X129425431Y-104284732D01*
X129425432Y-104284734D01*
X129555954Y-104471141D01*
X129716858Y-104632045D01*
X129741462Y-104649273D01*
X129785087Y-104703849D01*
X129792281Y-104773348D01*
X129760758Y-104835703D01*
X129700529Y-104871117D01*
X129683593Y-104874138D01*
X129648516Y-104877908D01*
X129513671Y-104928202D01*
X129513664Y-104928206D01*
X129398455Y-105014452D01*
X129398454Y-105014454D01*
X129312206Y-105129664D01*
X129312202Y-105129671D01*
X129261908Y-105264517D01*
X129256147Y-105318111D01*
X129255501Y-105324123D01*
X129255500Y-105324135D01*
X129255500Y-107019870D01*
X129255501Y-107019876D01*
X129261908Y-107079483D01*
X129312202Y-107214328D01*
X129312206Y-107214335D01*
X129398452Y-107329544D01*
X129398455Y-107329547D01*
X129513664Y-107415793D01*
X129513671Y-107415797D01*
X129648517Y-107466091D01*
X129648516Y-107466091D01*
X129655444Y-107466835D01*
X129708127Y-107472500D01*
X131403872Y-107472499D01*
X131463483Y-107466091D01*
X131598331Y-107415796D01*
X131713546Y-107329546D01*
X131799796Y-107214331D01*
X131850091Y-107079483D01*
X131856500Y-107019873D01*
X131856499Y-105324128D01*
X131850091Y-105264517D01*
X131849866Y-105263915D01*
X131799797Y-105129671D01*
X131799793Y-105129664D01*
X131713546Y-105014454D01*
X131713544Y-105014452D01*
X131598335Y-104928206D01*
X131598328Y-104928202D01*
X131463482Y-104877908D01*
X131463483Y-104877908D01*
X131428404Y-104874137D01*
X131363853Y-104847399D01*
X131324005Y-104790006D01*
X131321512Y-104720181D01*
X131357165Y-104660092D01*
X131370539Y-104649272D01*
X131395140Y-104632046D01*
X131556045Y-104471141D01*
X131556047Y-104471139D01*
X131686568Y-104284734D01*
X131782739Y-104078496D01*
X131841635Y-103858692D01*
X131861468Y-103632000D01*
X131841635Y-103405308D01*
X131782739Y-103185504D01*
X131686568Y-102979266D01*
X131556047Y-102792861D01*
X131556045Y-102792858D01*
X131395141Y-102631954D01*
X131208734Y-102501432D01*
X131208728Y-102501429D01*
X131150725Y-102474382D01*
X131098285Y-102428210D01*
X131079133Y-102361017D01*
X131099348Y-102294135D01*
X131150725Y-102249618D01*
X131155859Y-102247224D01*
X131208734Y-102222568D01*
X131395139Y-102092047D01*
X131556047Y-101931139D01*
X131686568Y-101744734D01*
X131782739Y-101538496D01*
X131841635Y-101318692D01*
X131861468Y-101092000D01*
X131841635Y-100865308D01*
X131798758Y-100705288D01*
X133912500Y-100705288D01*
X133944161Y-100945785D01*
X134006947Y-101180104D01*
X134067963Y-101327408D01*
X134099776Y-101404212D01*
X134221064Y-101614289D01*
X134221066Y-101614292D01*
X134221067Y-101614293D01*
X134368733Y-101806736D01*
X134368739Y-101806743D01*
X134540256Y-101978260D01*
X134540262Y-101978265D01*
X134732711Y-102125936D01*
X134942788Y-102247224D01*
X135166900Y-102340054D01*
X135401211Y-102402838D01*
X135581586Y-102426584D01*
X135641711Y-102434500D01*
X135641712Y-102434500D01*
X135884289Y-102434500D01*
X135932388Y-102428167D01*
X136124789Y-102402838D01*
X136359100Y-102340054D01*
X136583212Y-102247224D01*
X136793289Y-102125936D01*
X136985738Y-101978265D01*
X137157265Y-101806738D01*
X137304936Y-101614289D01*
X137426224Y-101404212D01*
X137519054Y-101180100D01*
X137581838Y-100945789D01*
X137613500Y-100705288D01*
X137613500Y-100462712D01*
X137610413Y-100439267D01*
X137585873Y-100252861D01*
X137581838Y-100222211D01*
X137519054Y-99987900D01*
X137426224Y-99763788D01*
X137304936Y-99553711D01*
X137180192Y-99391141D01*
X137157266Y-99361263D01*
X137157260Y-99361256D01*
X136985743Y-99189739D01*
X136985736Y-99189733D01*
X136793293Y-99042067D01*
X136793292Y-99042066D01*
X136793289Y-99042064D01*
X136583212Y-98920776D01*
X136503775Y-98887872D01*
X136359104Y-98827947D01*
X136124785Y-98765161D01*
X135884289Y-98733500D01*
X135884288Y-98733500D01*
X135641712Y-98733500D01*
X135641711Y-98733500D01*
X135401214Y-98765161D01*
X135166895Y-98827947D01*
X134942794Y-98920773D01*
X134942785Y-98920777D01*
X134732706Y-99042067D01*
X134540263Y-99189733D01*
X134540256Y-99189739D01*
X134368739Y-99361256D01*
X134368733Y-99361263D01*
X134221067Y-99553706D01*
X134099777Y-99763785D01*
X134099773Y-99763794D01*
X134006947Y-99987895D01*
X133944161Y-100222214D01*
X133912500Y-100462711D01*
X133912500Y-100705288D01*
X131798758Y-100705288D01*
X131782739Y-100645504D01*
X131686568Y-100439266D01*
X131556047Y-100252861D01*
X131556045Y-100252858D01*
X131395141Y-100091954D01*
X131208734Y-99961432D01*
X131208728Y-99961429D01*
X131150725Y-99934382D01*
X131098285Y-99888210D01*
X131079133Y-99821017D01*
X131099348Y-99754135D01*
X131150725Y-99709618D01*
X131208734Y-99682568D01*
X131395139Y-99552047D01*
X131556047Y-99391139D01*
X131668613Y-99230377D01*
X131723189Y-99186752D01*
X131770188Y-99177500D01*
X133665607Y-99177500D01*
X133726029Y-99165481D01*
X133786452Y-99153463D01*
X133786455Y-99153461D01*
X133786458Y-99153461D01*
X133819787Y-99139654D01*
X133819786Y-99139654D01*
X133819792Y-99139652D01*
X133900286Y-99106312D01*
X133951509Y-99072084D01*
X134002733Y-99037858D01*
X134089858Y-98950733D01*
X134089858Y-98950731D01*
X134100066Y-98940524D01*
X134100067Y-98940521D01*
X135613857Y-97426734D01*
X135682311Y-97324286D01*
X135729463Y-97210452D01*
X135753500Y-97089607D01*
X135753500Y-96966394D01*
X135753500Y-95469016D01*
X135773185Y-95401977D01*
X135825989Y-95356222D01*
X135838488Y-95351313D01*
X135897334Y-95331814D01*
X136046656Y-95239712D01*
X136170712Y-95115656D01*
X136199549Y-95068902D01*
X136251497Y-95022179D01*
X136305088Y-95010000D01*
X139357107Y-95010000D01*
X139417529Y-94997981D01*
X139477952Y-94985963D01*
X139477955Y-94985961D01*
X139477958Y-94985961D01*
X139511287Y-94972154D01*
X139511286Y-94972154D01*
X139511292Y-94972152D01*
X139591786Y-94938812D01*
X139643009Y-94904584D01*
X139694233Y-94870358D01*
X139781358Y-94783233D01*
X139781359Y-94783231D01*
X139788425Y-94776165D01*
X139788428Y-94776161D01*
X140606729Y-93957860D01*
X140606733Y-93957858D01*
X140693858Y-93870733D01*
X140693858Y-93870732D01*
X140695774Y-93868817D01*
X140757098Y-93835333D01*
X140783455Y-93832499D01*
X140858002Y-93832499D01*
X140858008Y-93832499D01*
X140960797Y-93821999D01*
X141127334Y-93766814D01*
X141276656Y-93674712D01*
X141400712Y-93550656D01*
X141492814Y-93401334D01*
X141547999Y-93234797D01*
X141558500Y-93132009D01*
X141558499Y-92231992D01*
X141547999Y-92129203D01*
X141492814Y-91962666D01*
X141400712Y-91813344D01*
X141276656Y-91689288D01*
X141151653Y-91612186D01*
X141127336Y-91597187D01*
X141127331Y-91597185D01*
X141089750Y-91584732D01*
X140960797Y-91542001D01*
X140960795Y-91542000D01*
X140858010Y-91531500D01*
X139557998Y-91531500D01*
X139557981Y-91531501D01*
X139455203Y-91542000D01*
X139455200Y-91542001D01*
X139288668Y-91597185D01*
X139288663Y-91597187D01*
X139139342Y-91689289D01*
X139015289Y-91813342D01*
X138923187Y-91962663D01*
X138923186Y-91962666D01*
X138868001Y-92129203D01*
X138868001Y-92129204D01*
X138868000Y-92129204D01*
X138857500Y-92231983D01*
X138857500Y-93132001D01*
X138857501Y-93132019D01*
X138868000Y-93234796D01*
X138868001Y-93234799D01*
X138923185Y-93401331D01*
X138923187Y-93401336D01*
X138939106Y-93427144D01*
X139015288Y-93550656D01*
X139015289Y-93550657D01*
X139015290Y-93550658D01*
X139019766Y-93556319D01*
X139017740Y-93557920D01*
X139045436Y-93608642D01*
X139040452Y-93678334D01*
X138998580Y-93734267D01*
X138933116Y-93758684D01*
X138924270Y-93759000D01*
X136305088Y-93759000D01*
X136238049Y-93739315D01*
X136199549Y-93700097D01*
X136170712Y-93653344D01*
X136077049Y-93559681D01*
X136043564Y-93498358D01*
X136048548Y-93428666D01*
X136077049Y-93384319D01*
X136170712Y-93290656D01*
X136199549Y-93243902D01*
X136251497Y-93197179D01*
X136305088Y-93185000D01*
X137118107Y-93185000D01*
X137178529Y-93172981D01*
X137238952Y-93160963D01*
X137238955Y-93160961D01*
X137238958Y-93160961D01*
X137272287Y-93147154D01*
X137272286Y-93147154D01*
X137272292Y-93147152D01*
X137352786Y-93113812D01*
X137413464Y-93073267D01*
X137455233Y-93045358D01*
X137542358Y-92958233D01*
X137542359Y-92958231D01*
X137549425Y-92951165D01*
X137549428Y-92951161D01*
X138574729Y-91925860D01*
X138574733Y-91925858D01*
X138661858Y-91838733D01*
X138707022Y-91771141D01*
X138707023Y-91771140D01*
X138730309Y-91736291D01*
X138730309Y-91736289D01*
X138730312Y-91736286D01*
X138763652Y-91655792D01*
X138777463Y-91622452D01*
X138795554Y-91531500D01*
X138801500Y-91501607D01*
X138801500Y-91378393D01*
X138801500Y-90362394D01*
X138801500Y-90136230D01*
X138821185Y-90069191D01*
X138873989Y-90023436D01*
X138943147Y-90013492D01*
X139006703Y-90042517D01*
X139013181Y-90048549D01*
X139015288Y-90050656D01*
X139139344Y-90174712D01*
X139288666Y-90266814D01*
X139455203Y-90321999D01*
X139557991Y-90332500D01*
X140858008Y-90332499D01*
X140960797Y-90321999D01*
X140975197Y-90317226D01*
X141045023Y-90314824D01*
X141101883Y-90347251D01*
X141961181Y-91206549D01*
X141994666Y-91267872D01*
X141997500Y-91294230D01*
X141997500Y-104285770D01*
X141977815Y-104352809D01*
X141961181Y-104373451D01*
X141457451Y-104877181D01*
X141396128Y-104910666D01*
X141369770Y-104913500D01*
X136810688Y-104913500D01*
X136743649Y-104893815D01*
X136703301Y-104851500D01*
X136680878Y-104812662D01*
X136594958Y-104663845D01*
X136429508Y-104456377D01*
X136234984Y-104275886D01*
X136228740Y-104271629D01*
X136015736Y-104126404D01*
X136015725Y-104126397D01*
X135776655Y-104011268D01*
X135776636Y-104011261D01*
X135523083Y-103933051D01*
X135523073Y-103933048D01*
X135260688Y-103893500D01*
X135260681Y-103893500D01*
X134995319Y-103893500D01*
X134995311Y-103893500D01*
X134732926Y-103933048D01*
X134732916Y-103933051D01*
X134479363Y-104011261D01*
X134479344Y-104011268D01*
X134240276Y-104126397D01*
X134240274Y-104126398D01*
X134021015Y-104275886D01*
X133826494Y-104456375D01*
X133826492Y-104456377D01*
X133661042Y-104663845D01*
X133528361Y-104893654D01*
X133431416Y-105140667D01*
X133431410Y-105140686D01*
X133372364Y-105399385D01*
X133372363Y-105399390D01*
X133352535Y-105663995D01*
X133352535Y-105664004D01*
X133372363Y-105928609D01*
X133372364Y-105928614D01*
X133431410Y-106187313D01*
X133431412Y-106187322D01*
X133431414Y-106187327D01*
X133528361Y-106434345D01*
X133661042Y-106664155D01*
X133826492Y-106871623D01*
X134021016Y-107052114D01*
X134240268Y-107201598D01*
X134307301Y-107233879D01*
X134359161Y-107280700D01*
X134377500Y-107345599D01*
X134377500Y-112917500D01*
X134357815Y-112984539D01*
X134305011Y-113030294D01*
X134253500Y-113041500D01*
X122862080Y-113041500D01*
X122717092Y-113070340D01*
X122717086Y-113070342D01*
X122580508Y-113126914D01*
X122580496Y-113126921D01*
X122531269Y-113159813D01*
X122457588Y-113209044D01*
X122457580Y-113209050D01*
X119305047Y-116361584D01*
X119296823Y-116373894D01*
X119296822Y-116373896D01*
X119222913Y-116484508D01*
X119166343Y-116621082D01*
X119166340Y-116621092D01*
X119137500Y-116766079D01*
X119137500Y-118973648D01*
X119117815Y-119040687D01*
X119065011Y-119086442D01*
X119026755Y-119096938D01*
X118980516Y-119101909D01*
X118845671Y-119152202D01*
X118845664Y-119152206D01*
X118730455Y-119238452D01*
X118730452Y-119238455D01*
X118644206Y-119353664D01*
X118644202Y-119353671D01*
X118593908Y-119488517D01*
X118587501Y-119548116D01*
X118587500Y-119548135D01*
X118587500Y-121243870D01*
X118587501Y-121243876D01*
X118593908Y-121303483D01*
X118644202Y-121438328D01*
X118644206Y-121438335D01*
X118730452Y-121553544D01*
X118730455Y-121553547D01*
X118845664Y-121639793D01*
X118845671Y-121639797D01*
X118980516Y-121690091D01*
X119026757Y-121695063D01*
X119091307Y-121721801D01*
X119131155Y-121779194D01*
X119137500Y-121818351D01*
X119137500Y-123517918D01*
X119137500Y-123517920D01*
X119137499Y-123517920D01*
X119166340Y-123662907D01*
X119166343Y-123662917D01*
X119222912Y-123799488D01*
X119222918Y-123799499D01*
X119234689Y-123817114D01*
X119234691Y-123817119D01*
X119305046Y-123922414D01*
X119305052Y-123922421D01*
X120865181Y-125482549D01*
X120898666Y-125543872D01*
X120901500Y-125570230D01*
X120901500Y-125913057D01*
X120881815Y-125980096D01*
X120832595Y-126024145D01*
X120802704Y-126038969D01*
X120654278Y-126158277D01*
X120654277Y-126158278D01*
X120534969Y-126306704D01*
X120534967Y-126306707D01*
X120450360Y-126477302D01*
X120404400Y-126662107D01*
X120401500Y-126704879D01*
X120401500Y-128107122D01*
X120401501Y-128107125D01*
X120404399Y-128149886D01*
X120404399Y-128149887D01*
X120415883Y-128196064D01*
X120449151Y-128329837D01*
X120450360Y-128334696D01*
X120534967Y-128505292D01*
X120534969Y-128505295D01*
X120654277Y-128653721D01*
X120654278Y-128653722D01*
X120802704Y-128773030D01*
X120802707Y-128773032D01*
X120973302Y-128857639D01*
X120973303Y-128857639D01*
X120973307Y-128857641D01*
X121158111Y-128903600D01*
X121200877Y-128906500D01*
X122103122Y-128906499D01*
X122145889Y-128903600D01*
X122330693Y-128857641D01*
X122501296Y-128773030D01*
X122649722Y-128653722D01*
X122705353Y-128584514D01*
X122762696Y-128544595D01*
X122832518Y-128542015D01*
X122892651Y-128577594D01*
X122898647Y-128584514D01*
X122954277Y-128653721D01*
X122954278Y-128653722D01*
X123102704Y-128773030D01*
X123132594Y-128787854D01*
X123183907Y-128835275D01*
X123201500Y-128898942D01*
X123201500Y-132081500D01*
X123181815Y-132148539D01*
X123129011Y-132194294D01*
X123077500Y-132205500D01*
X122493971Y-132205500D01*
X122493965Y-132205500D01*
X122493964Y-132205501D01*
X122482316Y-132206536D01*
X122374584Y-132216113D01*
X122178954Y-132272089D01*
X122115389Y-132305293D01*
X121998593Y-132366302D01*
X121998591Y-132366303D01*
X121998590Y-132366304D01*
X121840890Y-132494890D01*
X121712304Y-132652590D01*
X121712302Y-132652593D01*
X121665196Y-132742772D01*
X121618089Y-132832954D01*
X121562114Y-133028583D01*
X121562113Y-133028586D01*
X121551500Y-133147966D01*
X121551500Y-134264028D01*
X121551501Y-134264034D01*
X121562113Y-134383415D01*
X121618089Y-134579045D01*
X121618090Y-134579048D01*
X121618091Y-134579049D01*
X121712302Y-134759407D01*
X121712304Y-134759409D01*
X121840890Y-134917109D01*
X121934803Y-134993684D01*
X121998593Y-135045698D01*
X122178951Y-135139909D01*
X122374582Y-135195886D01*
X122493963Y-135206500D01*
X125410036Y-135206499D01*
X125529418Y-135195886D01*
X125725049Y-135139909D01*
X125905407Y-135045698D01*
X126063109Y-134917109D01*
X126191698Y-134759407D01*
X126285909Y-134579049D01*
X126285911Y-134579043D01*
X126295256Y-134546387D01*
X126332624Y-134487349D01*
X126395978Y-134457887D01*
X126414471Y-134456500D01*
X128495920Y-134456500D01*
X128593462Y-134437096D01*
X128640913Y-134427658D01*
X128777495Y-134371084D01*
X128826729Y-134338186D01*
X128900416Y-134288952D01*
X130322548Y-132866818D01*
X130383871Y-132833334D01*
X130410229Y-132830500D01*
X132905796Y-132830500D01*
X132972835Y-132850185D01*
X133009604Y-132886678D01*
X133031842Y-132920716D01*
X133031850Y-132920727D01*
X133184950Y-133087036D01*
X133184954Y-133087040D01*
X133363351Y-133225893D01*
X133562169Y-133333488D01*
X133562172Y-133333489D01*
X133775982Y-133406890D01*
X133775984Y-133406890D01*
X133775986Y-133406891D01*
X133998967Y-133444100D01*
X133998968Y-133444100D01*
X134225032Y-133444100D01*
X134225033Y-133444100D01*
X134448014Y-133406891D01*
X134661831Y-133333488D01*
X134860649Y-133225893D01*
X135039046Y-133087040D01*
X135192156Y-132920719D01*
X135278193Y-132789028D01*
X135331338Y-132743675D01*
X135400569Y-132734251D01*
X135463905Y-132763753D01*
X135485804Y-132789025D01*
X135571844Y-132920719D01*
X135571849Y-132920724D01*
X135571850Y-132920727D01*
X135724950Y-133087036D01*
X135724954Y-133087040D01*
X135903351Y-133225893D01*
X136102169Y-133333488D01*
X136102172Y-133333489D01*
X136315982Y-133406890D01*
X136315984Y-133406890D01*
X136315986Y-133406891D01*
X136538967Y-133444100D01*
X136538968Y-133444100D01*
X136765032Y-133444100D01*
X136765033Y-133444100D01*
X136988014Y-133406891D01*
X137201831Y-133333488D01*
X137400649Y-133225893D01*
X137579046Y-133087040D01*
X137732156Y-132920719D01*
X137855802Y-132731465D01*
X137946611Y-132524441D01*
X138002107Y-132305293D01*
X138010376Y-132205500D01*
X138020775Y-132080006D01*
X138020775Y-132079993D01*
X138002107Y-131854710D01*
X138002107Y-131854707D01*
X137946611Y-131635559D01*
X137855802Y-131428535D01*
X137846904Y-131414916D01*
X137732157Y-131239283D01*
X137732149Y-131239272D01*
X137579049Y-131072963D01*
X137579048Y-131072962D01*
X137579046Y-131072960D01*
X137400649Y-130934107D01*
X137400647Y-130934106D01*
X137400646Y-130934105D01*
X137400639Y-130934100D01*
X137372836Y-130919055D01*
X137323244Y-130869837D01*
X137308135Y-130801620D01*
X137332306Y-130736064D01*
X137372836Y-130700945D01*
X137400639Y-130685899D01*
X137400642Y-130685896D01*
X137400649Y-130685893D01*
X137579046Y-130547040D01*
X137732156Y-130380719D01*
X137836063Y-130221678D01*
X137889209Y-130176322D01*
X137939871Y-130165500D01*
X148807145Y-130165500D01*
X148873116Y-130184505D01*
X149002478Y-130265789D01*
X149172745Y-130325368D01*
X149172750Y-130325369D01*
X149351996Y-130345565D01*
X149352000Y-130345565D01*
X149352004Y-130345565D01*
X149531249Y-130325369D01*
X149531252Y-130325368D01*
X149531255Y-130325368D01*
X149701522Y-130265789D01*
X149854262Y-130169816D01*
X149981816Y-130042262D01*
X150077789Y-129889522D01*
X150137368Y-129719255D01*
X150137369Y-129719249D01*
X150157565Y-129540003D01*
X150157565Y-129539996D01*
X150137369Y-129360750D01*
X150137368Y-129360745D01*
X150077788Y-129190476D01*
X149981815Y-129037737D01*
X149854262Y-128910184D01*
X149701523Y-128814211D01*
X149531254Y-128754631D01*
X149531249Y-128754630D01*
X149352004Y-128734435D01*
X149351996Y-128734435D01*
X149172750Y-128754630D01*
X149172745Y-128754631D01*
X149002476Y-128814211D01*
X148873117Y-128895494D01*
X148807145Y-128914500D01*
X137939871Y-128914500D01*
X137872832Y-128894815D01*
X137836063Y-128858322D01*
X137732157Y-128699283D01*
X137732149Y-128699272D01*
X137579049Y-128532963D01*
X137579048Y-128532962D01*
X137579046Y-128532960D01*
X137400649Y-128394107D01*
X137400647Y-128394106D01*
X137400646Y-128394105D01*
X137400639Y-128394100D01*
X137372836Y-128379055D01*
X137323244Y-128329837D01*
X137308135Y-128261620D01*
X137332306Y-128196064D01*
X137372836Y-128160945D01*
X137400639Y-128145899D01*
X137400642Y-128145896D01*
X137400649Y-128145893D01*
X137579046Y-128007040D01*
X137732156Y-127840719D01*
X137836063Y-127681678D01*
X137889209Y-127636322D01*
X137939871Y-127625500D01*
X150331145Y-127625500D01*
X150397116Y-127644505D01*
X150526478Y-127725789D01*
X150696745Y-127785368D01*
X150696750Y-127785369D01*
X150875996Y-127805565D01*
X150876000Y-127805565D01*
X150876004Y-127805565D01*
X151055249Y-127785369D01*
X151055252Y-127785368D01*
X151055255Y-127785368D01*
X151225522Y-127725789D01*
X151378262Y-127629816D01*
X151505816Y-127502262D01*
X151601789Y-127349522D01*
X151661368Y-127179255D01*
X151661369Y-127179249D01*
X151681565Y-127000003D01*
X151681565Y-126999996D01*
X151661369Y-126820750D01*
X151661368Y-126820745D01*
X151605882Y-126662175D01*
X151601789Y-126650478D01*
X151505816Y-126497738D01*
X151378262Y-126370184D01*
X151354883Y-126355494D01*
X151225523Y-126274211D01*
X151055254Y-126214631D01*
X151055249Y-126214630D01*
X150876004Y-126194435D01*
X150875996Y-126194435D01*
X150696750Y-126214630D01*
X150696745Y-126214631D01*
X150526476Y-126274211D01*
X150397117Y-126355494D01*
X150331145Y-126374500D01*
X137939871Y-126374500D01*
X137872832Y-126354815D01*
X137836063Y-126318322D01*
X137732157Y-126159283D01*
X137732149Y-126159272D01*
X137579049Y-125992963D01*
X137579048Y-125992962D01*
X137579046Y-125992960D01*
X137400649Y-125854107D01*
X137400647Y-125854106D01*
X137400646Y-125854105D01*
X137400643Y-125854103D01*
X137372309Y-125838770D01*
X137322718Y-125789551D01*
X137307610Y-125721334D01*
X137331780Y-125655778D01*
X137372309Y-125620660D01*
X137400372Y-125605473D01*
X137400376Y-125605470D01*
X137578703Y-125466672D01*
X137578715Y-125466661D01*
X137731759Y-125300412D01*
X137855360Y-125111225D01*
X137946135Y-124904278D01*
X137995334Y-124710000D01*
X137094251Y-124710000D01*
X137125381Y-124656081D01*
X137160000Y-124526880D01*
X137160000Y-124393120D01*
X137125381Y-124263919D01*
X137094251Y-124210000D01*
X137995334Y-124210000D01*
X137946135Y-124015721D01*
X137855360Y-123808774D01*
X137731759Y-123619587D01*
X137578715Y-123453338D01*
X137578703Y-123453327D01*
X137400376Y-123314529D01*
X137201630Y-123206972D01*
X137201624Y-123206970D01*
X136987893Y-123133596D01*
X136902000Y-123119263D01*
X136902000Y-124017748D01*
X136848081Y-123986619D01*
X136718880Y-123952000D01*
X136585120Y-123952000D01*
X136455919Y-123986619D01*
X136402000Y-124017748D01*
X136402000Y-123119263D01*
X136401999Y-123119263D01*
X136316106Y-123133596D01*
X136102375Y-123206970D01*
X136102369Y-123206972D01*
X135903623Y-123314529D01*
X135725296Y-123453327D01*
X135725290Y-123453333D01*
X135670761Y-123512567D01*
X135610874Y-123548557D01*
X135541035Y-123546456D01*
X135483420Y-123506931D01*
X135463350Y-123471916D01*
X135419397Y-123354071D01*
X135419393Y-123354064D01*
X135333147Y-123238855D01*
X135333144Y-123238852D01*
X135217935Y-123152606D01*
X135217928Y-123152602D01*
X135083082Y-123102308D01*
X135083083Y-123102308D01*
X135023483Y-123095901D01*
X135023481Y-123095900D01*
X135023473Y-123095900D01*
X135023465Y-123095900D01*
X134861500Y-123095900D01*
X134794461Y-123076215D01*
X134748706Y-123023411D01*
X134737500Y-122971900D01*
X134737500Y-121214452D01*
X134757185Y-121147413D01*
X134773819Y-121126771D01*
X136978272Y-118922319D01*
X137039595Y-118888834D01*
X137065953Y-118886000D01*
X140554912Y-118886000D01*
X140621951Y-118905685D01*
X140660449Y-118944901D01*
X140689288Y-118991656D01*
X140813344Y-119115712D01*
X140962666Y-119207814D01*
X141129203Y-119262999D01*
X141231991Y-119273500D01*
X142232008Y-119273499D01*
X142232016Y-119273498D01*
X142232019Y-119273498D01*
X142288302Y-119267748D01*
X142334797Y-119262999D01*
X142501334Y-119207814D01*
X142650656Y-119115712D01*
X142774712Y-118991656D01*
X142866814Y-118842334D01*
X142921999Y-118675797D01*
X142932500Y-118573009D01*
X142932499Y-117947992D01*
X142921999Y-117845203D01*
X142866814Y-117678666D01*
X142774712Y-117529344D01*
X142681049Y-117435681D01*
X142647564Y-117374358D01*
X142652548Y-117304666D01*
X142681049Y-117260319D01*
X142774712Y-117166656D01*
X142866814Y-117017334D01*
X142921999Y-116850797D01*
X142932500Y-116748009D01*
X142932499Y-116122992D01*
X142928441Y-116083271D01*
X142921999Y-116020203D01*
X142921998Y-116020200D01*
X142901180Y-115957375D01*
X142866814Y-115853666D01*
X142774712Y-115704344D01*
X142650656Y-115580288D01*
X142501334Y-115488186D01*
X142334797Y-115433001D01*
X142334795Y-115433000D01*
X142232016Y-115422500D01*
X142232009Y-115422500D01*
X141654952Y-115422500D01*
X141587913Y-115402815D01*
X141567271Y-115386181D01*
X141102698Y-114921608D01*
X141102678Y-114921586D01*
X141011235Y-114830143D01*
X140973602Y-114804998D01*
X140944956Y-114785857D01*
X140944957Y-114785857D01*
X140944955Y-114785855D01*
X140908790Y-114761690D01*
X140908786Y-114761688D01*
X140869689Y-114745494D01*
X140828292Y-114728347D01*
X140794953Y-114714537D01*
X140784927Y-114712543D01*
X140734529Y-114702518D01*
X140674110Y-114690500D01*
X140674107Y-114690500D01*
X140674106Y-114690500D01*
X140244855Y-114690500D01*
X140178883Y-114671494D01*
X140049523Y-114590211D01*
X139879254Y-114530631D01*
X139879249Y-114530630D01*
X139700004Y-114510435D01*
X139699996Y-114510435D01*
X139520750Y-114530630D01*
X139520745Y-114530631D01*
X139350476Y-114590211D01*
X139197737Y-114686184D01*
X139070184Y-114813737D01*
X138974211Y-114966476D01*
X138914631Y-115136745D01*
X138914630Y-115136750D01*
X138894435Y-115315996D01*
X138894435Y-115316003D01*
X138914630Y-115495249D01*
X138914631Y-115495254D01*
X138974211Y-115665523D01*
X139063833Y-115808154D01*
X139070184Y-115818262D01*
X139197738Y-115945816D01*
X139350478Y-116041789D01*
X139469027Y-116083271D01*
X139520745Y-116101368D01*
X139520750Y-116101369D01*
X139699996Y-116121565D01*
X139700000Y-116121565D01*
X139700004Y-116121565D01*
X139879249Y-116101369D01*
X139879252Y-116101368D01*
X139879255Y-116101368D01*
X140049522Y-116041789D01*
X140178883Y-115960505D01*
X140244855Y-115941500D01*
X140302048Y-115941500D01*
X140369087Y-115961185D01*
X140389729Y-115977819D01*
X140495181Y-116083271D01*
X140528666Y-116144594D01*
X140531500Y-116170952D01*
X140531500Y-116748001D01*
X140531501Y-116748019D01*
X140542000Y-116850796D01*
X140542001Y-116850799D01*
X140542229Y-116851486D01*
X140597186Y-117017334D01*
X140669880Y-117135191D01*
X140689289Y-117166657D01*
X140782951Y-117260319D01*
X140816436Y-117321642D01*
X140811452Y-117391334D01*
X140782951Y-117435681D01*
X140689289Y-117529342D01*
X140660451Y-117576097D01*
X140608503Y-117622821D01*
X140554912Y-117635000D01*
X136823241Y-117635000D01*
X136823221Y-117634999D01*
X136817107Y-117634999D01*
X136693894Y-117634999D01*
X136593097Y-117655048D01*
X136593092Y-117655048D01*
X136573049Y-117659036D01*
X136538013Y-117673549D01*
X136538012Y-117673549D01*
X136459221Y-117706184D01*
X136459208Y-117706191D01*
X136356767Y-117774641D01*
X136356763Y-117774644D01*
X133713269Y-120418140D01*
X133626144Y-120505264D01*
X133626138Y-120505272D01*
X133557692Y-120607705D01*
X133557684Y-120607719D01*
X133524347Y-120688207D01*
X133518823Y-120701543D01*
X133510537Y-120721545D01*
X133510535Y-120721553D01*
X133486500Y-120842389D01*
X133486500Y-122971900D01*
X133466815Y-123038939D01*
X133414011Y-123084694D01*
X133362501Y-123095900D01*
X133200530Y-123095900D01*
X133200523Y-123095901D01*
X133140916Y-123102308D01*
X133006071Y-123152602D01*
X133006064Y-123152606D01*
X132890855Y-123238852D01*
X132890852Y-123238855D01*
X132804606Y-123354064D01*
X132804602Y-123354071D01*
X132754308Y-123488917D01*
X132747901Y-123548516D01*
X132747900Y-123548535D01*
X132747900Y-125371470D01*
X132747901Y-125371476D01*
X132754308Y-125431083D01*
X132804602Y-125565928D01*
X132804606Y-125565935D01*
X132890852Y-125681144D01*
X132890855Y-125681147D01*
X133006064Y-125767393D01*
X133006071Y-125767397D01*
X133120983Y-125810256D01*
X133176916Y-125852127D01*
X133201334Y-125917591D01*
X133186483Y-125985864D01*
X133168880Y-126010421D01*
X133031845Y-126159279D01*
X133031842Y-126159283D01*
X132908198Y-126348533D01*
X132817388Y-126555560D01*
X132761892Y-126774710D01*
X132743225Y-126999993D01*
X132743225Y-127000006D01*
X132761892Y-127225289D01*
X132817388Y-127444439D01*
X132908198Y-127651466D01*
X133031842Y-127840716D01*
X133031850Y-127840727D01*
X133184950Y-128007036D01*
X133184954Y-128007040D01*
X133363351Y-128145893D01*
X133391165Y-128160945D01*
X133440755Y-128210165D01*
X133455863Y-128278382D01*
X133431692Y-128343937D01*
X133391165Y-128379055D01*
X133363352Y-128394106D01*
X133184955Y-128532959D01*
X133184950Y-128532963D01*
X133031850Y-128699272D01*
X133031842Y-128699283D01*
X132908198Y-128888533D01*
X132817388Y-129095560D01*
X132761892Y-129314710D01*
X132743225Y-129539993D01*
X132743225Y-129540006D01*
X132761892Y-129765289D01*
X132817388Y-129984439D01*
X132908198Y-130191466D01*
X133031842Y-130380716D01*
X133031850Y-130380727D01*
X133184950Y-130547036D01*
X133184954Y-130547040D01*
X133363351Y-130685893D01*
X133391165Y-130700945D01*
X133440755Y-130750165D01*
X133455863Y-130818382D01*
X133431692Y-130883937D01*
X133391165Y-130919055D01*
X133363352Y-130934106D01*
X133184955Y-131072959D01*
X133184950Y-131072963D01*
X133031850Y-131239272D01*
X133031842Y-131239283D01*
X133009604Y-131273322D01*
X132956458Y-131318678D01*
X132905796Y-131329500D01*
X129974080Y-131329500D01*
X129829092Y-131358340D01*
X129829082Y-131358343D01*
X129692511Y-131414912D01*
X129692498Y-131414919D01*
X129569584Y-131497048D01*
X129569580Y-131497051D01*
X128147451Y-132919181D01*
X128086128Y-132952666D01*
X128059770Y-132955500D01*
X126414471Y-132955500D01*
X126347432Y-132935815D01*
X126301677Y-132883011D01*
X126295256Y-132865613D01*
X126285911Y-132832956D01*
X126285909Y-132832953D01*
X126285909Y-132832951D01*
X126191698Y-132652593D01*
X126087204Y-132524441D01*
X126063109Y-132494890D01*
X125905409Y-132366304D01*
X125905410Y-132366304D01*
X125905407Y-132366302D01*
X125725049Y-132272091D01*
X125725048Y-132272090D01*
X125725045Y-132272089D01*
X125607829Y-132238550D01*
X125529418Y-132216114D01*
X125529415Y-132216113D01*
X125529413Y-132216113D01*
X125456631Y-132209642D01*
X125410037Y-132205500D01*
X125410033Y-132205500D01*
X124826500Y-132205500D01*
X124759461Y-132185815D01*
X124713706Y-132133011D01*
X124702500Y-132081500D01*
X124702500Y-128898942D01*
X124722185Y-128831903D01*
X124771406Y-128787854D01*
X124772399Y-128787361D01*
X124801296Y-128773030D01*
X124949722Y-128653722D01*
X125005675Y-128584112D01*
X125063015Y-128544196D01*
X125132837Y-128541616D01*
X125192970Y-128577194D01*
X125198967Y-128584115D01*
X125254632Y-128653366D01*
X125254633Y-128653367D01*
X125402974Y-128772607D01*
X125402977Y-128772609D01*
X125573476Y-128857168D01*
X125758175Y-128903102D01*
X125800903Y-128906000D01*
X126002000Y-128906000D01*
X126002000Y-127656000D01*
X126502000Y-127656000D01*
X126502000Y-128906000D01*
X126703097Y-128906000D01*
X126745824Y-128903102D01*
X126930523Y-128857168D01*
X127101022Y-128772609D01*
X127101025Y-128772607D01*
X127249366Y-128653367D01*
X127249367Y-128653366D01*
X127368607Y-128505025D01*
X127368609Y-128505022D01*
X127453168Y-128334523D01*
X127499102Y-128149824D01*
X127502000Y-128107096D01*
X127502000Y-127656000D01*
X126502000Y-127656000D01*
X126002000Y-127656000D01*
X126002000Y-125906000D01*
X126502000Y-125906000D01*
X126502000Y-127156000D01*
X127502000Y-127156000D01*
X127502000Y-126704903D01*
X127499102Y-126662175D01*
X127453168Y-126477476D01*
X127368609Y-126306977D01*
X127368607Y-126306974D01*
X127249367Y-126158633D01*
X127249366Y-126158632D01*
X127101025Y-126039392D01*
X127101022Y-126039390D01*
X126930523Y-125954831D01*
X126745824Y-125908897D01*
X126703097Y-125906000D01*
X126502000Y-125906000D01*
X126002000Y-125906000D01*
X125800903Y-125906000D01*
X125758175Y-125908897D01*
X125573476Y-125954831D01*
X125402977Y-126039390D01*
X125402974Y-126039392D01*
X125254635Y-126158631D01*
X125198967Y-126227885D01*
X125141624Y-126267803D01*
X125071801Y-126270383D01*
X125011669Y-126234804D01*
X125005673Y-126227884D01*
X124949722Y-126158278D01*
X124949721Y-126158277D01*
X124801295Y-126038969D01*
X124771405Y-126024145D01*
X124720092Y-125976723D01*
X124702500Y-125913057D01*
X124702500Y-125330229D01*
X124722185Y-125263190D01*
X124738819Y-125242548D01*
X125588247Y-124393120D01*
X126627840Y-123353527D01*
X126655093Y-123312739D01*
X126709972Y-123230607D01*
X126750348Y-123133132D01*
X126763114Y-123102312D01*
X126763116Y-123102308D01*
X126766544Y-123094031D01*
X126766543Y-123094031D01*
X126766547Y-123094024D01*
X126795388Y-122949029D01*
X126795388Y-122801194D01*
X126795388Y-121818351D01*
X126815073Y-121751312D01*
X126867877Y-121705557D01*
X126906135Y-121695061D01*
X126952371Y-121690091D01*
X127087219Y-121639796D01*
X127202434Y-121553546D01*
X127209238Y-121544455D01*
X127265168Y-121502584D01*
X127334859Y-121497597D01*
X127379628Y-121517188D01*
X127392400Y-121526130D01*
X127392406Y-121526134D01*
X127598561Y-121622265D01*
X127598570Y-121622269D01*
X127818277Y-121681139D01*
X127818288Y-121681141D01*
X128044886Y-121700966D01*
X128044890Y-121700966D01*
X128271487Y-121681141D01*
X128271498Y-121681139D01*
X128491205Y-121622269D01*
X128491219Y-121622264D01*
X128697366Y-121526136D01*
X128770359Y-121475024D01*
X128091335Y-120796000D01*
X128097549Y-120796000D01*
X128199282Y-120768741D01*
X128290494Y-120716080D01*
X128364968Y-120641606D01*
X128417629Y-120550394D01*
X128444888Y-120448661D01*
X128444888Y-120442447D01*
X129123912Y-121121471D01*
X129175024Y-121048478D01*
X129271152Y-120842331D01*
X129271157Y-120842317D01*
X129330027Y-120622610D01*
X129330029Y-120622599D01*
X129349854Y-120396002D01*
X129349854Y-120395997D01*
X129330029Y-120169400D01*
X129330027Y-120169389D01*
X129271157Y-119949682D01*
X129271152Y-119949668D01*
X129175024Y-119743521D01*
X129175020Y-119743513D01*
X129123913Y-119670526D01*
X128444888Y-120349551D01*
X128444888Y-120343339D01*
X128417629Y-120241606D01*
X128364968Y-120150394D01*
X128290494Y-120075920D01*
X128199282Y-120023259D01*
X128097549Y-119996000D01*
X128091335Y-119996000D01*
X128770360Y-119316974D01*
X128697366Y-119265863D01*
X128491219Y-119169735D01*
X128491205Y-119169730D01*
X128271498Y-119110860D01*
X128271487Y-119110858D01*
X128044890Y-119091034D01*
X128044886Y-119091034D01*
X127818288Y-119110858D01*
X127818277Y-119110860D01*
X127598570Y-119169730D01*
X127598561Y-119169734D01*
X127392400Y-119265868D01*
X127392395Y-119265871D01*
X127379624Y-119274813D01*
X127313417Y-119297138D01*
X127245651Y-119280124D01*
X127209240Y-119247546D01*
X127202434Y-119238454D01*
X127202432Y-119238453D01*
X127202432Y-119238452D01*
X127087223Y-119152206D01*
X127087216Y-119152202D01*
X126952370Y-119101908D01*
X126952371Y-119101908D01*
X126892771Y-119095501D01*
X126892769Y-119095500D01*
X126892761Y-119095500D01*
X126892752Y-119095500D01*
X125197017Y-119095500D01*
X125197011Y-119095501D01*
X125137404Y-119101908D01*
X125002559Y-119152202D01*
X125002552Y-119152206D01*
X124887343Y-119238452D01*
X124887340Y-119238455D01*
X124801094Y-119353664D01*
X124801090Y-119353671D01*
X124750796Y-119488517D01*
X124744389Y-119548116D01*
X124744388Y-119548135D01*
X124744388Y-121243870D01*
X124744389Y-121243876D01*
X124750796Y-121303483D01*
X124801090Y-121438328D01*
X124801094Y-121438335D01*
X124887340Y-121553544D01*
X124887343Y-121553547D01*
X125002552Y-121639793D01*
X125002559Y-121639797D01*
X125137404Y-121690091D01*
X125183645Y-121695063D01*
X125248195Y-121721801D01*
X125288043Y-121779194D01*
X125294388Y-121818352D01*
X125294388Y-122512882D01*
X125274703Y-122579921D01*
X125258069Y-122600563D01*
X123369047Y-124489584D01*
X123369045Y-124489586D01*
X123333416Y-124542913D01*
X123333414Y-124542916D01*
X123286919Y-124612499D01*
X123286912Y-124612511D01*
X123230343Y-124749082D01*
X123230340Y-124749092D01*
X123201500Y-124894079D01*
X123201500Y-125913057D01*
X123181815Y-125980096D01*
X123132595Y-126024145D01*
X123102704Y-126038969D01*
X122954278Y-126158277D01*
X122954277Y-126158278D01*
X122898647Y-126227486D01*
X122841304Y-126267405D01*
X122771482Y-126269985D01*
X122711349Y-126234406D01*
X122705353Y-126227486D01*
X122649722Y-126158278D01*
X122649721Y-126158277D01*
X122501295Y-126038969D01*
X122471405Y-126024145D01*
X122420092Y-125976723D01*
X122402500Y-125913057D01*
X122402500Y-125134080D01*
X122395166Y-125097216D01*
X122384167Y-125041917D01*
X122373659Y-124989088D01*
X122334306Y-124894082D01*
X122317084Y-124852505D01*
X122252793Y-124756286D01*
X122234952Y-124729584D01*
X120674819Y-123169451D01*
X120641334Y-123108128D01*
X120638500Y-123081770D01*
X120638500Y-121818351D01*
X120658185Y-121751312D01*
X120710989Y-121705557D01*
X120749247Y-121695061D01*
X120795483Y-121690091D01*
X120930331Y-121639796D01*
X121045546Y-121553546D01*
X121052350Y-121544455D01*
X121108280Y-121502584D01*
X121177971Y-121497597D01*
X121222740Y-121517188D01*
X121235512Y-121526130D01*
X121235518Y-121526134D01*
X121441673Y-121622265D01*
X121441682Y-121622269D01*
X121661389Y-121681139D01*
X121661400Y-121681141D01*
X121887998Y-121700966D01*
X121888002Y-121700966D01*
X122114599Y-121681141D01*
X122114610Y-121681139D01*
X122334317Y-121622269D01*
X122334331Y-121622264D01*
X122540478Y-121526136D01*
X122613471Y-121475024D01*
X121934447Y-120796000D01*
X121940661Y-120796000D01*
X122042394Y-120768741D01*
X122133606Y-120716080D01*
X122208080Y-120641606D01*
X122260741Y-120550394D01*
X122288000Y-120448661D01*
X122288000Y-120442447D01*
X122967024Y-121121471D01*
X123018136Y-121048478D01*
X123114264Y-120842331D01*
X123114269Y-120842317D01*
X123173139Y-120622610D01*
X123173141Y-120622599D01*
X123192966Y-120396002D01*
X123192966Y-120395997D01*
X123173141Y-120169400D01*
X123173139Y-120169389D01*
X123114269Y-119949682D01*
X123114264Y-119949668D01*
X123018136Y-119743521D01*
X123018132Y-119743513D01*
X122967025Y-119670526D01*
X122288000Y-120349551D01*
X122288000Y-120343339D01*
X122260741Y-120241606D01*
X122208080Y-120150394D01*
X122133606Y-120075920D01*
X122042394Y-120023259D01*
X121940661Y-119996000D01*
X121934447Y-119996000D01*
X122613472Y-119316974D01*
X122540478Y-119265863D01*
X122334331Y-119169735D01*
X122334317Y-119169730D01*
X122114610Y-119110860D01*
X122114599Y-119110858D01*
X121888002Y-119091034D01*
X121887998Y-119091034D01*
X121661400Y-119110858D01*
X121661389Y-119110860D01*
X121441682Y-119169730D01*
X121441673Y-119169734D01*
X121235512Y-119265868D01*
X121235507Y-119265871D01*
X121222736Y-119274813D01*
X121156529Y-119297138D01*
X121088763Y-119280124D01*
X121052352Y-119247546D01*
X121045546Y-119238454D01*
X121045544Y-119238453D01*
X121045544Y-119238452D01*
X120930335Y-119152206D01*
X120930328Y-119152202D01*
X120795483Y-119101908D01*
X120749243Y-119096937D01*
X120684693Y-119070199D01*
X120644845Y-119012806D01*
X120638500Y-118973648D01*
X120638500Y-117202230D01*
X120658185Y-117135191D01*
X120674819Y-117114549D01*
X123210549Y-114578819D01*
X123271872Y-114545334D01*
X123298230Y-114542500D01*
X135054082Y-114542500D01*
X135201918Y-114542500D01*
X136593270Y-114542500D01*
X136660309Y-114562185D01*
X136680951Y-114578819D01*
X136749344Y-114647212D01*
X136898666Y-114739314D01*
X137065203Y-114794499D01*
X137167991Y-114805000D01*
X138168008Y-114804999D01*
X138168016Y-114804998D01*
X138168019Y-114804998D01*
X138224302Y-114799248D01*
X138270797Y-114794499D01*
X138437334Y-114739314D01*
X138586656Y-114647212D01*
X138710712Y-114523156D01*
X138802814Y-114373834D01*
X138857999Y-114207297D01*
X138868500Y-114104509D01*
X138868499Y-113673870D01*
X140381500Y-113673870D01*
X140381501Y-113673876D01*
X140387908Y-113733483D01*
X140438202Y-113868328D01*
X140438206Y-113868335D01*
X140524452Y-113983544D01*
X140524455Y-113983547D01*
X140639664Y-114069793D01*
X140639671Y-114069797D01*
X140774517Y-114120091D01*
X140774516Y-114120091D01*
X140781444Y-114120835D01*
X140834127Y-114126500D01*
X142629872Y-114126499D01*
X142689483Y-114120091D01*
X142824331Y-114069796D01*
X142939546Y-113983546D01*
X143025796Y-113868331D01*
X143076091Y-113733483D01*
X143082500Y-113673873D01*
X143082500Y-113525500D01*
X143102185Y-113458461D01*
X143154989Y-113412706D01*
X143206500Y-113401500D01*
X143317607Y-113401500D01*
X143378029Y-113389481D01*
X143438452Y-113377463D01*
X143438455Y-113377461D01*
X143438458Y-113377461D01*
X143471787Y-113363654D01*
X143471786Y-113363654D01*
X143471792Y-113363652D01*
X143552286Y-113330312D01*
X143603509Y-113296084D01*
X143654733Y-113261858D01*
X143741858Y-113174733D01*
X143741859Y-113174730D01*
X144249857Y-112666734D01*
X144249858Y-112666731D01*
X144256925Y-112659665D01*
X144256930Y-112659659D01*
X144287775Y-112628816D01*
X144349099Y-112595333D01*
X144375453Y-112592500D01*
X144618912Y-112592500D01*
X144685951Y-112612185D01*
X144724449Y-112651401D01*
X144733907Y-112666734D01*
X144753289Y-112698157D01*
X144846951Y-112791819D01*
X144880436Y-112853142D01*
X144875452Y-112922834D01*
X144846951Y-112967181D01*
X144753288Y-113060843D01*
X144753285Y-113060847D01*
X144712246Y-113127382D01*
X144660298Y-113174107D01*
X144630901Y-113183902D01*
X144597552Y-113190535D01*
X144597547Y-113190537D01*
X144483716Y-113237687D01*
X144381265Y-113306142D01*
X144381262Y-113306145D01*
X143873269Y-113814140D01*
X143786144Y-113901264D01*
X143786138Y-113901272D01*
X143717690Y-114003708D01*
X143717688Y-114003713D01*
X143690317Y-114069794D01*
X143670538Y-114117543D01*
X143670538Y-114117545D01*
X143670537Y-114117548D01*
X143646500Y-114238394D01*
X143646500Y-117917606D01*
X143670537Y-118038452D01*
X143670538Y-118038454D01*
X143670538Y-118038456D01*
X143682657Y-118067713D01*
X143682658Y-118067715D01*
X143717685Y-118152280D01*
X143717690Y-118152289D01*
X143751914Y-118203507D01*
X143751915Y-118203509D01*
X143786140Y-118254731D01*
X143786141Y-118254732D01*
X143786142Y-118254733D01*
X143873267Y-118341858D01*
X143873268Y-118341858D01*
X143880335Y-118348925D01*
X143880334Y-118348925D01*
X143880337Y-118348927D01*
X144294141Y-118762732D01*
X144294142Y-118762733D01*
X144381267Y-118849858D01*
X144435357Y-118886000D01*
X144483714Y-118918311D01*
X144597548Y-118965463D01*
X144612821Y-118968501D01*
X144630898Y-118972097D01*
X144692809Y-119004482D01*
X144712245Y-119028616D01*
X144753287Y-119095155D01*
X144753288Y-119095156D01*
X144877344Y-119219212D01*
X144976099Y-119280124D01*
X145026668Y-119311315D01*
X145043747Y-119316974D01*
X145085502Y-119330810D01*
X145142947Y-119370581D01*
X145169772Y-119435096D01*
X145170500Y-119448516D01*
X145170500Y-119851145D01*
X145151494Y-119917117D01*
X145070211Y-120046476D01*
X145010631Y-120216745D01*
X145010630Y-120216750D01*
X144990435Y-120395996D01*
X144990435Y-120396003D01*
X145010630Y-120575249D01*
X145010631Y-120575254D01*
X145070211Y-120745523D01*
X145131080Y-120842394D01*
X145166184Y-120898262D01*
X145293738Y-121025816D01*
X145446478Y-121121789D01*
X145616745Y-121181368D01*
X145616750Y-121181369D01*
X145795996Y-121201565D01*
X145796000Y-121201565D01*
X145796004Y-121201565D01*
X145975249Y-121181369D01*
X145975252Y-121181368D01*
X145975255Y-121181368D01*
X146145522Y-121121789D01*
X146298262Y-121025816D01*
X146425816Y-120898262D01*
X146521789Y-120745522D01*
X146581368Y-120575255D01*
X146581369Y-120575249D01*
X146601565Y-120396003D01*
X146601565Y-120395996D01*
X146581369Y-120216750D01*
X146581368Y-120216745D01*
X146521788Y-120046476D01*
X146440506Y-119917117D01*
X146421500Y-119851145D01*
X146421500Y-119448516D01*
X146441185Y-119381477D01*
X146493989Y-119335722D01*
X146506488Y-119330813D01*
X146565334Y-119311314D01*
X146714656Y-119219212D01*
X146838712Y-119095156D01*
X146930814Y-118945834D01*
X146985999Y-118779297D01*
X146996500Y-118676509D01*
X146996499Y-118051492D01*
X146995167Y-118038456D01*
X146985999Y-117948703D01*
X146985998Y-117948700D01*
X146951701Y-117845200D01*
X146930814Y-117782166D01*
X146838712Y-117632844D01*
X146744695Y-117538827D01*
X146711210Y-117477504D01*
X146716194Y-117407812D01*
X146744695Y-117363464D01*
X146838317Y-117269842D01*
X146930356Y-117120624D01*
X146930358Y-117120619D01*
X146985505Y-116954197D01*
X146985506Y-116954190D01*
X146995999Y-116851486D01*
X146996000Y-116851473D01*
X146996000Y-116789000D01*
X145670000Y-116789000D01*
X145602961Y-116769315D01*
X145557206Y-116716511D01*
X145546000Y-116665000D01*
X145546000Y-115526500D01*
X146046000Y-115526500D01*
X146046000Y-116289000D01*
X146995999Y-116289000D01*
X146995999Y-116226528D01*
X146995998Y-116226513D01*
X146985505Y-116123802D01*
X146930358Y-115957380D01*
X146930356Y-115957375D01*
X146838315Y-115808154D01*
X146714345Y-115684184D01*
X146565124Y-115592143D01*
X146565119Y-115592141D01*
X146398697Y-115536994D01*
X146398690Y-115536993D01*
X146295986Y-115526500D01*
X146046000Y-115526500D01*
X145546000Y-115526500D01*
X145296029Y-115526500D01*
X145296012Y-115526501D01*
X145193302Y-115536994D01*
X145060504Y-115580999D01*
X144990675Y-115583401D01*
X144930634Y-115547669D01*
X144899441Y-115485148D01*
X144897500Y-115463293D01*
X144897500Y-114868232D01*
X144917185Y-114801193D01*
X144969989Y-114755438D01*
X145039147Y-114745494D01*
X145060495Y-114750523D01*
X145193203Y-114794499D01*
X145295991Y-114805000D01*
X146296008Y-114804999D01*
X146296016Y-114804998D01*
X146296019Y-114804998D01*
X146352302Y-114799248D01*
X146398797Y-114794499D01*
X146565334Y-114739314D01*
X146714656Y-114647212D01*
X146838712Y-114523156D01*
X146930814Y-114373834D01*
X146985999Y-114207297D01*
X146996500Y-114104509D01*
X146996499Y-113479492D01*
X146985999Y-113376703D01*
X146930814Y-113210166D01*
X146838712Y-113060844D01*
X146745049Y-112967181D01*
X146711564Y-112905858D01*
X146716548Y-112836166D01*
X146745049Y-112791819D01*
X146838712Y-112698156D01*
X146930814Y-112548834D01*
X146985999Y-112382297D01*
X146996500Y-112279509D01*
X146996499Y-111654492D01*
X146985999Y-111551703D01*
X146930814Y-111385166D01*
X146838712Y-111235844D01*
X146714656Y-111111788D01*
X146565334Y-111019686D01*
X146398797Y-110964501D01*
X146398795Y-110964500D01*
X146296010Y-110954000D01*
X145295998Y-110954000D01*
X145295980Y-110954001D01*
X145193203Y-110964500D01*
X145193200Y-110964501D01*
X145026668Y-111019685D01*
X145026663Y-111019687D01*
X144877342Y-111111789D01*
X144753289Y-111235842D01*
X144724451Y-111282597D01*
X144672503Y-111329321D01*
X144618912Y-111341500D01*
X144003389Y-111341500D01*
X143942971Y-111353518D01*
X143899743Y-111362116D01*
X143882546Y-111365537D01*
X143768716Y-111412687D01*
X143768707Y-111412692D01*
X143666268Y-111481140D01*
X143622705Y-111524703D01*
X143579142Y-111568267D01*
X143579139Y-111568270D01*
X143365269Y-111782140D01*
X143365266Y-111782143D01*
X143294573Y-111852836D01*
X143281201Y-111866208D01*
X143219877Y-111899692D01*
X143150186Y-111894708D01*
X143094252Y-111852836D01*
X143077338Y-111821859D01*
X143025797Y-111683671D01*
X143025793Y-111683664D01*
X142939547Y-111568455D01*
X142939544Y-111568452D01*
X142824335Y-111482206D01*
X142824328Y-111482202D01*
X142689482Y-111431908D01*
X142689483Y-111431908D01*
X142629883Y-111425501D01*
X142629881Y-111425500D01*
X142629873Y-111425500D01*
X142629864Y-111425500D01*
X140834129Y-111425500D01*
X140834123Y-111425501D01*
X140774516Y-111431908D01*
X140639671Y-111482202D01*
X140639664Y-111482206D01*
X140524455Y-111568452D01*
X140524452Y-111568455D01*
X140438206Y-111683664D01*
X140438202Y-111683671D01*
X140387908Y-111818517D01*
X140381501Y-111878116D01*
X140381500Y-111878135D01*
X140381500Y-113673870D01*
X138868499Y-113673870D01*
X138868499Y-113479492D01*
X138857999Y-113376703D01*
X138802814Y-113210166D01*
X138710712Y-113060844D01*
X138617049Y-112967181D01*
X138583564Y-112905858D01*
X138588548Y-112836166D01*
X138617049Y-112791819D01*
X138710712Y-112698156D01*
X138802814Y-112548834D01*
X138857999Y-112382297D01*
X138868500Y-112279509D01*
X138868499Y-111654492D01*
X138857999Y-111551703D01*
X138802814Y-111385166D01*
X138710712Y-111235844D01*
X138586656Y-111111788D01*
X138437334Y-111019686D01*
X138378493Y-111000188D01*
X138321051Y-110960416D01*
X138294228Y-110895900D01*
X138293500Y-110882483D01*
X138293500Y-109764854D01*
X138312507Y-109698881D01*
X138393788Y-109569524D01*
X138453368Y-109399254D01*
X138453369Y-109399249D01*
X138473565Y-109220003D01*
X138473565Y-109219996D01*
X138453369Y-109040750D01*
X138453368Y-109040745D01*
X138393788Y-108870476D01*
X138297815Y-108717737D01*
X138170262Y-108590184D01*
X138017523Y-108494211D01*
X137847254Y-108434631D01*
X137847249Y-108434630D01*
X137668004Y-108414435D01*
X137667996Y-108414435D01*
X137488750Y-108434630D01*
X137488745Y-108434631D01*
X137318476Y-108494211D01*
X137165737Y-108590184D01*
X137038184Y-108717737D01*
X136942211Y-108870476D01*
X136882631Y-109040745D01*
X136882630Y-109040750D01*
X136862435Y-109219996D01*
X136862435Y-109220003D01*
X136882630Y-109399249D01*
X136882631Y-109399254D01*
X136942211Y-109569524D01*
X137023493Y-109698881D01*
X137042500Y-109764854D01*
X137042500Y-110882483D01*
X137022815Y-110949522D01*
X136970011Y-110995277D01*
X136957510Y-111000186D01*
X136898669Y-111019685D01*
X136898666Y-111019686D01*
X136898663Y-111019687D01*
X136749342Y-111111789D01*
X136625289Y-111235842D01*
X136533187Y-111385163D01*
X136533185Y-111385168D01*
X136519820Y-111425501D01*
X136478001Y-111551703D01*
X136478001Y-111551704D01*
X136478000Y-111551704D01*
X136467500Y-111654483D01*
X136467500Y-112279501D01*
X136467501Y-112279519D01*
X136478000Y-112382296D01*
X136478001Y-112382299D01*
X136533185Y-112548831D01*
X136533186Y-112548834D01*
X136605904Y-112666730D01*
X136625289Y-112698157D01*
X136718951Y-112791819D01*
X136752436Y-112853142D01*
X136747452Y-112922834D01*
X136718951Y-112967181D01*
X136680951Y-113005181D01*
X136619628Y-113038666D01*
X136593270Y-113041500D01*
X136002500Y-113041500D01*
X135935461Y-113021815D01*
X135889706Y-112969011D01*
X135878500Y-112917500D01*
X135878500Y-107345599D01*
X135898185Y-107278560D01*
X135948697Y-107233880D01*
X136015733Y-107201598D01*
X136234984Y-107052114D01*
X136429508Y-106871623D01*
X136594958Y-106664155D01*
X136689760Y-106499953D01*
X136703301Y-106476500D01*
X136753868Y-106428284D01*
X136810688Y-106414500D01*
X141805920Y-106414500D01*
X141903462Y-106395096D01*
X141950913Y-106385658D01*
X142087495Y-106329084D01*
X142136729Y-106296186D01*
X142210416Y-106246952D01*
X142793364Y-105664004D01*
X151133037Y-105664004D01*
X151152860Y-105928535D01*
X151152861Y-105928540D01*
X151211890Y-106187166D01*
X151211896Y-106187185D01*
X151308814Y-106434128D01*
X151308813Y-106434128D01*
X151441457Y-106663871D01*
X151491642Y-106726803D01*
X151491643Y-106726803D01*
X152306958Y-105911488D01*
X152331978Y-105971890D01*
X152403112Y-106078351D01*
X152493649Y-106168888D01*
X152600110Y-106240022D01*
X152660510Y-106265041D01*
X151844438Y-107081112D01*
X152020525Y-107201166D01*
X152020526Y-107201167D01*
X152259530Y-107316264D01*
X152259528Y-107316264D01*
X152513025Y-107394458D01*
X152513031Y-107394459D01*
X152775351Y-107433999D01*
X152775358Y-107434000D01*
X153040642Y-107434000D01*
X153040648Y-107433999D01*
X153302968Y-107394459D01*
X153302974Y-107394458D01*
X153556470Y-107316264D01*
X153795479Y-107201164D01*
X153971560Y-107081112D01*
X153155488Y-106265041D01*
X153215890Y-106240022D01*
X153322351Y-106168888D01*
X153412888Y-106078351D01*
X153484022Y-105971890D01*
X153509041Y-105911488D01*
X154324355Y-106726803D01*
X154324356Y-106726802D01*
X154374545Y-106663869D01*
X154507185Y-106434128D01*
X154604103Y-106187185D01*
X154604109Y-106187166D01*
X154663138Y-105928540D01*
X154663139Y-105928535D01*
X154682963Y-105664004D01*
X154682963Y-105663995D01*
X154663139Y-105399464D01*
X154663138Y-105399459D01*
X154604109Y-105140833D01*
X154604103Y-105140814D01*
X154507185Y-104893871D01*
X154507186Y-104893871D01*
X154374543Y-104664129D01*
X154374536Y-104664118D01*
X154324356Y-104601196D01*
X154324355Y-104601195D01*
X153509041Y-105416510D01*
X153484022Y-105356110D01*
X153412888Y-105249649D01*
X153322351Y-105159112D01*
X153215890Y-105087978D01*
X153155488Y-105062958D01*
X153971560Y-104246886D01*
X153795484Y-104126839D01*
X153795474Y-104126832D01*
X153556469Y-104011735D01*
X153556471Y-104011735D01*
X153302974Y-103933541D01*
X153302968Y-103933540D01*
X153040648Y-103894000D01*
X152775351Y-103894000D01*
X152513031Y-103933540D01*
X152513025Y-103933541D01*
X152259529Y-104011735D01*
X152020526Y-104126832D01*
X152020518Y-104126837D01*
X151844438Y-104246886D01*
X152660511Y-105062958D01*
X152600110Y-105087978D01*
X152493649Y-105159112D01*
X152403112Y-105249649D01*
X152331978Y-105356110D01*
X152306958Y-105416511D01*
X151491643Y-104601196D01*
X151441456Y-104664128D01*
X151308814Y-104893871D01*
X151211896Y-105140814D01*
X151211890Y-105140833D01*
X151152861Y-105399459D01*
X151152860Y-105399464D01*
X151133037Y-105663995D01*
X151133037Y-105664004D01*
X142793364Y-105664004D01*
X143330952Y-105126416D01*
X143405761Y-105014454D01*
X143413084Y-105003495D01*
X143469658Y-104866913D01*
X143490414Y-104762567D01*
X143498500Y-104721920D01*
X143498500Y-90858081D01*
X143492763Y-90829242D01*
X143492763Y-90829240D01*
X143469660Y-90713095D01*
X143469659Y-90713088D01*
X143415408Y-90582117D01*
X143413765Y-90577525D01*
X143413084Y-90576505D01*
X143380186Y-90527270D01*
X143352393Y-90485673D01*
X143330956Y-90453589D01*
X143330952Y-90453584D01*
X141583906Y-88706538D01*
X141550421Y-88645215D01*
X141548230Y-88631470D01*
X141547999Y-88629203D01*
X141492814Y-88462666D01*
X141400712Y-88313344D01*
X141276656Y-88189288D01*
X141127334Y-88097186D01*
X141127333Y-88097185D01*
X141127327Y-88097183D01*
X141122364Y-88095539D01*
X141064920Y-88055766D01*
X141038098Y-87991249D01*
X141050414Y-87922474D01*
X141052012Y-87919381D01*
X141136335Y-87761623D01*
X141136814Y-87760727D01*
X141194024Y-87572132D01*
X141213341Y-87376000D01*
X141194024Y-87179868D01*
X141136814Y-86991273D01*
X141136811Y-86991269D01*
X141136811Y-86991266D01*
X141043913Y-86817467D01*
X141043911Y-86817465D01*
X141043910Y-86817462D01*
X141027536Y-86797511D01*
X140995113Y-86758002D01*
X145556723Y-86758002D01*
X145575793Y-86975975D01*
X145575793Y-86975979D01*
X145632422Y-87187322D01*
X145632424Y-87187326D01*
X145632425Y-87187330D01*
X145633735Y-87190139D01*
X145724897Y-87385638D01*
X145737184Y-87403185D01*
X145850402Y-87564877D01*
X146005123Y-87719598D01*
X146184361Y-87845102D01*
X146382670Y-87937575D01*
X146594023Y-87994207D01*
X146776926Y-88010208D01*
X146811998Y-88013277D01*
X146812000Y-88013277D01*
X146812002Y-88013277D01*
X146840254Y-88010805D01*
X147029977Y-87994207D01*
X147241330Y-87937575D01*
X147439639Y-87845102D01*
X147618877Y-87719598D01*
X147773598Y-87564877D01*
X147863575Y-87436375D01*
X147918151Y-87392752D01*
X147965149Y-87383500D01*
X150336551Y-87383500D01*
X150403590Y-87403185D01*
X150449345Y-87455989D01*
X150458370Y-87489226D01*
X150458585Y-87489181D01*
X150459430Y-87493133D01*
X150459909Y-87494894D01*
X150460001Y-87495799D01*
X150482892Y-87564878D01*
X150515186Y-87662334D01*
X150607288Y-87811656D01*
X150731344Y-87935712D01*
X150880666Y-88027814D01*
X151047203Y-88082999D01*
X151149991Y-88093500D01*
X151750008Y-88093499D01*
X151750016Y-88093498D01*
X151750019Y-88093498D01*
X151806302Y-88087748D01*
X151852797Y-88082999D01*
X152019334Y-88027814D01*
X152168656Y-87935712D01*
X152292712Y-87811656D01*
X152294752Y-87808347D01*
X152296745Y-87806555D01*
X152297193Y-87805989D01*
X152297289Y-87806065D01*
X152346694Y-87761623D01*
X152415656Y-87750395D01*
X152479740Y-87778234D01*
X152505829Y-87808339D01*
X152507681Y-87811341D01*
X152507683Y-87811344D01*
X152631654Y-87935315D01*
X152780875Y-88027356D01*
X152780880Y-88027358D01*
X152947302Y-88082505D01*
X152947309Y-88082506D01*
X153050019Y-88092999D01*
X153099999Y-88092998D01*
X153100000Y-88092998D01*
X153100000Y-87118000D01*
X153600000Y-87118000D01*
X153600000Y-88092999D01*
X153649972Y-88092999D01*
X153649986Y-88092998D01*
X153752697Y-88082505D01*
X153919119Y-88027358D01*
X153919124Y-88027356D01*
X154068345Y-87935315D01*
X154192315Y-87811345D01*
X154284356Y-87662124D01*
X154284358Y-87662119D01*
X154339505Y-87495697D01*
X154339506Y-87495690D01*
X154349999Y-87392986D01*
X154350000Y-87392973D01*
X154350000Y-87118000D01*
X153600000Y-87118000D01*
X153100000Y-87118000D01*
X153100000Y-85643000D01*
X153600000Y-85643000D01*
X153600000Y-86618000D01*
X154349999Y-86618000D01*
X154349999Y-86343028D01*
X154349998Y-86343013D01*
X154339505Y-86240302D01*
X154284358Y-86073880D01*
X154284356Y-86073875D01*
X154192315Y-85924654D01*
X154068345Y-85800684D01*
X153919124Y-85708643D01*
X153919119Y-85708641D01*
X153752697Y-85653494D01*
X153752690Y-85653493D01*
X153649986Y-85643000D01*
X153600000Y-85643000D01*
X153100000Y-85643000D01*
X153099999Y-85642999D01*
X153050029Y-85643000D01*
X153050011Y-85643001D01*
X152947302Y-85653494D01*
X152780880Y-85708641D01*
X152780875Y-85708643D01*
X152631654Y-85800684D01*
X152507683Y-85924655D01*
X152507679Y-85924660D01*
X152505826Y-85927665D01*
X152504018Y-85929290D01*
X152503202Y-85930323D01*
X152503025Y-85930183D01*
X152453874Y-85974385D01*
X152384911Y-85985601D01*
X152320831Y-85957752D01*
X152294753Y-85927653D01*
X152294737Y-85927628D01*
X152292712Y-85924344D01*
X152168656Y-85800288D01*
X152019334Y-85708186D01*
X151852797Y-85653001D01*
X151852795Y-85653000D01*
X151750010Y-85642500D01*
X151149998Y-85642500D01*
X151149980Y-85642501D01*
X151047203Y-85653000D01*
X151047200Y-85653001D01*
X150880668Y-85708185D01*
X150880663Y-85708187D01*
X150731342Y-85800289D01*
X150607289Y-85924342D01*
X150515229Y-86073597D01*
X150463281Y-86120321D01*
X150409690Y-86132500D01*
X147965150Y-86132500D01*
X147898111Y-86112815D01*
X147863575Y-86079623D01*
X147773599Y-85951124D01*
X147746817Y-85924342D01*
X147618877Y-85796402D01*
X147439639Y-85670898D01*
X147439640Y-85670898D01*
X147439638Y-85670897D01*
X147340484Y-85624661D01*
X147241330Y-85578425D01*
X147241326Y-85578424D01*
X147241322Y-85578422D01*
X147029977Y-85521793D01*
X146812002Y-85502723D01*
X146811998Y-85502723D01*
X146666682Y-85515436D01*
X146594023Y-85521793D01*
X146594020Y-85521793D01*
X146382677Y-85578422D01*
X146382668Y-85578426D01*
X146184361Y-85670898D01*
X146184357Y-85670900D01*
X146005121Y-85796402D01*
X145850402Y-85951121D01*
X145724900Y-86130357D01*
X145724898Y-86130361D01*
X145632426Y-86328668D01*
X145632422Y-86328677D01*
X145575793Y-86540020D01*
X145575793Y-86540024D01*
X145556723Y-86757997D01*
X145556723Y-86758002D01*
X140995113Y-86758002D01*
X140986647Y-86747686D01*
X140959334Y-86683376D01*
X140958500Y-86669021D01*
X140958500Y-81878002D01*
X145556723Y-81878002D01*
X145561090Y-81927918D01*
X145574855Y-82085261D01*
X145575793Y-82095975D01*
X145575793Y-82095979D01*
X145632422Y-82307322D01*
X145632424Y-82307326D01*
X145632425Y-82307330D01*
X145644123Y-82332416D01*
X145724897Y-82505638D01*
X145734312Y-82519084D01*
X145850402Y-82684877D01*
X146005123Y-82839598D01*
X146184361Y-82965102D01*
X146382670Y-83057575D01*
X146594023Y-83114207D01*
X146776926Y-83130208D01*
X146811998Y-83133277D01*
X146812000Y-83133277D01*
X146812002Y-83133277D01*
X146840254Y-83130805D01*
X147029977Y-83114207D01*
X147241330Y-83057575D01*
X147439639Y-82965102D01*
X147618877Y-82839598D01*
X147773598Y-82684877D01*
X147863575Y-82556375D01*
X147918151Y-82512752D01*
X147965149Y-82503500D01*
X150399522Y-82503500D01*
X150466561Y-82523185D01*
X150512316Y-82575989D01*
X150512786Y-82577186D01*
X150515185Y-82582333D01*
X150515186Y-82582334D01*
X150607288Y-82731656D01*
X150731344Y-82855712D01*
X150880666Y-82947814D01*
X151047203Y-83002999D01*
X151149991Y-83013500D01*
X151750008Y-83013499D01*
X151750016Y-83013498D01*
X151750019Y-83013498D01*
X151806302Y-83007748D01*
X151852797Y-83002999D01*
X152019334Y-82947814D01*
X152168656Y-82855712D01*
X152292712Y-82731656D01*
X152294752Y-82728347D01*
X152296745Y-82726555D01*
X152297193Y-82725989D01*
X152297289Y-82726065D01*
X152346694Y-82681623D01*
X152415656Y-82670395D01*
X152479740Y-82698234D01*
X152505829Y-82728339D01*
X152507681Y-82731341D01*
X152507683Y-82731344D01*
X152631654Y-82855315D01*
X152780875Y-82947356D01*
X152780880Y-82947358D01*
X152947302Y-83002505D01*
X152947309Y-83002506D01*
X153050019Y-83012999D01*
X153099999Y-83012998D01*
X153100000Y-83012998D01*
X153100000Y-82038000D01*
X153600000Y-82038000D01*
X153600000Y-83012999D01*
X153649972Y-83012999D01*
X153649986Y-83012998D01*
X153752697Y-83002505D01*
X153919119Y-82947358D01*
X153919124Y-82947356D01*
X154068345Y-82855315D01*
X154192315Y-82731345D01*
X154284356Y-82582124D01*
X154284358Y-82582119D01*
X154339505Y-82415697D01*
X154339506Y-82415690D01*
X154349999Y-82312986D01*
X154350000Y-82312973D01*
X154350000Y-82038000D01*
X153600000Y-82038000D01*
X153100000Y-82038000D01*
X153100000Y-80563000D01*
X153600000Y-80563000D01*
X153600000Y-81538000D01*
X154349999Y-81538000D01*
X154349999Y-81263028D01*
X154349998Y-81263013D01*
X154339505Y-81160302D01*
X154284358Y-80993880D01*
X154284356Y-80993875D01*
X154192315Y-80844654D01*
X154068345Y-80720684D01*
X153919124Y-80628643D01*
X153919119Y-80628641D01*
X153752697Y-80573494D01*
X153752690Y-80573493D01*
X153649986Y-80563000D01*
X153600000Y-80563000D01*
X153100000Y-80563000D01*
X153099999Y-80562999D01*
X153050029Y-80563000D01*
X153050011Y-80563001D01*
X152947302Y-80573494D01*
X152780880Y-80628641D01*
X152780875Y-80628643D01*
X152631654Y-80720684D01*
X152507683Y-80844655D01*
X152507679Y-80844660D01*
X152505826Y-80847665D01*
X152504018Y-80849290D01*
X152503202Y-80850323D01*
X152503025Y-80850183D01*
X152453874Y-80894385D01*
X152384911Y-80905601D01*
X152320831Y-80877752D01*
X152294753Y-80847653D01*
X152294737Y-80847628D01*
X152292712Y-80844344D01*
X152168656Y-80720288D01*
X152052641Y-80648730D01*
X152019336Y-80628187D01*
X152019331Y-80628185D01*
X152002848Y-80622723D01*
X151852797Y-80573001D01*
X151852795Y-80573000D01*
X151750010Y-80562500D01*
X151149998Y-80562500D01*
X151149980Y-80562501D01*
X151047203Y-80573000D01*
X151047200Y-80573001D01*
X150880668Y-80628185D01*
X150880663Y-80628187D01*
X150731342Y-80720289D01*
X150607289Y-80844342D01*
X150515187Y-80993663D01*
X150515185Y-80993668D01*
X150513519Y-80998697D01*
X150460001Y-81160203D01*
X150460000Y-81160205D01*
X150457872Y-81166630D01*
X150455127Y-81165720D01*
X150427959Y-81215881D01*
X150366751Y-81249575D01*
X150339979Y-81252500D01*
X147965150Y-81252500D01*
X147898111Y-81232815D01*
X147863575Y-81199623D01*
X147773599Y-81071124D01*
X147696350Y-80993875D01*
X147618877Y-80916402D01*
X147439639Y-80790898D01*
X147439640Y-80790898D01*
X147439638Y-80790897D01*
X147340484Y-80744661D01*
X147241330Y-80698425D01*
X147241326Y-80698424D01*
X147241322Y-80698422D01*
X147029977Y-80641793D01*
X146812002Y-80622723D01*
X146811998Y-80622723D01*
X146666682Y-80635436D01*
X146594023Y-80641793D01*
X146594020Y-80641793D01*
X146382677Y-80698422D01*
X146382668Y-80698426D01*
X146184361Y-80790898D01*
X146184357Y-80790900D01*
X146005121Y-80916402D01*
X145850402Y-81071121D01*
X145724900Y-81250357D01*
X145724898Y-81250361D01*
X145632426Y-81448668D01*
X145632422Y-81448677D01*
X145575793Y-81660020D01*
X145575793Y-81660023D01*
X145571025Y-81714517D01*
X145556723Y-81877997D01*
X145556723Y-81878002D01*
X140958500Y-81878002D01*
X140958500Y-80970976D01*
X140978185Y-80903937D01*
X140986632Y-80892329D01*
X141043910Y-80822538D01*
X141060822Y-80790898D01*
X141136811Y-80648733D01*
X141136812Y-80648730D01*
X141136814Y-80648727D01*
X141194024Y-80460132D01*
X141213341Y-80264000D01*
X141194024Y-80067868D01*
X141136814Y-79879273D01*
X141136811Y-79879269D01*
X141136811Y-79879266D01*
X141043913Y-79705467D01*
X141043909Y-79705460D01*
X140918883Y-79553116D01*
X140766539Y-79428090D01*
X140766532Y-79428086D01*
X140592733Y-79335188D01*
X140592727Y-79335186D01*
X140404132Y-79277976D01*
X140404129Y-79277975D01*
X140208000Y-79258659D01*
X140011870Y-79277975D01*
X139823266Y-79335188D01*
X139649467Y-79428086D01*
X139649460Y-79428090D01*
X139497116Y-79553116D01*
X139372090Y-79705460D01*
X139372086Y-79705467D01*
X139279188Y-79879266D01*
X139221975Y-80067870D01*
X139202659Y-80264000D01*
X139221975Y-80460129D01*
X139221976Y-80460132D01*
X139253029Y-80562501D01*
X139279188Y-80648733D01*
X139372084Y-80822529D01*
X139372087Y-80822533D01*
X139372090Y-80822538D01*
X139429354Y-80892314D01*
X139456666Y-80956620D01*
X139457500Y-80970976D01*
X139457500Y-86669021D01*
X139437815Y-86736060D01*
X139429353Y-86747686D01*
X139372091Y-86817460D01*
X139372086Y-86817467D01*
X139279188Y-86991266D01*
X139221975Y-87179870D01*
X139202659Y-87376000D01*
X139221975Y-87572129D01*
X139279188Y-87760733D01*
X139363987Y-87919381D01*
X139378229Y-87987784D01*
X139353229Y-88053028D01*
X139296924Y-88094398D01*
X139293638Y-88095538D01*
X139288673Y-88097183D01*
X139288663Y-88097187D01*
X139139342Y-88189289D01*
X139013181Y-88315451D01*
X138951858Y-88348936D01*
X138882166Y-88343952D01*
X138826233Y-88302080D01*
X138801816Y-88236616D01*
X138801500Y-88227770D01*
X138801500Y-78268854D01*
X138820507Y-78202881D01*
X138901788Y-78073524D01*
X138961368Y-77903254D01*
X138961369Y-77903249D01*
X138981565Y-77724003D01*
X138981565Y-77723996D01*
X138961369Y-77544750D01*
X138961368Y-77544745D01*
X138901788Y-77374476D01*
X138812235Y-77231954D01*
X138805816Y-77221738D01*
X138678262Y-77094184D01*
X138573265Y-77028210D01*
X138525521Y-76998210D01*
X138355249Y-76938630D01*
X138286616Y-76930897D01*
X138222202Y-76903830D01*
X138182647Y-76846235D01*
X138176500Y-76807677D01*
X138176500Y-76037230D01*
X138196185Y-75970191D01*
X138248989Y-75924436D01*
X138318147Y-75914492D01*
X138381703Y-75943517D01*
X138388181Y-75949549D01*
X138636586Y-76197954D01*
X138666058Y-76217645D01*
X138710270Y-76247186D01*
X138759505Y-76280084D01*
X138759506Y-76280084D01*
X138759507Y-76280085D01*
X138759509Y-76280086D01*
X138896082Y-76336656D01*
X138896087Y-76336658D01*
X138896091Y-76336658D01*
X138896092Y-76336659D01*
X139041079Y-76365500D01*
X139041082Y-76365500D01*
X139041083Y-76365500D01*
X139188917Y-76365500D01*
X140479353Y-76365500D01*
X140546392Y-76385185D01*
X140585079Y-76424709D01*
X140667164Y-76558659D01*
X140830776Y-76750224D01*
X140979066Y-76876875D01*
X141022343Y-76913838D01*
X141022346Y-76913839D01*
X141237140Y-77045466D01*
X141354757Y-77094184D01*
X141469889Y-77141873D01*
X141714852Y-77200683D01*
X141966000Y-77220449D01*
X142217148Y-77200683D01*
X142462111Y-77141873D01*
X142694859Y-77045466D01*
X142909659Y-76913836D01*
X143101224Y-76750224D01*
X143264836Y-76558659D01*
X143396466Y-76343859D01*
X143492873Y-76111111D01*
X143551683Y-75866148D01*
X143571449Y-75615000D01*
X143551683Y-75363852D01*
X143492873Y-75118889D01*
X143396466Y-74886141D01*
X143396466Y-74886140D01*
X143264839Y-74671346D01*
X143264838Y-74671343D01*
X143175492Y-74566733D01*
X143101224Y-74479776D01*
X142949796Y-74350444D01*
X142909656Y-74316161D01*
X142909653Y-74316160D01*
X142694859Y-74184533D01*
X142462110Y-74088126D01*
X142217151Y-74029317D01*
X141966000Y-74009551D01*
X141714848Y-74029317D01*
X141469889Y-74088126D01*
X141237140Y-74184533D01*
X141022346Y-74316160D01*
X141022343Y-74316161D01*
X140830776Y-74479776D01*
X140667162Y-74671343D01*
X140585081Y-74805289D01*
X140533269Y-74852165D01*
X140479353Y-74864500D01*
X139477230Y-74864500D01*
X139410191Y-74844815D01*
X139389549Y-74828181D01*
X138454819Y-73893451D01*
X138421334Y-73832128D01*
X138418500Y-73805770D01*
X138418500Y-69522079D01*
X138389659Y-69377092D01*
X138389658Y-69377091D01*
X138389658Y-69377087D01*
X138351015Y-69283794D01*
X138333087Y-69240511D01*
X138333080Y-69240498D01*
X138250952Y-69117585D01*
X138207073Y-69073706D01*
X138146416Y-69013049D01*
X137695431Y-68562064D01*
X137217549Y-68084181D01*
X137184064Y-68022858D01*
X137189048Y-67953166D01*
X137230920Y-67897233D01*
X137296384Y-67872816D01*
X137305230Y-67872500D01*
X144443770Y-67872500D01*
X144510809Y-67892185D01*
X144531451Y-67908819D01*
X146259181Y-69636548D01*
X146292666Y-69697871D01*
X146295500Y-69724229D01*
X146295500Y-73890500D01*
X146275815Y-73957539D01*
X146223011Y-74003294D01*
X146171500Y-74014500D01*
X145898130Y-74014500D01*
X145898123Y-74014501D01*
X145838516Y-74020908D01*
X145703671Y-74071202D01*
X145703664Y-74071206D01*
X145588455Y-74157452D01*
X145588452Y-74157455D01*
X145502206Y-74272664D01*
X145502202Y-74272671D01*
X145451908Y-74407517D01*
X145445501Y-74467116D01*
X145445501Y-74467123D01*
X145445500Y-74467135D01*
X145445500Y-76762870D01*
X145445501Y-76762876D01*
X145451908Y-76822483D01*
X145502202Y-76957328D01*
X145502206Y-76957335D01*
X145588452Y-77072544D01*
X145588455Y-77072547D01*
X145703664Y-77158793D01*
X145703671Y-77158797D01*
X145838517Y-77209091D01*
X145838516Y-77209091D01*
X145845444Y-77209835D01*
X145898127Y-77215500D01*
X148193872Y-77215499D01*
X148253483Y-77209091D01*
X148388331Y-77158796D01*
X148503546Y-77072546D01*
X148589796Y-76957331D01*
X148640091Y-76822483D01*
X148646500Y-76762873D01*
X148646499Y-74467128D01*
X148640091Y-74407517D01*
X148620798Y-74355791D01*
X148589797Y-74272671D01*
X148589793Y-74272664D01*
X148503547Y-74157455D01*
X148503544Y-74157452D01*
X148388335Y-74071206D01*
X148388328Y-74071202D01*
X148253482Y-74020908D01*
X148253483Y-74020908D01*
X148193883Y-74014501D01*
X148193881Y-74014500D01*
X148193873Y-74014500D01*
X148193865Y-74014500D01*
X147920500Y-74014500D01*
X147853461Y-73994815D01*
X147807706Y-73942011D01*
X147796500Y-73890500D01*
X147796500Y-70225288D01*
X150422500Y-70225288D01*
X150454161Y-70465785D01*
X150516947Y-70700104D01*
X150609773Y-70924205D01*
X150609776Y-70924212D01*
X150731064Y-71134289D01*
X150731066Y-71134292D01*
X150731067Y-71134293D01*
X150878733Y-71326736D01*
X150878739Y-71326743D01*
X151050256Y-71498260D01*
X151050262Y-71498265D01*
X151242711Y-71645936D01*
X151452788Y-71767224D01*
X151676900Y-71860054D01*
X151911211Y-71922838D01*
X152091586Y-71946584D01*
X152151711Y-71954500D01*
X152151712Y-71954500D01*
X152394289Y-71954500D01*
X152442388Y-71948167D01*
X152634789Y-71922838D01*
X152869100Y-71860054D01*
X153093212Y-71767224D01*
X153303289Y-71645936D01*
X153495738Y-71498265D01*
X153667265Y-71326738D01*
X153814936Y-71134289D01*
X153936224Y-70924212D01*
X154029054Y-70700100D01*
X154091838Y-70465789D01*
X154123500Y-70225288D01*
X154123500Y-69982712D01*
X154091838Y-69742211D01*
X154029054Y-69507900D01*
X153936224Y-69283788D01*
X153814936Y-69073711D01*
X153727977Y-68960383D01*
X153667266Y-68881263D01*
X153667260Y-68881256D01*
X153495743Y-68709739D01*
X153495736Y-68709733D01*
X153303293Y-68562067D01*
X153303292Y-68562066D01*
X153303289Y-68562064D01*
X153093212Y-68440776D01*
X153093205Y-68440773D01*
X152869104Y-68347947D01*
X152634785Y-68285161D01*
X152394289Y-68253500D01*
X152394288Y-68253500D01*
X152151712Y-68253500D01*
X152151711Y-68253500D01*
X151911214Y-68285161D01*
X151676895Y-68347947D01*
X151452794Y-68440773D01*
X151452785Y-68440777D01*
X151242706Y-68562067D01*
X151050263Y-68709733D01*
X151050256Y-68709739D01*
X150878739Y-68881256D01*
X150878733Y-68881263D01*
X150731067Y-69073706D01*
X150609777Y-69283785D01*
X150609773Y-69283794D01*
X150516947Y-69507895D01*
X150454161Y-69742214D01*
X150422500Y-69982711D01*
X150422500Y-70225288D01*
X147796500Y-70225288D01*
X147796500Y-69724228D01*
X147816185Y-69657189D01*
X147832814Y-69636552D01*
X150986822Y-66482543D01*
X151048143Y-66449060D01*
X151117835Y-66454044D01*
X151173768Y-66495916D01*
X151190682Y-66526890D01*
X151194202Y-66536327D01*
X151194206Y-66536335D01*
X151280452Y-66651544D01*
X151280455Y-66651547D01*
X151395664Y-66737793D01*
X151395671Y-66737797D01*
X151530517Y-66788091D01*
X151530516Y-66788091D01*
X151537444Y-66788835D01*
X151590127Y-66794500D01*
X154225872Y-66794499D01*
X154285483Y-66788091D01*
X154420331Y-66737796D01*
X154535546Y-66651546D01*
X154621796Y-66536331D01*
X154672091Y-66401483D01*
X154678500Y-66341873D01*
X154678499Y-63706128D01*
X154672091Y-63646517D01*
X154631194Y-63536867D01*
X154621797Y-63511671D01*
X154621793Y-63511664D01*
X154535547Y-63396455D01*
X154535544Y-63396452D01*
X154420335Y-63310206D01*
X154420328Y-63310202D01*
X154285482Y-63259908D01*
X154285483Y-63259908D01*
X154225883Y-63253501D01*
X154225881Y-63253500D01*
X154225873Y-63253500D01*
X154225864Y-63253500D01*
X151590129Y-63253500D01*
X151590123Y-63253501D01*
X151530516Y-63259908D01*
X151395671Y-63310202D01*
X151395664Y-63310206D01*
X151280455Y-63396452D01*
X151280452Y-63396455D01*
X151194206Y-63511664D01*
X151194202Y-63511671D01*
X151143908Y-63646517D01*
X151137501Y-63706116D01*
X151137501Y-63706123D01*
X151137500Y-63706135D01*
X151137500Y-64230914D01*
X151117815Y-64297953D01*
X151065011Y-64343708D01*
X151060954Y-64345475D01*
X151028505Y-64358916D01*
X151028498Y-64358919D01*
X150905584Y-64441048D01*
X150905580Y-64441051D01*
X147133680Y-68212950D01*
X147072357Y-68246435D01*
X147002665Y-68241451D01*
X146958318Y-68212950D01*
X145284421Y-66539052D01*
X145284414Y-66539046D01*
X145210729Y-66489812D01*
X145210729Y-66489813D01*
X145161491Y-66456913D01*
X145024917Y-66400343D01*
X145024907Y-66400340D01*
X144879920Y-66371500D01*
X144879918Y-66371500D01*
X143690500Y-66371500D01*
X143623461Y-66351815D01*
X143577706Y-66299011D01*
X143566500Y-66247500D01*
X143566500Y-65455000D01*
X145440551Y-65455000D01*
X145460317Y-65706151D01*
X145519126Y-65951110D01*
X145615533Y-66183859D01*
X145747160Y-66398653D01*
X145747161Y-66398656D01*
X145794364Y-66453923D01*
X145910776Y-66590224D01*
X146052891Y-66711602D01*
X146102343Y-66753838D01*
X146102346Y-66753839D01*
X146317140Y-66885466D01*
X146367453Y-66906306D01*
X146549889Y-66981873D01*
X146794852Y-67040683D01*
X147046000Y-67060449D01*
X147297148Y-67040683D01*
X147542111Y-66981873D01*
X147774859Y-66885466D01*
X147989659Y-66753836D01*
X148181224Y-66590224D01*
X148344836Y-66398659D01*
X148476466Y-66183859D01*
X148572873Y-65951111D01*
X148631683Y-65706148D01*
X148651449Y-65455000D01*
X148631683Y-65203852D01*
X148572873Y-64958889D01*
X148504313Y-64793369D01*
X148476466Y-64726140D01*
X148344839Y-64511346D01*
X148344838Y-64511343D01*
X148290719Y-64447978D01*
X148181224Y-64319776D01*
X148026055Y-64187249D01*
X147989656Y-64156161D01*
X147989653Y-64156160D01*
X147855710Y-64074079D01*
X147808835Y-64022267D01*
X147796500Y-63968352D01*
X147796500Y-63120229D01*
X147816185Y-63053190D01*
X147832819Y-63032548D01*
X148610548Y-62254819D01*
X148671871Y-62221334D01*
X148698229Y-62218500D01*
X151965920Y-62218500D01*
X152063462Y-62199096D01*
X152110913Y-62189658D01*
X152247495Y-62133084D01*
X152307611Y-62092916D01*
X152307611Y-62092915D01*
X152307613Y-62092915D01*
X152339013Y-62071934D01*
X152370416Y-62050952D01*
X152982951Y-61438416D01*
X153065084Y-61315495D01*
X153121658Y-61178913D01*
X153122178Y-61176295D01*
X153122704Y-61173656D01*
X153122704Y-61173652D01*
X153150500Y-61033918D01*
X153150500Y-58194229D01*
X153170185Y-58127190D01*
X153186818Y-58106549D01*
X153209239Y-58084128D01*
X153242303Y-58051063D01*
X153303624Y-58017579D01*
X153366532Y-58020253D01*
X153522228Y-58068280D01*
X153522229Y-58068280D01*
X153522232Y-58068281D01*
X153789063Y-58108499D01*
X153789068Y-58108499D01*
X153789071Y-58108500D01*
X153789072Y-58108500D01*
X154058928Y-58108500D01*
X154058929Y-58108500D01*
X154058936Y-58108499D01*
X154325767Y-58068281D01*
X154325768Y-58068280D01*
X154325772Y-58068280D01*
X154583641Y-57988738D01*
X154826775Y-57871651D01*
X155049741Y-57719635D01*
X155247561Y-57536085D01*
X155415815Y-57325102D01*
X155550743Y-57091398D01*
X155649334Y-56840195D01*
X155709383Y-56577103D01*
X155729549Y-56308000D01*
X155727944Y-56286586D01*
X155710909Y-56059255D01*
X155709383Y-56038897D01*
X155649334Y-55775805D01*
X155550743Y-55524602D01*
X155415815Y-55290898D01*
X155247561Y-55079915D01*
X155247560Y-55079914D01*
X155247557Y-55079910D01*
X155049741Y-54896365D01*
X154886007Y-54784733D01*
X154826775Y-54744349D01*
X154826772Y-54744348D01*
X154826770Y-54744346D01*
X154744698Y-54704822D01*
X154692838Y-54657999D01*
X154674500Y-54593102D01*
X154674500Y-53022896D01*
X154694185Y-52955857D01*
X154744697Y-52911176D01*
X154826775Y-52871651D01*
X155049741Y-52719635D01*
X155247561Y-52536085D01*
X155415815Y-52325102D01*
X155550743Y-52091398D01*
X155649334Y-51840195D01*
X155709383Y-51577103D01*
X155722925Y-51396391D01*
X155729549Y-51308004D01*
X155729549Y-51307995D01*
X155709389Y-51038973D01*
X155709383Y-51038897D01*
X155649334Y-50775805D01*
X155550743Y-50524602D01*
X155415815Y-50290898D01*
X155247561Y-50079915D01*
X155247560Y-50079914D01*
X155247557Y-50079910D01*
X155049741Y-49896365D01*
X155010038Y-49869296D01*
X154826775Y-49744349D01*
X154826769Y-49744346D01*
X154826768Y-49744345D01*
X154826767Y-49744344D01*
X154583643Y-49627263D01*
X154583645Y-49627263D01*
X154325773Y-49547720D01*
X154325767Y-49547718D01*
X154058936Y-49507500D01*
X154058929Y-49507500D01*
X153789071Y-49507500D01*
X153789063Y-49507500D01*
X153522232Y-49547718D01*
X153522226Y-49547720D01*
X153264358Y-49627262D01*
X153021230Y-49744346D01*
X152798258Y-49896365D01*
X152600442Y-50079910D01*
X152432185Y-50290898D01*
X152297258Y-50524599D01*
X152297256Y-50524603D01*
X152198666Y-50775804D01*
X152198664Y-50775811D01*
X152138616Y-51038898D01*
X152118451Y-51307995D01*
X152118451Y-51308004D01*
X152138616Y-51577101D01*
X152198664Y-51840188D01*
X152198666Y-51840195D01*
X152266172Y-52012197D01*
X152297257Y-52091398D01*
X152432185Y-52325102D01*
X152534808Y-52453787D01*
X152600442Y-52536089D01*
X152723363Y-52650142D01*
X152798259Y-52719635D01*
X153021226Y-52871651D01*
X153021231Y-52871653D01*
X153021232Y-52871654D01*
X153021233Y-52871655D01*
X153103301Y-52911176D01*
X153155161Y-52957998D01*
X153173500Y-53022896D01*
X153173500Y-54593102D01*
X153153815Y-54660141D01*
X153103303Y-54704821D01*
X153021235Y-54744344D01*
X153021232Y-54744345D01*
X153021226Y-54744348D01*
X153021226Y-54744349D01*
X153007493Y-54753712D01*
X152798258Y-54896365D01*
X152600442Y-55079910D01*
X152432185Y-55290898D01*
X152297258Y-55524599D01*
X152297256Y-55524603D01*
X152198666Y-55775804D01*
X152198664Y-55775811D01*
X152138616Y-56038898D01*
X152118451Y-56307995D01*
X152118451Y-56308004D01*
X152138616Y-56577101D01*
X152198664Y-56840188D01*
X152198665Y-56840193D01*
X152206145Y-56859251D01*
X152212313Y-56928848D01*
X152179874Y-56990731D01*
X152178397Y-56992233D01*
X151817049Y-57353581D01*
X151767812Y-57427271D01*
X151734921Y-57476496D01*
X151734914Y-57476508D01*
X151678342Y-57613086D01*
X151678340Y-57613092D01*
X151649500Y-57758079D01*
X151649500Y-60593500D01*
X151629815Y-60660539D01*
X151577011Y-60706294D01*
X151525500Y-60717500D01*
X148262080Y-60717500D01*
X148117092Y-60746340D01*
X148117082Y-60746343D01*
X147980511Y-60802912D01*
X147980498Y-60802919D01*
X147857584Y-60885048D01*
X147857580Y-60885051D01*
X146463050Y-62279580D01*
X146463044Y-62279588D01*
X146413812Y-62353268D01*
X146413813Y-62353269D01*
X146380921Y-62402496D01*
X146380914Y-62402508D01*
X146324342Y-62539086D01*
X146324340Y-62539092D01*
X146295500Y-62684079D01*
X146295500Y-63968352D01*
X146275815Y-64035391D01*
X146236290Y-64074079D01*
X146102346Y-64156160D01*
X146102343Y-64156161D01*
X145910776Y-64319776D01*
X145747161Y-64511343D01*
X145747160Y-64511346D01*
X145615533Y-64726140D01*
X145519126Y-64958889D01*
X145460317Y-65203848D01*
X145440551Y-65455000D01*
X143566500Y-65455000D01*
X143566499Y-64307129D01*
X143566498Y-64307123D01*
X143566497Y-64307116D01*
X143560091Y-64247517D01*
X143553898Y-64230914D01*
X143509797Y-64112671D01*
X143509793Y-64112664D01*
X143423547Y-63997455D01*
X143423544Y-63997452D01*
X143308335Y-63911206D01*
X143308328Y-63911202D01*
X143173482Y-63860908D01*
X143173483Y-63860908D01*
X143113883Y-63854501D01*
X143113881Y-63854500D01*
X143113873Y-63854500D01*
X143113865Y-63854500D01*
X142840500Y-63854500D01*
X142773461Y-63834815D01*
X142727706Y-63782011D01*
X142716500Y-63730500D01*
X142716500Y-63152079D01*
X142687659Y-63007092D01*
X142687658Y-63007091D01*
X142687658Y-63007087D01*
X142670345Y-62965289D01*
X142631087Y-62870511D01*
X142631080Y-62870498D01*
X142548952Y-62747585D01*
X142548951Y-62747584D01*
X142444416Y-62643049D01*
X142340453Y-62539086D01*
X141702421Y-61901052D01*
X141702414Y-61901046D01*
X141628729Y-61851812D01*
X141628729Y-61851813D01*
X141579491Y-61818913D01*
X141442917Y-61762343D01*
X141442907Y-61762340D01*
X141297920Y-61733500D01*
X141297918Y-61733500D01*
X138030230Y-61733500D01*
X137963191Y-61713815D01*
X137942549Y-61697181D01*
X134390819Y-58145451D01*
X134357334Y-58084128D01*
X134354500Y-58057770D01*
X134354500Y-58022896D01*
X134374185Y-57955857D01*
X134424697Y-57911176D01*
X134506775Y-57871651D01*
X134729741Y-57719635D01*
X134927561Y-57536085D01*
X135095815Y-57325102D01*
X135230743Y-57091398D01*
X135329334Y-56840195D01*
X135389383Y-56577103D01*
X135409549Y-56308004D01*
X136878451Y-56308004D01*
X136898616Y-56577101D01*
X136958664Y-56840188D01*
X136958666Y-56840195D01*
X137004901Y-56958000D01*
X137057257Y-57091398D01*
X137192185Y-57325102D01*
X137312918Y-57476496D01*
X137360442Y-57536089D01*
X137473588Y-57641072D01*
X137558259Y-57719635D01*
X137781226Y-57871651D01*
X138024359Y-57988738D01*
X138282228Y-58068280D01*
X138282229Y-58068280D01*
X138282232Y-58068281D01*
X138549063Y-58108499D01*
X138549068Y-58108499D01*
X138549071Y-58108500D01*
X138549072Y-58108500D01*
X138818928Y-58108500D01*
X138818929Y-58108500D01*
X138818936Y-58108499D01*
X139085767Y-58068281D01*
X139085768Y-58068280D01*
X139085772Y-58068280D01*
X139343641Y-57988738D01*
X139586775Y-57871651D01*
X139809741Y-57719635D01*
X140007561Y-57536085D01*
X140175815Y-57325102D01*
X140310743Y-57091398D01*
X140409334Y-56840195D01*
X140469383Y-56577103D01*
X140489549Y-56308004D01*
X141958953Y-56308004D01*
X141979113Y-56577026D01*
X141979113Y-56577028D01*
X142039142Y-56840033D01*
X142039148Y-56840052D01*
X142137709Y-57091181D01*
X142137708Y-57091181D01*
X142272602Y-57324822D01*
X142326294Y-57392151D01*
X142326295Y-57392151D01*
X143162958Y-56555488D01*
X143187978Y-56615890D01*
X143259112Y-56722351D01*
X143349649Y-56812888D01*
X143456110Y-56884022D01*
X143516510Y-56909041D01*
X142678848Y-57746702D01*
X142861483Y-57871220D01*
X142861485Y-57871221D01*
X143104539Y-57988269D01*
X143104537Y-57988269D01*
X143362337Y-58067790D01*
X143362343Y-58067792D01*
X143629101Y-58107999D01*
X143629110Y-58108000D01*
X143898890Y-58108000D01*
X143898898Y-58107999D01*
X144165656Y-58067792D01*
X144165662Y-58067790D01*
X144423461Y-57988269D01*
X144666521Y-57871218D01*
X144849150Y-57746702D01*
X144011488Y-56909041D01*
X144071890Y-56884022D01*
X144178351Y-56812888D01*
X144268888Y-56722351D01*
X144340022Y-56615890D01*
X144365041Y-56555488D01*
X145201703Y-57392151D01*
X145201704Y-57392150D01*
X145255393Y-57324828D01*
X145255400Y-57324817D01*
X145390290Y-57091181D01*
X145488851Y-56840052D01*
X145488857Y-56840033D01*
X145548886Y-56577028D01*
X145548886Y-56577026D01*
X145569047Y-56308004D01*
X147038953Y-56308004D01*
X147059113Y-56577026D01*
X147059113Y-56577028D01*
X147119142Y-56840033D01*
X147119148Y-56840052D01*
X147217709Y-57091181D01*
X147217708Y-57091181D01*
X147352602Y-57324822D01*
X147406294Y-57392151D01*
X148242957Y-56555487D01*
X148267978Y-56615890D01*
X148339112Y-56722351D01*
X148429649Y-56812888D01*
X148536110Y-56884022D01*
X148596510Y-56909041D01*
X147758848Y-57746702D01*
X147941483Y-57871220D01*
X147941485Y-57871221D01*
X148184539Y-57988269D01*
X148184537Y-57988269D01*
X148442337Y-58067790D01*
X148442343Y-58067792D01*
X148709101Y-58107999D01*
X148709110Y-58108000D01*
X148978890Y-58108000D01*
X148978898Y-58107999D01*
X149245656Y-58067792D01*
X149245662Y-58067790D01*
X149503461Y-57988269D01*
X149746521Y-57871218D01*
X149929150Y-57746702D01*
X149091488Y-56909041D01*
X149151890Y-56884022D01*
X149258351Y-56812888D01*
X149348888Y-56722351D01*
X149420022Y-56615890D01*
X149445041Y-56555489D01*
X150281703Y-57392151D01*
X150281704Y-57392150D01*
X150335393Y-57324828D01*
X150335400Y-57324817D01*
X150470290Y-57091181D01*
X150568851Y-56840052D01*
X150568857Y-56840033D01*
X150628886Y-56577028D01*
X150628886Y-56577026D01*
X150649047Y-56308004D01*
X150649047Y-56307995D01*
X150628886Y-56038973D01*
X150628886Y-56038971D01*
X150568857Y-55775966D01*
X150568851Y-55775947D01*
X150470290Y-55524818D01*
X150470291Y-55524818D01*
X150335397Y-55291177D01*
X150281704Y-55223847D01*
X149445041Y-56060510D01*
X149420022Y-56000110D01*
X149348888Y-55893649D01*
X149258351Y-55803112D01*
X149151890Y-55731978D01*
X149091488Y-55706958D01*
X149929150Y-54869296D01*
X149746517Y-54744779D01*
X149746516Y-54744778D01*
X149503460Y-54627730D01*
X149503462Y-54627730D01*
X149245662Y-54548209D01*
X149245656Y-54548207D01*
X148978898Y-54508000D01*
X148709101Y-54508000D01*
X148442343Y-54548207D01*
X148442337Y-54548209D01*
X148184538Y-54627730D01*
X147941485Y-54744778D01*
X147941476Y-54744783D01*
X147758848Y-54869296D01*
X148596511Y-55706958D01*
X148536110Y-55731978D01*
X148429649Y-55803112D01*
X148339112Y-55893649D01*
X148267978Y-56000110D01*
X148242958Y-56060511D01*
X147406295Y-55223848D01*
X147352600Y-55291180D01*
X147217709Y-55524818D01*
X147119148Y-55775947D01*
X147119142Y-55775966D01*
X147059113Y-56038971D01*
X147059113Y-56038973D01*
X147038953Y-56307995D01*
X147038953Y-56308004D01*
X145569047Y-56308004D01*
X145569047Y-56307995D01*
X145548886Y-56038973D01*
X145548886Y-56038971D01*
X145488857Y-55775966D01*
X145488851Y-55775947D01*
X145390290Y-55524818D01*
X145390291Y-55524818D01*
X145255397Y-55291177D01*
X145201704Y-55223847D01*
X144365041Y-56060510D01*
X144340022Y-56000110D01*
X144268888Y-55893649D01*
X144178351Y-55803112D01*
X144071890Y-55731978D01*
X144011488Y-55706958D01*
X144849150Y-54869296D01*
X144666517Y-54744779D01*
X144666516Y-54744778D01*
X144423460Y-54627730D01*
X144423462Y-54627730D01*
X144165662Y-54548209D01*
X144165656Y-54548207D01*
X143898898Y-54508000D01*
X143629101Y-54508000D01*
X143362343Y-54548207D01*
X143362337Y-54548209D01*
X143104538Y-54627730D01*
X142861485Y-54744778D01*
X142861476Y-54744783D01*
X142678848Y-54869296D01*
X143516511Y-55706958D01*
X143456110Y-55731978D01*
X143349649Y-55803112D01*
X143259112Y-55893649D01*
X143187978Y-56000110D01*
X143162958Y-56060511D01*
X142326295Y-55223848D01*
X142272600Y-55291180D01*
X142137709Y-55524818D01*
X142039148Y-55775947D01*
X142039142Y-55775966D01*
X141979113Y-56038971D01*
X141979113Y-56038973D01*
X141958953Y-56307995D01*
X141958953Y-56308004D01*
X140489549Y-56308004D01*
X140489549Y-56308000D01*
X140487944Y-56286586D01*
X140470909Y-56059255D01*
X140469383Y-56038897D01*
X140409334Y-55775805D01*
X140310743Y-55524602D01*
X140175815Y-55290898D01*
X140007561Y-55079915D01*
X140007560Y-55079914D01*
X140007557Y-55079910D01*
X139809741Y-54896365D01*
X139646007Y-54784733D01*
X139586775Y-54744349D01*
X139586772Y-54744348D01*
X139586770Y-54744346D01*
X139504698Y-54704822D01*
X139452838Y-54657999D01*
X139434500Y-54593102D01*
X139434500Y-53022896D01*
X139454185Y-52955857D01*
X139504697Y-52911176D01*
X139586775Y-52871651D01*
X139809741Y-52719635D01*
X140007561Y-52536085D01*
X140175815Y-52325102D01*
X140310743Y-52091398D01*
X140409334Y-51840195D01*
X140469383Y-51577103D01*
X140482925Y-51396391D01*
X140489549Y-51308004D01*
X141958953Y-51308004D01*
X141979113Y-51577026D01*
X141979113Y-51577028D01*
X142039142Y-51840033D01*
X142039148Y-51840052D01*
X142137709Y-52091181D01*
X142137708Y-52091181D01*
X142272602Y-52324822D01*
X142326294Y-52392151D01*
X142326295Y-52392151D01*
X143162958Y-51555488D01*
X143187978Y-51615890D01*
X143259112Y-51722351D01*
X143349649Y-51812888D01*
X143456110Y-51884022D01*
X143516510Y-51909041D01*
X142678848Y-52746702D01*
X142861483Y-52871220D01*
X142861485Y-52871221D01*
X143104539Y-52988269D01*
X143104537Y-52988269D01*
X143362337Y-53067790D01*
X143362343Y-53067792D01*
X143629101Y-53107999D01*
X143629110Y-53108000D01*
X143898890Y-53108000D01*
X143898898Y-53107999D01*
X144165656Y-53067792D01*
X144165662Y-53067790D01*
X144423461Y-52988269D01*
X144666521Y-52871218D01*
X144849150Y-52746702D01*
X144011488Y-51909041D01*
X144071890Y-51884022D01*
X144178351Y-51812888D01*
X144268888Y-51722351D01*
X144340022Y-51615890D01*
X144365041Y-51555488D01*
X145201703Y-52392151D01*
X145201704Y-52392150D01*
X145255393Y-52324828D01*
X145255400Y-52324817D01*
X145390290Y-52091181D01*
X145488851Y-51840052D01*
X145488857Y-51840033D01*
X145548886Y-51577028D01*
X145548886Y-51577026D01*
X145569047Y-51308004D01*
X147038953Y-51308004D01*
X147059113Y-51577026D01*
X147059113Y-51577028D01*
X147119142Y-51840033D01*
X147119148Y-51840052D01*
X147217709Y-52091181D01*
X147217708Y-52091181D01*
X147352602Y-52324822D01*
X147406294Y-52392151D01*
X148242957Y-51555487D01*
X148267978Y-51615890D01*
X148339112Y-51722351D01*
X148429649Y-51812888D01*
X148536110Y-51884022D01*
X148596510Y-51909041D01*
X147758848Y-52746702D01*
X147941483Y-52871220D01*
X147941485Y-52871221D01*
X148184539Y-52988269D01*
X148184537Y-52988269D01*
X148442337Y-53067790D01*
X148442343Y-53067792D01*
X148709101Y-53107999D01*
X148709110Y-53108000D01*
X148978890Y-53108000D01*
X148978898Y-53107999D01*
X149245656Y-53067792D01*
X149245662Y-53067790D01*
X149503461Y-52988269D01*
X149746521Y-52871218D01*
X149929150Y-52746702D01*
X149091488Y-51909041D01*
X149151890Y-51884022D01*
X149258351Y-51812888D01*
X149348888Y-51722351D01*
X149420022Y-51615890D01*
X149445041Y-51555489D01*
X150281703Y-52392151D01*
X150281704Y-52392150D01*
X150335393Y-52324828D01*
X150335400Y-52324817D01*
X150470290Y-52091181D01*
X150568851Y-51840052D01*
X150568857Y-51840033D01*
X150628886Y-51577028D01*
X150628886Y-51577026D01*
X150649047Y-51308004D01*
X150649047Y-51307995D01*
X150628886Y-51038973D01*
X150628886Y-51038971D01*
X150568857Y-50775966D01*
X150568851Y-50775947D01*
X150470290Y-50524818D01*
X150470291Y-50524818D01*
X150335397Y-50291177D01*
X150281704Y-50223847D01*
X149445041Y-51060510D01*
X149420022Y-51000110D01*
X149348888Y-50893649D01*
X149258351Y-50803112D01*
X149151890Y-50731978D01*
X149091488Y-50706958D01*
X149929150Y-49869296D01*
X149746517Y-49744779D01*
X149746516Y-49744778D01*
X149503460Y-49627730D01*
X149503462Y-49627730D01*
X149245662Y-49548209D01*
X149245656Y-49548207D01*
X148978898Y-49508000D01*
X148709101Y-49508000D01*
X148442343Y-49548207D01*
X148442337Y-49548209D01*
X148184538Y-49627730D01*
X147941485Y-49744778D01*
X147941476Y-49744783D01*
X147758848Y-49869296D01*
X148596511Y-50706958D01*
X148536110Y-50731978D01*
X148429649Y-50803112D01*
X148339112Y-50893649D01*
X148267978Y-51000110D01*
X148242958Y-51060511D01*
X147406295Y-50223848D01*
X147352600Y-50291180D01*
X147217709Y-50524818D01*
X147119148Y-50775947D01*
X147119142Y-50775966D01*
X147059113Y-51038971D01*
X147059113Y-51038973D01*
X147038953Y-51307995D01*
X147038953Y-51308004D01*
X145569047Y-51308004D01*
X145569047Y-51307995D01*
X145548886Y-51038973D01*
X145548886Y-51038971D01*
X145488857Y-50775966D01*
X145488851Y-50775947D01*
X145390290Y-50524818D01*
X145390291Y-50524818D01*
X145255397Y-50291177D01*
X145201704Y-50223847D01*
X144365041Y-51060510D01*
X144340022Y-51000110D01*
X144268888Y-50893649D01*
X144178351Y-50803112D01*
X144071890Y-50731978D01*
X144011488Y-50706958D01*
X144849150Y-49869296D01*
X144666517Y-49744779D01*
X144666516Y-49744778D01*
X144423460Y-49627730D01*
X144423462Y-49627730D01*
X144165662Y-49548209D01*
X144165656Y-49548207D01*
X143898898Y-49508000D01*
X143629101Y-49508000D01*
X143362343Y-49548207D01*
X143362337Y-49548209D01*
X143104538Y-49627730D01*
X142861485Y-49744778D01*
X142861476Y-49744783D01*
X142678848Y-49869296D01*
X143516511Y-50706958D01*
X143456110Y-50731978D01*
X143349649Y-50803112D01*
X143259112Y-50893649D01*
X143187978Y-51000110D01*
X143162958Y-51060511D01*
X142326295Y-50223848D01*
X142272600Y-50291180D01*
X142137709Y-50524818D01*
X142039148Y-50775947D01*
X142039142Y-50775966D01*
X141979113Y-51038971D01*
X141979113Y-51038973D01*
X141958953Y-51307995D01*
X141958953Y-51308004D01*
X140489549Y-51308004D01*
X140489549Y-51307995D01*
X140469389Y-51038973D01*
X140469383Y-51038897D01*
X140409334Y-50775805D01*
X140310743Y-50524602D01*
X140175815Y-50290898D01*
X140007561Y-50079915D01*
X140007560Y-50079914D01*
X140007557Y-50079910D01*
X139809741Y-49896365D01*
X139770038Y-49869296D01*
X139586775Y-49744349D01*
X139586769Y-49744346D01*
X139586768Y-49744345D01*
X139586767Y-49744344D01*
X139343643Y-49627263D01*
X139343645Y-49627263D01*
X139085773Y-49547720D01*
X139085767Y-49547718D01*
X138818936Y-49507500D01*
X138818929Y-49507500D01*
X138549071Y-49507500D01*
X138549063Y-49507500D01*
X138282232Y-49547718D01*
X138282226Y-49547720D01*
X138024358Y-49627262D01*
X137781230Y-49744346D01*
X137558258Y-49896365D01*
X137360442Y-50079910D01*
X137192185Y-50290898D01*
X137057258Y-50524599D01*
X137057256Y-50524603D01*
X136958666Y-50775804D01*
X136958664Y-50775811D01*
X136898616Y-51038898D01*
X136878451Y-51307995D01*
X136878451Y-51308004D01*
X136898616Y-51577101D01*
X136958664Y-51840188D01*
X136958666Y-51840195D01*
X137026172Y-52012197D01*
X137057257Y-52091398D01*
X137192185Y-52325102D01*
X137294808Y-52453787D01*
X137360442Y-52536089D01*
X137483363Y-52650142D01*
X137558259Y-52719635D01*
X137781226Y-52871651D01*
X137781231Y-52871653D01*
X137781232Y-52871654D01*
X137781233Y-52871655D01*
X137863301Y-52911176D01*
X137915161Y-52957998D01*
X137933500Y-53022896D01*
X137933500Y-54593102D01*
X137913815Y-54660141D01*
X137863303Y-54704821D01*
X137781235Y-54744344D01*
X137781232Y-54744345D01*
X137781226Y-54744348D01*
X137781226Y-54744349D01*
X137767493Y-54753712D01*
X137558258Y-54896365D01*
X137360442Y-55079910D01*
X137192185Y-55290898D01*
X137057258Y-55524599D01*
X137057256Y-55524603D01*
X136958666Y-55775804D01*
X136958664Y-55775811D01*
X136898616Y-56038898D01*
X136878451Y-56307995D01*
X136878451Y-56308004D01*
X135409549Y-56308004D01*
X135409549Y-56308000D01*
X135407944Y-56286586D01*
X135390909Y-56059255D01*
X135389383Y-56038897D01*
X135329334Y-55775805D01*
X135230743Y-55524602D01*
X135095815Y-55290898D01*
X134927561Y-55079915D01*
X134927560Y-55079914D01*
X134927557Y-55079910D01*
X134729741Y-54896365D01*
X134566007Y-54784733D01*
X134506775Y-54744349D01*
X134506772Y-54744348D01*
X134506770Y-54744346D01*
X134424698Y-54704822D01*
X134372838Y-54657999D01*
X134354500Y-54593102D01*
X134354500Y-53022896D01*
X134374185Y-52955857D01*
X134424697Y-52911176D01*
X134506775Y-52871651D01*
X134729741Y-52719635D01*
X134927561Y-52536085D01*
X135095815Y-52325102D01*
X135230743Y-52091398D01*
X135329334Y-51840195D01*
X135389383Y-51577103D01*
X135402925Y-51396391D01*
X135409549Y-51308004D01*
X135409549Y-51307995D01*
X135389389Y-51038973D01*
X135389383Y-51038897D01*
X135329334Y-50775805D01*
X135230743Y-50524602D01*
X135095815Y-50290898D01*
X134927561Y-50079915D01*
X134927560Y-50079914D01*
X134927557Y-50079910D01*
X134729741Y-49896365D01*
X134690038Y-49869296D01*
X134506775Y-49744349D01*
X134506769Y-49744346D01*
X134506768Y-49744345D01*
X134506767Y-49744344D01*
X134263643Y-49627263D01*
X134263645Y-49627263D01*
X134005773Y-49547720D01*
X134005767Y-49547718D01*
X133738936Y-49507500D01*
X133738929Y-49507500D01*
X133469071Y-49507500D01*
X133469063Y-49507500D01*
X133202232Y-49547718D01*
X133202226Y-49547720D01*
X132944358Y-49627262D01*
X132701230Y-49744346D01*
X132478258Y-49896365D01*
X132280442Y-50079910D01*
X132112185Y-50290898D01*
X131977258Y-50524599D01*
X131977172Y-50524818D01*
X131961973Y-50563546D01*
X131946173Y-50603803D01*
X131903357Y-50659016D01*
X131837487Y-50682317D01*
X131830745Y-50682500D01*
X129986389Y-50682500D01*
X129925971Y-50694518D01*
X129865548Y-50706537D01*
X129865543Y-50706538D01*
X129831546Y-50720620D01*
X129818397Y-50726067D01*
X129804127Y-50731978D01*
X129751713Y-50753688D01*
X129741557Y-50760475D01*
X129741449Y-50760547D01*
X129649268Y-50822140D01*
X129605705Y-50865703D01*
X129562142Y-50909267D01*
X129562139Y-50909270D01*
X129220698Y-51250712D01*
X128912729Y-51558681D01*
X128851406Y-51592166D01*
X128825048Y-51595000D01*
X127662088Y-51595000D01*
X127595049Y-51575315D01*
X127556549Y-51536097D01*
X127546444Y-51519714D01*
X127527712Y-51489344D01*
X127434049Y-51395681D01*
X127400564Y-51334358D01*
X127405548Y-51264666D01*
X127434049Y-51220319D01*
X127468184Y-51186184D01*
X127527712Y-51126656D01*
X127619814Y-50977334D01*
X127674999Y-50810797D01*
X127685500Y-50708009D01*
X127685499Y-50082992D01*
X127674999Y-49980203D01*
X127619814Y-49813666D01*
X127527712Y-49664344D01*
X127403656Y-49540288D01*
X127254334Y-49448186D01*
X127087797Y-49393001D01*
X127087795Y-49393000D01*
X126985010Y-49382500D01*
X125984998Y-49382500D01*
X125984980Y-49382501D01*
X125882203Y-49393000D01*
X125882200Y-49393001D01*
X125715668Y-49448185D01*
X125715663Y-49448187D01*
X125566342Y-49540289D01*
X125442289Y-49664342D01*
X125350187Y-49813663D01*
X125350186Y-49813666D01*
X125295001Y-49980203D01*
X125295001Y-49980204D01*
X125295000Y-49980204D01*
X125284500Y-50082983D01*
X125284500Y-50563546D01*
X125264815Y-50630585D01*
X125248181Y-50651227D01*
X124899299Y-51000110D01*
X124569269Y-51330140D01*
X124569267Y-51330142D01*
X124482142Y-51417267D01*
X124449260Y-51466478D01*
X124428466Y-51497598D01*
X124413686Y-51519717D01*
X124413685Y-51519719D01*
X124384694Y-51589712D01*
X124366538Y-51633543D01*
X124366538Y-51633545D01*
X124366537Y-51633548D01*
X124360967Y-51661553D01*
X124342500Y-51754396D01*
X124342500Y-52453787D01*
X124322815Y-52520826D01*
X124270011Y-52566581D01*
X124200853Y-52576525D01*
X124177547Y-52570829D01*
X124131260Y-52554633D01*
X124131249Y-52554630D01*
X123952004Y-52534435D01*
X123951996Y-52534435D01*
X123772750Y-52554630D01*
X123772742Y-52554632D01*
X123603627Y-52613808D01*
X123533848Y-52617369D01*
X123473221Y-52582640D01*
X123440994Y-52520647D01*
X123447399Y-52451071D01*
X123474988Y-52409089D01*
X123565816Y-52318262D01*
X123661789Y-52165522D01*
X123721368Y-51995255D01*
X123741565Y-51816000D01*
X123741214Y-51812888D01*
X123721369Y-51636750D01*
X123721368Y-51636745D01*
X123718792Y-51629384D01*
X123661789Y-51466478D01*
X123565816Y-51313738D01*
X123438262Y-51186184D01*
X123285523Y-51090211D01*
X123115254Y-51030631D01*
X123115249Y-51030630D01*
X122936004Y-51010435D01*
X122935996Y-51010435D01*
X122756750Y-51030630D01*
X122756745Y-51030631D01*
X122586476Y-51090211D01*
X122433737Y-51186184D01*
X122395741Y-51224181D01*
X122334418Y-51257666D01*
X122308060Y-51260500D01*
X119881964Y-51260500D01*
X119814925Y-51240815D01*
X119769170Y-51188011D01*
X119759226Y-51118853D01*
X119763578Y-51099611D01*
X119782473Y-51038973D01*
X119806086Y-50963196D01*
X119812500Y-50892616D01*
X119812500Y-50379384D01*
X119806086Y-50308804D01*
X119755478Y-50146394D01*
X119667472Y-50000815D01*
X119667470Y-50000813D01*
X119667469Y-50000811D01*
X119547188Y-49880530D01*
X119401606Y-49792522D01*
X119239196Y-49741914D01*
X119239194Y-49741913D01*
X119239192Y-49741913D01*
X119189778Y-49737423D01*
X119168616Y-49735500D01*
X118155384Y-49735500D01*
X118136145Y-49737248D01*
X118084807Y-49741913D01*
X117922393Y-49792522D01*
X117776811Y-49880530D01*
X117656530Y-50000811D01*
X117568522Y-50146393D01*
X117517913Y-50308807D01*
X117512782Y-50365275D01*
X117511500Y-50379384D01*
X117511500Y-50892616D01*
X117513423Y-50913778D01*
X117517913Y-50963192D01*
X117517913Y-50963194D01*
X117517914Y-50963196D01*
X117566277Y-51118402D01*
X117568523Y-51125608D01*
X117611590Y-51196851D01*
X117629426Y-51264406D01*
X117611590Y-51325149D01*
X117568523Y-51396391D01*
X117517913Y-51558807D01*
X117511500Y-51629386D01*
X117511500Y-52142613D01*
X117517913Y-52213192D01*
X117517913Y-52213194D01*
X117517914Y-52213196D01*
X117552784Y-52325101D01*
X117568523Y-52375608D01*
X117611590Y-52446851D01*
X117629426Y-52514406D01*
X117611590Y-52575149D01*
X117568523Y-52646391D01*
X117517913Y-52808807D01*
X117516718Y-52821961D01*
X117512203Y-52871654D01*
X117511500Y-52879386D01*
X117511500Y-53392613D01*
X117517913Y-53463192D01*
X117517913Y-53463194D01*
X117517914Y-53463196D01*
X117565543Y-53616047D01*
X117568523Y-53625608D01*
X117611590Y-53696851D01*
X117629426Y-53764406D01*
X117611590Y-53825149D01*
X117568522Y-53896392D01*
X117568521Y-53896394D01*
X117555663Y-53937659D01*
X117524959Y-53988449D01*
X117188178Y-54325231D01*
X116949270Y-54564139D01*
X116949267Y-54564142D01*
X116920307Y-54593102D01*
X116862144Y-54651264D01*
X116862142Y-54651267D01*
X116841416Y-54682286D01*
X116841415Y-54682288D01*
X116841414Y-54682287D01*
X116793689Y-54753712D01*
X116793685Y-54753719D01*
X116780840Y-54784732D01*
X116746538Y-54867544D01*
X116746535Y-54867556D01*
X116722500Y-54988389D01*
X116722500Y-80833611D01*
X114526500Y-80833611D01*
X114526500Y-48936015D01*
X119411500Y-48936015D01*
X119422000Y-49038795D01*
X119422001Y-49038796D01*
X119477186Y-49205335D01*
X119477187Y-49205337D01*
X119569286Y-49354651D01*
X119569289Y-49354655D01*
X119693344Y-49478710D01*
X119693348Y-49478713D01*
X119842662Y-49570812D01*
X119842664Y-49570813D01*
X119842666Y-49570814D01*
X120009203Y-49625999D01*
X120111992Y-49636500D01*
X120111997Y-49636500D01*
X122712003Y-49636500D01*
X122712008Y-49636500D01*
X122814797Y-49625999D01*
X122981334Y-49570814D01*
X123130655Y-49478711D01*
X123254711Y-49354655D01*
X123346814Y-49205334D01*
X123401999Y-49038797D01*
X123412500Y-48936008D01*
X123412500Y-47235992D01*
X123401999Y-47133203D01*
X123346814Y-46966666D01*
X123254711Y-46817345D01*
X123130655Y-46693289D01*
X123130651Y-46693286D01*
X122981337Y-46601187D01*
X122981335Y-46601186D01*
X122898065Y-46573593D01*
X122814797Y-46546001D01*
X122814795Y-46546000D01*
X122712015Y-46535500D01*
X122712008Y-46535500D01*
X120111992Y-46535500D01*
X120111984Y-46535500D01*
X120009204Y-46546000D01*
X120009203Y-46546001D01*
X119842664Y-46601186D01*
X119842662Y-46601187D01*
X119693348Y-46693286D01*
X119693344Y-46693289D01*
X119569289Y-46817344D01*
X119569286Y-46817348D01*
X119477187Y-46966662D01*
X119477186Y-46966664D01*
X119422001Y-47133203D01*
X119422000Y-47133204D01*
X119411500Y-47235984D01*
X119411500Y-48936015D01*
X114526500Y-48936015D01*
X114526500Y-45251500D01*
X114546185Y-45184461D01*
X114598989Y-45138706D01*
X114650500Y-45127500D01*
X158105500Y-45127500D01*
X158172539Y-45147185D01*
G37*
%TD.AperFunction*%
%TD*%
M02*
