%TF.GenerationSoftware,KiCad,Pcbnew,8.0.1*%
%TF.CreationDate,2024-10-28T19:37:42+01:00*%
%TF.ProjectId,ESP_01_MQTT,4553505f-3031-45f4-9d51-54542e6b6963,rev?*%
%TF.SameCoordinates,Original*%
%TF.FileFunction,Soldermask,Top*%
%TF.FilePolarity,Negative*%
%FSLAX46Y46*%
G04 Gerber Fmt 4.6, Leading zero omitted, Abs format (unit mm)*
G04 Created by KiCad (PCBNEW 8.0.1) date 2024-10-28 19:37:42*
%MOMM*%
%LPD*%
G01*
G04 APERTURE LIST*
G04 Aperture macros list*
%AMRoundRect*
0 Rectangle with rounded corners*
0 $1 Rounding radius*
0 $2 $3 $4 $5 $6 $7 $8 $9 X,Y pos of 4 corners*
0 Add a 4 corners polygon primitive as box body*
4,1,4,$2,$3,$4,$5,$6,$7,$8,$9,$2,$3,0*
0 Add four circle primitives for the rounded corners*
1,1,$1+$1,$2,$3*
1,1,$1+$1,$4,$5*
1,1,$1+$1,$6,$7*
1,1,$1+$1,$8,$9*
0 Add four rect primitives between the rounded corners*
20,1,$1+$1,$2,$3,$4,$5,0*
20,1,$1+$1,$4,$5,$6,$7,0*
20,1,$1+$1,$6,$7,$8,$9,0*
20,1,$1+$1,$8,$9,$2,$3,0*%
G04 Aperture macros list end*
%ADD10R,1.700000X1.700000*%
%ADD11O,1.700000X1.700000*%
%ADD12C,1.500000*%
%ADD13RoundRect,0.250000X0.250000X0.475000X-0.250000X0.475000X-0.250000X-0.475000X0.250000X-0.475000X0*%
%ADD14RoundRect,0.375000X-0.375000X0.625000X-0.375000X-0.625000X0.375000X-0.625000X0.375000X0.625000X0*%
%ADD15RoundRect,0.500000X-1.400000X0.500000X-1.400000X-0.500000X1.400000X-0.500000X1.400000X0.500000X0*%
%ADD16C,2.600000*%
%ADD17RoundRect,0.150000X-0.587500X-0.150000X0.587500X-0.150000X0.587500X0.150000X-0.587500X0.150000X0*%
%ADD18RoundRect,0.250000X0.450000X-0.262500X0.450000X0.262500X-0.450000X0.262500X-0.450000X-0.262500X0*%
%ADD19C,3.200000*%
%ADD20R,2.540000X2.540000*%
%ADD21C,2.540000*%
%ADD22RoundRect,0.150000X0.587500X0.150000X-0.587500X0.150000X-0.587500X-0.150000X0.587500X-0.150000X0*%
%ADD23R,1.600000X1.600000*%
%ADD24C,1.600000*%
%ADD25RoundRect,0.243750X0.456250X-0.243750X0.456250X0.243750X-0.456250X0.243750X-0.456250X-0.243750X0*%
%ADD26RoundRect,0.250000X-0.450000X0.262500X-0.450000X-0.262500X0.450000X-0.262500X0.450000X0.262500X0*%
%ADD27RoundRect,0.250000X-0.262500X-0.450000X0.262500X-0.450000X0.262500X0.450000X-0.262500X0.450000X0*%
%ADD28R,2.200000X2.200000*%
%ADD29O,2.200000X2.200000*%
%ADD30RoundRect,0.250000X-0.600000X0.400000X-0.600000X-0.400000X0.600000X-0.400000X0.600000X0.400000X0*%
%ADD31RoundRect,0.250000X-0.475000X0.250000X-0.475000X-0.250000X0.475000X-0.250000X0.475000X0.250000X0*%
%ADD32O,1.600000X1.600000*%
%ADD33R,1.727200X1.727200*%
%ADD34O,1.727200X1.727200*%
%ADD35RoundRect,0.200000X0.450000X-0.200000X0.450000X0.200000X-0.450000X0.200000X-0.450000X-0.200000X0*%
%ADD36RoundRect,0.250001X1.249999X-0.799999X1.249999X0.799999X-1.249999X0.799999X-1.249999X-0.799999X0*%
G04 APERTURE END LIST*
D10*
%TO.C,J8*%
X119380000Y-106172000D03*
D11*
X119380000Y-103632000D03*
X119380000Y-101092000D03*
X119380000Y-98552000D03*
X119380000Y-96012000D03*
%TD*%
D12*
%TO.C,Y1*%
X146812000Y-81878000D03*
X146812000Y-86758000D03*
%TD*%
D13*
%TO.C,C5*%
X153350000Y-81788000D03*
X151450000Y-81788000D03*
%TD*%
%TO.C,C4*%
X153350000Y-86868000D03*
X151450000Y-86868000D03*
%TD*%
D14*
%TO.C,U2*%
X126252000Y-127406000D03*
X123952000Y-127406000D03*
D15*
X123952000Y-133706000D03*
D14*
X121652000Y-127406000D03*
%TD*%
D16*
%TO.C,J3*%
X133604000Y-56308000D03*
X133604000Y-51308000D03*
%TD*%
D17*
%TO.C,Q1*%
X123014500Y-67122000D03*
X123014500Y-69022000D03*
X124889500Y-68072000D03*
%TD*%
D10*
%TO.C,J6*%
X141732000Y-112776000D03*
%TD*%
D18*
%TO.C,R2*%
X141732000Y-118260500D03*
X141732000Y-116435500D03*
%TD*%
D19*
%TO.C,M1*%
X152273000Y-70104000D03*
X135763000Y-100584000D03*
D20*
X152908000Y-65024000D03*
D21*
X135128000Y-65024000D03*
X135128000Y-105664000D03*
X152908000Y-105664000D03*
%TD*%
D16*
%TO.C,J1*%
X153924000Y-56308000D03*
X153924000Y-51308000D03*
%TD*%
%TO.C,J2*%
X148844000Y-56308000D03*
X148844000Y-51308000D03*
%TD*%
D22*
%TO.C,Q2*%
X129969500Y-69022000D03*
X129969500Y-67122000D03*
X128094500Y-68072000D03*
%TD*%
D23*
%TO.C,C2*%
X126044888Y-120396000D03*
D24*
X128044888Y-120396000D03*
%TD*%
D25*
%TO.C,D3*%
X126492000Y-57325500D03*
X126492000Y-55450500D03*
%TD*%
D26*
%TO.C,R6*%
X145796000Y-111967000D03*
X145796000Y-113792000D03*
%TD*%
D27*
%TO.C,R1*%
X123039500Y-64008000D03*
X124864500Y-64008000D03*
%TD*%
D28*
%TO.C,D2*%
X141966000Y-65455000D03*
D29*
X141966000Y-75615000D03*
%TD*%
D30*
%TO.C,D4*%
X140208000Y-89182000D03*
X140208000Y-92682000D03*
%TD*%
D26*
%TO.C,R7*%
X137668000Y-111967000D03*
X137668000Y-113792000D03*
%TD*%
D28*
%TO.C,D1*%
X147046000Y-75615000D03*
D29*
X147046000Y-65455000D03*
%TD*%
D18*
%TO.C,R5*%
X145796000Y-118364000D03*
X145796000Y-116539000D03*
%TD*%
%TO.C,R4*%
X126485000Y-52220500D03*
X126485000Y-50395500D03*
%TD*%
%TO.C,R9*%
X135128000Y-89304500D03*
X135128000Y-87479500D03*
%TD*%
D16*
%TO.C,J4*%
X138684000Y-56308000D03*
X138684000Y-51308000D03*
%TD*%
D26*
%TO.C,R8*%
X135128000Y-92559500D03*
X135128000Y-94384500D03*
%TD*%
D31*
%TO.C,C3*%
X135128000Y-81854000D03*
X135128000Y-83754000D03*
%TD*%
D23*
%TO.C,U3*%
X130556000Y-106172000D03*
D32*
X130556000Y-103632000D03*
X130556000Y-101092000D03*
X130556000Y-98552000D03*
X130556000Y-96012000D03*
X130556000Y-93472000D03*
X130556000Y-90932000D03*
X130556000Y-88392000D03*
X130556000Y-85852000D03*
X130556000Y-83312000D03*
X130556000Y-80772000D03*
X130556000Y-78232000D03*
X130556000Y-75692000D03*
X130556000Y-73152000D03*
X122936000Y-73152000D03*
X122936000Y-75692000D03*
X122936000Y-78232000D03*
X122936000Y-80772000D03*
X122936000Y-83312000D03*
X122936000Y-85852000D03*
X122936000Y-88392000D03*
X122936000Y-90932000D03*
X122936000Y-93472000D03*
X122936000Y-96012000D03*
X122936000Y-98552000D03*
X122936000Y-101092000D03*
X122936000Y-103632000D03*
X122936000Y-106172000D03*
%TD*%
D16*
%TO.C,J5*%
X143764000Y-56308000D03*
X143764000Y-51308000D03*
%TD*%
D33*
%TO.C,U1*%
X134112000Y-124460000D03*
D34*
X136652000Y-124460000D03*
X134112000Y-127000000D03*
X136652000Y-127000000D03*
X134112000Y-129540000D03*
X136652000Y-129540000D03*
X134112000Y-132080000D03*
X136652000Y-132080000D03*
%TD*%
D27*
%TO.C,R3*%
X128119500Y-64008000D03*
X129944500Y-64008000D03*
%TD*%
D35*
%TO.C,J7*%
X118662000Y-56886000D03*
X118662000Y-55636000D03*
X118662000Y-54386000D03*
X118662000Y-53136000D03*
X118662000Y-51886000D03*
X118662000Y-50636000D03*
D36*
X121412000Y-59436000D03*
X121412000Y-48086000D03*
%TD*%
D23*
%TO.C,C1*%
X119888000Y-120396000D03*
D24*
X121888000Y-120396000D03*
%TD*%
M02*
