M48
; DRILL file {KiCad 8.0.1} date 2024-10-28T19:37:34+0100
; FORMAT={-:-/ absolute / metric / decimal}
; #@! TF.CreationDate,2024-10-28T19:37:34+01:00
; #@! TF.GenerationSoftware,Kicad,Pcbnew,8.0.1
; #@! TF.FileFunction,Plated,1,2,PTH
FMAT,2
METRIC
; #@! TA.AperFunction,Plated,PTH,ViaDrill
T1C0.400
; #@! TA.AperFunction,Plated,PTH,ViaDrill
T2C0.500
; #@! TA.AperFunction,Plated,PTH,ComponentDrill
T3C0.800
; #@! TA.AperFunction,Plated,PTH,ComponentDrill
T4C1.000
; #@! TA.AperFunction,Plated,PTH,ComponentDrill
T5C1.016
; #@! TA.AperFunction,Plated,PTH,ComponentDrill
T6C1.100
; #@! TA.AperFunction,Plated,PTH,ComponentDrill
T7C1.300
%
G90
G05
T1
X120.396Y-55.88
X122.936Y-51.816
X123.952Y-53.34
X126.492Y-64.008
X131.572Y-64.008
X131.572Y-69.088
X136.652Y-73.152
X137.16Y-89.408
X137.668Y-109.22
X138.176Y-77.724
X139.7Y-115.316
X145.796Y-120.396
X149.352Y-129.54
X150.876Y-127.0
X155.956Y-81.788
T2
X129.032Y-57.325
X135.128Y-70.612
X135.128Y-80.264
X138.684Y-110.236
X140.208Y-80.264
X140.208Y-87.376
T3
X119.888Y-120.396
X121.888Y-120.396
X122.936Y-73.152
X122.936Y-75.692
X122.936Y-78.232
X122.936Y-80.772
X122.936Y-83.312
X122.936Y-85.852
X122.936Y-88.392
X122.936Y-90.932
X122.936Y-93.472
X122.936Y-96.012
X122.936Y-98.552
X122.936Y-101.092
X122.936Y-103.632
X122.936Y-106.172
X126.045Y-120.396
X128.045Y-120.396
X130.556Y-73.152
X130.556Y-75.692
X130.556Y-78.232
X130.556Y-80.772
X130.556Y-83.312
X130.556Y-85.852
X130.556Y-88.392
X130.556Y-90.932
X130.556Y-93.472
X130.556Y-96.012
X130.556Y-98.552
X130.556Y-101.092
X130.556Y-103.632
X130.556Y-106.172
X146.812Y-81.878
X146.812Y-86.758
T4
X119.38Y-96.012
X119.38Y-98.552
X119.38Y-101.092
X119.38Y-103.632
X119.38Y-106.172
X141.732Y-112.776
T5
X134.112Y-124.46
X134.112Y-127.0
X134.112Y-129.54
X134.112Y-132.08
X136.652Y-124.46
X136.652Y-127.0
X136.652Y-129.54
X136.652Y-132.08
T6
X141.966Y-65.455
X141.966Y-75.615
X147.046Y-65.455
X147.046Y-75.615
T7
X133.604Y-51.308
X133.604Y-56.308
X135.128Y-65.024
X135.128Y-105.664
X138.684Y-51.308
X138.684Y-56.308
X143.764Y-51.308
X143.764Y-56.308
X148.844Y-51.308
X148.844Y-56.308
X152.908Y-65.024
X152.908Y-105.664
X153.924Y-51.308
X153.924Y-56.308
M30
