%TF.GenerationSoftware,KiCad,Pcbnew,8.0.1*%
%TF.CreationDate,2024-11-01T11:19:19+01:00*%
%TF.ProjectId,Liquid-Sensor-Zisterne,4c697175-6964-42d5-9365-6e736f722d5a,rev?*%
%TF.SameCoordinates,Original*%
%TF.FileFunction,Legend,Top*%
%TF.FilePolarity,Positive*%
%FSLAX46Y46*%
G04 Gerber Fmt 4.6, Leading zero omitted, Abs format (unit mm)*
G04 Created by KiCad (PCBNEW 8.0.1) date 2024-11-01 11:19:19*
%MOMM*%
%LPD*%
G01*
G04 APERTURE LIST*
%ADD10C,0.200000*%
%ADD11C,0.150000*%
%ADD12C,0.120000*%
G04 APERTURE END LIST*
D10*
X154680266Y-62622326D02*
X154680266Y-61860422D01*
X155061219Y-62241374D02*
X154299314Y-62241374D01*
X155061219Y-60860422D02*
X155061219Y-61431850D01*
X155061219Y-61146136D02*
X154061219Y-61146136D01*
X154061219Y-61146136D02*
X154204076Y-61241374D01*
X154204076Y-61241374D02*
X154299314Y-61336612D01*
X154299314Y-61336612D02*
X154346933Y-61431850D01*
X154156457Y-60479469D02*
X154108838Y-60431850D01*
X154108838Y-60431850D02*
X154061219Y-60336612D01*
X154061219Y-60336612D02*
X154061219Y-60098517D01*
X154061219Y-60098517D02*
X154108838Y-60003279D01*
X154108838Y-60003279D02*
X154156457Y-59955660D01*
X154156457Y-59955660D02*
X154251695Y-59908041D01*
X154251695Y-59908041D02*
X154346933Y-59908041D01*
X154346933Y-59908041D02*
X154489790Y-59955660D01*
X154489790Y-59955660D02*
X155061219Y-60527088D01*
X155061219Y-60527088D02*
X155061219Y-59908041D01*
X154061219Y-59622326D02*
X155061219Y-59288993D01*
X155061219Y-59288993D02*
X154061219Y-58955660D01*
X172156219Y-81429524D02*
X172156219Y-81905714D01*
X172156219Y-81905714D02*
X171156219Y-81905714D01*
X172156219Y-81096190D02*
X171489552Y-81096190D01*
X171156219Y-81096190D02*
X171203838Y-81143809D01*
X171203838Y-81143809D02*
X171251457Y-81096190D01*
X171251457Y-81096190D02*
X171203838Y-81048571D01*
X171203838Y-81048571D02*
X171156219Y-81096190D01*
X171156219Y-81096190D02*
X171251457Y-81096190D01*
X171489552Y-80191429D02*
X172489552Y-80191429D01*
X172108600Y-80191429D02*
X172156219Y-80286667D01*
X172156219Y-80286667D02*
X172156219Y-80477143D01*
X172156219Y-80477143D02*
X172108600Y-80572381D01*
X172108600Y-80572381D02*
X172060980Y-80620000D01*
X172060980Y-80620000D02*
X171965742Y-80667619D01*
X171965742Y-80667619D02*
X171680028Y-80667619D01*
X171680028Y-80667619D02*
X171584790Y-80620000D01*
X171584790Y-80620000D02*
X171537171Y-80572381D01*
X171537171Y-80572381D02*
X171489552Y-80477143D01*
X171489552Y-80477143D02*
X171489552Y-80286667D01*
X171489552Y-80286667D02*
X171537171Y-80191429D01*
X171489552Y-79286667D02*
X172156219Y-79286667D01*
X171489552Y-79715238D02*
X172013361Y-79715238D01*
X172013361Y-79715238D02*
X172108600Y-79667619D01*
X172108600Y-79667619D02*
X172156219Y-79572381D01*
X172156219Y-79572381D02*
X172156219Y-79429524D01*
X172156219Y-79429524D02*
X172108600Y-79334286D01*
X172108600Y-79334286D02*
X172060980Y-79286667D01*
X172156219Y-78810476D02*
X171489552Y-78810476D01*
X171156219Y-78810476D02*
X171203838Y-78858095D01*
X171203838Y-78858095D02*
X171251457Y-78810476D01*
X171251457Y-78810476D02*
X171203838Y-78762857D01*
X171203838Y-78762857D02*
X171156219Y-78810476D01*
X171156219Y-78810476D02*
X171251457Y-78810476D01*
X172156219Y-77905715D02*
X171156219Y-77905715D01*
X172108600Y-77905715D02*
X172156219Y-78000953D01*
X172156219Y-78000953D02*
X172156219Y-78191429D01*
X172156219Y-78191429D02*
X172108600Y-78286667D01*
X172108600Y-78286667D02*
X172060980Y-78334286D01*
X172060980Y-78334286D02*
X171965742Y-78381905D01*
X171965742Y-78381905D02*
X171680028Y-78381905D01*
X171680028Y-78381905D02*
X171584790Y-78334286D01*
X171584790Y-78334286D02*
X171537171Y-78286667D01*
X171537171Y-78286667D02*
X171489552Y-78191429D01*
X171489552Y-78191429D02*
X171489552Y-78000953D01*
X171489552Y-78000953D02*
X171537171Y-77905715D01*
X171775266Y-77429524D02*
X171775266Y-76667620D01*
X172108600Y-76239048D02*
X172156219Y-76096191D01*
X172156219Y-76096191D02*
X172156219Y-75858096D01*
X172156219Y-75858096D02*
X172108600Y-75762858D01*
X172108600Y-75762858D02*
X172060980Y-75715239D01*
X172060980Y-75715239D02*
X171965742Y-75667620D01*
X171965742Y-75667620D02*
X171870504Y-75667620D01*
X171870504Y-75667620D02*
X171775266Y-75715239D01*
X171775266Y-75715239D02*
X171727647Y-75762858D01*
X171727647Y-75762858D02*
X171680028Y-75858096D01*
X171680028Y-75858096D02*
X171632409Y-76048572D01*
X171632409Y-76048572D02*
X171584790Y-76143810D01*
X171584790Y-76143810D02*
X171537171Y-76191429D01*
X171537171Y-76191429D02*
X171441933Y-76239048D01*
X171441933Y-76239048D02*
X171346695Y-76239048D01*
X171346695Y-76239048D02*
X171251457Y-76191429D01*
X171251457Y-76191429D02*
X171203838Y-76143810D01*
X171203838Y-76143810D02*
X171156219Y-76048572D01*
X171156219Y-76048572D02*
X171156219Y-75810477D01*
X171156219Y-75810477D02*
X171203838Y-75667620D01*
X172108600Y-74858096D02*
X172156219Y-74953334D01*
X172156219Y-74953334D02*
X172156219Y-75143810D01*
X172156219Y-75143810D02*
X172108600Y-75239048D01*
X172108600Y-75239048D02*
X172013361Y-75286667D01*
X172013361Y-75286667D02*
X171632409Y-75286667D01*
X171632409Y-75286667D02*
X171537171Y-75239048D01*
X171537171Y-75239048D02*
X171489552Y-75143810D01*
X171489552Y-75143810D02*
X171489552Y-74953334D01*
X171489552Y-74953334D02*
X171537171Y-74858096D01*
X171537171Y-74858096D02*
X171632409Y-74810477D01*
X171632409Y-74810477D02*
X171727647Y-74810477D01*
X171727647Y-74810477D02*
X171822885Y-75286667D01*
X171489552Y-74381905D02*
X172156219Y-74381905D01*
X171584790Y-74381905D02*
X171537171Y-74334286D01*
X171537171Y-74334286D02*
X171489552Y-74239048D01*
X171489552Y-74239048D02*
X171489552Y-74096191D01*
X171489552Y-74096191D02*
X171537171Y-74000953D01*
X171537171Y-74000953D02*
X171632409Y-73953334D01*
X171632409Y-73953334D02*
X172156219Y-73953334D01*
X172108600Y-73524762D02*
X172156219Y-73429524D01*
X172156219Y-73429524D02*
X172156219Y-73239048D01*
X172156219Y-73239048D02*
X172108600Y-73143810D01*
X172108600Y-73143810D02*
X172013361Y-73096191D01*
X172013361Y-73096191D02*
X171965742Y-73096191D01*
X171965742Y-73096191D02*
X171870504Y-73143810D01*
X171870504Y-73143810D02*
X171822885Y-73239048D01*
X171822885Y-73239048D02*
X171822885Y-73381905D01*
X171822885Y-73381905D02*
X171775266Y-73477143D01*
X171775266Y-73477143D02*
X171680028Y-73524762D01*
X171680028Y-73524762D02*
X171632409Y-73524762D01*
X171632409Y-73524762D02*
X171537171Y-73477143D01*
X171537171Y-73477143D02*
X171489552Y-73381905D01*
X171489552Y-73381905D02*
X171489552Y-73239048D01*
X171489552Y-73239048D02*
X171537171Y-73143810D01*
X172156219Y-72524762D02*
X172108600Y-72620000D01*
X172108600Y-72620000D02*
X172060980Y-72667619D01*
X172060980Y-72667619D02*
X171965742Y-72715238D01*
X171965742Y-72715238D02*
X171680028Y-72715238D01*
X171680028Y-72715238D02*
X171584790Y-72667619D01*
X171584790Y-72667619D02*
X171537171Y-72620000D01*
X171537171Y-72620000D02*
X171489552Y-72524762D01*
X171489552Y-72524762D02*
X171489552Y-72381905D01*
X171489552Y-72381905D02*
X171537171Y-72286667D01*
X171537171Y-72286667D02*
X171584790Y-72239048D01*
X171584790Y-72239048D02*
X171680028Y-72191429D01*
X171680028Y-72191429D02*
X171965742Y-72191429D01*
X171965742Y-72191429D02*
X172060980Y-72239048D01*
X172060980Y-72239048D02*
X172108600Y-72286667D01*
X172108600Y-72286667D02*
X172156219Y-72381905D01*
X172156219Y-72381905D02*
X172156219Y-72524762D01*
X172156219Y-71762857D02*
X171489552Y-71762857D01*
X171680028Y-71762857D02*
X171584790Y-71715238D01*
X171584790Y-71715238D02*
X171537171Y-71667619D01*
X171537171Y-71667619D02*
X171489552Y-71572381D01*
X171489552Y-71572381D02*
X171489552Y-71477143D01*
X171775266Y-71143809D02*
X171775266Y-70381905D01*
X171156219Y-70000952D02*
X171156219Y-69334286D01*
X171156219Y-69334286D02*
X172156219Y-70000952D01*
X172156219Y-70000952D02*
X172156219Y-69334286D01*
X172156219Y-68953333D02*
X171489552Y-68953333D01*
X171156219Y-68953333D02*
X171203838Y-69000952D01*
X171203838Y-69000952D02*
X171251457Y-68953333D01*
X171251457Y-68953333D02*
X171203838Y-68905714D01*
X171203838Y-68905714D02*
X171156219Y-68953333D01*
X171156219Y-68953333D02*
X171251457Y-68953333D01*
X172108600Y-68524762D02*
X172156219Y-68429524D01*
X172156219Y-68429524D02*
X172156219Y-68239048D01*
X172156219Y-68239048D02*
X172108600Y-68143810D01*
X172108600Y-68143810D02*
X172013361Y-68096191D01*
X172013361Y-68096191D02*
X171965742Y-68096191D01*
X171965742Y-68096191D02*
X171870504Y-68143810D01*
X171870504Y-68143810D02*
X171822885Y-68239048D01*
X171822885Y-68239048D02*
X171822885Y-68381905D01*
X171822885Y-68381905D02*
X171775266Y-68477143D01*
X171775266Y-68477143D02*
X171680028Y-68524762D01*
X171680028Y-68524762D02*
X171632409Y-68524762D01*
X171632409Y-68524762D02*
X171537171Y-68477143D01*
X171537171Y-68477143D02*
X171489552Y-68381905D01*
X171489552Y-68381905D02*
X171489552Y-68239048D01*
X171489552Y-68239048D02*
X171537171Y-68143810D01*
X171489552Y-67810476D02*
X171489552Y-67429524D01*
X171156219Y-67667619D02*
X172013361Y-67667619D01*
X172013361Y-67667619D02*
X172108600Y-67620000D01*
X172108600Y-67620000D02*
X172156219Y-67524762D01*
X172156219Y-67524762D02*
X172156219Y-67429524D01*
X172108600Y-66715238D02*
X172156219Y-66810476D01*
X172156219Y-66810476D02*
X172156219Y-67000952D01*
X172156219Y-67000952D02*
X172108600Y-67096190D01*
X172108600Y-67096190D02*
X172013361Y-67143809D01*
X172013361Y-67143809D02*
X171632409Y-67143809D01*
X171632409Y-67143809D02*
X171537171Y-67096190D01*
X171537171Y-67096190D02*
X171489552Y-67000952D01*
X171489552Y-67000952D02*
X171489552Y-66810476D01*
X171489552Y-66810476D02*
X171537171Y-66715238D01*
X171537171Y-66715238D02*
X171632409Y-66667619D01*
X171632409Y-66667619D02*
X171727647Y-66667619D01*
X171727647Y-66667619D02*
X171822885Y-67143809D01*
X172156219Y-66239047D02*
X171489552Y-66239047D01*
X171680028Y-66239047D02*
X171584790Y-66191428D01*
X171584790Y-66191428D02*
X171537171Y-66143809D01*
X171537171Y-66143809D02*
X171489552Y-66048571D01*
X171489552Y-66048571D02*
X171489552Y-65953333D01*
X171489552Y-65619999D02*
X172156219Y-65619999D01*
X171584790Y-65619999D02*
X171537171Y-65572380D01*
X171537171Y-65572380D02*
X171489552Y-65477142D01*
X171489552Y-65477142D02*
X171489552Y-65334285D01*
X171489552Y-65334285D02*
X171537171Y-65239047D01*
X171537171Y-65239047D02*
X171632409Y-65191428D01*
X171632409Y-65191428D02*
X172156219Y-65191428D01*
X172108600Y-64334285D02*
X172156219Y-64429523D01*
X172156219Y-64429523D02*
X172156219Y-64619999D01*
X172156219Y-64619999D02*
X172108600Y-64715237D01*
X172108600Y-64715237D02*
X172013361Y-64762856D01*
X172013361Y-64762856D02*
X171632409Y-64762856D01*
X171632409Y-64762856D02*
X171537171Y-64715237D01*
X171537171Y-64715237D02*
X171489552Y-64619999D01*
X171489552Y-64619999D02*
X171489552Y-64429523D01*
X171489552Y-64429523D02*
X171537171Y-64334285D01*
X171537171Y-64334285D02*
X171632409Y-64286666D01*
X171632409Y-64286666D02*
X171727647Y-64286666D01*
X171727647Y-64286666D02*
X171822885Y-64762856D01*
X171156219Y-63239046D02*
X172156219Y-62905713D01*
X172156219Y-62905713D02*
X171156219Y-62572380D01*
X171156219Y-62048570D02*
X171156219Y-61953332D01*
X171156219Y-61953332D02*
X171203838Y-61858094D01*
X171203838Y-61858094D02*
X171251457Y-61810475D01*
X171251457Y-61810475D02*
X171346695Y-61762856D01*
X171346695Y-61762856D02*
X171537171Y-61715237D01*
X171537171Y-61715237D02*
X171775266Y-61715237D01*
X171775266Y-61715237D02*
X171965742Y-61762856D01*
X171965742Y-61762856D02*
X172060980Y-61810475D01*
X172060980Y-61810475D02*
X172108600Y-61858094D01*
X172108600Y-61858094D02*
X172156219Y-61953332D01*
X172156219Y-61953332D02*
X172156219Y-62048570D01*
X172156219Y-62048570D02*
X172108600Y-62143808D01*
X172108600Y-62143808D02*
X172060980Y-62191427D01*
X172060980Y-62191427D02*
X171965742Y-62239046D01*
X171965742Y-62239046D02*
X171775266Y-62286665D01*
X171775266Y-62286665D02*
X171537171Y-62286665D01*
X171537171Y-62286665D02*
X171346695Y-62239046D01*
X171346695Y-62239046D02*
X171251457Y-62191427D01*
X171251457Y-62191427D02*
X171203838Y-62143808D01*
X171203838Y-62143808D02*
X171156219Y-62048570D01*
X172060980Y-61286665D02*
X172108600Y-61239046D01*
X172108600Y-61239046D02*
X172156219Y-61286665D01*
X172156219Y-61286665D02*
X172108600Y-61334284D01*
X172108600Y-61334284D02*
X172060980Y-61286665D01*
X172060980Y-61286665D02*
X172156219Y-61286665D01*
X171156219Y-60619999D02*
X171156219Y-60524761D01*
X171156219Y-60524761D02*
X171203838Y-60429523D01*
X171203838Y-60429523D02*
X171251457Y-60381904D01*
X171251457Y-60381904D02*
X171346695Y-60334285D01*
X171346695Y-60334285D02*
X171537171Y-60286666D01*
X171537171Y-60286666D02*
X171775266Y-60286666D01*
X171775266Y-60286666D02*
X171965742Y-60334285D01*
X171965742Y-60334285D02*
X172060980Y-60381904D01*
X172060980Y-60381904D02*
X172108600Y-60429523D01*
X172108600Y-60429523D02*
X172156219Y-60524761D01*
X172156219Y-60524761D02*
X172156219Y-60619999D01*
X172156219Y-60619999D02*
X172108600Y-60715237D01*
X172108600Y-60715237D02*
X172060980Y-60762856D01*
X172060980Y-60762856D02*
X171965742Y-60810475D01*
X171965742Y-60810475D02*
X171775266Y-60858094D01*
X171775266Y-60858094D02*
X171537171Y-60858094D01*
X171537171Y-60858094D02*
X171346695Y-60810475D01*
X171346695Y-60810475D02*
X171251457Y-60762856D01*
X171251457Y-60762856D02*
X171203838Y-60715237D01*
X171203838Y-60715237D02*
X171156219Y-60619999D01*
X164014838Y-61590517D02*
X163967219Y-61685755D01*
X163967219Y-61685755D02*
X163967219Y-61828612D01*
X163967219Y-61828612D02*
X164014838Y-61971469D01*
X164014838Y-61971469D02*
X164110076Y-62066707D01*
X164110076Y-62066707D02*
X164205314Y-62114326D01*
X164205314Y-62114326D02*
X164395790Y-62161945D01*
X164395790Y-62161945D02*
X164538647Y-62161945D01*
X164538647Y-62161945D02*
X164729123Y-62114326D01*
X164729123Y-62114326D02*
X164824361Y-62066707D01*
X164824361Y-62066707D02*
X164919600Y-61971469D01*
X164919600Y-61971469D02*
X164967219Y-61828612D01*
X164967219Y-61828612D02*
X164967219Y-61733374D01*
X164967219Y-61733374D02*
X164919600Y-61590517D01*
X164919600Y-61590517D02*
X164871980Y-61542898D01*
X164871980Y-61542898D02*
X164538647Y-61542898D01*
X164538647Y-61542898D02*
X164538647Y-61733374D01*
X164967219Y-61114326D02*
X163967219Y-61114326D01*
X163967219Y-61114326D02*
X164967219Y-60542898D01*
X164967219Y-60542898D02*
X163967219Y-60542898D01*
X164967219Y-60066707D02*
X163967219Y-60066707D01*
X163967219Y-60066707D02*
X163967219Y-59828612D01*
X163967219Y-59828612D02*
X164014838Y-59685755D01*
X164014838Y-59685755D02*
X164110076Y-59590517D01*
X164110076Y-59590517D02*
X164205314Y-59542898D01*
X164205314Y-59542898D02*
X164395790Y-59495279D01*
X164395790Y-59495279D02*
X164538647Y-59495279D01*
X164538647Y-59495279D02*
X164729123Y-59542898D01*
X164729123Y-59542898D02*
X164824361Y-59590517D01*
X164824361Y-59590517D02*
X164919600Y-59685755D01*
X164919600Y-59685755D02*
X164967219Y-59828612D01*
X164967219Y-59828612D02*
X164967219Y-60066707D01*
D11*
X167760667Y-88500295D02*
X167494000Y-88119342D01*
X167303524Y-88500295D02*
X167303524Y-87700295D01*
X167303524Y-87700295D02*
X167608286Y-87700295D01*
X167608286Y-87700295D02*
X167684476Y-87738390D01*
X167684476Y-87738390D02*
X167722571Y-87776485D01*
X167722571Y-87776485D02*
X167760667Y-87852676D01*
X167760667Y-87852676D02*
X167760667Y-87966961D01*
X167760667Y-87966961D02*
X167722571Y-88043152D01*
X167722571Y-88043152D02*
X167684476Y-88081247D01*
X167684476Y-88081247D02*
X167608286Y-88119342D01*
X167608286Y-88119342D02*
X167303524Y-88119342D01*
X168446381Y-87966961D02*
X168446381Y-88500295D01*
X168255905Y-87662200D02*
X168065428Y-88233628D01*
X168065428Y-88233628D02*
X168560667Y-88233628D01*
X167240295Y-63328475D02*
X166440295Y-63328475D01*
X166440295Y-63328475D02*
X166440295Y-63137999D01*
X166440295Y-63137999D02*
X166478390Y-63023713D01*
X166478390Y-63023713D02*
X166554580Y-62947523D01*
X166554580Y-62947523D02*
X166630771Y-62909428D01*
X166630771Y-62909428D02*
X166783152Y-62871332D01*
X166783152Y-62871332D02*
X166897438Y-62871332D01*
X166897438Y-62871332D02*
X167049819Y-62909428D01*
X167049819Y-62909428D02*
X167126009Y-62947523D01*
X167126009Y-62947523D02*
X167202200Y-63023713D01*
X167202200Y-63023713D02*
X167240295Y-63137999D01*
X167240295Y-63137999D02*
X167240295Y-63328475D01*
X166440295Y-62604666D02*
X166440295Y-62109428D01*
X166440295Y-62109428D02*
X166745057Y-62376094D01*
X166745057Y-62376094D02*
X166745057Y-62261809D01*
X166745057Y-62261809D02*
X166783152Y-62185618D01*
X166783152Y-62185618D02*
X166821247Y-62147523D01*
X166821247Y-62147523D02*
X166897438Y-62109428D01*
X166897438Y-62109428D02*
X167087914Y-62109428D01*
X167087914Y-62109428D02*
X167164104Y-62147523D01*
X167164104Y-62147523D02*
X167202200Y-62185618D01*
X167202200Y-62185618D02*
X167240295Y-62261809D01*
X167240295Y-62261809D02*
X167240295Y-62490380D01*
X167240295Y-62490380D02*
X167202200Y-62566571D01*
X167202200Y-62566571D02*
X167164104Y-62604666D01*
X164325333Y-89478295D02*
X164325333Y-90049723D01*
X164325333Y-90049723D02*
X164287238Y-90164009D01*
X164287238Y-90164009D02*
X164211047Y-90240200D01*
X164211047Y-90240200D02*
X164096762Y-90278295D01*
X164096762Y-90278295D02*
X164020571Y-90278295D01*
X164630095Y-89478295D02*
X165125333Y-89478295D01*
X165125333Y-89478295D02*
X164858667Y-89783057D01*
X164858667Y-89783057D02*
X164972952Y-89783057D01*
X164972952Y-89783057D02*
X165049143Y-89821152D01*
X165049143Y-89821152D02*
X165087238Y-89859247D01*
X165087238Y-89859247D02*
X165125333Y-89935438D01*
X165125333Y-89935438D02*
X165125333Y-90125914D01*
X165125333Y-90125914D02*
X165087238Y-90202104D01*
X165087238Y-90202104D02*
X165049143Y-90240200D01*
X165049143Y-90240200D02*
X164972952Y-90278295D01*
X164972952Y-90278295D02*
X164744381Y-90278295D01*
X164744381Y-90278295D02*
X164668190Y-90240200D01*
X164668190Y-90240200D02*
X164630095Y-90202104D01*
X162690104Y-69221332D02*
X162728200Y-69259428D01*
X162728200Y-69259428D02*
X162766295Y-69373713D01*
X162766295Y-69373713D02*
X162766295Y-69449904D01*
X162766295Y-69449904D02*
X162728200Y-69564190D01*
X162728200Y-69564190D02*
X162652009Y-69640380D01*
X162652009Y-69640380D02*
X162575819Y-69678475D01*
X162575819Y-69678475D02*
X162423438Y-69716571D01*
X162423438Y-69716571D02*
X162309152Y-69716571D01*
X162309152Y-69716571D02*
X162156771Y-69678475D01*
X162156771Y-69678475D02*
X162080580Y-69640380D01*
X162080580Y-69640380D02*
X162004390Y-69564190D01*
X162004390Y-69564190D02*
X161966295Y-69449904D01*
X161966295Y-69449904D02*
X161966295Y-69373713D01*
X161966295Y-69373713D02*
X162004390Y-69259428D01*
X162004390Y-69259428D02*
X162042485Y-69221332D01*
X161966295Y-68954666D02*
X161966295Y-68459428D01*
X161966295Y-68459428D02*
X162271057Y-68726094D01*
X162271057Y-68726094D02*
X162271057Y-68611809D01*
X162271057Y-68611809D02*
X162309152Y-68535618D01*
X162309152Y-68535618D02*
X162347247Y-68497523D01*
X162347247Y-68497523D02*
X162423438Y-68459428D01*
X162423438Y-68459428D02*
X162613914Y-68459428D01*
X162613914Y-68459428D02*
X162690104Y-68497523D01*
X162690104Y-68497523D02*
X162728200Y-68535618D01*
X162728200Y-68535618D02*
X162766295Y-68611809D01*
X162766295Y-68611809D02*
X162766295Y-68840380D01*
X162766295Y-68840380D02*
X162728200Y-68916571D01*
X162728200Y-68916571D02*
X162690104Y-68954666D01*
X153333524Y-66450295D02*
X153333524Y-65650295D01*
X153333524Y-65650295D02*
X153524000Y-65650295D01*
X153524000Y-65650295D02*
X153638286Y-65688390D01*
X153638286Y-65688390D02*
X153714476Y-65764580D01*
X153714476Y-65764580D02*
X153752571Y-65840771D01*
X153752571Y-65840771D02*
X153790667Y-65993152D01*
X153790667Y-65993152D02*
X153790667Y-66107438D01*
X153790667Y-66107438D02*
X153752571Y-66259819D01*
X153752571Y-66259819D02*
X153714476Y-66336009D01*
X153714476Y-66336009D02*
X153638286Y-66412200D01*
X153638286Y-66412200D02*
X153524000Y-66450295D01*
X153524000Y-66450295D02*
X153333524Y-66450295D01*
X154552571Y-66450295D02*
X154095428Y-66450295D01*
X154324000Y-66450295D02*
X154324000Y-65650295D01*
X154324000Y-65650295D02*
X154247809Y-65764580D01*
X154247809Y-65764580D02*
X154171619Y-65840771D01*
X154171619Y-65840771D02*
X154095428Y-65878866D01*
X160515333Y-65348295D02*
X160515333Y-65919723D01*
X160515333Y-65919723D02*
X160477238Y-66034009D01*
X160477238Y-66034009D02*
X160401047Y-66110200D01*
X160401047Y-66110200D02*
X160286762Y-66148295D01*
X160286762Y-66148295D02*
X160210571Y-66148295D01*
X161315333Y-66148295D02*
X160858190Y-66148295D01*
X161086762Y-66148295D02*
X161086762Y-65348295D01*
X161086762Y-65348295D02*
X161010571Y-65462580D01*
X161010571Y-65462580D02*
X160934381Y-65538771D01*
X160934381Y-65538771D02*
X160858190Y-65576866D01*
X154160295Y-75063332D02*
X153779342Y-75329999D01*
X154160295Y-75520475D02*
X153360295Y-75520475D01*
X153360295Y-75520475D02*
X153360295Y-75215713D01*
X153360295Y-75215713D02*
X153398390Y-75139523D01*
X153398390Y-75139523D02*
X153436485Y-75101428D01*
X153436485Y-75101428D02*
X153512676Y-75063332D01*
X153512676Y-75063332D02*
X153626961Y-75063332D01*
X153626961Y-75063332D02*
X153703152Y-75101428D01*
X153703152Y-75101428D02*
X153741247Y-75139523D01*
X153741247Y-75139523D02*
X153779342Y-75215713D01*
X153779342Y-75215713D02*
X153779342Y-75520475D01*
X154160295Y-74301428D02*
X154160295Y-74758571D01*
X154160295Y-74529999D02*
X153360295Y-74529999D01*
X153360295Y-74529999D02*
X153474580Y-74606190D01*
X153474580Y-74606190D02*
X153550771Y-74682380D01*
X153550771Y-74682380D02*
X153588866Y-74758571D01*
X160254295Y-75063332D02*
X159873342Y-75329999D01*
X160254295Y-75520475D02*
X159454295Y-75520475D01*
X159454295Y-75520475D02*
X159454295Y-75215713D01*
X159454295Y-75215713D02*
X159492390Y-75139523D01*
X159492390Y-75139523D02*
X159530485Y-75101428D01*
X159530485Y-75101428D02*
X159606676Y-75063332D01*
X159606676Y-75063332D02*
X159720961Y-75063332D01*
X159720961Y-75063332D02*
X159797152Y-75101428D01*
X159797152Y-75101428D02*
X159835247Y-75139523D01*
X159835247Y-75139523D02*
X159873342Y-75215713D01*
X159873342Y-75215713D02*
X159873342Y-75520475D01*
X159530485Y-74758571D02*
X159492390Y-74720475D01*
X159492390Y-74720475D02*
X159454295Y-74644285D01*
X159454295Y-74644285D02*
X159454295Y-74453809D01*
X159454295Y-74453809D02*
X159492390Y-74377618D01*
X159492390Y-74377618D02*
X159530485Y-74339523D01*
X159530485Y-74339523D02*
X159606676Y-74301428D01*
X159606676Y-74301428D02*
X159682866Y-74301428D01*
X159682866Y-74301428D02*
X159797152Y-74339523D01*
X159797152Y-74339523D02*
X160254295Y-74796666D01*
X160254295Y-74796666D02*
X160254295Y-74301428D01*
X154165333Y-89478295D02*
X154165333Y-90049723D01*
X154165333Y-90049723D02*
X154127238Y-90164009D01*
X154127238Y-90164009D02*
X154051047Y-90240200D01*
X154051047Y-90240200D02*
X153936762Y-90278295D01*
X153936762Y-90278295D02*
X153860571Y-90278295D01*
X154508190Y-89554485D02*
X154546286Y-89516390D01*
X154546286Y-89516390D02*
X154622476Y-89478295D01*
X154622476Y-89478295D02*
X154812952Y-89478295D01*
X154812952Y-89478295D02*
X154889143Y-89516390D01*
X154889143Y-89516390D02*
X154927238Y-89554485D01*
X154927238Y-89554485D02*
X154965333Y-89630676D01*
X154965333Y-89630676D02*
X154965333Y-89706866D01*
X154965333Y-89706866D02*
X154927238Y-89821152D01*
X154927238Y-89821152D02*
X154470095Y-90278295D01*
X154470095Y-90278295D02*
X154965333Y-90278295D01*
X158916524Y-83254295D02*
X158916524Y-82454295D01*
X158916524Y-82454295D02*
X159107000Y-82454295D01*
X159107000Y-82454295D02*
X159221286Y-82492390D01*
X159221286Y-82492390D02*
X159297476Y-82568580D01*
X159297476Y-82568580D02*
X159335571Y-82644771D01*
X159335571Y-82644771D02*
X159373667Y-82797152D01*
X159373667Y-82797152D02*
X159373667Y-82911438D01*
X159373667Y-82911438D02*
X159335571Y-83063819D01*
X159335571Y-83063819D02*
X159297476Y-83140009D01*
X159297476Y-83140009D02*
X159221286Y-83216200D01*
X159221286Y-83216200D02*
X159107000Y-83254295D01*
X159107000Y-83254295D02*
X158916524Y-83254295D01*
X159678428Y-82530485D02*
X159716524Y-82492390D01*
X159716524Y-82492390D02*
X159792714Y-82454295D01*
X159792714Y-82454295D02*
X159983190Y-82454295D01*
X159983190Y-82454295D02*
X160059381Y-82492390D01*
X160059381Y-82492390D02*
X160097476Y-82530485D01*
X160097476Y-82530485D02*
X160135571Y-82606676D01*
X160135571Y-82606676D02*
X160135571Y-82682866D01*
X160135571Y-82682866D02*
X160097476Y-82797152D01*
X160097476Y-82797152D02*
X159640333Y-83254295D01*
X159640333Y-83254295D02*
X160135571Y-83254295D01*
X165760476Y-72460295D02*
X165760476Y-73107914D01*
X165760476Y-73107914D02*
X165798571Y-73184104D01*
X165798571Y-73184104D02*
X165836666Y-73222200D01*
X165836666Y-73222200D02*
X165912857Y-73260295D01*
X165912857Y-73260295D02*
X166065238Y-73260295D01*
X166065238Y-73260295D02*
X166141428Y-73222200D01*
X166141428Y-73222200D02*
X166179523Y-73184104D01*
X166179523Y-73184104D02*
X166217619Y-73107914D01*
X166217619Y-73107914D02*
X166217619Y-72460295D01*
X166560475Y-72536485D02*
X166598571Y-72498390D01*
X166598571Y-72498390D02*
X166674761Y-72460295D01*
X166674761Y-72460295D02*
X166865237Y-72460295D01*
X166865237Y-72460295D02*
X166941428Y-72498390D01*
X166941428Y-72498390D02*
X166979523Y-72536485D01*
X166979523Y-72536485D02*
X167017618Y-72612676D01*
X167017618Y-72612676D02*
X167017618Y-72688866D01*
X167017618Y-72688866D02*
X166979523Y-72803152D01*
X166979523Y-72803152D02*
X166522380Y-73260295D01*
X166522380Y-73260295D02*
X167017618Y-73260295D01*
X148876104Y-74555332D02*
X148914200Y-74593428D01*
X148914200Y-74593428D02*
X148952295Y-74707713D01*
X148952295Y-74707713D02*
X148952295Y-74783904D01*
X148952295Y-74783904D02*
X148914200Y-74898190D01*
X148914200Y-74898190D02*
X148838009Y-74974380D01*
X148838009Y-74974380D02*
X148761819Y-75012475D01*
X148761819Y-75012475D02*
X148609438Y-75050571D01*
X148609438Y-75050571D02*
X148495152Y-75050571D01*
X148495152Y-75050571D02*
X148342771Y-75012475D01*
X148342771Y-75012475D02*
X148266580Y-74974380D01*
X148266580Y-74974380D02*
X148190390Y-74898190D01*
X148190390Y-74898190D02*
X148152295Y-74783904D01*
X148152295Y-74783904D02*
X148152295Y-74707713D01*
X148152295Y-74707713D02*
X148190390Y-74593428D01*
X148190390Y-74593428D02*
X148228485Y-74555332D01*
X148952295Y-73793428D02*
X148952295Y-74250571D01*
X148952295Y-74021999D02*
X148152295Y-74021999D01*
X148152295Y-74021999D02*
X148266580Y-74098190D01*
X148266580Y-74098190D02*
X148342771Y-74174380D01*
X148342771Y-74174380D02*
X148380866Y-74250571D01*
X151504667Y-84106104D02*
X151466571Y-84144200D01*
X151466571Y-84144200D02*
X151352286Y-84182295D01*
X151352286Y-84182295D02*
X151276095Y-84182295D01*
X151276095Y-84182295D02*
X151161809Y-84144200D01*
X151161809Y-84144200D02*
X151085619Y-84068009D01*
X151085619Y-84068009D02*
X151047524Y-83991819D01*
X151047524Y-83991819D02*
X151009428Y-83839438D01*
X151009428Y-83839438D02*
X151009428Y-83725152D01*
X151009428Y-83725152D02*
X151047524Y-83572771D01*
X151047524Y-83572771D02*
X151085619Y-83496580D01*
X151085619Y-83496580D02*
X151161809Y-83420390D01*
X151161809Y-83420390D02*
X151276095Y-83382295D01*
X151276095Y-83382295D02*
X151352286Y-83382295D01*
X151352286Y-83382295D02*
X151466571Y-83420390D01*
X151466571Y-83420390D02*
X151504667Y-83458485D01*
X151809428Y-83458485D02*
X151847524Y-83420390D01*
X151847524Y-83420390D02*
X151923714Y-83382295D01*
X151923714Y-83382295D02*
X152114190Y-83382295D01*
X152114190Y-83382295D02*
X152190381Y-83420390D01*
X152190381Y-83420390D02*
X152228476Y-83458485D01*
X152228476Y-83458485D02*
X152266571Y-83534676D01*
X152266571Y-83534676D02*
X152266571Y-83610866D01*
X152266571Y-83610866D02*
X152228476Y-83725152D01*
X152228476Y-83725152D02*
X151771333Y-84182295D01*
X151771333Y-84182295D02*
X152266571Y-84182295D01*
X167494295Y-69221332D02*
X167113342Y-69487999D01*
X167494295Y-69678475D02*
X166694295Y-69678475D01*
X166694295Y-69678475D02*
X166694295Y-69373713D01*
X166694295Y-69373713D02*
X166732390Y-69297523D01*
X166732390Y-69297523D02*
X166770485Y-69259428D01*
X166770485Y-69259428D02*
X166846676Y-69221332D01*
X166846676Y-69221332D02*
X166960961Y-69221332D01*
X166960961Y-69221332D02*
X167037152Y-69259428D01*
X167037152Y-69259428D02*
X167075247Y-69297523D01*
X167075247Y-69297523D02*
X167113342Y-69373713D01*
X167113342Y-69373713D02*
X167113342Y-69678475D01*
X166694295Y-68954666D02*
X166694295Y-68459428D01*
X166694295Y-68459428D02*
X166999057Y-68726094D01*
X166999057Y-68726094D02*
X166999057Y-68611809D01*
X166999057Y-68611809D02*
X167037152Y-68535618D01*
X167037152Y-68535618D02*
X167075247Y-68497523D01*
X167075247Y-68497523D02*
X167151438Y-68459428D01*
X167151438Y-68459428D02*
X167341914Y-68459428D01*
X167341914Y-68459428D02*
X167418104Y-68497523D01*
X167418104Y-68497523D02*
X167456200Y-68535618D01*
X167456200Y-68535618D02*
X167494295Y-68611809D01*
X167494295Y-68611809D02*
X167494295Y-68840380D01*
X167494295Y-68840380D02*
X167456200Y-68916571D01*
X167456200Y-68916571D02*
X167418104Y-68954666D01*
X152298476Y-76426295D02*
X152298476Y-77073914D01*
X152298476Y-77073914D02*
X152336571Y-77150104D01*
X152336571Y-77150104D02*
X152374666Y-77188200D01*
X152374666Y-77188200D02*
X152450857Y-77226295D01*
X152450857Y-77226295D02*
X152603238Y-77226295D01*
X152603238Y-77226295D02*
X152679428Y-77188200D01*
X152679428Y-77188200D02*
X152717523Y-77150104D01*
X152717523Y-77150104D02*
X152755619Y-77073914D01*
X152755619Y-77073914D02*
X152755619Y-76426295D01*
X153555618Y-77226295D02*
X153098475Y-77226295D01*
X153327047Y-77226295D02*
X153327047Y-76426295D01*
X153327047Y-76426295D02*
X153250856Y-76540580D01*
X153250856Y-76540580D02*
X153174666Y-76616771D01*
X153174666Y-76616771D02*
X153098475Y-76654866D01*
D12*
%TO.C,R4*%
X167666936Y-85625000D02*
X168121064Y-85625000D01*
X167666936Y-87095000D02*
X168121064Y-87095000D01*
%TO.C,D3*%
X167546000Y-60078000D02*
X167546000Y-64488000D01*
X169766000Y-60078000D02*
X167546000Y-60078000D01*
X169766000Y-64488000D02*
X169766000Y-60078000D01*
%TO.C,J3*%
X166392000Y-92710000D02*
G75*
G02*
X162792000Y-92710000I-1800000J0D01*
G01*
X162792000Y-92710000D02*
G75*
G02*
X166392000Y-92710000I1800000J0D01*
G01*
%TO.C,C3*%
X163349000Y-69349252D02*
X163349000Y-68826748D01*
X164819000Y-69349252D02*
X164819000Y-68826748D01*
%TO.C,D1*%
X149214000Y-66938000D02*
X149214000Y-71238000D01*
X149214000Y-66938000D02*
X156624000Y-66938000D01*
X149214000Y-71238000D02*
X156624000Y-71238000D01*
%TO.C,J1*%
X155642000Y-59908000D02*
X155642000Y-62568000D01*
X155642000Y-62568000D02*
X163382000Y-62568000D01*
X155702000Y-65278000D02*
X155702000Y-64008000D01*
X156592000Y-53908000D02*
X157352000Y-53908000D01*
X156592000Y-59908000D02*
X156592000Y-53908000D01*
X156592000Y-62898000D02*
X156592000Y-62568000D01*
X156652000Y-59908000D02*
X156652000Y-53908000D01*
X156772000Y-59908000D02*
X156772000Y-53908000D01*
X156892000Y-59908000D02*
X156892000Y-53908000D01*
X156972000Y-65278000D02*
X155702000Y-65278000D01*
X157012000Y-59908000D02*
X157012000Y-53908000D01*
X157132000Y-59908000D02*
X157132000Y-53908000D01*
X157252000Y-59908000D02*
X157252000Y-53908000D01*
X157352000Y-53908000D02*
X157352000Y-59908000D01*
X157352000Y-62898000D02*
X157352000Y-62568000D01*
X158242000Y-62568000D02*
X158242000Y-59908000D01*
X159132000Y-53908000D02*
X159892000Y-53908000D01*
X159132000Y-59908000D02*
X159132000Y-53908000D01*
X159132000Y-62965071D02*
X159132000Y-62568000D01*
X159892000Y-53908000D02*
X159892000Y-59908000D01*
X159892000Y-62965071D02*
X159892000Y-62568000D01*
X160782000Y-62568000D02*
X160782000Y-59908000D01*
X161672000Y-53908000D02*
X162432000Y-53908000D01*
X161672000Y-59908000D02*
X161672000Y-53908000D01*
X161672000Y-62965071D02*
X161672000Y-62568000D01*
X162432000Y-53908000D02*
X162432000Y-59908000D01*
X162432000Y-62965071D02*
X162432000Y-62568000D01*
X163382000Y-59908000D02*
X155642000Y-59908000D01*
X163382000Y-62568000D02*
X163382000Y-59908000D01*
%TO.C,R1*%
X154713000Y-75157064D02*
X154713000Y-74702936D01*
X156183000Y-75157064D02*
X156183000Y-74702936D01*
%TO.C,R2*%
X157507000Y-74702936D02*
X157507000Y-75157064D01*
X158977000Y-74702936D02*
X158977000Y-75157064D01*
%TO.C,J2*%
X156232000Y-92710000D02*
G75*
G02*
X152632000Y-92710000I-1800000J0D01*
G01*
X152632000Y-92710000D02*
G75*
G02*
X156232000Y-92710000I1800000J0D01*
G01*
%TO.C,D2*%
X157947000Y-84616000D02*
X157947000Y-84772000D01*
X157947000Y-86932000D02*
X157947000Y-87088000D01*
X157947001Y-84616485D02*
G75*
G02*
X161179334Y-84773392I1559999J-1235515D01*
G01*
X158466040Y-84772001D02*
G75*
G02*
X160548129Y-84772164I1040960J-1079999D01*
G01*
X160548129Y-86931836D02*
G75*
G02*
X158466040Y-86931999I-1041129J1079836D01*
G01*
X161179334Y-86930608D02*
G75*
G02*
X157947001Y-87087515I-1672334J1078608D01*
G01*
%TO.C,U2*%
X166370000Y-73553000D02*
X164420000Y-73553000D01*
X166370000Y-73553000D02*
X168320000Y-73553000D01*
X166370000Y-83673000D02*
X164420000Y-83673000D01*
X166370000Y-83673000D02*
X168320000Y-83673000D01*
X169310000Y-83948000D02*
X168830000Y-83948000D01*
X169070000Y-83618000D01*
X169310000Y-83948000D01*
G36*
X169310000Y-83948000D02*
G01*
X168830000Y-83948000D01*
X169070000Y-83618000D01*
X169310000Y-83948000D01*
G37*
%TO.C,C1*%
X149633000Y-74668748D02*
X149633000Y-75191252D01*
X151103000Y-74668748D02*
X151103000Y-75191252D01*
%TO.C,C2*%
X149818000Y-84682000D02*
X149818000Y-84927000D01*
X149818000Y-84682000D02*
X153458000Y-84682000D01*
X149818000Y-86777000D02*
X149818000Y-87022000D01*
X149818000Y-87022000D02*
X153458000Y-87022000D01*
X153458000Y-84682000D02*
X153458000Y-84927000D01*
X153458000Y-86777000D02*
X153458000Y-87022000D01*
%TO.C,R3*%
X167921000Y-68860936D02*
X167921000Y-69315064D01*
X169391000Y-68860936D02*
X169391000Y-69315064D01*
%TO.C,U1*%
X152908000Y-77704000D02*
X150958000Y-77704000D01*
X152908000Y-77704000D02*
X154858000Y-77704000D01*
X152908000Y-82824000D02*
X150958000Y-82824000D01*
X152908000Y-82824000D02*
X154858000Y-82824000D01*
X150208000Y-77799000D02*
X149968000Y-77469000D01*
X150448000Y-77469000D01*
X150208000Y-77799000D01*
G36*
X150208000Y-77799000D02*
G01*
X149968000Y-77469000D01*
X150448000Y-77469000D01*
X150208000Y-77799000D01*
G37*
%TD*%
M02*
