%TF.GenerationSoftware,KiCad,Pcbnew,8.0.1*%
%TF.CreationDate,2024-11-01T11:19:19+01:00*%
%TF.ProjectId,Liquid-Sensor-Zisterne,4c697175-6964-42d5-9365-6e736f722d5a,rev?*%
%TF.SameCoordinates,Original*%
%TF.FileFunction,Copper,L1,Top*%
%TF.FilePolarity,Positive*%
%FSLAX46Y46*%
G04 Gerber Fmt 4.6, Leading zero omitted, Abs format (unit mm)*
G04 Created by KiCad (PCBNEW 8.0.1) date 2024-11-01 11:19:19*
%MOMM*%
%LPD*%
G01*
G04 APERTURE LIST*
G04 Aperture macros list*
%AMRoundRect*
0 Rectangle with rounded corners*
0 $1 Rounding radius*
0 $2 $3 $4 $5 $6 $7 $8 $9 X,Y pos of 4 corners*
0 Add a 4 corners polygon primitive as box body*
4,1,4,$2,$3,$4,$5,$6,$7,$8,$9,$2,$3,0*
0 Add four circle primitives for the rounded corners*
1,1,$1+$1,$2,$3*
1,1,$1+$1,$4,$5*
1,1,$1+$1,$6,$7*
1,1,$1+$1,$8,$9*
0 Add four rect primitives between the rounded corners*
20,1,$1+$1,$2,$3,$4,$5,0*
20,1,$1+$1,$4,$5,$6,$7,0*
20,1,$1+$1,$6,$7,$8,$9,0*
20,1,$1+$1,$8,$9,$2,$3,0*%
G04 Aperture macros list end*
%TA.AperFunction,SMDPad,CuDef*%
%ADD10RoundRect,0.250000X-0.350000X-0.450000X0.350000X-0.450000X0.350000X0.450000X-0.350000X0.450000X0*%
%TD*%
%TA.AperFunction,SMDPad,CuDef*%
%ADD11RoundRect,0.250000X-0.600000X0.400000X-0.600000X-0.400000X0.600000X-0.400000X0.600000X0.400000X0*%
%TD*%
%TA.AperFunction,ComponentPad*%
%ADD12C,2.800000*%
%TD*%
%TA.AperFunction,SMDPad,CuDef*%
%ADD13RoundRect,0.250000X0.475000X-0.337500X0.475000X0.337500X-0.475000X0.337500X-0.475000X-0.337500X0*%
%TD*%
%TA.AperFunction,SMDPad,CuDef*%
%ADD14RoundRect,0.250000X-1.500000X-0.900000X1.500000X-0.900000X1.500000X0.900000X-1.500000X0.900000X0*%
%TD*%
%TA.AperFunction,ComponentPad*%
%ADD15R,1.700000X1.700000*%
%TD*%
%TA.AperFunction,ComponentPad*%
%ADD16O,1.700000X1.700000*%
%TD*%
%TA.AperFunction,SMDPad,CuDef*%
%ADD17RoundRect,0.250000X0.450000X-0.350000X0.450000X0.350000X-0.450000X0.350000X-0.450000X-0.350000X0*%
%TD*%
%TA.AperFunction,SMDPad,CuDef*%
%ADD18RoundRect,0.250000X-0.450000X0.350000X-0.450000X-0.350000X0.450000X-0.350000X0.450000X0.350000X0*%
%TD*%
%TA.AperFunction,ComponentPad*%
%ADD19R,1.800000X1.800000*%
%TD*%
%TA.AperFunction,ComponentPad*%
%ADD20C,1.800000*%
%TD*%
%TA.AperFunction,SMDPad,CuDef*%
%ADD21RoundRect,0.150000X0.825000X0.150000X-0.825000X0.150000X-0.825000X-0.150000X0.825000X-0.150000X0*%
%TD*%
%TA.AperFunction,SMDPad,CuDef*%
%ADD22RoundRect,0.250000X-0.475000X0.337500X-0.475000X-0.337500X0.475000X-0.337500X0.475000X0.337500X0*%
%TD*%
%TA.AperFunction,ComponentPad*%
%ADD23C,1.600000*%
%TD*%
%TA.AperFunction,SMDPad,CuDef*%
%ADD24RoundRect,0.150000X-0.725000X-0.150000X0.725000X-0.150000X0.725000X0.150000X-0.725000X0.150000X0*%
%TD*%
%TA.AperFunction,ViaPad*%
%ADD25C,0.800000*%
%TD*%
%TA.AperFunction,ViaPad*%
%ADD26C,1.000000*%
%TD*%
%TA.AperFunction,Conductor*%
%ADD27C,0.250000*%
%TD*%
%TA.AperFunction,Conductor*%
%ADD28C,0.500000*%
%TD*%
G04 APERTURE END LIST*
D10*
%TO.P,R4,1*%
%TO.N,Net-(D2-A)*%
X166894000Y-86360000D03*
%TO.P,R4,2*%
%TO.N,Net-(U2-Q11)*%
X168894000Y-86360000D03*
%TD*%
D11*
%TO.P,D3,1,K*%
%TO.N,/f_Out_x\u005C16*%
X168656000Y-60988000D03*
%TO.P,D3,2,A*%
%TO.N,Net-(D3-A)*%
X168656000Y-64488000D03*
%TD*%
D12*
%TO.P,J3,1,Pin_1*%
%TO.N,GND*%
X164592000Y-92710000D03*
%TD*%
D13*
%TO.P,C3,1*%
%TO.N,GND*%
X164084000Y-70125500D03*
%TO.P,C3,2*%
%TO.N,+12V*%
X164084000Y-68050500D03*
%TD*%
D14*
%TO.P,D1,1,K*%
%TO.N,+12V*%
X151224000Y-69088000D03*
%TO.P,D1,2,A*%
%TO.N,Net-(D1-A)*%
X156624000Y-69088000D03*
%TD*%
D15*
%TO.P,J1,1,Pin_1*%
%TO.N,Net-(D1-A)*%
X156972000Y-64008000D03*
D16*
%TO.P,J1,2,Pin_2*%
%TO.N,/f_Out_x\u005C16*%
X159512000Y-64008000D03*
%TO.P,J1,3,Pin_3*%
%TO.N,GND*%
X162052000Y-64008000D03*
%TD*%
D17*
%TO.P,R1,1*%
%TO.N,+12V*%
X155448000Y-75930000D03*
%TO.P,R1,2*%
%TO.N,Net-(U1-DIS)*%
X155448000Y-73930000D03*
%TD*%
D18*
%TO.P,R2,1*%
%TO.N,Net-(U1-DIS)*%
X158242000Y-73930000D03*
%TO.P,R2,2*%
%TO.N,Net-(J2-Pin_1)*%
X158242000Y-75930000D03*
%TD*%
D12*
%TO.P,J2,1,Pin_1*%
%TO.N,Net-(J2-Pin_1)*%
X154432000Y-92710000D03*
%TD*%
D19*
%TO.P,D2,1,K*%
%TO.N,GND*%
X158237000Y-85852000D03*
D20*
%TO.P,D2,2,A*%
%TO.N,Net-(D2-A)*%
X160777000Y-85852000D03*
%TD*%
D21*
%TO.P,U2,1,Q11*%
%TO.N,Net-(U2-Q11)*%
X168845000Y-83058000D03*
%TO.P,U2,2,Q5*%
%TO.N,unconnected-(U2-Q5-Pad2)*%
X168845000Y-81788000D03*
%TO.P,U2,3,Q4*%
%TO.N,unconnected-(U2-Q4-Pad3)*%
X168845000Y-80518000D03*
%TO.P,U2,4,Q6*%
%TO.N,unconnected-(U2-Q6-Pad4)*%
X168845000Y-79248000D03*
%TO.P,U2,5,Q3*%
%TO.N,Net-(U2-Q3)*%
X168845000Y-77978000D03*
%TO.P,U2,6,Q2*%
%TO.N,unconnected-(U2-Q2-Pad6)*%
X168845000Y-76708000D03*
%TO.P,U2,7,Q1*%
%TO.N,unconnected-(U2-Q1-Pad7)*%
X168845000Y-75438000D03*
%TO.P,U2,8,VSS*%
%TO.N,GND*%
X168845000Y-74168000D03*
%TO.P,U2,9,Q0*%
%TO.N,unconnected-(U2-Q0-Pad9)*%
X163895000Y-74168000D03*
%TO.P,U2,10,CLK*%
%TO.N,/f_Out*%
X163895000Y-75438000D03*
%TO.P,U2,11,Reset*%
%TO.N,GND*%
X163895000Y-76708000D03*
%TO.P,U2,12,Q8*%
%TO.N,unconnected-(U2-Q8-Pad12)*%
X163895000Y-77978000D03*
%TO.P,U2,13,Q7*%
%TO.N,unconnected-(U2-Q7-Pad13)*%
X163895000Y-79248000D03*
%TO.P,U2,14,Q9*%
%TO.N,unconnected-(U2-Q9-Pad14)*%
X163895000Y-80518000D03*
%TO.P,U2,15,Q10*%
%TO.N,unconnected-(U2-Q10-Pad15)*%
X163895000Y-81788000D03*
%TO.P,U2,16,VDD*%
%TO.N,+12V*%
X163895000Y-83058000D03*
%TD*%
D22*
%TO.P,C1,1*%
%TO.N,Net-(U1-CV)*%
X150368000Y-73892500D03*
%TO.P,C1,2*%
%TO.N,GND*%
X150368000Y-75967500D03*
%TD*%
D23*
%TO.P,C2,1*%
%TO.N,GND*%
X150388000Y-85852000D03*
%TO.P,C2,2*%
%TO.N,Net-(J2-Pin_1)*%
X152888000Y-85852000D03*
%TD*%
D18*
%TO.P,R3,1*%
%TO.N,Net-(D3-A)*%
X168656000Y-68088000D03*
%TO.P,R3,2*%
%TO.N,Net-(U2-Q3)*%
X168656000Y-70088000D03*
%TD*%
D24*
%TO.P,U1,1,GND*%
%TO.N,GND*%
X150333000Y-78359000D03*
%TO.P,U1,2,TR*%
%TO.N,Net-(J2-Pin_1)*%
X150333000Y-79629000D03*
%TO.P,U1,3,Q*%
%TO.N,/f_Out*%
X150333000Y-80899000D03*
%TO.P,U1,4,R*%
%TO.N,+12V*%
X150333000Y-82169000D03*
%TO.P,U1,5,CV*%
%TO.N,Net-(U1-CV)*%
X155483000Y-82169000D03*
%TO.P,U1,6,THR*%
%TO.N,Net-(J2-Pin_1)*%
X155483000Y-80899000D03*
%TO.P,U1,7,DIS*%
%TO.N,Net-(U1-DIS)*%
X155483000Y-79629000D03*
%TO.P,U1,8,VCC*%
%TO.N,+12V*%
X155483000Y-78359000D03*
%TD*%
D25*
%TO.N,Net-(U1-CV)*%
X153416000Y-82042000D03*
X152654000Y-73914000D03*
D26*
%TO.N,GND*%
X162127000Y-76708000D03*
X148336000Y-75946000D03*
X162127000Y-70104000D03*
D25*
%TO.N,Net-(J2-Pin_1)*%
X158242000Y-77470000D03*
X158242000Y-80264000D03*
D26*
%TO.N,+12V*%
X159766000Y-67564000D03*
X159766000Y-81280000D03*
X151130000Y-66040000D03*
D25*
%TO.N,/f_Out*%
X151892000Y-72390000D03*
X151892000Y-80772000D03*
%TD*%
D27*
%TO.N,Net-(U1-CV)*%
X155483000Y-82169000D02*
X153543000Y-82169000D01*
X152654000Y-73914000D02*
X150389500Y-73914000D01*
X150389500Y-73914000D02*
X150368000Y-73892500D01*
X153543000Y-82169000D02*
X153416000Y-82042000D01*
D28*
%TO.N,GND*%
X166624000Y-74168000D02*
X166370000Y-73914000D01*
X150368000Y-75967500D02*
X150368000Y-78324000D01*
X150368000Y-78324000D02*
X150333000Y-78359000D01*
X165862000Y-72390000D02*
X164846000Y-72390000D01*
X162127000Y-76708000D02*
X163895000Y-76708000D01*
X164062500Y-70104000D02*
X164084000Y-70125500D01*
X166370000Y-73914000D02*
X166370000Y-72898000D01*
X162127000Y-70104000D02*
X164062500Y-70104000D01*
X164084000Y-71628000D02*
X164084000Y-70125500D01*
X168845000Y-74168000D02*
X166624000Y-74168000D01*
X148336000Y-75946000D02*
X150346500Y-75946000D01*
X164846000Y-72390000D02*
X164084000Y-71628000D01*
X166370000Y-72898000D02*
X165862000Y-72390000D01*
X150346500Y-75946000D02*
X150368000Y-75967500D01*
D27*
%TO.N,Net-(J2-Pin_1)*%
X153797000Y-80899000D02*
X155483000Y-80899000D01*
X152888000Y-85852000D02*
X152888000Y-88372000D01*
X157607000Y-80899000D02*
X158242000Y-80264000D01*
X150333000Y-79629000D02*
X152527000Y-79629000D01*
X152888000Y-88372000D02*
X154432000Y-89916000D01*
X152527000Y-79629000D02*
X153797000Y-80899000D01*
X155483000Y-80899000D02*
X157607000Y-80899000D01*
X158242000Y-77470000D02*
X158242000Y-75930000D01*
X154432000Y-89916000D02*
X154432000Y-92710000D01*
D28*
%TO.N,+12V*%
X155448000Y-78324000D02*
X155483000Y-78359000D01*
X153416000Y-83820000D02*
X156718000Y-83820000D01*
X159131000Y-78359000D02*
X159766000Y-78994000D01*
X159766000Y-67564000D02*
X163597500Y-67564000D01*
X151224000Y-69088000D02*
X151224000Y-66134000D01*
X159766000Y-78994000D02*
X159766000Y-81280000D01*
X159766000Y-82296000D02*
X160528000Y-83058000D01*
X151224000Y-66134000D02*
X151130000Y-66040000D01*
X163597500Y-67564000D02*
X164084000Y-68050500D01*
X159258000Y-81280000D02*
X159766000Y-81280000D01*
X150333000Y-82169000D02*
X151765000Y-82169000D01*
X155448000Y-75930000D02*
X155448000Y-78324000D01*
X160528000Y-83058000D02*
X163895000Y-83058000D01*
X151765000Y-82169000D02*
X153416000Y-83820000D01*
X155483000Y-78359000D02*
X159131000Y-78359000D01*
X159766000Y-81280000D02*
X159766000Y-82296000D01*
X156718000Y-83820000D02*
X159258000Y-81280000D01*
%TO.N,Net-(D1-A)*%
X156972000Y-68740000D02*
X156624000Y-69088000D01*
X156972000Y-64008000D02*
X156972000Y-68740000D01*
D27*
%TO.N,Net-(D2-A)*%
X164084000Y-86360000D02*
X166894000Y-86360000D01*
X160777000Y-85852000D02*
X163576000Y-85852000D01*
X163576000Y-85852000D02*
X164084000Y-86360000D01*
%TO.N,/f_Out_x\u005C16*%
X159512000Y-64008000D02*
X159512000Y-61468000D01*
X159512000Y-61468000D02*
X160020000Y-60960000D01*
X160048000Y-60988000D02*
X168656000Y-60988000D01*
X160020000Y-60960000D02*
X160048000Y-60988000D01*
%TO.N,Net-(U1-DIS)*%
X154305000Y-79629000D02*
X153670000Y-78994000D01*
X153670000Y-78994000D02*
X153670000Y-74422000D01*
X153670000Y-74422000D02*
X154178000Y-73914000D01*
X154194000Y-73930000D02*
X155448000Y-73930000D01*
X154178000Y-73914000D02*
X154194000Y-73930000D01*
X155483000Y-79629000D02*
X154305000Y-79629000D01*
X158242000Y-73930000D02*
X155448000Y-73930000D01*
%TO.N,Net-(U2-Q3)*%
X170688000Y-77724000D02*
X170688000Y-70612000D01*
X170688000Y-70612000D02*
X170180000Y-70104000D01*
X170434000Y-77978000D02*
X170688000Y-77724000D01*
X168845000Y-77978000D02*
X170434000Y-77978000D01*
X170180000Y-70104000D02*
X169672000Y-70104000D01*
X169672000Y-70104000D02*
X169656000Y-70088000D01*
X169656000Y-70088000D02*
X168656000Y-70088000D01*
%TO.N,Net-(U2-Q11)*%
X168894000Y-83107000D02*
X168845000Y-83058000D01*
X168894000Y-86360000D02*
X168894000Y-83107000D01*
%TO.N,/f_Out*%
X151892000Y-72390000D02*
X160274000Y-72390000D01*
X161290000Y-73406000D02*
X161290000Y-74676000D01*
X162052000Y-75438000D02*
X163895000Y-75438000D01*
X160274000Y-72390000D02*
X161290000Y-73406000D01*
X151765000Y-80899000D02*
X151892000Y-80772000D01*
X150333000Y-80899000D02*
X151765000Y-80899000D01*
X161290000Y-74676000D02*
X162052000Y-75438000D01*
%TO.N,Net-(D3-A)*%
X168656000Y-68088000D02*
X168656000Y-64488000D01*
%TD*%
%TA.AperFunction,Conductor*%
%TO.N,GND*%
G36*
X172942539Y-58520185D02*
G01*
X172988294Y-58572989D01*
X172999500Y-58624500D01*
X172999500Y-94875500D01*
X172979815Y-94942539D01*
X172927011Y-94988294D01*
X172875500Y-94999500D01*
X146124500Y-94999500D01*
X146057461Y-94979815D01*
X146011706Y-94927011D01*
X146000500Y-94875500D01*
X146000500Y-92323288D01*
X146993500Y-92323288D01*
X147025161Y-92563785D01*
X147087947Y-92798104D01*
X147180773Y-93022205D01*
X147180776Y-93022212D01*
X147302064Y-93232289D01*
X147302066Y-93232292D01*
X147302067Y-93232293D01*
X147449733Y-93424736D01*
X147449739Y-93424743D01*
X147621256Y-93596260D01*
X147621262Y-93596265D01*
X147813711Y-93743936D01*
X148023788Y-93865224D01*
X148247900Y-93958054D01*
X148482211Y-94020838D01*
X148662586Y-94044584D01*
X148722711Y-94052500D01*
X148722712Y-94052500D01*
X148965289Y-94052500D01*
X149013388Y-94046167D01*
X149205789Y-94020838D01*
X149440100Y-93958054D01*
X149664212Y-93865224D01*
X149874289Y-93743936D01*
X150066738Y-93596265D01*
X150238265Y-93424738D01*
X150385936Y-93232289D01*
X150507224Y-93022212D01*
X150600054Y-92798100D01*
X150662838Y-92563789D01*
X150694500Y-92323288D01*
X150694500Y-92080712D01*
X150662838Y-91840211D01*
X150600054Y-91605900D01*
X150507224Y-91381788D01*
X150385936Y-91171711D01*
X150238265Y-90979262D01*
X150238260Y-90979256D01*
X150066743Y-90807739D01*
X150066736Y-90807733D01*
X149874293Y-90660067D01*
X149874292Y-90660066D01*
X149874289Y-90660064D01*
X149664212Y-90538776D01*
X149664205Y-90538773D01*
X149440104Y-90445947D01*
X149205785Y-90383161D01*
X148965289Y-90351500D01*
X148965288Y-90351500D01*
X148722712Y-90351500D01*
X148722711Y-90351500D01*
X148482214Y-90383161D01*
X148247895Y-90445947D01*
X148023794Y-90538773D01*
X148023785Y-90538777D01*
X147813706Y-90660067D01*
X147621263Y-90807733D01*
X147621256Y-90807739D01*
X147449739Y-90979256D01*
X147449733Y-90979263D01*
X147302067Y-91171706D01*
X147180777Y-91381785D01*
X147180773Y-91381794D01*
X147087947Y-91605895D01*
X147025161Y-91840214D01*
X146993500Y-92080711D01*
X146993500Y-92323288D01*
X146000500Y-92323288D01*
X146000500Y-82384701D01*
X148957500Y-82384701D01*
X148960401Y-82421567D01*
X148960402Y-82421573D01*
X149006254Y-82579393D01*
X149006255Y-82579396D01*
X149089917Y-82720862D01*
X149089923Y-82720870D01*
X149206129Y-82837076D01*
X149206133Y-82837079D01*
X149206135Y-82837081D01*
X149347602Y-82920744D01*
X149360269Y-82924424D01*
X149505426Y-82966597D01*
X149505429Y-82966597D01*
X149505431Y-82966598D01*
X149542306Y-82969500D01*
X149542314Y-82969500D01*
X151123686Y-82969500D01*
X151123694Y-82969500D01*
X151160569Y-82966598D01*
X151160571Y-82966597D01*
X151160573Y-82966597D01*
X151305733Y-82924424D01*
X151340328Y-82919500D01*
X151402770Y-82919500D01*
X151469809Y-82939185D01*
X151490451Y-82955819D01*
X152833049Y-84298416D01*
X152833050Y-84298417D01*
X152877592Y-84342960D01*
X152911077Y-84404283D01*
X152906091Y-84473975D01*
X152864219Y-84529908D01*
X152800718Y-84554168D01*
X152661312Y-84566364D01*
X152661302Y-84566366D01*
X152441511Y-84625258D01*
X152441502Y-84625261D01*
X152235267Y-84721431D01*
X152235265Y-84721432D01*
X152048858Y-84851954D01*
X151887954Y-85012858D01*
X151757432Y-85199265D01*
X151757429Y-85199270D01*
X151750104Y-85214979D01*
X151703929Y-85267417D01*
X151636735Y-85286566D01*
X151569855Y-85266347D01*
X151525341Y-85214973D01*
X151518133Y-85199515D01*
X151518132Y-85199513D01*
X151467025Y-85126526D01*
X150788000Y-85805551D01*
X150788000Y-85799339D01*
X150760741Y-85697606D01*
X150708080Y-85606394D01*
X150633606Y-85531920D01*
X150542394Y-85479259D01*
X150440661Y-85452000D01*
X150434448Y-85452000D01*
X151113472Y-84772974D01*
X151040478Y-84721863D01*
X150834331Y-84625735D01*
X150834317Y-84625730D01*
X150614610Y-84566860D01*
X150614599Y-84566858D01*
X150388002Y-84547034D01*
X150387998Y-84547034D01*
X150161400Y-84566858D01*
X150161389Y-84566860D01*
X149941682Y-84625730D01*
X149941673Y-84625734D01*
X149735516Y-84721866D01*
X149735512Y-84721868D01*
X149662526Y-84772973D01*
X149662526Y-84772974D01*
X150341553Y-85452000D01*
X150335339Y-85452000D01*
X150233606Y-85479259D01*
X150142394Y-85531920D01*
X150067920Y-85606394D01*
X150015259Y-85697606D01*
X149988000Y-85799339D01*
X149988000Y-85805552D01*
X149308974Y-85126526D01*
X149308973Y-85126526D01*
X149257868Y-85199512D01*
X149257866Y-85199516D01*
X149161734Y-85405673D01*
X149161730Y-85405682D01*
X149102860Y-85625389D01*
X149102858Y-85625400D01*
X149083034Y-85851997D01*
X149083034Y-85852002D01*
X149102858Y-86078599D01*
X149102860Y-86078610D01*
X149161730Y-86298317D01*
X149161735Y-86298331D01*
X149257863Y-86504478D01*
X149308974Y-86577472D01*
X149988000Y-85898446D01*
X149988000Y-85904661D01*
X150015259Y-86006394D01*
X150067920Y-86097606D01*
X150142394Y-86172080D01*
X150233606Y-86224741D01*
X150335339Y-86252000D01*
X150341553Y-86252000D01*
X149662526Y-86931025D01*
X149735513Y-86982132D01*
X149735521Y-86982136D01*
X149941668Y-87078264D01*
X149941682Y-87078269D01*
X150161389Y-87137139D01*
X150161400Y-87137141D01*
X150387998Y-87156966D01*
X150388002Y-87156966D01*
X150614599Y-87137141D01*
X150614610Y-87137139D01*
X150834317Y-87078269D01*
X150834331Y-87078264D01*
X151040478Y-86982136D01*
X151113471Y-86931024D01*
X150434447Y-86252000D01*
X150440661Y-86252000D01*
X150542394Y-86224741D01*
X150633606Y-86172080D01*
X150708080Y-86097606D01*
X150760741Y-86006394D01*
X150788000Y-85904661D01*
X150788000Y-85898447D01*
X151467024Y-86577471D01*
X151518134Y-86504481D01*
X151525340Y-86489028D01*
X151571511Y-86436587D01*
X151638704Y-86417433D01*
X151705585Y-86437646D01*
X151750105Y-86489022D01*
X151757430Y-86504730D01*
X151757432Y-86504734D01*
X151887954Y-86691141D01*
X152048858Y-86852045D01*
X152209623Y-86964613D01*
X152253248Y-87019189D01*
X152262500Y-87066188D01*
X152262500Y-88433611D01*
X152286535Y-88554444D01*
X152286540Y-88554461D01*
X152333685Y-88668280D01*
X152333690Y-88668289D01*
X152367914Y-88719507D01*
X152367915Y-88719509D01*
X152402141Y-88770733D01*
X152493586Y-88862178D01*
X152493608Y-88862198D01*
X153770181Y-90138771D01*
X153803666Y-90200094D01*
X153806500Y-90226452D01*
X153806500Y-90828813D01*
X153786815Y-90895852D01*
X153734011Y-90941607D01*
X153725834Y-90944994D01*
X153640493Y-90976825D01*
X153640481Y-90976830D01*
X153401892Y-91107109D01*
X153401891Y-91107110D01*
X153184259Y-91270028D01*
X153184247Y-91270038D01*
X152992038Y-91462247D01*
X152992028Y-91462259D01*
X152829110Y-91679891D01*
X152829109Y-91679892D01*
X152698830Y-91918480D01*
X152698751Y-91918693D01*
X152603825Y-92173199D01*
X152603824Y-92173202D01*
X152603823Y-92173206D01*
X152546040Y-92438832D01*
X152546039Y-92438839D01*
X152526645Y-92709998D01*
X152526645Y-92710001D01*
X152546039Y-92981160D01*
X152546040Y-92981167D01*
X152559181Y-93041574D01*
X152603825Y-93246801D01*
X152634981Y-93330332D01*
X152698830Y-93501519D01*
X152829109Y-93740107D01*
X152829110Y-93740108D01*
X152829113Y-93740113D01*
X152992029Y-93957742D01*
X152992033Y-93957746D01*
X152992038Y-93957752D01*
X153184247Y-94149961D01*
X153184253Y-94149966D01*
X153184258Y-94149971D01*
X153401887Y-94312887D01*
X153401891Y-94312889D01*
X153401892Y-94312890D01*
X153640481Y-94443169D01*
X153640480Y-94443169D01*
X153640484Y-94443170D01*
X153640487Y-94443172D01*
X153895199Y-94538175D01*
X154160840Y-94595961D01*
X154412605Y-94613967D01*
X154431999Y-94615355D01*
X154432000Y-94615355D01*
X154432001Y-94615355D01*
X154450100Y-94614060D01*
X154703160Y-94595961D01*
X154968801Y-94538175D01*
X155223513Y-94443172D01*
X155223517Y-94443169D01*
X155223519Y-94443169D01*
X155342813Y-94378029D01*
X155462113Y-94312887D01*
X155679742Y-94149971D01*
X155871971Y-93957742D01*
X156034887Y-93740113D01*
X156165172Y-93501513D01*
X156260175Y-93246801D01*
X156317961Y-92981160D01*
X156337355Y-92710001D01*
X162687147Y-92710001D01*
X162706536Y-92981090D01*
X162706537Y-92981097D01*
X162764305Y-93246654D01*
X162859285Y-93501306D01*
X162859287Y-93501310D01*
X162989532Y-93739835D01*
X162989537Y-93739843D01*
X163083321Y-93865123D01*
X163083322Y-93865124D01*
X163952690Y-92995756D01*
X163971668Y-93041574D01*
X164048274Y-93156224D01*
X164145776Y-93253726D01*
X164260426Y-93330332D01*
X164306242Y-93349309D01*
X163436874Y-94218676D01*
X163562163Y-94312466D01*
X163562164Y-94312467D01*
X163800689Y-94442712D01*
X163800693Y-94442714D01*
X164055345Y-94537694D01*
X164320902Y-94595462D01*
X164320909Y-94595463D01*
X164591999Y-94614853D01*
X164592001Y-94614853D01*
X164863090Y-94595463D01*
X164863097Y-94595462D01*
X165128654Y-94537694D01*
X165383306Y-94442714D01*
X165383310Y-94442712D01*
X165621844Y-94312462D01*
X165747123Y-94218677D01*
X165747124Y-94218676D01*
X164877757Y-93349309D01*
X164923574Y-93330332D01*
X165038224Y-93253726D01*
X165135726Y-93156224D01*
X165212332Y-93041574D01*
X165231309Y-92995757D01*
X166100676Y-93865124D01*
X166100677Y-93865123D01*
X166194462Y-93739844D01*
X166324712Y-93501310D01*
X166324714Y-93501306D01*
X166419694Y-93246654D01*
X166477462Y-92981097D01*
X166477463Y-92981090D01*
X166496853Y-92710001D01*
X166496853Y-92709998D01*
X166477463Y-92438909D01*
X166477462Y-92438902D01*
X166452312Y-92323288D01*
X168329500Y-92323288D01*
X168361161Y-92563785D01*
X168423947Y-92798104D01*
X168516773Y-93022205D01*
X168516776Y-93022212D01*
X168638064Y-93232289D01*
X168638066Y-93232292D01*
X168638067Y-93232293D01*
X168785733Y-93424736D01*
X168785739Y-93424743D01*
X168957256Y-93596260D01*
X168957262Y-93596265D01*
X169149711Y-93743936D01*
X169359788Y-93865224D01*
X169583900Y-93958054D01*
X169818211Y-94020838D01*
X169998586Y-94044584D01*
X170058711Y-94052500D01*
X170058712Y-94052500D01*
X170301289Y-94052500D01*
X170349388Y-94046167D01*
X170541789Y-94020838D01*
X170776100Y-93958054D01*
X171000212Y-93865224D01*
X171210289Y-93743936D01*
X171402738Y-93596265D01*
X171574265Y-93424738D01*
X171721936Y-93232289D01*
X171843224Y-93022212D01*
X171936054Y-92798100D01*
X171998838Y-92563789D01*
X172030500Y-92323288D01*
X172030500Y-92080712D01*
X171998838Y-91840211D01*
X171936054Y-91605900D01*
X171843224Y-91381788D01*
X171721936Y-91171711D01*
X171574265Y-90979262D01*
X171574260Y-90979256D01*
X171402743Y-90807739D01*
X171402736Y-90807733D01*
X171210293Y-90660067D01*
X171210292Y-90660066D01*
X171210289Y-90660064D01*
X171000212Y-90538776D01*
X171000205Y-90538773D01*
X170776104Y-90445947D01*
X170541785Y-90383161D01*
X170301289Y-90351500D01*
X170301288Y-90351500D01*
X170058712Y-90351500D01*
X170058711Y-90351500D01*
X169818214Y-90383161D01*
X169583895Y-90445947D01*
X169359794Y-90538773D01*
X169359785Y-90538777D01*
X169149706Y-90660067D01*
X168957263Y-90807733D01*
X168957256Y-90807739D01*
X168785739Y-90979256D01*
X168785733Y-90979263D01*
X168638067Y-91171706D01*
X168516777Y-91381785D01*
X168516773Y-91381794D01*
X168423947Y-91605895D01*
X168361161Y-91840214D01*
X168329500Y-92080711D01*
X168329500Y-92323288D01*
X166452312Y-92323288D01*
X166419694Y-92173345D01*
X166324714Y-91918693D01*
X166324712Y-91918689D01*
X166194467Y-91680164D01*
X166194466Y-91680163D01*
X166100676Y-91554874D01*
X165231309Y-92424242D01*
X165212332Y-92378426D01*
X165135726Y-92263776D01*
X165038224Y-92166274D01*
X164923574Y-92089668D01*
X164877757Y-92070690D01*
X165747124Y-91201322D01*
X165747123Y-91201321D01*
X165621843Y-91107537D01*
X165621835Y-91107532D01*
X165383310Y-90977287D01*
X165383306Y-90977285D01*
X165128654Y-90882305D01*
X164863097Y-90824537D01*
X164863090Y-90824536D01*
X164592001Y-90805147D01*
X164591999Y-90805147D01*
X164320909Y-90824536D01*
X164320902Y-90824537D01*
X164055345Y-90882305D01*
X163800693Y-90977285D01*
X163800689Y-90977287D01*
X163562164Y-91107532D01*
X163562156Y-91107537D01*
X163436875Y-91201321D01*
X163436874Y-91201322D01*
X164306242Y-92070690D01*
X164260426Y-92089668D01*
X164145776Y-92166274D01*
X164048274Y-92263776D01*
X163971668Y-92378426D01*
X163952690Y-92424242D01*
X163083322Y-91554874D01*
X163083321Y-91554875D01*
X162989537Y-91680156D01*
X162989532Y-91680164D01*
X162859287Y-91918689D01*
X162859285Y-91918693D01*
X162764305Y-92173345D01*
X162706537Y-92438902D01*
X162706536Y-92438909D01*
X162687147Y-92709998D01*
X162687147Y-92710001D01*
X156337355Y-92710001D01*
X156337355Y-92710000D01*
X156317961Y-92438840D01*
X156260175Y-92173199D01*
X156165172Y-91918487D01*
X156165170Y-91918484D01*
X156165169Y-91918480D01*
X156034890Y-91679892D01*
X156034889Y-91679891D01*
X156034887Y-91679887D01*
X155871971Y-91462258D01*
X155871966Y-91462253D01*
X155871961Y-91462247D01*
X155679752Y-91270038D01*
X155679746Y-91270033D01*
X155679742Y-91270029D01*
X155462113Y-91107113D01*
X155462108Y-91107110D01*
X155462107Y-91107109D01*
X155223518Y-90976830D01*
X155223506Y-90976825D01*
X155138166Y-90944994D01*
X155082232Y-90903123D01*
X155057816Y-90837658D01*
X155057500Y-90828813D01*
X155057500Y-89854396D01*
X155057500Y-89854394D01*
X155033463Y-89733548D01*
X155033461Y-89733543D01*
X155013962Y-89686468D01*
X155013947Y-89686435D01*
X155013932Y-89686397D01*
X154986312Y-89619715D01*
X154969256Y-89594190D01*
X154917858Y-89517267D01*
X154917856Y-89517264D01*
X154827637Y-89427045D01*
X154827606Y-89427016D01*
X153549819Y-88149229D01*
X153516334Y-88087906D01*
X153513500Y-88061548D01*
X153513500Y-87066188D01*
X153533185Y-86999149D01*
X153566377Y-86964613D01*
X153634260Y-86917081D01*
X153727139Y-86852047D01*
X153888047Y-86691139D01*
X154018568Y-86504734D01*
X154114739Y-86298496D01*
X154173635Y-86078692D01*
X154193468Y-85852000D01*
X154173635Y-85625308D01*
X154114739Y-85405504D01*
X154018568Y-85199266D01*
X153888047Y-85012861D01*
X153888045Y-85012858D01*
X153727141Y-84851954D01*
X153647336Y-84796075D01*
X153603711Y-84741499D01*
X153596517Y-84672001D01*
X153628039Y-84609646D01*
X153688269Y-84574231D01*
X153718459Y-84570500D01*
X156767050Y-84570500D01*
X156834089Y-84590185D01*
X156879844Y-84642989D01*
X156889788Y-84712147D01*
X156883232Y-84737833D01*
X156843403Y-84844620D01*
X156843401Y-84844627D01*
X156837000Y-84904155D01*
X156837000Y-85602000D01*
X157861722Y-85602000D01*
X157817667Y-85678306D01*
X157787000Y-85792756D01*
X157787000Y-85911244D01*
X157817667Y-86025694D01*
X157861722Y-86102000D01*
X156837000Y-86102000D01*
X156837000Y-86799844D01*
X156843401Y-86859372D01*
X156843403Y-86859379D01*
X156893645Y-86994086D01*
X156893649Y-86994093D01*
X156979809Y-87109187D01*
X156979812Y-87109190D01*
X157094906Y-87195350D01*
X157094913Y-87195354D01*
X157229620Y-87245596D01*
X157229627Y-87245598D01*
X157289155Y-87251999D01*
X157289172Y-87252000D01*
X157987000Y-87252000D01*
X157987000Y-86227277D01*
X158063306Y-86271333D01*
X158177756Y-86302000D01*
X158296244Y-86302000D01*
X158410694Y-86271333D01*
X158487000Y-86227277D01*
X158487000Y-87252000D01*
X159184828Y-87252000D01*
X159184844Y-87251999D01*
X159244372Y-87245598D01*
X159244379Y-87245596D01*
X159379086Y-87195354D01*
X159379093Y-87195350D01*
X159494187Y-87109190D01*
X159494190Y-87109187D01*
X159580350Y-86994093D01*
X159580355Y-86994084D01*
X159609075Y-86917081D01*
X159650945Y-86861147D01*
X159716409Y-86836729D01*
X159784682Y-86851580D01*
X159816484Y-86876428D01*
X159825216Y-86885913D01*
X159825219Y-86885915D01*
X159825222Y-86885918D01*
X160008365Y-87028464D01*
X160008371Y-87028468D01*
X160008374Y-87028470D01*
X160157526Y-87109187D01*
X160194748Y-87129331D01*
X160212497Y-87138936D01*
X160265017Y-87156966D01*
X160432015Y-87214297D01*
X160432017Y-87214297D01*
X160432019Y-87214298D01*
X160660951Y-87252500D01*
X160660952Y-87252500D01*
X160893048Y-87252500D01*
X160893049Y-87252500D01*
X161121981Y-87214298D01*
X161341503Y-87138936D01*
X161545626Y-87028470D01*
X161557551Y-87019189D01*
X161630003Y-86962797D01*
X161728784Y-86885913D01*
X161885979Y-86715153D01*
X161901668Y-86691139D01*
X162004542Y-86533679D01*
X162057689Y-86488322D01*
X162108351Y-86477500D01*
X163265548Y-86477500D01*
X163332587Y-86497185D01*
X163353228Y-86513818D01*
X163598141Y-86758732D01*
X163598142Y-86758733D01*
X163676138Y-86836729D01*
X163685268Y-86845859D01*
X163787707Y-86914307D01*
X163787713Y-86914310D01*
X163787714Y-86914311D01*
X163901548Y-86961463D01*
X164022388Y-86985499D01*
X164022392Y-86985500D01*
X164022393Y-86985500D01*
X164022394Y-86985500D01*
X165721983Y-86985500D01*
X165789022Y-87005185D01*
X165834777Y-87057989D01*
X165839689Y-87070495D01*
X165859186Y-87129333D01*
X165859187Y-87129336D01*
X165865110Y-87138938D01*
X165951288Y-87278656D01*
X166075344Y-87402712D01*
X166224666Y-87494814D01*
X166391203Y-87549999D01*
X166493991Y-87560500D01*
X167294008Y-87560499D01*
X167294016Y-87560498D01*
X167294019Y-87560498D01*
X167350302Y-87554748D01*
X167396797Y-87549999D01*
X167563334Y-87494814D01*
X167712656Y-87402712D01*
X167806319Y-87309049D01*
X167867642Y-87275564D01*
X167937334Y-87280548D01*
X167981681Y-87309049D01*
X168075344Y-87402712D01*
X168224666Y-87494814D01*
X168391203Y-87549999D01*
X168493991Y-87560500D01*
X169294008Y-87560499D01*
X169294016Y-87560498D01*
X169294019Y-87560498D01*
X169350302Y-87554748D01*
X169396797Y-87549999D01*
X169563334Y-87494814D01*
X169712656Y-87402712D01*
X169836712Y-87278656D01*
X169928814Y-87129334D01*
X169983999Y-86962797D01*
X169994500Y-86860009D01*
X169994499Y-85859992D01*
X169993682Y-85851998D01*
X169983999Y-85757203D01*
X169983998Y-85757200D01*
X169948311Y-85649505D01*
X169928814Y-85590666D01*
X169836712Y-85441344D01*
X169712656Y-85317288D01*
X169578402Y-85234480D01*
X169531679Y-85182533D01*
X169519500Y-85128942D01*
X169519500Y-83982500D01*
X169539185Y-83915461D01*
X169591989Y-83869706D01*
X169643500Y-83858500D01*
X169735686Y-83858500D01*
X169735694Y-83858500D01*
X169772569Y-83855598D01*
X169772571Y-83855597D01*
X169772573Y-83855597D01*
X169814191Y-83843505D01*
X169930398Y-83809744D01*
X170071865Y-83726081D01*
X170188081Y-83609865D01*
X170271744Y-83468398D01*
X170317598Y-83310569D01*
X170320500Y-83273694D01*
X170320500Y-82842306D01*
X170317598Y-82805431D01*
X170314422Y-82794500D01*
X170271745Y-82647606D01*
X170271744Y-82647603D01*
X170271744Y-82647602D01*
X170188081Y-82506135D01*
X170188078Y-82506132D01*
X170183298Y-82499969D01*
X170185750Y-82498066D01*
X170159155Y-82449421D01*
X170164104Y-82379726D01*
X170184940Y-82347304D01*
X170183298Y-82346031D01*
X170188075Y-82339870D01*
X170188081Y-82339865D01*
X170271744Y-82198398D01*
X170317598Y-82040569D01*
X170320500Y-82003694D01*
X170320500Y-81572306D01*
X170317598Y-81535431D01*
X170317182Y-81534000D01*
X170271745Y-81377606D01*
X170271744Y-81377603D01*
X170271744Y-81377602D01*
X170188081Y-81236135D01*
X170188078Y-81236132D01*
X170183298Y-81229969D01*
X170185750Y-81228066D01*
X170159155Y-81179421D01*
X170164104Y-81109726D01*
X170184940Y-81077304D01*
X170183298Y-81076031D01*
X170188075Y-81069870D01*
X170188081Y-81069865D01*
X170271744Y-80928398D01*
X170317598Y-80770569D01*
X170320500Y-80733694D01*
X170320500Y-80302306D01*
X170317598Y-80265431D01*
X170317182Y-80264000D01*
X170271745Y-80107606D01*
X170271744Y-80107603D01*
X170271744Y-80107602D01*
X170188081Y-79966135D01*
X170188078Y-79966132D01*
X170183298Y-79959969D01*
X170185750Y-79958066D01*
X170159155Y-79909421D01*
X170164104Y-79839726D01*
X170184940Y-79807304D01*
X170183298Y-79806031D01*
X170188075Y-79799870D01*
X170188081Y-79799865D01*
X170271744Y-79658398D01*
X170317598Y-79500569D01*
X170320500Y-79463694D01*
X170320500Y-79032306D01*
X170317598Y-78995431D01*
X170314223Y-78983815D01*
X170271745Y-78837606D01*
X170271745Y-78837605D01*
X170271744Y-78837603D01*
X170271744Y-78837602D01*
X170243958Y-78790619D01*
X170226778Y-78722896D01*
X170248938Y-78656634D01*
X170303404Y-78612871D01*
X170350692Y-78603500D01*
X170495607Y-78603500D01*
X170556029Y-78591481D01*
X170616452Y-78579463D01*
X170616455Y-78579461D01*
X170616458Y-78579461D01*
X170649787Y-78565654D01*
X170649786Y-78565654D01*
X170649792Y-78565652D01*
X170730286Y-78532312D01*
X170784246Y-78496256D01*
X170832733Y-78463858D01*
X170919858Y-78376733D01*
X170919859Y-78376730D01*
X170926925Y-78369665D01*
X170926928Y-78369661D01*
X171086729Y-78209860D01*
X171086733Y-78209858D01*
X171173858Y-78122733D01*
X171242311Y-78020286D01*
X171289463Y-77906452D01*
X171298831Y-77859353D01*
X171311523Y-77795548D01*
X171311523Y-77795543D01*
X171313500Y-77785607D01*
X171313500Y-77662393D01*
X171313500Y-70550394D01*
X171300837Y-70486733D01*
X171289463Y-70429548D01*
X171242311Y-70315714D01*
X171219390Y-70281411D01*
X171173857Y-70213265D01*
X171173854Y-70213262D01*
X170672928Y-69712338D01*
X170672925Y-69712334D01*
X170672925Y-69712335D01*
X170665859Y-69705269D01*
X170665858Y-69705267D01*
X170578733Y-69618142D01*
X170578729Y-69618139D01*
X170578728Y-69618138D01*
X170501322Y-69566417D01*
X170501320Y-69566415D01*
X170501320Y-69566416D01*
X170476285Y-69549687D01*
X170436039Y-69533017D01*
X170395792Y-69516347D01*
X170362452Y-69502537D01*
X170362448Y-69502536D01*
X170362444Y-69502535D01*
X170282011Y-69486536D01*
X170282010Y-69486536D01*
X170241611Y-69478500D01*
X170241607Y-69478500D01*
X170241606Y-69478500D01*
X169896927Y-69478500D01*
X169829888Y-69458815D01*
X169791388Y-69419597D01*
X169729743Y-69319654D01*
X169698712Y-69269344D01*
X169605049Y-69175681D01*
X169571564Y-69114358D01*
X169576548Y-69044666D01*
X169605049Y-69000319D01*
X169624660Y-68980708D01*
X169698712Y-68906656D01*
X169790814Y-68757334D01*
X169845999Y-68590797D01*
X169856500Y-68488009D01*
X169856499Y-67687992D01*
X169845999Y-67585203D01*
X169790814Y-67418666D01*
X169698712Y-67269344D01*
X169574656Y-67145288D01*
X169425334Y-67053186D01*
X169366493Y-67033688D01*
X169309051Y-66993916D01*
X169282228Y-66929400D01*
X169281500Y-66915983D01*
X169281500Y-65752981D01*
X169301185Y-65685942D01*
X169353989Y-65640187D01*
X169392899Y-65629623D01*
X169393391Y-65629572D01*
X169408797Y-65627999D01*
X169575334Y-65572814D01*
X169724656Y-65480712D01*
X169848712Y-65356656D01*
X169940814Y-65207334D01*
X169995999Y-65040797D01*
X170006500Y-64938009D01*
X170006499Y-64037992D01*
X169995999Y-63935203D01*
X169940814Y-63768666D01*
X169848712Y-63619344D01*
X169724656Y-63495288D01*
X169575334Y-63403186D01*
X169408797Y-63348001D01*
X169408795Y-63348000D01*
X169306010Y-63337500D01*
X168005998Y-63337500D01*
X168005981Y-63337501D01*
X167903203Y-63348000D01*
X167903200Y-63348001D01*
X167736668Y-63403185D01*
X167736663Y-63403187D01*
X167587342Y-63495289D01*
X167463289Y-63619342D01*
X167371187Y-63768663D01*
X167371186Y-63768666D01*
X167316001Y-63935203D01*
X167316001Y-63935204D01*
X167316000Y-63935204D01*
X167305500Y-64037983D01*
X167305500Y-64938001D01*
X167305501Y-64938019D01*
X167316000Y-65040796D01*
X167316001Y-65040799D01*
X167362802Y-65182032D01*
X167371186Y-65207334D01*
X167463288Y-65356656D01*
X167587344Y-65480712D01*
X167736666Y-65572814D01*
X167903203Y-65627999D01*
X167919101Y-65629623D01*
X167983793Y-65656018D01*
X168023945Y-65713198D01*
X168030500Y-65752981D01*
X168030500Y-66915983D01*
X168010815Y-66983022D01*
X167958011Y-67028777D01*
X167945510Y-67033686D01*
X167886666Y-67053186D01*
X167886663Y-67053187D01*
X167737342Y-67145289D01*
X167613289Y-67269342D01*
X167521187Y-67418663D01*
X167521185Y-67418668D01*
X167511465Y-67448001D01*
X167466001Y-67585203D01*
X167466001Y-67585204D01*
X167466000Y-67585204D01*
X167455500Y-67687983D01*
X167455500Y-68488001D01*
X167455501Y-68488019D01*
X167466000Y-68590796D01*
X167466001Y-68590799D01*
X167521185Y-68757331D01*
X167521187Y-68757336D01*
X167613289Y-68906657D01*
X167706951Y-69000319D01*
X167740436Y-69061642D01*
X167735452Y-69131334D01*
X167706951Y-69175681D01*
X167613289Y-69269342D01*
X167521187Y-69418663D01*
X167521186Y-69418666D01*
X167466001Y-69585203D01*
X167466001Y-69585204D01*
X167466000Y-69585204D01*
X167455500Y-69687983D01*
X167455500Y-70488001D01*
X167455501Y-70488019D01*
X167466000Y-70590796D01*
X167466001Y-70590799D01*
X167521185Y-70757331D01*
X167521187Y-70757336D01*
X167543265Y-70793130D01*
X167613288Y-70906656D01*
X167737344Y-71030712D01*
X167886666Y-71122814D01*
X168053203Y-71177999D01*
X168155991Y-71188500D01*
X169156008Y-71188499D01*
X169156016Y-71188498D01*
X169156019Y-71188498D01*
X169212302Y-71182748D01*
X169258797Y-71177999D01*
X169425334Y-71122814D01*
X169574656Y-71030712D01*
X169698712Y-70906656D01*
X169768735Y-70793130D01*
X169820683Y-70746405D01*
X169889645Y-70735182D01*
X169953728Y-70763026D01*
X169961955Y-70770545D01*
X170026181Y-70834771D01*
X170059666Y-70896094D01*
X170062500Y-70922452D01*
X170062500Y-73290002D01*
X170042815Y-73357041D01*
X169990011Y-73402796D01*
X169920853Y-73412740D01*
X169903906Y-73409079D01*
X169772489Y-73370899D01*
X169735649Y-73368000D01*
X169095000Y-73368000D01*
X169095000Y-74294000D01*
X169075315Y-74361039D01*
X169022511Y-74406794D01*
X168971000Y-74418000D01*
X167372705Y-74418000D01*
X167372704Y-74418001D01*
X167372899Y-74420486D01*
X167418718Y-74578198D01*
X167502314Y-74719552D01*
X167507100Y-74725722D01*
X167504640Y-74727629D01*
X167531210Y-74776288D01*
X167526226Y-74845980D01*
X167505162Y-74878781D01*
X167506699Y-74879974D01*
X167501915Y-74886140D01*
X167418255Y-75027603D01*
X167418254Y-75027606D01*
X167372402Y-75185426D01*
X167372401Y-75185432D01*
X167369500Y-75222298D01*
X167369500Y-75653701D01*
X167372401Y-75690567D01*
X167372402Y-75690573D01*
X167418254Y-75848393D01*
X167418255Y-75848396D01*
X167501917Y-75989862D01*
X167506702Y-75996031D01*
X167504256Y-75997927D01*
X167530857Y-76046642D01*
X167525873Y-76116334D01*
X167505069Y-76148703D01*
X167506702Y-76149969D01*
X167501917Y-76156137D01*
X167418255Y-76297603D01*
X167418254Y-76297606D01*
X167372402Y-76455426D01*
X167372401Y-76455432D01*
X167369500Y-76492298D01*
X167369500Y-76923701D01*
X167372401Y-76960567D01*
X167372402Y-76960573D01*
X167418254Y-77118393D01*
X167418255Y-77118396D01*
X167501917Y-77259862D01*
X167506702Y-77266031D01*
X167504256Y-77267927D01*
X167530857Y-77316642D01*
X167525873Y-77386334D01*
X167505069Y-77418703D01*
X167506702Y-77419969D01*
X167501917Y-77426137D01*
X167418255Y-77567603D01*
X167418254Y-77567606D01*
X167372402Y-77725426D01*
X167372402Y-77725430D01*
X167369500Y-77762298D01*
X167369500Y-78193701D01*
X167372401Y-78230567D01*
X167372402Y-78230573D01*
X167418254Y-78388393D01*
X167418255Y-78388396D01*
X167501917Y-78529862D01*
X167506702Y-78536031D01*
X167504256Y-78537927D01*
X167530857Y-78586642D01*
X167525873Y-78656334D01*
X167505069Y-78688703D01*
X167506702Y-78689969D01*
X167501917Y-78696137D01*
X167418255Y-78837603D01*
X167418254Y-78837606D01*
X167372402Y-78995426D01*
X167372401Y-78995432D01*
X167369500Y-79032298D01*
X167369500Y-79463701D01*
X167372401Y-79500567D01*
X167372402Y-79500573D01*
X167418254Y-79658393D01*
X167418255Y-79658396D01*
X167501917Y-79799862D01*
X167506702Y-79806031D01*
X167504256Y-79807927D01*
X167530857Y-79856642D01*
X167525873Y-79926334D01*
X167505069Y-79958703D01*
X167506702Y-79959969D01*
X167501917Y-79966137D01*
X167418255Y-80107603D01*
X167418254Y-80107606D01*
X167372402Y-80265426D01*
X167372401Y-80265432D01*
X167369500Y-80302298D01*
X167369500Y-80733701D01*
X167372401Y-80770567D01*
X167372402Y-80770573D01*
X167418254Y-80928393D01*
X167418255Y-80928396D01*
X167501917Y-81069862D01*
X167506702Y-81076031D01*
X167504256Y-81077927D01*
X167530857Y-81126642D01*
X167525873Y-81196334D01*
X167505069Y-81228703D01*
X167506702Y-81229969D01*
X167501917Y-81236137D01*
X167418255Y-81377603D01*
X167418254Y-81377606D01*
X167372402Y-81535426D01*
X167372401Y-81535432D01*
X167369500Y-81572298D01*
X167369500Y-82003701D01*
X167372401Y-82040567D01*
X167372402Y-82040573D01*
X167418254Y-82198393D01*
X167418255Y-82198396D01*
X167501917Y-82339862D01*
X167506702Y-82346031D01*
X167504256Y-82347927D01*
X167530857Y-82396642D01*
X167525873Y-82466334D01*
X167505069Y-82498703D01*
X167506702Y-82499969D01*
X167501917Y-82506137D01*
X167418255Y-82647603D01*
X167418254Y-82647606D01*
X167372402Y-82805426D01*
X167372401Y-82805432D01*
X167369500Y-82842298D01*
X167369500Y-83273701D01*
X167372401Y-83310567D01*
X167372402Y-83310573D01*
X167418254Y-83468393D01*
X167418255Y-83468396D01*
X167501917Y-83609862D01*
X167501923Y-83609870D01*
X167618129Y-83726076D01*
X167618133Y-83726079D01*
X167618135Y-83726081D01*
X167759602Y-83809744D01*
X167772269Y-83813424D01*
X167917426Y-83855597D01*
X167917429Y-83855597D01*
X167917431Y-83855598D01*
X167954306Y-83858500D01*
X168144500Y-83858500D01*
X168211539Y-83878185D01*
X168257294Y-83930989D01*
X168268500Y-83982500D01*
X168268500Y-85128942D01*
X168248815Y-85195981D01*
X168209598Y-85234479D01*
X168125153Y-85286566D01*
X168075342Y-85317289D01*
X167981681Y-85410951D01*
X167920358Y-85444436D01*
X167850666Y-85439452D01*
X167806319Y-85410951D01*
X167712657Y-85317289D01*
X167712656Y-85317288D01*
X167604435Y-85250537D01*
X167563336Y-85225187D01*
X167563331Y-85225185D01*
X167532513Y-85214973D01*
X167396797Y-85170001D01*
X167396795Y-85170000D01*
X167294010Y-85159500D01*
X166493998Y-85159500D01*
X166493980Y-85159501D01*
X166391203Y-85170000D01*
X166391200Y-85170001D01*
X166224668Y-85225185D01*
X166224663Y-85225187D01*
X166075342Y-85317289D01*
X165951289Y-85441342D01*
X165859187Y-85590663D01*
X165859186Y-85590666D01*
X165849236Y-85620695D01*
X165839689Y-85649505D01*
X165799916Y-85706949D01*
X165735400Y-85733772D01*
X165721983Y-85734500D01*
X164394453Y-85734500D01*
X164327414Y-85714815D01*
X164306772Y-85698181D01*
X164068928Y-85460338D01*
X164068925Y-85460334D01*
X164068925Y-85460335D01*
X164061858Y-85453268D01*
X164061858Y-85453267D01*
X163974733Y-85366142D01*
X163974732Y-85366141D01*
X163974731Y-85366140D01*
X163923509Y-85331915D01*
X163872287Y-85297689D01*
X163872286Y-85297688D01*
X163872283Y-85297686D01*
X163872280Y-85297685D01*
X163791792Y-85264347D01*
X163758453Y-85250537D01*
X163748427Y-85248543D01*
X163698029Y-85238518D01*
X163637610Y-85226500D01*
X163637607Y-85226500D01*
X163637606Y-85226500D01*
X162108351Y-85226500D01*
X162041312Y-85206815D01*
X162004542Y-85170321D01*
X161885983Y-84988852D01*
X161885980Y-84988849D01*
X161885979Y-84988847D01*
X161728784Y-84818087D01*
X161728779Y-84818083D01*
X161728777Y-84818081D01*
X161545634Y-84675535D01*
X161545628Y-84675531D01*
X161341504Y-84565064D01*
X161341495Y-84565061D01*
X161121984Y-84489702D01*
X160934404Y-84458401D01*
X160893049Y-84451500D01*
X160660951Y-84451500D01*
X160619596Y-84458401D01*
X160432015Y-84489702D01*
X160212504Y-84565061D01*
X160212495Y-84565064D01*
X160008371Y-84675531D01*
X160008365Y-84675535D01*
X159825222Y-84818081D01*
X159825215Y-84818087D01*
X159816484Y-84827572D01*
X159756595Y-84863561D01*
X159686757Y-84861458D01*
X159629143Y-84821932D01*
X159609075Y-84786918D01*
X159580355Y-84709915D01*
X159580350Y-84709906D01*
X159494190Y-84594812D01*
X159494187Y-84594809D01*
X159379093Y-84508649D01*
X159379086Y-84508645D01*
X159244379Y-84458403D01*
X159244372Y-84458401D01*
X159184844Y-84452000D01*
X158487000Y-84452000D01*
X158487000Y-85476722D01*
X158410694Y-85432667D01*
X158296244Y-85402000D01*
X158177756Y-85402000D01*
X158063306Y-85432667D01*
X157987000Y-85476722D01*
X157987000Y-84452000D01*
X157446731Y-84452000D01*
X157379692Y-84432315D01*
X157333937Y-84379511D01*
X157323993Y-84310353D01*
X157353018Y-84246797D01*
X157359050Y-84240319D01*
X158325681Y-83273686D01*
X158932776Y-82666589D01*
X158994097Y-82633106D01*
X159063788Y-82638090D01*
X159119722Y-82679961D01*
X159123554Y-82685376D01*
X159133809Y-82700723D01*
X159133811Y-82700729D01*
X159133812Y-82700729D01*
X159183046Y-82774414D01*
X159183052Y-82774421D01*
X160049584Y-83640952D01*
X160049586Y-83640954D01*
X160079058Y-83660645D01*
X160123270Y-83690186D01*
X160172505Y-83723084D01*
X160172506Y-83723084D01*
X160172507Y-83723085D01*
X160172509Y-83723086D01*
X160228026Y-83746082D01*
X160228027Y-83746082D01*
X160309088Y-83779659D01*
X160425241Y-83802763D01*
X160444468Y-83806587D01*
X160454081Y-83808500D01*
X160454082Y-83808500D01*
X160454083Y-83808500D01*
X160601918Y-83808500D01*
X162787672Y-83808500D01*
X162822267Y-83813424D01*
X162967426Y-83855597D01*
X162967429Y-83855597D01*
X162967431Y-83855598D01*
X163004306Y-83858500D01*
X163004314Y-83858500D01*
X164785686Y-83858500D01*
X164785694Y-83858500D01*
X164822569Y-83855598D01*
X164822571Y-83855597D01*
X164822573Y-83855597D01*
X164864191Y-83843505D01*
X164980398Y-83809744D01*
X165121865Y-83726081D01*
X165238081Y-83609865D01*
X165321744Y-83468398D01*
X165367598Y-83310569D01*
X165370500Y-83273694D01*
X165370500Y-82842306D01*
X165367598Y-82805431D01*
X165364422Y-82794500D01*
X165321745Y-82647606D01*
X165321744Y-82647603D01*
X165321744Y-82647602D01*
X165238081Y-82506135D01*
X165238078Y-82506132D01*
X165233298Y-82499969D01*
X165235750Y-82498066D01*
X165209155Y-82449421D01*
X165214104Y-82379726D01*
X165234940Y-82347304D01*
X165233298Y-82346031D01*
X165238075Y-82339870D01*
X165238081Y-82339865D01*
X165321744Y-82198398D01*
X165367598Y-82040569D01*
X165370500Y-82003694D01*
X165370500Y-81572306D01*
X165367598Y-81535431D01*
X165367182Y-81534000D01*
X165321745Y-81377606D01*
X165321744Y-81377603D01*
X165321744Y-81377602D01*
X165238081Y-81236135D01*
X165238078Y-81236132D01*
X165233298Y-81229969D01*
X165235750Y-81228066D01*
X165209155Y-81179421D01*
X165214104Y-81109726D01*
X165234940Y-81077304D01*
X165233298Y-81076031D01*
X165238075Y-81069870D01*
X165238081Y-81069865D01*
X165321744Y-80928398D01*
X165367598Y-80770569D01*
X165370500Y-80733694D01*
X165370500Y-80302306D01*
X165367598Y-80265431D01*
X165367182Y-80264000D01*
X165321745Y-80107606D01*
X165321744Y-80107603D01*
X165321744Y-80107602D01*
X165238081Y-79966135D01*
X165238078Y-79966132D01*
X165233298Y-79959969D01*
X165235750Y-79958066D01*
X165209155Y-79909421D01*
X165214104Y-79839726D01*
X165234940Y-79807304D01*
X165233298Y-79806031D01*
X165238075Y-79799870D01*
X165238081Y-79799865D01*
X165321744Y-79658398D01*
X165367598Y-79500569D01*
X165370500Y-79463694D01*
X165370500Y-79032306D01*
X165367598Y-78995431D01*
X165364223Y-78983815D01*
X165321745Y-78837606D01*
X165321744Y-78837603D01*
X165321744Y-78837602D01*
X165238081Y-78696135D01*
X165238078Y-78696132D01*
X165233298Y-78689969D01*
X165235750Y-78688066D01*
X165209155Y-78639421D01*
X165214104Y-78569726D01*
X165234940Y-78537304D01*
X165233298Y-78536031D01*
X165238075Y-78529870D01*
X165238081Y-78529865D01*
X165321744Y-78388398D01*
X165367598Y-78230569D01*
X165370500Y-78193694D01*
X165370500Y-77762306D01*
X165367598Y-77725431D01*
X165358441Y-77693914D01*
X165333264Y-77607254D01*
X165321744Y-77567602D01*
X165238081Y-77426135D01*
X165238078Y-77426132D01*
X165233298Y-77419969D01*
X165235635Y-77418155D01*
X165208798Y-77369050D01*
X165213756Y-77299356D01*
X165234554Y-77266998D01*
X165232903Y-77265717D01*
X165237686Y-77259550D01*
X165321281Y-77118198D01*
X165367100Y-76960486D01*
X165367295Y-76958001D01*
X165367295Y-76958000D01*
X162422705Y-76958000D01*
X162422704Y-76958001D01*
X162422899Y-76960486D01*
X162468718Y-77118198D01*
X162552314Y-77259552D01*
X162557100Y-77265722D01*
X162554640Y-77267629D01*
X162581210Y-77316288D01*
X162576226Y-77385980D01*
X162555162Y-77418781D01*
X162556699Y-77419974D01*
X162551915Y-77426140D01*
X162468255Y-77567603D01*
X162468254Y-77567606D01*
X162422402Y-77725426D01*
X162422402Y-77725430D01*
X162419500Y-77762298D01*
X162419500Y-78193701D01*
X162422401Y-78230567D01*
X162422402Y-78230573D01*
X162468254Y-78388393D01*
X162468255Y-78388396D01*
X162551917Y-78529862D01*
X162556702Y-78536031D01*
X162554256Y-78537927D01*
X162580857Y-78586642D01*
X162575873Y-78656334D01*
X162555069Y-78688703D01*
X162556702Y-78689969D01*
X162551917Y-78696137D01*
X162468255Y-78837603D01*
X162468254Y-78837606D01*
X162422402Y-78995426D01*
X162422401Y-78995432D01*
X162419500Y-79032298D01*
X162419500Y-79463701D01*
X162422401Y-79500567D01*
X162422402Y-79500573D01*
X162468254Y-79658393D01*
X162468255Y-79658396D01*
X162551917Y-79799862D01*
X162556702Y-79806031D01*
X162554256Y-79807927D01*
X162580857Y-79856642D01*
X162575873Y-79926334D01*
X162555069Y-79958703D01*
X162556702Y-79959969D01*
X162551917Y-79966137D01*
X162468255Y-80107603D01*
X162468254Y-80107606D01*
X162422402Y-80265426D01*
X162422401Y-80265432D01*
X162419500Y-80302298D01*
X162419500Y-80733701D01*
X162422401Y-80770567D01*
X162422402Y-80770573D01*
X162468254Y-80928393D01*
X162468255Y-80928396D01*
X162551917Y-81069862D01*
X162556702Y-81076031D01*
X162554256Y-81077927D01*
X162580857Y-81126642D01*
X162575873Y-81196334D01*
X162555069Y-81228703D01*
X162556702Y-81229969D01*
X162551917Y-81236137D01*
X162468255Y-81377603D01*
X162468254Y-81377606D01*
X162422402Y-81535426D01*
X162422401Y-81535432D01*
X162419500Y-81572298D01*
X162419500Y-82003701D01*
X162422401Y-82040567D01*
X162422402Y-82040573D01*
X162453876Y-82148905D01*
X162453677Y-82218775D01*
X162415735Y-82277445D01*
X162352096Y-82306288D01*
X162334800Y-82307500D01*
X160890230Y-82307500D01*
X160823191Y-82287815D01*
X160802549Y-82271181D01*
X160576802Y-82045434D01*
X160543317Y-81984111D01*
X160548301Y-81914419D01*
X160568629Y-81879090D01*
X160601910Y-81838538D01*
X160694814Y-81664727D01*
X160752024Y-81476132D01*
X160771341Y-81280000D01*
X160752024Y-81083868D01*
X160694814Y-80895273D01*
X160694811Y-80895269D01*
X160694811Y-80895266D01*
X160601913Y-80721467D01*
X160601911Y-80721465D01*
X160601910Y-80721462D01*
X160570596Y-80683306D01*
X160544647Y-80651686D01*
X160517334Y-80587376D01*
X160516500Y-80573021D01*
X160516500Y-78920081D01*
X160507981Y-78877257D01*
X160507981Y-78877256D01*
X160487659Y-78775088D01*
X160454518Y-78695080D01*
X160451613Y-78688066D01*
X160431085Y-78638506D01*
X160431083Y-78638503D01*
X160348954Y-78515588D01*
X160348953Y-78515587D01*
X160348951Y-78515584D01*
X160244416Y-78411049D01*
X160203024Y-78369657D01*
X159609421Y-77776052D01*
X159609418Y-77776049D01*
X159533661Y-77725431D01*
X159533654Y-77725426D01*
X159486495Y-77693916D01*
X159486492Y-77693914D01*
X159486491Y-77693914D01*
X159349917Y-77637343D01*
X159349907Y-77637340D01*
X159245331Y-77616538D01*
X159183420Y-77584153D01*
X159148846Y-77523436D01*
X159146203Y-77481957D01*
X159147460Y-77470000D01*
X159127674Y-77281744D01*
X159069179Y-77101716D01*
X159055926Y-77078761D01*
X159039453Y-77010865D01*
X159062304Y-76944838D01*
X159098215Y-76911225D01*
X159160656Y-76872712D01*
X159284712Y-76748656D01*
X159376814Y-76599334D01*
X159431999Y-76432797D01*
X159442500Y-76330009D01*
X159442499Y-75529992D01*
X159431999Y-75427203D01*
X159376814Y-75260666D01*
X159284712Y-75111344D01*
X159191049Y-75017681D01*
X159157564Y-74956358D01*
X159162548Y-74886666D01*
X159191049Y-74842319D01*
X159235342Y-74798026D01*
X159284712Y-74748656D01*
X159376814Y-74599334D01*
X159431999Y-74432797D01*
X159442500Y-74330009D01*
X159442499Y-73529992D01*
X159441499Y-73520207D01*
X159431999Y-73427203D01*
X159431998Y-73427200D01*
X159428524Y-73416716D01*
X159376814Y-73260666D01*
X159342229Y-73204595D01*
X159323790Y-73137204D01*
X159344713Y-73070541D01*
X159398355Y-73025771D01*
X159447769Y-73015500D01*
X159963548Y-73015500D01*
X160030587Y-73035185D01*
X160051229Y-73051819D01*
X160628181Y-73628771D01*
X160661666Y-73690094D01*
X160664500Y-73716452D01*
X160664500Y-74737606D01*
X160676517Y-74798026D01*
X160682778Y-74829500D01*
X160682778Y-74829502D01*
X160688534Y-74858444D01*
X160688537Y-74858451D01*
X160711925Y-74914917D01*
X160735689Y-74972288D01*
X160743435Y-74983880D01*
X160767568Y-75019996D01*
X160767569Y-75020000D01*
X160767571Y-75020000D01*
X160804143Y-75074735D01*
X160895586Y-75166178D01*
X160895608Y-75166198D01*
X161563016Y-75833606D01*
X161563045Y-75833637D01*
X161653264Y-75923856D01*
X161653267Y-75923858D01*
X161730190Y-75975256D01*
X161755710Y-75992309D01*
X161755712Y-75992310D01*
X161755715Y-75992312D01*
X161822396Y-76019931D01*
X161822398Y-76019933D01*
X161852129Y-76032247D01*
X161869548Y-76039463D01*
X161990394Y-76063500D01*
X162113607Y-76063500D01*
X162389889Y-76063500D01*
X162456928Y-76083185D01*
X162502683Y-76135989D01*
X162512627Y-76205147D01*
X162496621Y-76250621D01*
X162468718Y-76297801D01*
X162422899Y-76455513D01*
X162422704Y-76457998D01*
X162422705Y-76458000D01*
X165367295Y-76458000D01*
X165367295Y-76457998D01*
X165367100Y-76455513D01*
X165321281Y-76297801D01*
X165237685Y-76156447D01*
X165232900Y-76150278D01*
X165235366Y-76148364D01*
X165208802Y-76099776D01*
X165213749Y-76030082D01*
X165234856Y-75997232D01*
X165233301Y-75996026D01*
X165238077Y-75989868D01*
X165238081Y-75989865D01*
X165321744Y-75848398D01*
X165367598Y-75690569D01*
X165370500Y-75653694D01*
X165370500Y-75222306D01*
X165367598Y-75185431D01*
X165362010Y-75166198D01*
X165321745Y-75027606D01*
X165321744Y-75027603D01*
X165321744Y-75027602D01*
X165238081Y-74886135D01*
X165238078Y-74886132D01*
X165233298Y-74879969D01*
X165235750Y-74878066D01*
X165209155Y-74829421D01*
X165214104Y-74759726D01*
X165234940Y-74727304D01*
X165233298Y-74726031D01*
X165238075Y-74719870D01*
X165238081Y-74719865D01*
X165321744Y-74578398D01*
X165358109Y-74453229D01*
X165367597Y-74420573D01*
X165367598Y-74420567D01*
X165370500Y-74383694D01*
X165370500Y-73952306D01*
X165367800Y-73917998D01*
X167372704Y-73917998D01*
X167372705Y-73918000D01*
X168595000Y-73918000D01*
X168595000Y-73368000D01*
X167954350Y-73368000D01*
X167917510Y-73370899D01*
X167917504Y-73370900D01*
X167759806Y-73416716D01*
X167759803Y-73416717D01*
X167618447Y-73500314D01*
X167618438Y-73500321D01*
X167502321Y-73616438D01*
X167502314Y-73616447D01*
X167418718Y-73757801D01*
X167372899Y-73915513D01*
X167372704Y-73917998D01*
X165367800Y-73917998D01*
X165367598Y-73915431D01*
X165321744Y-73757602D01*
X165238081Y-73616135D01*
X165238079Y-73616133D01*
X165238076Y-73616129D01*
X165121870Y-73499923D01*
X165121862Y-73499917D01*
X164998903Y-73427200D01*
X164980398Y-73416256D01*
X164980397Y-73416255D01*
X164980396Y-73416255D01*
X164980393Y-73416254D01*
X164822573Y-73370402D01*
X164822567Y-73370401D01*
X164785701Y-73367500D01*
X164785694Y-73367500D01*
X163004306Y-73367500D01*
X163004298Y-73367500D01*
X162967432Y-73370401D01*
X162967426Y-73370402D01*
X162809606Y-73416254D01*
X162809603Y-73416255D01*
X162668137Y-73499917D01*
X162668129Y-73499923D01*
X162551923Y-73616129D01*
X162551917Y-73616137D01*
X162468255Y-73757603D01*
X162468254Y-73757606D01*
X162422402Y-73915426D01*
X162422401Y-73915432D01*
X162419500Y-73952298D01*
X162419500Y-74383701D01*
X162422401Y-74420567D01*
X162422402Y-74420573D01*
X162468254Y-74578393D01*
X162468254Y-74578394D01*
X162468255Y-74578396D01*
X162468256Y-74578398D01*
X162480639Y-74599336D01*
X162496041Y-74625380D01*
X162513222Y-74693104D01*
X162491062Y-74759366D01*
X162436596Y-74803129D01*
X162389308Y-74812500D01*
X162362452Y-74812500D01*
X162295413Y-74792815D01*
X162274771Y-74776181D01*
X161951819Y-74453229D01*
X161918334Y-74391906D01*
X161915500Y-74365548D01*
X161915500Y-73344395D01*
X161915500Y-73344394D01*
X161909163Y-73312537D01*
X161896952Y-73251144D01*
X161891463Y-73223548D01*
X161871002Y-73174151D01*
X161855698Y-73137204D01*
X161844314Y-73109719D01*
X161844312Y-73109714D01*
X161804271Y-73049790D01*
X161775858Y-73007267D01*
X161775856Y-73007264D01*
X161685637Y-72917045D01*
X161685606Y-72917016D01*
X160764198Y-71995608D01*
X160764178Y-71995586D01*
X160672733Y-71904141D01*
X160621509Y-71869915D01*
X160570286Y-71835688D01*
X160570283Y-71835686D01*
X160570280Y-71835685D01*
X160489792Y-71802347D01*
X160456453Y-71788537D01*
X160446427Y-71786543D01*
X160396029Y-71776518D01*
X160335610Y-71764500D01*
X160335607Y-71764500D01*
X160335606Y-71764500D01*
X152595748Y-71764500D01*
X152528709Y-71744815D01*
X152503600Y-71723474D01*
X152497873Y-71717114D01*
X152497869Y-71717110D01*
X152344734Y-71605851D01*
X152344729Y-71605848D01*
X152171807Y-71528857D01*
X152171802Y-71528855D01*
X152026001Y-71497865D01*
X151986646Y-71489500D01*
X151797354Y-71489500D01*
X151764897Y-71496398D01*
X151612197Y-71528855D01*
X151612192Y-71528857D01*
X151439270Y-71605848D01*
X151439265Y-71605851D01*
X151286129Y-71717111D01*
X151159466Y-71857785D01*
X151064821Y-72021715D01*
X151064818Y-72021722D01*
X151006327Y-72201740D01*
X151006326Y-72201744D01*
X150986540Y-72390000D01*
X151006326Y-72578256D01*
X151006326Y-72578258D01*
X151006327Y-72578260D01*
X151027434Y-72643222D01*
X151029429Y-72713063D01*
X150993348Y-72772895D01*
X150930647Y-72803723D01*
X150896908Y-72804898D01*
X150893010Y-72804500D01*
X149842998Y-72804500D01*
X149842980Y-72804501D01*
X149740203Y-72815000D01*
X149740200Y-72815001D01*
X149573668Y-72870185D01*
X149573663Y-72870187D01*
X149424342Y-72962289D01*
X149300289Y-73086342D01*
X149208187Y-73235663D01*
X149208185Y-73235668D01*
X149190181Y-73290002D01*
X149153001Y-73402203D01*
X149153001Y-73402204D01*
X149153000Y-73402204D01*
X149142500Y-73504983D01*
X149142500Y-74280001D01*
X149142501Y-74280019D01*
X149153000Y-74382796D01*
X149153001Y-74382799D01*
X149208185Y-74549331D01*
X149208187Y-74549336D01*
X149231349Y-74586888D01*
X149300288Y-74698656D01*
X149424344Y-74822712D01*
X149427628Y-74824737D01*
X149427653Y-74824753D01*
X149429445Y-74826746D01*
X149430011Y-74827193D01*
X149429934Y-74827289D01*
X149474379Y-74876699D01*
X149485603Y-74945661D01*
X149457761Y-75009744D01*
X149427665Y-75035826D01*
X149424660Y-75037679D01*
X149424655Y-75037683D01*
X149300684Y-75161654D01*
X149208643Y-75310875D01*
X149208641Y-75310880D01*
X149153494Y-75477302D01*
X149153493Y-75477309D01*
X149143000Y-75580013D01*
X149143000Y-75717500D01*
X151592999Y-75717500D01*
X151592999Y-75580028D01*
X151592998Y-75580013D01*
X151582505Y-75477302D01*
X151527358Y-75310880D01*
X151527356Y-75310875D01*
X151435315Y-75161654D01*
X151311344Y-75037683D01*
X151311341Y-75037681D01*
X151308339Y-75035829D01*
X151306713Y-75034021D01*
X151305677Y-75033202D01*
X151305817Y-75033024D01*
X151261617Y-74983880D01*
X151250397Y-74914917D01*
X151278243Y-74850836D01*
X151308344Y-74824754D01*
X151311656Y-74822712D01*
X151435712Y-74698656D01*
X151497548Y-74598402D01*
X151549496Y-74551679D01*
X151603087Y-74539500D01*
X151950252Y-74539500D01*
X152017291Y-74559185D01*
X152042400Y-74580526D01*
X152048126Y-74586885D01*
X152048130Y-74586889D01*
X152201265Y-74698148D01*
X152201270Y-74698151D01*
X152374192Y-74775142D01*
X152374197Y-74775144D01*
X152559354Y-74814500D01*
X152559355Y-74814500D01*
X152748644Y-74814500D01*
X152748646Y-74814500D01*
X152894720Y-74783451D01*
X152964386Y-74788767D01*
X153020120Y-74830904D01*
X153044225Y-74896484D01*
X153044500Y-74904741D01*
X153044500Y-78990511D01*
X153024815Y-79057550D01*
X152972011Y-79103305D01*
X152902853Y-79113249D01*
X152851610Y-79093613D01*
X152823288Y-79074689D01*
X152823281Y-79074685D01*
X152720966Y-79032306D01*
X152709455Y-79027538D01*
X152709453Y-79027537D01*
X152709452Y-79027537D01*
X152649029Y-79015518D01*
X152588610Y-79003500D01*
X152588607Y-79003500D01*
X152588606Y-79003500D01*
X151738111Y-79003500D01*
X151671072Y-78983815D01*
X151625317Y-78931011D01*
X151615373Y-78861853D01*
X151631379Y-78816379D01*
X151659281Y-78769198D01*
X151705100Y-78611486D01*
X151705295Y-78609001D01*
X151705295Y-78609000D01*
X148960705Y-78609000D01*
X148960704Y-78609001D01*
X148960899Y-78611486D01*
X149006718Y-78769198D01*
X149090314Y-78910552D01*
X149095100Y-78916722D01*
X149092640Y-78918629D01*
X149119210Y-78967288D01*
X149114226Y-79036980D01*
X149093162Y-79069781D01*
X149094699Y-79070974D01*
X149089915Y-79077140D01*
X149006255Y-79218603D01*
X149006254Y-79218606D01*
X148960402Y-79376426D01*
X148960401Y-79376432D01*
X148957500Y-79413298D01*
X148957500Y-79844701D01*
X148960401Y-79881567D01*
X148960402Y-79881573D01*
X149006254Y-80039393D01*
X149006255Y-80039396D01*
X149089917Y-80180862D01*
X149094702Y-80187031D01*
X149092256Y-80188927D01*
X149118857Y-80237642D01*
X149113873Y-80307334D01*
X149093069Y-80339703D01*
X149094702Y-80340969D01*
X149089917Y-80347137D01*
X149006255Y-80488603D01*
X149006254Y-80488606D01*
X148960402Y-80646426D01*
X148960401Y-80646432D01*
X148957500Y-80683298D01*
X148957500Y-81114701D01*
X148960401Y-81151567D01*
X148960402Y-81151573D01*
X149006254Y-81309393D01*
X149006255Y-81309396D01*
X149089917Y-81450862D01*
X149094702Y-81457031D01*
X149092256Y-81458927D01*
X149118857Y-81507642D01*
X149113873Y-81577334D01*
X149093069Y-81609703D01*
X149094702Y-81610969D01*
X149089917Y-81617137D01*
X149006255Y-81758603D01*
X149006254Y-81758606D01*
X148960402Y-81916426D01*
X148960401Y-81916432D01*
X148957500Y-81953298D01*
X148957500Y-82384701D01*
X146000500Y-82384701D01*
X146000500Y-78108998D01*
X148960704Y-78108998D01*
X148960705Y-78109000D01*
X150083000Y-78109000D01*
X150083000Y-77559000D01*
X150583000Y-77559000D01*
X150583000Y-78109000D01*
X151705295Y-78109000D01*
X151705295Y-78108998D01*
X151705100Y-78106513D01*
X151659281Y-77948801D01*
X151575685Y-77807447D01*
X151575678Y-77807438D01*
X151459561Y-77691321D01*
X151459552Y-77691314D01*
X151318196Y-77607717D01*
X151318193Y-77607716D01*
X151160495Y-77561900D01*
X151160489Y-77561899D01*
X151123649Y-77559000D01*
X150583000Y-77559000D01*
X150083000Y-77559000D01*
X149542350Y-77559000D01*
X149505510Y-77561899D01*
X149505504Y-77561900D01*
X149347806Y-77607716D01*
X149347803Y-77607717D01*
X149206447Y-77691314D01*
X149206438Y-77691321D01*
X149090321Y-77807438D01*
X149090314Y-77807447D01*
X149006718Y-77948801D01*
X148960899Y-78106513D01*
X148960704Y-78108998D01*
X146000500Y-78108998D01*
X146000500Y-76217500D01*
X149143001Y-76217500D01*
X149143001Y-76354986D01*
X149153494Y-76457697D01*
X149208641Y-76624119D01*
X149208643Y-76624124D01*
X149300684Y-76773345D01*
X149424654Y-76897315D01*
X149573875Y-76989356D01*
X149573880Y-76989358D01*
X149740302Y-77044505D01*
X149740309Y-77044506D01*
X149843019Y-77054999D01*
X150117999Y-77054999D01*
X150118000Y-77054998D01*
X150118000Y-76217500D01*
X150618000Y-76217500D01*
X150618000Y-77054999D01*
X150892972Y-77054999D01*
X150892986Y-77054998D01*
X150995697Y-77044505D01*
X151162119Y-76989358D01*
X151162124Y-76989356D01*
X151311345Y-76897315D01*
X151435315Y-76773345D01*
X151527356Y-76624124D01*
X151527358Y-76624119D01*
X151582505Y-76457697D01*
X151582506Y-76457690D01*
X151592999Y-76354986D01*
X151593000Y-76354973D01*
X151593000Y-76217500D01*
X150618000Y-76217500D01*
X150118000Y-76217500D01*
X149143001Y-76217500D01*
X146000500Y-76217500D01*
X146000500Y-70038001D01*
X148973500Y-70038001D01*
X148973501Y-70038018D01*
X148984000Y-70140796D01*
X148984001Y-70140799D01*
X149008015Y-70213266D01*
X149039186Y-70307334D01*
X149131288Y-70456656D01*
X149255344Y-70580712D01*
X149404666Y-70672814D01*
X149571203Y-70727999D01*
X149673991Y-70738500D01*
X152774008Y-70738499D01*
X152876797Y-70727999D01*
X153043334Y-70672814D01*
X153192656Y-70580712D01*
X153316712Y-70456656D01*
X153408814Y-70307334D01*
X153463999Y-70140797D01*
X153474500Y-70038009D01*
X153474500Y-70038001D01*
X154373500Y-70038001D01*
X154373501Y-70038018D01*
X154384000Y-70140796D01*
X154384001Y-70140799D01*
X154408015Y-70213266D01*
X154439186Y-70307334D01*
X154531288Y-70456656D01*
X154655344Y-70580712D01*
X154804666Y-70672814D01*
X154971203Y-70727999D01*
X155073991Y-70738500D01*
X158174008Y-70738499D01*
X158276797Y-70727999D01*
X158443334Y-70672814D01*
X158592656Y-70580712D01*
X158716712Y-70456656D01*
X158766769Y-70375500D01*
X162859001Y-70375500D01*
X162859001Y-70512986D01*
X162869494Y-70615697D01*
X162924641Y-70782119D01*
X162924643Y-70782124D01*
X163016684Y-70931345D01*
X163140654Y-71055315D01*
X163289875Y-71147356D01*
X163289880Y-71147358D01*
X163456302Y-71202505D01*
X163456309Y-71202506D01*
X163559019Y-71212999D01*
X163833999Y-71212999D01*
X163834000Y-71212998D01*
X163834000Y-70375500D01*
X164334000Y-70375500D01*
X164334000Y-71212999D01*
X164608972Y-71212999D01*
X164608986Y-71212998D01*
X164711697Y-71202505D01*
X164878119Y-71147358D01*
X164878124Y-71147356D01*
X165027345Y-71055315D01*
X165151315Y-70931345D01*
X165243356Y-70782124D01*
X165243358Y-70782119D01*
X165298505Y-70615697D01*
X165298506Y-70615690D01*
X165308999Y-70512986D01*
X165309000Y-70512973D01*
X165309000Y-70375500D01*
X164334000Y-70375500D01*
X163834000Y-70375500D01*
X162859001Y-70375500D01*
X158766769Y-70375500D01*
X158808814Y-70307334D01*
X158863999Y-70140797D01*
X158874500Y-70038009D01*
X158874499Y-68388829D01*
X158894184Y-68321791D01*
X158946987Y-68276036D01*
X159016146Y-68266092D01*
X159077164Y-68292977D01*
X159207460Y-68399909D01*
X159207467Y-68399913D01*
X159381266Y-68492811D01*
X159381269Y-68492811D01*
X159381273Y-68492814D01*
X159569868Y-68550024D01*
X159766000Y-68569341D01*
X159962132Y-68550024D01*
X160150727Y-68492814D01*
X160159704Y-68488016D01*
X160324532Y-68399913D01*
X160324538Y-68399910D01*
X160394313Y-68342647D01*
X160458623Y-68315334D01*
X160472978Y-68314500D01*
X162734501Y-68314500D01*
X162801540Y-68334185D01*
X162847295Y-68386989D01*
X162857715Y-68434890D01*
X162858341Y-68434859D01*
X162858501Y-68438018D01*
X162869000Y-68540796D01*
X162869001Y-68540799D01*
X162885569Y-68590796D01*
X162924186Y-68707334D01*
X163016288Y-68856656D01*
X163140344Y-68980712D01*
X163143628Y-68982737D01*
X163143653Y-68982753D01*
X163145445Y-68984746D01*
X163146011Y-68985193D01*
X163145934Y-68985289D01*
X163190379Y-69034699D01*
X163201603Y-69103661D01*
X163173761Y-69167744D01*
X163143665Y-69193826D01*
X163140660Y-69195679D01*
X163140655Y-69195683D01*
X163016684Y-69319654D01*
X162924643Y-69468875D01*
X162924641Y-69468880D01*
X162869494Y-69635302D01*
X162869493Y-69635309D01*
X162859000Y-69738013D01*
X162859000Y-69875500D01*
X165308999Y-69875500D01*
X165308999Y-69738028D01*
X165308998Y-69738013D01*
X165298505Y-69635302D01*
X165243358Y-69468880D01*
X165243356Y-69468875D01*
X165151315Y-69319654D01*
X165027344Y-69195683D01*
X165027341Y-69195681D01*
X165024339Y-69193829D01*
X165022713Y-69192021D01*
X165021677Y-69191202D01*
X165021817Y-69191024D01*
X164977617Y-69141880D01*
X164966397Y-69072917D01*
X164994243Y-69008836D01*
X165024344Y-68982754D01*
X165027656Y-68980712D01*
X165151712Y-68856656D01*
X165243814Y-68707334D01*
X165298999Y-68540797D01*
X165309500Y-68438009D01*
X165309499Y-67662992D01*
X165301552Y-67585200D01*
X165298999Y-67560203D01*
X165298998Y-67560200D01*
X165276909Y-67493541D01*
X165243814Y-67393666D01*
X165151712Y-67244344D01*
X165027656Y-67120288D01*
X164887256Y-67033689D01*
X164878336Y-67028187D01*
X164878331Y-67028185D01*
X164876862Y-67027698D01*
X164711797Y-66973001D01*
X164711795Y-66973000D01*
X164609016Y-66962500D01*
X164609009Y-66962500D01*
X164085770Y-66962500D01*
X164018731Y-66942815D01*
X164016922Y-66941630D01*
X164002229Y-66931813D01*
X163952995Y-66898916D01*
X163952994Y-66898915D01*
X163952992Y-66898914D01*
X163816417Y-66842343D01*
X163816407Y-66842340D01*
X163671420Y-66813500D01*
X163671418Y-66813500D01*
X160472978Y-66813500D01*
X160405939Y-66793815D01*
X160394313Y-66785353D01*
X160324539Y-66728090D01*
X160324532Y-66728086D01*
X160150733Y-66635188D01*
X160150727Y-66635186D01*
X159962132Y-66577976D01*
X159962129Y-66577975D01*
X159766000Y-66558659D01*
X159569870Y-66577975D01*
X159381266Y-66635188D01*
X159207467Y-66728086D01*
X159207460Y-66728090D01*
X159055116Y-66853116D01*
X158930090Y-67005460D01*
X158930086Y-67005467D01*
X158837188Y-67179266D01*
X158779975Y-67367870D01*
X158767598Y-67493541D01*
X158741437Y-67558329D01*
X158684402Y-67598687D01*
X158614602Y-67601804D01*
X158579100Y-67586927D01*
X158443334Y-67503186D01*
X158276797Y-67448001D01*
X158276795Y-67448000D01*
X158174016Y-67437500D01*
X158174009Y-67437500D01*
X157846500Y-67437500D01*
X157779461Y-67417815D01*
X157733706Y-67365011D01*
X157722500Y-67313500D01*
X157722500Y-65482499D01*
X157742185Y-65415460D01*
X157794989Y-65369705D01*
X157846500Y-65358499D01*
X157869871Y-65358499D01*
X157869872Y-65358499D01*
X157929483Y-65352091D01*
X158064331Y-65301796D01*
X158179546Y-65215546D01*
X158265796Y-65100331D01*
X158314810Y-64968916D01*
X158356681Y-64912984D01*
X158422145Y-64888566D01*
X158490418Y-64903417D01*
X158518673Y-64924569D01*
X158640599Y-65046495D01*
X158732987Y-65111186D01*
X158834165Y-65182032D01*
X158834167Y-65182033D01*
X158834170Y-65182035D01*
X159048337Y-65281903D01*
X159276592Y-65343063D01*
X159453034Y-65358500D01*
X159511999Y-65363659D01*
X159512000Y-65363659D01*
X159512001Y-65363659D01*
X159570966Y-65358500D01*
X159747408Y-65343063D01*
X159975663Y-65281903D01*
X160189830Y-65182035D01*
X160383401Y-65046495D01*
X160550495Y-64879401D01*
X160680730Y-64693405D01*
X160735307Y-64649781D01*
X160804805Y-64642587D01*
X160867160Y-64674110D01*
X160883879Y-64693405D01*
X161013890Y-64879078D01*
X161180917Y-65046105D01*
X161374421Y-65181600D01*
X161588507Y-65281429D01*
X161588516Y-65281433D01*
X161802000Y-65338634D01*
X161802000Y-64441012D01*
X161859007Y-64473925D01*
X161986174Y-64508000D01*
X162117826Y-64508000D01*
X162244993Y-64473925D01*
X162302000Y-64441012D01*
X162302000Y-65338633D01*
X162515483Y-65281433D01*
X162515492Y-65281429D01*
X162729578Y-65181600D01*
X162923082Y-65046105D01*
X163090105Y-64879082D01*
X163225600Y-64685578D01*
X163325429Y-64471492D01*
X163325432Y-64471486D01*
X163382636Y-64258000D01*
X162485012Y-64258000D01*
X162517925Y-64200993D01*
X162552000Y-64073826D01*
X162552000Y-63942174D01*
X162517925Y-63815007D01*
X162485012Y-63758000D01*
X163382636Y-63758000D01*
X163382635Y-63757999D01*
X163325432Y-63544513D01*
X163325429Y-63544507D01*
X163225600Y-63330422D01*
X163225599Y-63330420D01*
X163090113Y-63136926D01*
X163090108Y-63136920D01*
X162923082Y-62969894D01*
X162729578Y-62834399D01*
X162515492Y-62734570D01*
X162515486Y-62734567D01*
X162302000Y-62677364D01*
X162302000Y-63574988D01*
X162244993Y-63542075D01*
X162117826Y-63508000D01*
X161986174Y-63508000D01*
X161859007Y-63542075D01*
X161802000Y-63574988D01*
X161802000Y-62677364D01*
X161801999Y-62677364D01*
X161588513Y-62734567D01*
X161588507Y-62734570D01*
X161374422Y-62834399D01*
X161374420Y-62834400D01*
X161180926Y-62969886D01*
X161180920Y-62969891D01*
X161013891Y-63136920D01*
X161013890Y-63136922D01*
X160883880Y-63322595D01*
X160829303Y-63366219D01*
X160759804Y-63373412D01*
X160697450Y-63341890D01*
X160680730Y-63322594D01*
X160550494Y-63136597D01*
X160383402Y-62969506D01*
X160383401Y-62969505D01*
X160250093Y-62876161D01*
X160190376Y-62834347D01*
X160146751Y-62779770D01*
X160137500Y-62732772D01*
X160137500Y-61778453D01*
X160157185Y-61711414D01*
X160173820Y-61690771D01*
X160214774Y-61649818D01*
X160276097Y-61616333D01*
X160302454Y-61613500D01*
X167250551Y-61613500D01*
X167317590Y-61633185D01*
X167363345Y-61685989D01*
X167368256Y-61698493D01*
X167371186Y-61707334D01*
X167463288Y-61856656D01*
X167587344Y-61980712D01*
X167736666Y-62072814D01*
X167903203Y-62127999D01*
X168005991Y-62138500D01*
X169306008Y-62138499D01*
X169408797Y-62127999D01*
X169575334Y-62072814D01*
X169724656Y-61980712D01*
X169848712Y-61856656D01*
X169940814Y-61707334D01*
X169995999Y-61540797D01*
X170006500Y-61438009D01*
X170006499Y-60537992D01*
X169995999Y-60435203D01*
X169940814Y-60268666D01*
X169848712Y-60119344D01*
X169724656Y-59995288D01*
X169575334Y-59903186D01*
X169408797Y-59848001D01*
X169408795Y-59848000D01*
X169306010Y-59837500D01*
X168005998Y-59837500D01*
X168005981Y-59837501D01*
X167903203Y-59848000D01*
X167903200Y-59848001D01*
X167736668Y-59903185D01*
X167736663Y-59903187D01*
X167587342Y-59995289D01*
X167463289Y-60119342D01*
X167371185Y-60268667D01*
X167368256Y-60277507D01*
X167328482Y-60334951D01*
X167263965Y-60361772D01*
X167250551Y-60362500D01*
X160233908Y-60362500D01*
X160208619Y-60358748D01*
X160208425Y-60359725D01*
X160081611Y-60334500D01*
X160081607Y-60334500D01*
X160081606Y-60334500D01*
X159958393Y-60334500D01*
X159958388Y-60334500D01*
X159837554Y-60358535D01*
X159837543Y-60358538D01*
X159827983Y-60362499D01*
X159827978Y-60362501D01*
X159723718Y-60405685D01*
X159723715Y-60405687D01*
X159723714Y-60405688D01*
X159681809Y-60433689D01*
X159621266Y-60474142D01*
X159621262Y-60474145D01*
X159113269Y-60982140D01*
X159026141Y-61069267D01*
X159016702Y-61083394D01*
X159010477Y-61092712D01*
X158989331Y-61124356D01*
X158957687Y-61171714D01*
X158957685Y-61171718D01*
X158924347Y-61252207D01*
X158918823Y-61265543D01*
X158910537Y-61285545D01*
X158910535Y-61285553D01*
X158886500Y-61406389D01*
X158886500Y-62732773D01*
X158866815Y-62799812D01*
X158833623Y-62834348D01*
X158640600Y-62969503D01*
X158518673Y-63091430D01*
X158457350Y-63124914D01*
X158387658Y-63119930D01*
X158331725Y-63078058D01*
X158314810Y-63047081D01*
X158265797Y-62915671D01*
X158265793Y-62915664D01*
X158179547Y-62800455D01*
X158179544Y-62800452D01*
X158064335Y-62714206D01*
X158064328Y-62714202D01*
X157929482Y-62663908D01*
X157929483Y-62663908D01*
X157869883Y-62657501D01*
X157869881Y-62657500D01*
X157869873Y-62657500D01*
X157869864Y-62657500D01*
X156074129Y-62657500D01*
X156074123Y-62657501D01*
X156014516Y-62663908D01*
X155879671Y-62714202D01*
X155879664Y-62714206D01*
X155764455Y-62800452D01*
X155764452Y-62800455D01*
X155678206Y-62915664D01*
X155678202Y-62915671D01*
X155627908Y-63050517D01*
X155621501Y-63110116D01*
X155621500Y-63110135D01*
X155621500Y-64905870D01*
X155621501Y-64905876D01*
X155627908Y-64965483D01*
X155678202Y-65100328D01*
X155678206Y-65100335D01*
X155764452Y-65215544D01*
X155764455Y-65215547D01*
X155879664Y-65301793D01*
X155879671Y-65301797D01*
X155924618Y-65318561D01*
X156014517Y-65352091D01*
X156074127Y-65358500D01*
X156097497Y-65358499D01*
X156164536Y-65378181D01*
X156210292Y-65430983D01*
X156221500Y-65482499D01*
X156221500Y-67313500D01*
X156201815Y-67380539D01*
X156149011Y-67426294D01*
X156097500Y-67437500D01*
X155073998Y-67437500D01*
X155073981Y-67437501D01*
X154971203Y-67448000D01*
X154971200Y-67448001D01*
X154804668Y-67503185D01*
X154804663Y-67503187D01*
X154655342Y-67595289D01*
X154531289Y-67719342D01*
X154439187Y-67868663D01*
X154439186Y-67868666D01*
X154384001Y-68035203D01*
X154384001Y-68035204D01*
X154384000Y-68035204D01*
X154373500Y-68137983D01*
X154373500Y-70038001D01*
X153474500Y-70038001D01*
X153474499Y-68137992D01*
X153463999Y-68035203D01*
X153408814Y-67868666D01*
X153316712Y-67719344D01*
X153192656Y-67595288D01*
X153043334Y-67503186D01*
X152876797Y-67448001D01*
X152876795Y-67448000D01*
X152774016Y-67437500D01*
X152774009Y-67437500D01*
X152098500Y-67437500D01*
X152031461Y-67417815D01*
X151985706Y-67365011D01*
X151974500Y-67313500D01*
X151974500Y-66613527D01*
X151989142Y-66555073D01*
X152058811Y-66424733D01*
X152058814Y-66424727D01*
X152116024Y-66236132D01*
X152135341Y-66040000D01*
X152116024Y-65843868D01*
X152058814Y-65655273D01*
X152058811Y-65655269D01*
X152058811Y-65655266D01*
X151965913Y-65481467D01*
X151965909Y-65481460D01*
X151840883Y-65329116D01*
X151688539Y-65204090D01*
X151688532Y-65204086D01*
X151514733Y-65111188D01*
X151514727Y-65111186D01*
X151326132Y-65053976D01*
X151326129Y-65053975D01*
X151130000Y-65034659D01*
X150933870Y-65053975D01*
X150745266Y-65111188D01*
X150571467Y-65204086D01*
X150571460Y-65204090D01*
X150419116Y-65329116D01*
X150294090Y-65481460D01*
X150294086Y-65481467D01*
X150201188Y-65655266D01*
X150143975Y-65843870D01*
X150124659Y-66040000D01*
X150143975Y-66236129D01*
X150201188Y-66424733D01*
X150294086Y-66598532D01*
X150294090Y-66598539D01*
X150419115Y-66750882D01*
X150428160Y-66758304D01*
X150467497Y-66816048D01*
X150473500Y-66854161D01*
X150473500Y-67313500D01*
X150453815Y-67380539D01*
X150401011Y-67426294D01*
X150349500Y-67437500D01*
X149673998Y-67437500D01*
X149673980Y-67437501D01*
X149571203Y-67448000D01*
X149571200Y-67448001D01*
X149404668Y-67503185D01*
X149404663Y-67503187D01*
X149255342Y-67595289D01*
X149131289Y-67719342D01*
X149039187Y-67868663D01*
X149039186Y-67868666D01*
X148984001Y-68035203D01*
X148984001Y-68035204D01*
X148984000Y-68035204D01*
X148973500Y-68137983D01*
X148973500Y-70038001D01*
X146000500Y-70038001D01*
X146000500Y-61335288D01*
X146993500Y-61335288D01*
X147025161Y-61575785D01*
X147087947Y-61810104D01*
X147180773Y-62034205D01*
X147180776Y-62034212D01*
X147302064Y-62244289D01*
X147302066Y-62244292D01*
X147302067Y-62244293D01*
X147449733Y-62436736D01*
X147449739Y-62436743D01*
X147621256Y-62608260D01*
X147621263Y-62608266D01*
X147693779Y-62663909D01*
X147813711Y-62755936D01*
X148023788Y-62877224D01*
X148219269Y-62958195D01*
X148246574Y-62969505D01*
X148247900Y-62970054D01*
X148482211Y-63032838D01*
X148616499Y-63050517D01*
X148722711Y-63064500D01*
X148722712Y-63064500D01*
X148965289Y-63064500D01*
X149013388Y-63058167D01*
X149205789Y-63032838D01*
X149440100Y-62970054D01*
X149664212Y-62877224D01*
X149874289Y-62755936D01*
X150066738Y-62608265D01*
X150238265Y-62436738D01*
X150385936Y-62244289D01*
X150507224Y-62034212D01*
X150600054Y-61810100D01*
X150662838Y-61575789D01*
X150694500Y-61335288D01*
X150694500Y-61092712D01*
X150691413Y-61069267D01*
X150662838Y-60852214D01*
X150662838Y-60852211D01*
X150600054Y-60617900D01*
X150507224Y-60393788D01*
X150385936Y-60183711D01*
X150238265Y-59991262D01*
X150238260Y-59991256D01*
X150066743Y-59819739D01*
X150066736Y-59819733D01*
X149874293Y-59672067D01*
X149874292Y-59672066D01*
X149874289Y-59672064D01*
X149664212Y-59550776D01*
X149664205Y-59550773D01*
X149440104Y-59457947D01*
X149205785Y-59395161D01*
X148965289Y-59363500D01*
X148965288Y-59363500D01*
X148722712Y-59363500D01*
X148722711Y-59363500D01*
X148482214Y-59395161D01*
X148247895Y-59457947D01*
X148023794Y-59550773D01*
X148023785Y-59550777D01*
X147813706Y-59672067D01*
X147621263Y-59819733D01*
X147621256Y-59819739D01*
X147449739Y-59991256D01*
X147449733Y-59991263D01*
X147302067Y-60183706D01*
X147180777Y-60393785D01*
X147180773Y-60393794D01*
X147087947Y-60617895D01*
X147025161Y-60852214D01*
X146993500Y-61092711D01*
X146993500Y-61335288D01*
X146000500Y-61335288D01*
X146000500Y-58624500D01*
X146020185Y-58557461D01*
X146072989Y-58511706D01*
X146124500Y-58500500D01*
X172875500Y-58500500D01*
X172942539Y-58520185D01*
G37*
%TD.AperFunction*%
%TD*%
M02*
