%TF.GenerationSoftware,KiCad,Pcbnew,8.0.1*%
%TF.CreationDate,2024-11-01T11:19:19+01:00*%
%TF.ProjectId,Liquid-Sensor-Zisterne,4c697175-6964-42d5-9365-6e736f722d5a,rev?*%
%TF.SameCoordinates,Original*%
%TF.FileFunction,Soldermask,Top*%
%TF.FilePolarity,Negative*%
%FSLAX46Y46*%
G04 Gerber Fmt 4.6, Leading zero omitted, Abs format (unit mm)*
G04 Created by KiCad (PCBNEW 8.0.1) date 2024-11-01 11:19:19*
%MOMM*%
%LPD*%
G01*
G04 APERTURE LIST*
G04 Aperture macros list*
%AMRoundRect*
0 Rectangle with rounded corners*
0 $1 Rounding radius*
0 $2 $3 $4 $5 $6 $7 $8 $9 X,Y pos of 4 corners*
0 Add a 4 corners polygon primitive as box body*
4,1,4,$2,$3,$4,$5,$6,$7,$8,$9,$2,$3,0*
0 Add four circle primitives for the rounded corners*
1,1,$1+$1,$2,$3*
1,1,$1+$1,$4,$5*
1,1,$1+$1,$6,$7*
1,1,$1+$1,$8,$9*
0 Add four rect primitives between the rounded corners*
20,1,$1+$1,$2,$3,$4,$5,0*
20,1,$1+$1,$4,$5,$6,$7,0*
20,1,$1+$1,$6,$7,$8,$9,0*
20,1,$1+$1,$8,$9,$2,$3,0*%
G04 Aperture macros list end*
%ADD10RoundRect,0.250000X-0.350000X-0.450000X0.350000X-0.450000X0.350000X0.450000X-0.350000X0.450000X0*%
%ADD11RoundRect,0.250000X-0.600000X0.400000X-0.600000X-0.400000X0.600000X-0.400000X0.600000X0.400000X0*%
%ADD12C,2.800000*%
%ADD13RoundRect,0.250000X0.475000X-0.337500X0.475000X0.337500X-0.475000X0.337500X-0.475000X-0.337500X0*%
%ADD14RoundRect,0.250000X-1.500000X-0.900000X1.500000X-0.900000X1.500000X0.900000X-1.500000X0.900000X0*%
%ADD15R,1.700000X1.700000*%
%ADD16O,1.700000X1.700000*%
%ADD17RoundRect,0.250000X0.450000X-0.350000X0.450000X0.350000X-0.450000X0.350000X-0.450000X-0.350000X0*%
%ADD18RoundRect,0.250000X-0.450000X0.350000X-0.450000X-0.350000X0.450000X-0.350000X0.450000X0.350000X0*%
%ADD19C,3.200000*%
%ADD20R,1.800000X1.800000*%
%ADD21C,1.800000*%
%ADD22RoundRect,0.150000X0.825000X0.150000X-0.825000X0.150000X-0.825000X-0.150000X0.825000X-0.150000X0*%
%ADD23RoundRect,0.250000X-0.475000X0.337500X-0.475000X-0.337500X0.475000X-0.337500X0.475000X0.337500X0*%
%ADD24C,1.600000*%
%ADD25RoundRect,0.150000X-0.725000X-0.150000X0.725000X-0.150000X0.725000X0.150000X-0.725000X0.150000X0*%
G04 APERTURE END LIST*
D10*
%TO.C,R4*%
X166894000Y-86360000D03*
X168894000Y-86360000D03*
%TD*%
D11*
%TO.C,D3*%
X168656000Y-60988000D03*
X168656000Y-64488000D03*
%TD*%
D12*
%TO.C,J3*%
X164592000Y-92710000D03*
%TD*%
D13*
%TO.C,C3*%
X164084000Y-70125500D03*
X164084000Y-68050500D03*
%TD*%
D14*
%TO.C,D1*%
X151224000Y-69088000D03*
X156624000Y-69088000D03*
%TD*%
D15*
%TO.C,J1*%
X156972000Y-64008000D03*
D16*
X159512000Y-64008000D03*
X162052000Y-64008000D03*
%TD*%
D17*
%TO.C,R1*%
X155448000Y-75930000D03*
X155448000Y-73930000D03*
%TD*%
D18*
%TO.C,R2*%
X158242000Y-73930000D03*
X158242000Y-75930000D03*
%TD*%
D19*
%TO.C,H2*%
X148844000Y-92202000D03*
%TD*%
D12*
%TO.C,J2*%
X154432000Y-92710000D03*
%TD*%
D20*
%TO.C,D2*%
X158237000Y-85852000D03*
D21*
X160777000Y-85852000D03*
%TD*%
D22*
%TO.C,U2*%
X168845000Y-83058000D03*
X168845000Y-81788000D03*
X168845000Y-80518000D03*
X168845000Y-79248000D03*
X168845000Y-77978000D03*
X168845000Y-76708000D03*
X168845000Y-75438000D03*
X168845000Y-74168000D03*
X163895000Y-74168000D03*
X163895000Y-75438000D03*
X163895000Y-76708000D03*
X163895000Y-77978000D03*
X163895000Y-79248000D03*
X163895000Y-80518000D03*
X163895000Y-81788000D03*
X163895000Y-83058000D03*
%TD*%
D19*
%TO.C,H3*%
X170180000Y-92202000D03*
%TD*%
D23*
%TO.C,C1*%
X150368000Y-73892500D03*
X150368000Y-75967500D03*
%TD*%
D24*
%TO.C,C2*%
X150388000Y-85852000D03*
X152888000Y-85852000D03*
%TD*%
D18*
%TO.C,R3*%
X168656000Y-68088000D03*
X168656000Y-70088000D03*
%TD*%
D19*
%TO.C,H1*%
X148844000Y-61214000D03*
%TD*%
D25*
%TO.C,U1*%
X150333000Y-78359000D03*
X150333000Y-79629000D03*
X150333000Y-80899000D03*
X150333000Y-82169000D03*
X155483000Y-82169000D03*
X155483000Y-80899000D03*
X155483000Y-79629000D03*
X155483000Y-78359000D03*
%TD*%
M02*
